G04 DesignSpark PCB PRO Gerber Version 10.0 Build 5299*
G04 #@! TF.Part,Single*
G04 #@! TF.FileFunction,Copper,L2,Bot*
G04 #@! TF.FilePolarity,Positive*
%FSLAX35Y35*%
%MOIN*%
G04 #@! TA.AperFunction,ComponentPad*
%ADD88O,0.05512X0.07087*%
G04 #@! TA.AperFunction,SMDPad,CuDef*
%ADD86R,0.06693X0.35433*%
G04 #@! TD.AperFunction*
%ADD13C,0.00500*%
%ADD12C,0.00602*%
%ADD83C,0.01000*%
G04 #@! TA.AperFunction,ViaPad*
%ADD17C,0.02677*%
%ADD14C,0.03200*%
G04 #@! TA.AperFunction,ComponentPad*
%ADD90C,0.04724*%
G04 #@! TA.AperFunction,ViaPad*
%ADD84C,0.04800*%
G04 #@! TD.AperFunction*
%ADD82C,0.05000*%
G04 #@! TA.AperFunction,ComponentPad*
%ADD89C,0.06000*%
G04 #@! TD.AperFunction*
X0Y0D02*
D02*
D12*
X155250Y98954D02*
X157376Y102637D01*
X153124D01*
X155250Y98954D01*
G36*
X155250Y98954D02*
X157376Y102637D01*
X153124D01*
X155250Y98954D01*
G37*
X160250Y110902D02*
X309000D01*
X162325D02*
X160769Y110003D01*
G75*
G03*
Y111800I-519J898D01*
G01*
X162325Y110902D01*
G36*
X162325Y110902D02*
X160769Y110003D01*
G75*
G03*
Y111800I-519J898D01*
G01*
X162325Y110902D01*
G37*
X164825Y97152D02*
X163269Y96253D01*
G75*
G03*
Y98050I-519J898D01*
G01*
X164825Y97152D01*
G36*
X164825Y97152D02*
X163269Y96253D01*
G75*
G03*
Y98050I-519J898D01*
G01*
X164825Y97152D01*
G37*
X166485Y54607D02*
X163439Y49333D01*
X169530D01*
X166485Y54607D01*
G36*
X166485Y54607D02*
X163439Y49333D01*
X169530D01*
X166485Y54607D01*
G37*
X167750Y62577D02*
X166852Y64133D01*
G75*
G03*
X168648I898J519D01*
G01*
X167750Y62577D01*
G36*
X167750Y62577D02*
X166852Y64133D01*
G75*
G03*
X168648I898J519D01*
G01*
X167750Y62577D01*
G37*
Y64652D02*
Y60902D01*
X166485Y59636D01*
Y31616D01*
X169825Y94652D02*
X168269Y93753D01*
G75*
G03*
Y95550I-519J898D01*
G01*
X169825Y94652D01*
G36*
X169825Y94652D02*
X168269Y93753D01*
G75*
G03*
Y95550I-519J898D01*
G01*
X169825Y94652D01*
G37*
X175250Y67577D02*
X174352Y69133D01*
G75*
G03*
X176148I898J519D01*
G01*
X175250Y67577D01*
G36*
X175250Y67577D02*
X174352Y69133D01*
G75*
G03*
X176148I898J519D01*
G01*
X175250Y67577D01*
G37*
X176485Y31616D02*
Y59652D01*
X175250Y60886D01*
Y69652D01*
X176485Y54607D02*
X173439Y49333D01*
X179530D01*
X176485Y54607D01*
G36*
X176485Y54607D02*
X173439Y49333D01*
X179530D01*
X176485Y54607D01*
G37*
X176925Y92152D02*
X178481Y93050D01*
G75*
G03*
Y91253I519J-898D01*
G01*
X176925Y92152D01*
G36*
X176925Y92152D02*
X178481Y93050D01*
G75*
G03*
Y91253I519J-898D01*
G01*
X176925Y92152D01*
G37*
X179000D02*
X160250D01*
X155250Y97152D01*
Y104652D01*
X185250Y98954D02*
X187376Y102637D01*
X183124D01*
X185250Y98954D01*
G36*
X185250Y98954D02*
X187376Y102637D01*
X183124D01*
X185250Y98954D01*
G37*
Y104652D02*
Y98402D01*
X184000Y97152D01*
X162750D01*
X186485Y54607D02*
X183439Y49333D01*
X189530D01*
X186485Y54607D01*
G36*
X186485Y54607D02*
X183439Y49333D01*
X189530D01*
X186485Y54607D01*
G37*
X186500Y62577D02*
X185602Y64133D01*
G75*
G03*
X187398I898J519D01*
G01*
X186500Y62577D01*
G36*
X186500Y62577D02*
X185602Y64133D01*
G75*
G03*
X187398I898J519D01*
G01*
X186500Y62577D01*
G37*
Y64652D02*
Y60917D01*
X186485Y60902D01*
Y31616D01*
X192967Y63185D02*
X191231Y63650D01*
G75*
G03*
X192502Y64920I269J1002D01*
G01*
X192967Y63185D01*
G36*
X192967Y63185D02*
X191231Y63650D01*
G75*
G03*
X192502Y64920I269J1002D01*
G01*
X192967Y63185D01*
G37*
X195250Y98954D02*
X197376Y102637D01*
X193124D01*
X195250Y98954D01*
G36*
X195250Y98954D02*
X197376Y102637D01*
X193124D01*
X195250Y98954D01*
G37*
Y104652D02*
Y98402D01*
X191500Y94652D01*
X167750D01*
X196485Y31616D02*
Y59667D01*
X191500Y64652D01*
X196485Y54607D02*
X193439Y49333D01*
X199530D01*
X196485Y54607D01*
G36*
X196485Y54607D02*
X193439Y49333D01*
X199530D01*
X196485Y54607D01*
G37*
X200250Y97152D02*
X209000Y88402D01*
X226485D01*
X200250Y169652D02*
X231500D01*
X201717Y95685D02*
X199981Y96150D01*
G75*
G03*
X201252Y97420I269J1002D01*
G01*
X201717Y95685D01*
G36*
X201717Y95685D02*
X199981Y96150D01*
G75*
G03*
X201252Y97420I269J1002D01*
G01*
X201717Y95685D01*
G37*
X202325Y169652D02*
X200769Y168753D01*
G75*
G03*
Y170550I-519J898D01*
G01*
X202325Y169652D01*
G36*
X202325Y169652D02*
X200769Y168753D01*
G75*
G03*
Y170550I-519J898D01*
G01*
X202325Y169652D01*
G37*
X205250Y98954D02*
X207376Y102637D01*
X203124D01*
X205250Y98954D01*
G36*
X205250Y98954D02*
X207376Y102637D01*
X203124D01*
X205250Y98954D01*
G37*
Y104652D02*
Y98402D01*
X212750Y90902D01*
X261500D01*
X206485Y31616D02*
Y64636D01*
X210250Y68402D01*
X229000D01*
X231500Y70902D01*
X206485Y54607D02*
X203439Y49333D01*
X209530D01*
X206485Y54607D01*
G36*
X206485Y54607D02*
X203439Y49333D01*
X209530D01*
X206485Y54607D01*
G37*
X207967Y73619D02*
X207502Y71883D01*
G75*
G03*
X206231Y73154I-1002J269D01*
G01*
X207967Y73619D01*
G36*
X207967Y73619D02*
X207502Y71883D01*
G75*
G03*
X206231Y73154I-1002J269D01*
G01*
X207967Y73619D01*
G37*
X209010Y175892D02*
X207621Y181074D01*
X204615Y176493D01*
X209010Y175892D01*
G36*
X209010Y175892D02*
X207621Y181074D01*
X204615Y176493D01*
X209010Y175892D01*
G37*
X214825Y64652D02*
X213269Y63753D01*
G75*
G03*
Y65550I-519J898D01*
G01*
X214825Y64652D01*
G36*
X214825Y64652D02*
X213269Y63753D01*
G75*
G03*
Y65550I-519J898D01*
G01*
X214825Y64652D01*
G37*
X215250Y98954D02*
X217376Y102637D01*
X213124D01*
X215250Y98954D01*
G36*
X215250Y98954D02*
X217376Y102637D01*
X213124D01*
X215250Y98954D01*
G37*
Y104652D02*
Y98402D01*
X220250Y93402D01*
X239000D01*
X215250Y179652D02*
Y185902D01*
X217750Y188402D01*
X261500D01*
X215250Y185348D02*
X213124Y181666D01*
X217376D01*
X215250Y185348D01*
G36*
X215250Y185348D02*
X213124Y181666D01*
X217376D01*
X215250Y185348D01*
G37*
X216485Y31616D02*
Y54636D01*
X221500Y59652D01*
X216485Y54607D02*
X213439Y49333D01*
X219530D01*
X216485Y54607D01*
G36*
X216485Y54607D02*
X213439Y49333D01*
X219530D01*
X216485Y54607D01*
G37*
X220033Y58185D02*
X220498Y59920D01*
G75*
G03*
X221769Y58650I1002J-269D01*
G01*
X220033Y58185D01*
G36*
X220033Y58185D02*
X220498Y59920D01*
G75*
G03*
X221769Y58650I1002J-269D01*
G01*
X220033Y58185D01*
G37*
X221500Y229652D02*
X281500D01*
X285250Y233402D01*
Y239652D01*
X221925Y74652D02*
X223481Y75550D01*
G75*
G03*
Y73753I519J-898D01*
G01*
X221925Y74652D01*
G36*
X221925Y74652D02*
X223481Y75550D01*
G75*
G03*
Y73753I519J-898D01*
G01*
X221925Y74652D01*
G37*
X223575Y229652D02*
X222019Y228753D01*
G75*
G03*
Y230550I-519J898D01*
G01*
X223575Y229652D01*
G36*
X223575Y229652D02*
X222019Y228753D01*
G75*
G03*
Y230550I-519J898D01*
G01*
X223575Y229652D01*
G37*
X224000Y74652D02*
X209000D01*
X206500Y72152D01*
X224410Y88402D02*
X225966Y89300D01*
G75*
G03*
Y87503I519J-898D01*
G01*
X224410Y88402D01*
G36*
X224410Y88402D02*
X225966Y89300D01*
G75*
G03*
Y87503I519J-898D01*
G01*
X224410Y88402D01*
G37*
X226485Y31616D02*
Y60917D01*
X222750Y64652D01*
X212750D01*
X226485Y54607D02*
X223439Y49333D01*
X229530D01*
X226485Y54607D01*
G36*
X226485Y54607D02*
X223439Y49333D01*
X229530D01*
X226485Y54607D01*
G37*
X229425Y169652D02*
X230981Y170550D01*
G75*
G03*
Y168753I519J-898D01*
G01*
X229425Y169652D01*
G36*
X229425Y169652D02*
X230981Y170550D01*
G75*
G03*
Y168753I519J-898D01*
G01*
X229425Y169652D01*
G37*
X230033Y69435D02*
X230498Y71170D01*
G75*
G03*
X231769Y69900I1002J-269D01*
G01*
X230033Y69435D01*
G36*
X230033Y69435D02*
X230498Y71170D01*
G75*
G03*
X231769Y69900I1002J-269D01*
G01*
X230033Y69435D01*
G37*
X231075Y95902D02*
X229519Y95003D01*
G75*
G03*
Y96800I-519J898D01*
G01*
X231075Y95902D01*
G36*
X231075Y95902D02*
X229519Y95003D01*
G75*
G03*
Y96800I-519J898D01*
G01*
X231075Y95902D01*
G37*
X235250Y62577D02*
X234352Y64133D01*
G75*
G03*
X236148I898J519D01*
G01*
X235250Y62577D01*
G36*
X235250Y62577D02*
X234352Y64133D01*
G75*
G03*
X236148I898J519D01*
G01*
X235250Y62577D01*
G37*
X236485Y31616D02*
Y57152D01*
X235250Y58386D01*
Y64652D01*
X236485Y54607D02*
X233439Y49333D01*
X239530D01*
X236485Y54607D01*
G36*
X236485Y54607D02*
X233439Y49333D01*
X239530D01*
X236485Y54607D01*
G37*
X236925Y93402D02*
X238481Y94300D01*
G75*
G03*
Y92503I519J-898D01*
G01*
X236925Y93402D01*
G36*
X236925Y93402D02*
X238481Y94300D01*
G75*
G03*
Y92503I519J-898D01*
G01*
X236925Y93402D01*
G37*
X240467Y60685D02*
X238731Y61150D01*
G75*
G03*
X240002Y62420I269J1002D01*
G01*
X240467Y60685D01*
G36*
X240467Y60685D02*
X238731Y61150D01*
G75*
G03*
X240002Y62420I269J1002D01*
G01*
X240467Y60685D01*
G37*
X246485Y31616D02*
Y54667D01*
X239000Y62152D01*
X246485Y54607D02*
X243439Y49333D01*
X249530D01*
X246485Y54607D01*
G36*
X246485Y54607D02*
X243439Y49333D01*
X249530D01*
X246485Y54607D01*
G37*
X247325Y95902D02*
X245769Y95003D01*
G75*
G03*
Y96800I-519J898D01*
G01*
X247325Y95902D01*
G36*
X247325Y95902D02*
X245769Y95003D01*
G75*
G03*
Y96800I-519J898D01*
G01*
X247325Y95902D01*
G37*
X256485Y31616D02*
Y64636D01*
X256500Y64652D01*
X256485Y54607D02*
X253439Y49333D01*
X259530D01*
X256485Y54607D01*
G36*
X256485Y54607D02*
X253439Y49333D01*
X259530D01*
X256485Y54607D01*
G37*
Y62577D02*
X255598Y64140D01*
G75*
G03*
X257394Y64126I902J512D01*
G01*
X256485Y62577D01*
G36*
X256485Y62577D02*
X255598Y64140D01*
G75*
G03*
X257394Y64126I902J512D01*
G01*
X256485Y62577D01*
G37*
X259425Y90902D02*
X260981Y91800D01*
G75*
G03*
Y90003I519J-898D01*
G01*
X259425Y90902D01*
G36*
X259425Y90902D02*
X260981Y91800D01*
G75*
G03*
Y90003I519J-898D01*
G01*
X259425Y90902D01*
G37*
Y188402D02*
X260981Y189300D01*
G75*
G03*
Y187503I519J-898D01*
G01*
X259425Y188402D01*
G36*
X259425Y188402D02*
X260981Y189300D01*
G75*
G03*
Y187503I519J-898D01*
G01*
X259425Y188402D01*
G37*
X261500Y64652D02*
X266485Y59667D01*
Y31616D01*
X262967Y63185D02*
X261231Y63650D01*
G75*
G03*
X262502Y64920I269J1002D01*
G01*
X262967Y63185D01*
G36*
X262967Y63185D02*
X261231Y63650D01*
G75*
G03*
X262502Y64920I269J1002D01*
G01*
X262967Y63185D01*
G37*
X263175Y93402D02*
X264731Y94300D01*
G75*
G03*
Y92503I519J-898D01*
G01*
X263175Y93402D01*
G36*
X263175Y93402D02*
X264731Y94300D01*
G75*
G03*
Y92503I519J-898D01*
G01*
X263175Y93402D01*
G37*
X265250D02*
X244000D01*
X241500Y95902D01*
X229000D01*
X266485Y54607D02*
X263439Y49333D01*
X269530D01*
X266485Y54607D01*
G36*
X266485Y54607D02*
X263439Y49333D01*
X269530D01*
X266485Y54607D01*
G37*
X266925Y95902D02*
X268481Y96800D01*
G75*
G03*
Y95003I519J-898D01*
G01*
X266925Y95902D01*
G36*
X266925Y95902D02*
X268481Y96800D01*
G75*
G03*
Y95003I519J-898D01*
G01*
X266925Y95902D01*
G37*
X269000D02*
X245250D01*
X274217Y63185D02*
X272481Y63650D01*
G75*
G03*
X273752Y64920I269J1002D01*
G01*
X274217Y63185D01*
G36*
X274217Y63185D02*
X272481Y63650D01*
G75*
G03*
X273752Y64920I269J1002D01*
G01*
X274217Y63185D01*
G37*
X275250Y164652D02*
X280250Y169652D01*
X290250D01*
X276485Y31616D02*
Y60917D01*
X272750Y64652D01*
X276485Y54607D02*
X273439Y49333D01*
X279530D01*
X276485Y54607D01*
G36*
X276485Y54607D02*
X273439Y49333D01*
X279530D01*
X276485Y54607D01*
G37*
X279010Y168411D02*
X274615Y167810D01*
X277621Y163229D01*
X279010Y168411D01*
G36*
X279010Y168411D02*
X274615Y167810D01*
X277621Y163229D01*
X279010Y168411D01*
G37*
X285250Y233954D02*
X287376Y237637D01*
X283124D01*
X285250Y233954D01*
G36*
X285250Y233954D02*
X287376Y237637D01*
X283124D01*
X285250Y233954D01*
G37*
X286485Y54607D02*
X283439Y49333D01*
X289530D01*
X286485Y54607D01*
G36*
X286485Y54607D02*
X283439Y49333D01*
X289530D01*
X286485Y54607D01*
G37*
X288175Y169652D02*
X289731Y170550D01*
G75*
G03*
Y168753I519J-898D01*
G01*
X288175Y169652D01*
G36*
X288175Y169652D02*
X289731Y170550D01*
G75*
G03*
Y168753I519J-898D01*
G01*
X288175Y169652D01*
G37*
X293175Y172152D02*
X294731Y173050D01*
G75*
G03*
Y171253I519J-898D01*
G01*
X293175Y172152D01*
G36*
X293175Y172152D02*
X294731Y173050D01*
G75*
G03*
Y171253I519J-898D01*
G01*
X293175Y172152D01*
G37*
X294217Y59435D02*
X292481Y59900D01*
G75*
G03*
X293752Y61170I269J1002D01*
G01*
X294217Y59435D01*
G36*
X294217Y59435D02*
X292481Y59900D01*
G75*
G03*
X293752Y61170I269J1002D01*
G01*
X294217Y59435D01*
G37*
X295250Y172152D02*
X371500D01*
X295250D02*
X212750D01*
X205250Y179652D01*
X296485Y31616D02*
Y57167D01*
X292750Y60902D01*
X296485Y54607D02*
X293439Y49333D01*
X299530D01*
X296485Y54607D01*
G36*
X296485Y54607D02*
X293439Y49333D01*
X299530D01*
X296485Y54607D01*
G37*
X297325Y172152D02*
X295769Y171253D01*
G75*
G03*
Y173050I-519J898D01*
G01*
X297325Y172152D01*
G36*
X297325Y172152D02*
X295769Y171253D01*
G75*
G03*
Y173050I-519J898D01*
G01*
X297325Y172152D01*
G37*
X306925Y110902D02*
X308481Y111800D01*
G75*
G03*
Y110003I519J-898D01*
G01*
X306925Y110902D01*
G36*
X306925Y110902D02*
X308481Y111800D01*
G75*
G03*
Y110003I519J-898D01*
G01*
X306925Y110902D01*
G37*
X313175Y174652D02*
X314731Y175550D01*
G75*
G03*
Y173753I519J-898D01*
G01*
X313175Y174652D01*
G36*
X313175Y174652D02*
X314731Y175550D01*
G75*
G03*
Y173753I519J-898D01*
G01*
X313175Y174652D01*
G37*
X315250D02*
X231500D01*
X226500Y179652D01*
X225250D01*
X317325Y174652D02*
X315769Y173753D01*
G75*
G03*
Y175550I-519J898D01*
G01*
X317325Y174652D01*
G36*
X317325Y174652D02*
X315769Y173753D01*
G75*
G03*
Y175550I-519J898D01*
G01*
X317325Y174652D01*
G37*
X323175Y64652D02*
X324731Y65550D01*
G75*
G03*
Y63753I519J-898D01*
G01*
X323175Y64652D01*
G36*
X323175Y64652D02*
X324731Y65550D01*
G75*
G03*
Y63753I519J-898D01*
G01*
X323175Y64652D01*
G37*
X325250D02*
X291500D01*
X286485Y59636D01*
Y31616D01*
X331433Y175835D02*
X332643Y180350D01*
G75*
G03*
X335949Y177045I2607J-698D01*
G01*
X331433Y175835D01*
G36*
X331433Y175835D02*
X332643Y180350D01*
G75*
G03*
X335949Y177045I2607J-698D01*
G01*
X331433Y175835D01*
G37*
X335250Y179652D02*
X330250Y174652D01*
X315250D01*
X389878Y238087D02*
X392970Y239872D01*
G75*
G03*
Y236302I1031J-1785D01*
G01*
X389878Y238087D01*
G36*
X389878Y238087D02*
X392970Y239872D01*
G75*
G03*
Y236302I1031J-1785D01*
G01*
X389878Y238087D01*
G37*
X398122D02*
X395030Y236302D01*
G75*
G03*
Y239872I-1031J1785D01*
G01*
X398122Y238087D01*
G36*
X398122Y238087D02*
X395030Y236302D01*
G75*
G03*
Y239872I-1031J1785D01*
G01*
X398122Y238087D01*
G37*
X402870D02*
X405962Y239872D01*
G75*
G03*
Y236302I1031J-1785D01*
G01*
X402870Y238087D01*
G36*
X402870Y238087D02*
X405962Y239872D01*
G75*
G03*
Y236302I1031J-1785D01*
G01*
X402870Y238087D01*
G37*
D02*
D13*
X17719Y227152D02*
Y113457D01*
G75*
G03*
X21500Y109675I3781J0D01*
G01*
X57750D01*
G75*
G02*
X65219Y102207I0J-7469D01*
G01*
Y62207D01*
G75*
G03*
X67750Y59675I2531J0D01*
G01*
X107666D01*
G75*
G02*
X110134Y57207I0J-2469D01*
G01*
Y50902D01*
X112983D01*
X115132Y54625D01*
Y65885D01*
G75*
G02*
Y65902I1398J9D01*
G01*
G75*
G02*
X115148Y66106I1352J1D01*
G01*
Y71591D01*
X85940Y100799D01*
X75250D01*
G75*
G02*
X74293Y101196I0J1352D01*
G01*
X59295Y116194D01*
G75*
G02*
X58898Y117152I955J957D01*
G01*
Y121789D01*
X56929Y125199D01*
G75*
G02*
X56398Y127151I3322J1952D01*
G01*
Y127152D01*
G75*
G02*
X64102I3852J0D01*
G01*
Y127151D01*
G75*
G02*
X63571Y125199I-3853J0D01*
G01*
X61602Y121789D01*
Y117712D01*
X75810Y103504D01*
X86500D01*
G75*
G02*
X87457Y103107I0J-1352D01*
G01*
X117455Y73109D01*
G75*
G02*
X117852Y72152I-955J-957D01*
G01*
Y65934D01*
G75*
G02*
Y65917I-1398J-8D01*
G01*
G75*
G02*
X117837Y65713I-1352J-1D01*
G01*
Y54625D01*
X119987Y50902D01*
X122676D01*
G75*
G02*
X122735Y51009I2962J-1574D01*
G01*
X123132Y51697D01*
Y52710D01*
X120720Y55122D01*
G75*
G02*
X120397Y55902I780J780D01*
G01*
Y55902D01*
G75*
G02*
Y55904I364J1D01*
G01*
Y83167D01*
G75*
G02*
X120537Y83704I1103J0D01*
G01*
G75*
G02*
Y100789I5396J8543D01*
G01*
G75*
G02*
X120397Y101326I963J537D01*
G01*
Y107149D01*
G75*
G02*
Y107151I367J1D01*
G01*
Y107152D01*
G75*
G02*
X120720Y107931I1103J0D01*
G01*
X136088Y123299D01*
X122060D01*
X111207Y112446D01*
G75*
G02*
X110250Y112049I-957J955D01*
G01*
X72750D01*
G75*
G02*
X71793Y112446I0J1352D01*
G01*
X65545Y118694D01*
G75*
G02*
X65148Y119652I955J957D01*
G01*
Y159652D01*
G75*
G02*
X65545Y160609I1352J0D01*
G01*
X78043Y173107D01*
G75*
G02*
X79000Y173504I957J-955D01*
G01*
X89011D01*
G75*
G02*
X86398Y177152I1239J3648D01*
G01*
Y177152D01*
G75*
G02*
X86929Y179104I3853J0D01*
G01*
X88689Y182152D01*
X86929Y185199D01*
G75*
G02*
X86398Y187151I3322J1952D01*
G01*
Y187152D01*
G75*
G02*
X94102I3852J0D01*
G01*
Y187151D01*
G75*
G02*
X93571Y185199I-3853J0D01*
G01*
X91811Y182152D01*
X93571Y179104D01*
G75*
G02*
X94102Y177152I-3322J-1952D01*
G01*
Y177152D01*
G75*
G02*
X91489Y173504I-3852J0D01*
G01*
X109011D01*
G75*
G02*
X106398Y177152I1239J3648D01*
G01*
Y177152D01*
G75*
G02*
X106929Y179104I3853J0D01*
G01*
X108689Y182152D01*
X106929Y185199D01*
G75*
G02*
X106398Y187151I3322J1952D01*
G01*
Y187152D01*
G75*
G02*
X114102I3852J0D01*
G01*
Y187151D01*
G75*
G02*
X113571Y185199I-3853J0D01*
G01*
X111811Y182152D01*
X113571Y179104D01*
G75*
G02*
X114102Y177152I-3322J-1952D01*
G01*
Y177152D01*
G75*
G02*
X111489Y173504I-3852J0D01*
G01*
X135250D01*
G75*
G02*
X136207Y173107I0J-1352D01*
G01*
X137415Y171900D01*
X141202Y170884D01*
G75*
G02*
X143898Y168391I-952J-3733D01*
G01*
Y185912D01*
G75*
G02*
X138298Y183830I-3648J1239D01*
G01*
X134888Y185799D01*
X129790D01*
X128846Y185254D01*
G75*
G02*
X128806Y185232I-680J1167D01*
G01*
G75*
G02*
X125559Y187152I-1056J1920D01*
G01*
G75*
G02*
X128806Y189071I2191J0D01*
G01*
G75*
G02*
X128846Y189049I-640J-1189D01*
G01*
X129790Y188504D01*
X134888D01*
X138298Y190473D01*
G75*
G02*
X143898Y188391I1952J-3321D01*
G01*
Y205913D01*
G75*
G02*
X136398Y207152I-3648J1239D01*
G01*
G75*
G02*
X143898Y208391I3852J0D01*
G01*
Y211591D01*
X139295Y216194D01*
G75*
G02*
X138898Y217152I955J957D01*
G01*
Y221789D01*
X136929Y225199D01*
G75*
G02*
X136398Y227151I3322J1952D01*
G01*
Y227152D01*
G75*
G02*
X144102I3852J0D01*
G01*
Y227151D01*
G75*
G02*
X143571Y225199I-3853J0D01*
G01*
X141602Y221789D01*
Y217712D01*
X146205Y213109D01*
G75*
G02*
X146602Y212152I-955J-957D01*
G01*
Y165212D01*
X153310Y158504D01*
X322190D01*
X323898Y160212D01*
Y160519D01*
G75*
G02*
X321642Y163864I1353J3345D01*
G01*
Y165439D01*
G75*
G02*
X328859I3608J0D01*
G01*
Y163864D01*
G75*
G02*
X326602Y160519I-3608J0D01*
G01*
Y159652D01*
G75*
G02*
X326205Y158694I-1352J0D01*
G01*
X323707Y156196D01*
G75*
G02*
X323465Y156004I-957J956D01*
G01*
X330940D01*
X333898Y158962D01*
Y158990D01*
X332125Y162060D01*
G75*
G02*
X332118Y162073I1241J702D01*
G01*
G75*
G02*
X331642Y163864I3133J1791D01*
G01*
Y165439D01*
G75*
G02*
X338858I3608J0D01*
G01*
Y163864D01*
G75*
G02*
X338382Y162073I-3609J0D01*
G01*
G75*
G02*
X338375Y162060I-1104J608D01*
G01*
X336602Y158990D01*
Y158402D01*
G75*
G02*
X336205Y157444I-1352J0D01*
G01*
X332457Y153696D01*
G75*
G02*
X332215Y153504I-957J956D01*
G01*
X339690D01*
X343898Y157712D01*
Y158990D01*
X342125Y162060D01*
G75*
G02*
X342118Y162073I1241J702D01*
G01*
G75*
G02*
X341642Y163864I3133J1791D01*
G01*
Y165439D01*
G75*
G02*
X348858I3608J0D01*
G01*
Y163864D01*
G75*
G02*
X348382Y162073I-3609J0D01*
G01*
G75*
G02*
X348375Y162060I-1104J608D01*
G01*
X346602Y158990D01*
Y157152D01*
G75*
G02*
X346205Y156194I-1352J0D01*
G01*
X341207Y151196D01*
G75*
G02*
X340965Y151004I-957J956D01*
G01*
X347190D01*
X353898Y157712D01*
Y158990D01*
X352125Y162060D01*
G75*
G02*
X352118Y162073I1241J702D01*
G01*
G75*
G02*
X351642Y163864I3133J1791D01*
G01*
Y165439D01*
G75*
G02*
X358858I3608J0D01*
G01*
Y163864D01*
G75*
G02*
X358382Y162073I-3609J0D01*
G01*
G75*
G02*
X358375Y162060I-1104J608D01*
G01*
X356602Y158990D01*
Y157152D01*
G75*
G02*
X356205Y156194I-1352J0D01*
G01*
X348707Y148696D01*
G75*
G02*
X348465Y148504I-957J956D01*
G01*
X354690D01*
X363898Y157712D01*
Y158990D01*
X362125Y162060D01*
G75*
G02*
X362118Y162073I1241J702D01*
G01*
G75*
G02*
X361642Y163864I3133J1791D01*
G01*
Y165439D01*
G75*
G02*
X368858I3608J0D01*
G01*
Y163864D01*
G75*
G02*
X368382Y162073I-3609J0D01*
G01*
G75*
G02*
X368375Y162060I-1104J608D01*
G01*
X366602Y158990D01*
Y157152D01*
G75*
G02*
X366205Y156194I-1352J0D01*
G01*
X356207Y146196D01*
G75*
G02*
X355965Y146004I-957J956D01*
G01*
X362190D01*
X373898Y157712D01*
Y158990D01*
X372125Y162060D01*
G75*
G02*
X372118Y162073I1241J702D01*
G01*
G75*
G02*
X371642Y163864I3133J1791D01*
G01*
Y165439D01*
G75*
G02*
X378858I3608J0D01*
G01*
Y163864D01*
G75*
G02*
X378382Y162073I-3609J0D01*
G01*
G75*
G02*
X378375Y162060I-1104J608D01*
G01*
X376602Y158990D01*
Y157152D01*
G75*
G02*
X376205Y156194I-1352J0D01*
G01*
X363707Y143696D01*
G75*
G02*
X362750Y143299I-957J955D01*
G01*
X154560D01*
X147457Y136196D01*
G75*
G02*
X147215Y136004I-957J956D01*
G01*
X360250D01*
G75*
G02*
X361207Y135607I0J-1352D01*
G01*
X376205Y120609D01*
G75*
G02*
X376602Y119652I-955J-957D01*
G01*
Y110313D01*
X378375Y107243D01*
G75*
G02*
X378382Y107230I-1241J-702D01*
G01*
G75*
G02*
X378858Y105439I-3133J-1791D01*
G01*
Y103864D01*
G75*
G02*
X371642I-3608J0D01*
G01*
Y105439D01*
G75*
G02*
X372118Y107230I3609J0D01*
G01*
G75*
G02*
X372125Y107243I1104J-608D01*
G01*
X373898Y110313D01*
Y119091D01*
X359690Y133299D01*
X353465D01*
G75*
G02*
X353707Y133107I-715J-1148D01*
G01*
X366205Y120609D01*
G75*
G02*
X366602Y119652I-955J-957D01*
G01*
Y110313D01*
X368375Y107243D01*
G75*
G02*
X368382Y107230I-1241J-702D01*
G01*
G75*
G02*
X368858Y105439I-3133J-1791D01*
G01*
Y103864D01*
G75*
G02*
X361642I-3608J0D01*
G01*
Y105439D01*
G75*
G02*
X362118Y107230I3609J0D01*
G01*
G75*
G02*
X362125Y107243I1104J-608D01*
G01*
X363898Y110313D01*
Y119091D01*
X352190Y130799D01*
X345965D01*
G75*
G02*
X346207Y130607I-715J-1148D01*
G01*
X356205Y120609D01*
G75*
G02*
X356602Y119652I-955J-957D01*
G01*
Y110313D01*
X358375Y107243D01*
G75*
G02*
X358382Y107230I-1241J-702D01*
G01*
G75*
G02*
X358858Y105439I-3133J-1791D01*
G01*
Y103864D01*
G75*
G02*
X351642I-3608J0D01*
G01*
Y105439D01*
G75*
G02*
X352118Y107230I3609J0D01*
G01*
G75*
G02*
X352125Y107243I1104J-608D01*
G01*
X353898Y110313D01*
Y119091D01*
X344690Y128299D01*
X338465D01*
G75*
G02*
X338707Y128107I-715J-1148D01*
G01*
X346205Y120609D01*
G75*
G02*
X346602Y119652I-955J-957D01*
G01*
Y110313D01*
X348375Y107243D01*
G75*
G02*
X348382Y107230I-1241J-702D01*
G01*
G75*
G02*
X348858Y105439I-3133J-1791D01*
G01*
Y103864D01*
G75*
G02*
X341642I-3608J0D01*
G01*
Y105439D01*
G75*
G02*
X342118Y107230I3609J0D01*
G01*
G75*
G02*
X342125Y107243I1104J-608D01*
G01*
X343898Y110313D01*
Y119091D01*
X337190Y125799D01*
X330965D01*
G75*
G02*
X331207Y125607I-715J-1148D01*
G01*
X336205Y120609D01*
G75*
G02*
X336602Y119652I-955J-957D01*
G01*
Y110313D01*
X338375Y107243D01*
G75*
G02*
X338382Y107230I-1241J-702D01*
G01*
G75*
G02*
X338858Y105439I-3133J-1791D01*
G01*
Y103864D01*
G75*
G02*
X331642I-3608J0D01*
G01*
Y105439D01*
G75*
G02*
X332118Y107230I3609J0D01*
G01*
G75*
G02*
X332125Y107243I1104J-608D01*
G01*
X333601Y109799D01*
X311191D01*
G75*
G02*
X310913Y109834I0J1102D01*
G01*
G75*
G02*
X307924Y108993I-1913J1067D01*
G01*
G75*
G02*
X307905Y109004I575J1044D01*
G01*
X306616Y109748D01*
X162634D01*
X161345Y109004D01*
G75*
G02*
X161326Y108993I-594J1034D01*
G01*
G75*
G02*
X158337Y109834I-1076J1908D01*
G01*
G75*
G02*
X158219Y109810I-278J1066D01*
G01*
X157002Y108594D01*
G75*
G02*
X158858Y105439I-1752J-3155D01*
G01*
Y103864D01*
G75*
G02*
X158381Y102072I-3609J0D01*
G01*
G75*
G02*
X158375Y102060I-1144J641D01*
G01*
X156404Y98646D01*
Y97630D01*
X160728Y93305D01*
X166022D01*
G75*
G02*
Y95998I1728J1346D01*
G01*
X165134D01*
X163845Y95254D01*
G75*
G02*
X163826Y95243I-594J1034D01*
G01*
G75*
G02*
X160559Y97152I-1076J1908D01*
G01*
G75*
G02*
X163826Y99060I2191J0D01*
G01*
G75*
G02*
X163845Y99049I-575J-1044D01*
G01*
X165134Y98305D01*
X183522D01*
X184011Y98794D01*
X182125Y102060D01*
G75*
G02*
X182119Y102072I973J559D01*
G01*
G75*
G02*
X181642Y103864I3132J1793D01*
G01*
Y105439D01*
G75*
G02*
X188858I3608J0D01*
G01*
Y103864D01*
G75*
G02*
X188381Y102072I-3609J0D01*
G01*
G75*
G02*
X188375Y102060I-1144J641D01*
G01*
X186402Y98643D01*
Y98402D01*
G75*
G02*
X186065Y97586I-1154J0D01*
G01*
X184816Y96336D01*
G75*
G02*
X183998Y95998I-816J815D01*
G01*
X169800D01*
X170134Y95805D01*
X191022D01*
X194010Y98795D01*
X192125Y102060D01*
G75*
G02*
X192119Y102072I973J559D01*
G01*
G75*
G02*
X191642Y103864I3132J1793D01*
G01*
Y105439D01*
G75*
G02*
X198858I3608J0D01*
G01*
Y103864D01*
G75*
G02*
X198381Y102072I-3609J0D01*
G01*
G75*
G02*
X198375Y102060I-1144J641D01*
G01*
X196402Y98643D01*
Y98402D01*
G75*
G02*
X196064Y97586I-1154J0D01*
G01*
X192316Y93836D01*
G75*
G02*
X191498Y93498I-816J815D01*
G01*
X180728D01*
G75*
G02*
X177924Y90243I-1728J-1346D01*
G01*
G75*
G02*
X177905Y90254I575J1044D01*
G01*
X176616Y90998D01*
X160250D01*
G75*
G02*
X159433Y91337I0J1154D01*
G01*
X154436Y96335D01*
G75*
G02*
X154096Y97152I814J817D01*
G01*
Y98646D01*
X152125Y102060D01*
G75*
G02*
X152119Y102072I973J559D01*
G01*
G75*
G02*
X151689Y103281I3132J1793D01*
G01*
X147603Y99195D01*
Y78404D01*
G75*
G02*
Y78402I-367J-1D01*
G01*
Y78402D01*
G75*
G02*
X147280Y77622I-1103J0D01*
G01*
X142603Y72945D01*
Y55904D01*
G75*
G02*
Y55902I-367J-1D01*
G01*
Y55902D01*
G75*
G02*
X142280Y55122I-1103J0D01*
G01*
X139837Y52679D01*
Y51697D01*
X140234Y51009D01*
G75*
G02*
X140294Y50902I-2903J-1681D01*
G01*
X163013D01*
X165331Y54916D01*
Y59636D01*
G75*
G02*
X165670Y60453I1154J0D01*
G01*
X166596Y61380D01*
Y62267D01*
X165852Y63556D01*
G75*
G02*
X165842Y63575I1034J594D01*
G01*
G75*
G02*
X165559Y64652I1909J1077D01*
G01*
G75*
G02*
X169941I2191J0D01*
G01*
G75*
G02*
X169658Y63575I-2191J0D01*
G01*
G75*
G02*
X169648Y63556I-1044J575D01*
G01*
X168904Y62267D01*
Y60902D01*
G75*
G02*
X168564Y60085I-1154J0D01*
G01*
X167638Y59158D01*
Y54916D01*
X169956Y50902D01*
X173013D01*
X175331Y54916D01*
Y59174D01*
X174436Y60069D01*
G75*
G02*
X174096Y60886I814J817D01*
G01*
Y67267D01*
X173352Y68556D01*
G75*
G02*
X173342Y68575I1034J594D01*
G01*
G75*
G02*
X173059Y69652I1909J1077D01*
G01*
G75*
G02*
X177441I2191J0D01*
G01*
G75*
G02*
X177158Y68575I-2191J0D01*
G01*
G75*
G02*
X177148Y68556I-1044J575D01*
G01*
X176404Y67267D01*
Y61364D01*
X177299Y60469D01*
G75*
G02*
X177638Y59652I-814J-817D01*
G01*
Y54916D01*
X179956Y50902D01*
X183013D01*
X185331Y54916D01*
Y60887D01*
G75*
G02*
Y60902I1134J7D01*
G01*
G75*
G02*
X185346Y61090I1154J0D01*
G01*
Y62267D01*
X184602Y63556D01*
G75*
G02*
X184592Y63575I1034J594D01*
G01*
G75*
G02*
X184309Y64652I1909J1077D01*
G01*
G75*
G02*
X188691I2191J0D01*
G01*
G75*
G02*
X188408Y63575I-2191J0D01*
G01*
G75*
G02*
X188398Y63556I-1044J575D01*
G01*
X187654Y62267D01*
Y60931D01*
G75*
G02*
Y60917I-1134J-7D01*
G01*
G75*
G02*
X187638Y60729I-1154J0D01*
G01*
Y54916D01*
X189956Y50902D01*
X193013D01*
X195331Y54916D01*
Y59189D01*
X192370Y62150D01*
X190960Y62528D01*
G75*
G02*
X189309Y64652I540J2123D01*
G01*
G75*
G02*
X193623Y65192I2191J0D01*
G01*
X194001Y63782D01*
X197299Y60484D01*
G75*
G02*
X197638Y59667I-814J-817D01*
G01*
Y54916D01*
X199956Y50902D01*
X203013D01*
X205331Y54916D01*
Y64636D01*
G75*
G02*
X205670Y65453I1154J0D01*
G01*
X209433Y69216D01*
G75*
G02*
X210250Y69555I817J-814D01*
G01*
X228522D01*
X228999Y70032D01*
X229377Y71442D01*
G75*
G02*
X233691Y70902I2123J-540D01*
G01*
G75*
G02*
X232040Y68778I-2191J0D01*
G01*
X230630Y68400D01*
X229817Y67587D01*
G75*
G02*
X229000Y67248I-817J814D01*
G01*
X210728D01*
X207638Y64158D01*
Y54916D01*
X209956Y50902D01*
X213013D01*
X215407Y55046D01*
G75*
G02*
X215670Y55453I1078J-410D01*
G01*
X218999Y58782D01*
X219377Y60192D01*
G75*
G02*
X223691Y59652I2123J-540D01*
G01*
G75*
G02*
X222040Y57528I-2191J0D01*
G01*
X220630Y57150D01*
X217915Y54436D01*
X219956Y50902D01*
X223013D01*
X225331Y54916D01*
Y60439D01*
X222272Y63498D01*
X215134D01*
X213845Y62754D01*
G75*
G02*
X213826Y62743I-594J1034D01*
G01*
G75*
G02*
X210559Y64652I-1076J1908D01*
G01*
G75*
G02*
X213826Y66560I2191J0D01*
G01*
G75*
G02*
X213845Y66549I-575J-1044D01*
G01*
X215134Y65805D01*
X222750D01*
G75*
G02*
X223567Y65466I0J-1154D01*
G01*
X227299Y61734D01*
G75*
G02*
X227638Y60917I-814J-817D01*
G01*
Y54916D01*
X229956Y50902D01*
X233013D01*
X235331Y54916D01*
Y56674D01*
X234436Y57569D01*
G75*
G02*
X234096Y58386I814J817D01*
G01*
Y62267D01*
X233352Y63556D01*
G75*
G02*
X233342Y63575I1034J594D01*
G01*
G75*
G02*
X233059Y64652I1909J1077D01*
G01*
G75*
G02*
X237441I2191J0D01*
G01*
G75*
G02*
X237158Y63575I-2191J0D01*
G01*
G75*
G02*
X237148Y63556I-1044J575D01*
G01*
X236404Y62267D01*
Y58864D01*
X237299Y57969D01*
G75*
G02*
X237638Y57152I-814J-817D01*
G01*
Y54916D01*
X239956Y50902D01*
X243013D01*
X245065Y54455D01*
X239870Y59650D01*
X238460Y60028D01*
G75*
G02*
X236809Y62152I540J2123D01*
G01*
G75*
G02*
X241123Y62692I2191J0D01*
G01*
X241501Y61282D01*
X247299Y55484D01*
G75*
G02*
X247589Y55002I-814J-818D01*
G01*
X249956Y50902D01*
X253013D01*
X255331Y54916D01*
Y62272D01*
X254606Y63551D01*
G75*
G02*
X254309Y64652I1894J1100D01*
G01*
G75*
G02*
X258691I2191J0D01*
G01*
G75*
G02*
X258400Y63560I-2191J0D01*
G01*
G75*
G02*
X258389Y63542I-993J562D01*
G01*
X257638Y62263D01*
Y54916D01*
X259956Y50902D01*
X263013D01*
X265331Y54916D01*
Y59189D01*
X262370Y62150D01*
X260960Y62528D01*
G75*
G02*
X259309Y64652I540J2123D01*
G01*
G75*
G02*
X263623Y65192I2191J0D01*
G01*
X264001Y63782D01*
X267299Y60484D01*
G75*
G02*
X267638Y59667I-814J-817D01*
G01*
Y54916D01*
X269956Y50902D01*
X273013D01*
X275331Y54916D01*
Y60439D01*
X273620Y62150D01*
X272210Y62528D01*
G75*
G02*
X270559Y64652I540J2123D01*
G01*
G75*
G02*
X274873Y65192I2191J0D01*
G01*
X275251Y63782D01*
X277299Y61734D01*
G75*
G02*
X277638Y60917I-814J-817D01*
G01*
Y54916D01*
X279956Y50902D01*
X283013D01*
X285331Y54916D01*
Y59636D01*
G75*
G02*
X285670Y60453I1154J0D01*
G01*
X290683Y65466D01*
G75*
G02*
X291500Y65805I817J-814D01*
G01*
X322866D01*
X324155Y66549D01*
G75*
G02*
X324174Y66560I594J-1034D01*
G01*
G75*
G02*
X327441Y64652I1076J-1908D01*
G01*
G75*
G02*
X324174Y62743I-2191J0D01*
G01*
G75*
G02*
X324155Y62754I575J1044D01*
G01*
X322866Y63498D01*
X291978D01*
X287638Y59158D01*
Y54916D01*
X289956Y50902D01*
X293013D01*
X295331Y54916D01*
Y56689D01*
X293620Y58400D01*
X292210Y58778D01*
G75*
G02*
X290559Y60902I540J2123D01*
G01*
G75*
G02*
X294873Y61442I2191J0D01*
G01*
X295251Y60032D01*
X297299Y57984D01*
G75*
G02*
X297638Y57167I-814J-817D01*
G01*
Y54916D01*
X299956Y50902D01*
X362835D01*
Y57207D01*
G75*
G02*
X365304Y59675I2469J0D01*
G01*
X407750D01*
G75*
G03*
X410281Y62207I0J2531D01*
G01*
Y243402D01*
G75*
G03*
X406500Y247183I-3781J0D01*
G01*
X90250D01*
G75*
G03*
X86469Y243402I0J-3781D01*
G01*
Y240902D01*
G75*
G02*
X76500Y230933I-9969J0D01*
G01*
X60985D01*
G75*
G02*
X64102Y227152I-735J-3781D01*
G01*
G75*
G02*
X56398I-3852J0D01*
G01*
G75*
G02*
X59515Y230933I3852J0D01*
G01*
X50985D01*
G75*
G02*
X54102Y227152I-735J-3781D01*
G01*
G75*
G02*
X46398I-3852J0D01*
G01*
G75*
G02*
X49515Y230933I3852J0D01*
G01*
X30985D01*
G75*
G02*
X34102Y227152I-735J-3781D01*
G01*
G75*
G02*
X26398I-3852J0D01*
G01*
G75*
G02*
X29515Y230933I3852J0D01*
G01*
X21500D01*
G75*
G03*
X17719Y227152I0J-3781D01*
G01*
X106398Y207152D02*
G75*
G02*
X114102I3852J0D01*
G01*
Y207151D01*
G75*
G02*
X113571Y205199I-3853J0D01*
G01*
X111811Y202152D01*
X113571Y199104D01*
G75*
G02*
X114102Y197152I-3322J-1952D01*
G01*
Y197152D01*
G75*
G02*
X106398I-3852J0D01*
G01*
Y197152D01*
G75*
G02*
X106929Y199104I3853J0D01*
G01*
X108689Y202152D01*
X106929Y205199D01*
G75*
G02*
X106398Y207151I3322J1952D01*
G01*
Y207152D01*
Y227152D02*
G75*
G02*
X114102I3852J0D01*
G01*
Y227151D01*
G75*
G02*
X113571Y225199I-3853J0D01*
G01*
X111811Y222152D01*
X113571Y219104D01*
G75*
G02*
X114102Y217152I-3322J-1952D01*
G01*
Y217152D01*
G75*
G02*
X106398I-3852J0D01*
G01*
Y217152D01*
G75*
G02*
X106929Y219104I3853J0D01*
G01*
X108689Y222152D01*
X106929Y225199D01*
G75*
G02*
X106398Y227151I3322J1952D01*
G01*
Y227152D01*
X116398Y187152D02*
G75*
G02*
X124102I3852J0D01*
G01*
G75*
G02*
X116398I-3852J0D01*
G01*
Y207152D02*
G75*
G02*
X124102I3852J0D01*
G01*
G75*
G02*
X116398I-3852J0D01*
G01*
Y227152D02*
G75*
G02*
X124102I3852J0D01*
G01*
G75*
G02*
X116398I-3852J0D01*
G01*
Y239652D02*
G75*
G02*
X124102I3852J0D01*
G01*
G75*
G02*
X116398I-3852J0D01*
G01*
X136000D02*
G75*
G02*
X144500I4250J0D01*
G01*
G75*
G02*
X136000I-4250J0D01*
G01*
X151244Y165439D02*
G75*
G02*
X159256I4006J0D01*
G01*
Y163864D01*
G75*
G02*
X151244I-4006J0D01*
G01*
Y165439D01*
Y240439D02*
G75*
G02*
X159256I4006J0D01*
G01*
Y238864D01*
G75*
G02*
X151244I-4006J0D01*
G01*
Y240439D01*
X151642Y180439D02*
G75*
G02*
X158859I3608J0D01*
G01*
Y178864D01*
G75*
G02*
X151642I-3608J0D01*
G01*
Y180439D01*
X161642Y165439D02*
G75*
G02*
X168859I3608J0D01*
G01*
Y163864D01*
G75*
G02*
X161642I-3608J0D01*
G01*
Y165439D01*
Y180439D02*
G75*
G02*
X168859I3608J0D01*
G01*
Y178864D01*
G75*
G02*
X161642I-3608J0D01*
G01*
Y180439D01*
Y240439D02*
G75*
G02*
X168859I3608J0D01*
G01*
Y238864D01*
G75*
G02*
X161642I-3608J0D01*
G01*
Y240439D01*
X171642Y165439D02*
G75*
G02*
X178859I3608J0D01*
G01*
Y163864D01*
G75*
G02*
X171642I-3608J0D01*
G01*
Y165439D01*
Y180439D02*
G75*
G02*
X178859I3608J0D01*
G01*
Y178864D01*
G75*
G02*
X171642I-3608J0D01*
G01*
Y180439D01*
Y240439D02*
G75*
G02*
X178859I3608J0D01*
G01*
Y238864D01*
G75*
G02*
X171642I-3608J0D01*
G01*
Y240439D01*
X181642Y165439D02*
G75*
G02*
X188859I3608J0D01*
G01*
Y163864D01*
G75*
G02*
X181642I-3608J0D01*
G01*
Y165439D01*
Y180439D02*
G75*
G02*
X188859I3608J0D01*
G01*
Y178864D01*
G75*
G02*
X181642I-3608J0D01*
G01*
Y180439D01*
Y240439D02*
G75*
G02*
X188859I3608J0D01*
G01*
Y238864D01*
G75*
G02*
X181642I-3608J0D01*
G01*
Y240439D01*
X191642Y165439D02*
G75*
G02*
X198859I3608J0D01*
G01*
Y163864D01*
G75*
G02*
X191642I-3608J0D01*
G01*
Y165439D01*
Y180439D02*
G75*
G02*
X198859I3608J0D01*
G01*
Y178864D01*
G75*
G02*
X191642I-3608J0D01*
G01*
Y180439D01*
X405360Y240856D02*
G75*
G02*
X410207Y238087I1632J-2769D01*
G01*
G75*
G02*
X405360Y235317I-3215J0D01*
G01*
X402906Y236734D01*
X398087D01*
X395625Y235313D01*
G75*
G02*
X392368Y235317I-1625J2774D01*
G01*
X389913Y236734D01*
X388310D01*
X385353Y233776D01*
Y227868D01*
G75*
G02*
X385545Y228109I1147J-716D01*
G01*
X386635Y229199D01*
G75*
G02*
X387593Y229596I957J-955D01*
G01*
X389913D01*
X392368Y231013D01*
G75*
G02*
X395625Y231018I1632J-2769D01*
G01*
X398087Y229596D01*
X402906D01*
X405360Y231013D01*
G75*
G02*
X410207Y228244I1632J-2769D01*
G01*
G75*
G02*
X405360Y225475I-3215J0D01*
G01*
X402906Y226892D01*
X398087D01*
X395625Y225470D01*
G75*
G02*
X392368Y225475I-1625J2774D01*
G01*
X389913Y226892D01*
X388153D01*
X387852Y226591D01*
Y182152D01*
G75*
G02*
X387455Y181194I-1352J0D01*
G01*
X381602Y175341D01*
Y167094D01*
G75*
G02*
X389256Y165439I3648J-1655D01*
G01*
Y163864D01*
G75*
G02*
X381602Y162209I-4006J0D01*
G01*
Y86691D01*
X382148Y85747D01*
G75*
G02*
X382170Y85708I-1167J-680D01*
G01*
G75*
G02*
X382441Y84652I-1920J-1056D01*
G01*
Y84652D01*
G75*
G02*
X378059I-2191J0D01*
G01*
Y84652D01*
G75*
G02*
X378330Y85708I2191J0D01*
G01*
G75*
G02*
X378352Y85747I1189J-640D01*
G01*
X378898Y86691D01*
Y175902D01*
G75*
G02*
X379295Y176859I1352J0D01*
G01*
X385148Y182712D01*
Y183935D01*
G75*
G02*
X384956Y183694I-1147J716D01*
G01*
X372456Y171195D01*
G75*
G02*
X370794Y170998I-956J956D01*
G01*
X297634D01*
X296345Y170254D01*
G75*
G02*
X296320Y170240I-579J985D01*
G01*
G75*
G02*
X294174Y170243I-1070J1912D01*
G01*
G75*
G02*
X294155Y170254I157J302D01*
G01*
X292866Y170998D01*
X291978D01*
G75*
G02*
X289174Y167743I-1728J-1346D01*
G01*
G75*
G02*
X289155Y167754I575J1044D01*
G01*
X287866Y168498D01*
X287164D01*
G75*
G02*
X288859Y165439I-1913J-3059D01*
G01*
Y163864D01*
G75*
G02*
X281642I-3608J0D01*
G01*
Y165439D01*
G75*
G02*
X283337Y168498I3608J0D01*
G01*
X280728D01*
X280044Y167814D01*
X278735Y162930D01*
G75*
G02*
X278730Y162912I-1145J314D01*
G01*
G75*
G02*
X271642Y163864I-3480J952D01*
G01*
Y165439D01*
G75*
G02*
X274290Y168917I3608J0D01*
G01*
G75*
G02*
X274342Y168931I327J-1104D01*
G01*
G75*
G02*
X275132Y169045I908J-3494D01*
G01*
X278469Y169502D01*
X279433Y170466D01*
G75*
G02*
X280250Y170805I817J-814D01*
G01*
X287866D01*
X288200Y170998D01*
X233228D01*
G75*
G02*
X233378Y168524I-1728J-1346D01*
G01*
G75*
G02*
X238859Y165439I1872J-3085D01*
G01*
Y163864D01*
G75*
G02*
X231642I-3608J0D01*
G01*
Y165439D01*
G75*
G02*
X232403Y167656I3608J0D01*
G01*
G75*
G02*
X230424Y167743I-903J1996D01*
G01*
G75*
G02*
X230405Y167754I575J1044D01*
G01*
X229116Y168498D01*
X227164D01*
G75*
G02*
X228859Y165439I-1913J-3059D01*
G01*
Y163864D01*
G75*
G02*
X221642I-3608J0D01*
G01*
Y165439D01*
G75*
G02*
X223337Y168498I3608J0D01*
G01*
X217164D01*
G75*
G02*
X218859Y165439I-1913J-3059D01*
G01*
Y163864D01*
G75*
G02*
X211642I-3608J0D01*
G01*
Y165439D01*
G75*
G02*
X213337Y168498I3608J0D01*
G01*
X207164D01*
G75*
G02*
X208859Y165439I-1913J-3059D01*
G01*
Y163864D01*
G75*
G02*
X201642I-3608J0D01*
G01*
Y165439D01*
G75*
G02*
X203337Y168498I3608J0D01*
G01*
X202634D01*
X201345Y167754D01*
G75*
G02*
X201326Y167743I-594J1034D01*
G01*
G75*
G02*
X198059Y169652I-1076J1908D01*
G01*
G75*
G02*
X201326Y171560I2191J0D01*
G01*
G75*
G02*
X201345Y171549I-575J-1044D01*
G01*
X202634Y170805D01*
X229116D01*
X229450Y170998D01*
X212750D01*
G75*
G02*
X211933Y171337I0J1154D01*
G01*
X208469Y174802D01*
X205133Y175258D01*
G75*
G02*
X204340Y175372I117J3607D01*
G01*
G75*
G02*
X204293Y175385I278J1114D01*
G01*
G75*
G02*
X201642Y178864I957J3479D01*
G01*
Y180439D01*
G75*
G02*
X208730Y181391I3608J0D01*
G01*
G75*
G02*
X208735Y181373I-1140J-332D01*
G01*
X210044Y176489D01*
X213228Y173305D01*
X292866D01*
X293200Y173498D01*
X231500D01*
G75*
G02*
X230683Y173837I0J1154D01*
G01*
X227996Y176524D01*
G75*
G02*
X221642Y178864I-2746J2341D01*
G01*
Y180439D01*
G75*
G02*
X228859I3608J0D01*
G01*
Y178924D01*
X231978Y175805D01*
X233337D01*
G75*
G02*
X231642Y178864I1913J3059D01*
G01*
Y180439D01*
G75*
G02*
X238859I3608J0D01*
G01*
Y178864D01*
G75*
G02*
X237164Y175805I-3608J0D01*
G01*
X243337D01*
G75*
G02*
X241642Y178864I1913J3059D01*
G01*
Y180439D01*
G75*
G02*
X248859I3608J0D01*
G01*
Y178864D01*
G75*
G02*
X247164Y175805I-3608J0D01*
G01*
X253337D01*
G75*
G02*
X251642Y178864I1913J3059D01*
G01*
Y180439D01*
G75*
G02*
X258859I3608J0D01*
G01*
Y178864D01*
G75*
G02*
X257164Y175805I-3608J0D01*
G01*
X263337D01*
G75*
G02*
X261642Y178864I1913J3059D01*
G01*
Y180439D01*
G75*
G02*
X268859I3608J0D01*
G01*
Y178864D01*
G75*
G02*
X267164Y175805I-3608J0D01*
G01*
X273337D01*
G75*
G02*
X271642Y178864I1913J3059D01*
G01*
Y180439D01*
G75*
G02*
X278859I3608J0D01*
G01*
Y178864D01*
G75*
G02*
X277164Y175805I-3608J0D01*
G01*
X283337D01*
G75*
G02*
X281642Y178864I1913J3059D01*
G01*
Y180439D01*
G75*
G02*
X288859I3608J0D01*
G01*
Y178864D01*
G75*
G02*
X287164Y175805I-3608J0D01*
G01*
X293337D01*
G75*
G02*
X291642Y178864I1913J3059D01*
G01*
Y180439D01*
G75*
G02*
X298859I3608J0D01*
G01*
Y178864D01*
G75*
G02*
X297164Y175805I-3608J0D01*
G01*
X303337D01*
G75*
G02*
X301642Y178864I1913J3059D01*
G01*
Y180439D01*
G75*
G02*
X308859I3608J0D01*
G01*
Y178864D01*
G75*
G02*
X307164Y175805I-3608J0D01*
G01*
X312866D01*
X314155Y176549D01*
G75*
G02*
X314174Y176560I178J-294D01*
G01*
G75*
G02*
X316320Y176563I1077J-1909D01*
G01*
G75*
G02*
X316345Y176549I-570J-1026D01*
G01*
X317634Y175805D01*
X320037D01*
G75*
G02*
X320250Y183504I213J3846D01*
G01*
G75*
G02*
X320463Y175805I0J-3852D01*
G01*
X329772D01*
X330399Y176432D01*
X331520Y180613D01*
G75*
G02*
X339102Y179652I3730J-961D01*
G01*
G75*
G02*
X336211Y175921I-3852J0D01*
G01*
X332031Y174801D01*
X331067Y173837D01*
G75*
G02*
X330250Y173498I-817J814D01*
G01*
X317634D01*
X317300Y173305D01*
X370741D01*
X382648Y185212D01*
Y234337D01*
G75*
G02*
X383045Y235294I1352J0D01*
G01*
X386793Y239042D01*
G75*
G02*
X387750Y239439I957J-955D01*
G01*
X389913D01*
X392368Y240856D01*
G75*
G02*
X395625Y240860I1632J-2769D01*
G01*
X398087Y239439D01*
X402906D01*
X405360Y240856D01*
X403778Y218402D02*
G75*
G02*
X410207I3215J0D01*
G01*
G75*
G02*
X403778I-3215J0D01*
G01*
X390785D02*
G75*
G02*
X397215I3215J0D01*
G01*
G75*
G02*
X390785I-3215J0D01*
G01*
X396000Y124652D02*
G75*
G02*
X404500I4250J0D01*
G01*
G75*
G02*
X396000I-4250J0D01*
G01*
X396398Y104652D02*
G75*
G02*
X404102I3852J0D01*
G01*
G75*
G02*
X396398I-3852J0D01*
G01*
X381642Y105439D02*
G75*
G02*
X388859I3608J0D01*
G01*
Y103864D01*
G75*
G02*
X381642I-3608J0D01*
G01*
Y105439D01*
X301642Y165439D02*
G75*
G02*
X308859I3608J0D01*
G01*
Y163864D01*
G75*
G02*
X301642I-3608J0D01*
G01*
Y165439D01*
X311642D02*
G75*
G02*
X318859I3608J0D01*
G01*
Y163864D01*
G75*
G02*
X311642I-3608J0D01*
G01*
Y165439D01*
X291642D02*
G75*
G02*
X298859I3608J0D01*
G01*
Y163864D01*
G75*
G02*
X291642I-3608J0D01*
G01*
Y165439D01*
X241642D02*
G75*
G02*
X248859I3608J0D01*
G01*
Y163864D01*
G75*
G02*
X241642I-3608J0D01*
G01*
Y165439D01*
X251642D02*
G75*
G02*
X258859I3608J0D01*
G01*
Y163864D01*
G75*
G02*
X251642I-3608J0D01*
G01*
Y165439D01*
X261642D02*
G75*
G02*
X268859I3608J0D01*
G01*
Y163864D01*
G75*
G02*
X261642I-3608J0D01*
G01*
Y165439D01*
X191642Y240439D02*
G75*
G02*
X198859I3608J0D01*
G01*
Y238864D01*
G75*
G02*
X191642I-3608J0D01*
G01*
Y240439D01*
X201642D02*
G75*
G02*
X208859I3608J0D01*
G01*
Y238864D01*
G75*
G02*
X201642I-3608J0D01*
G01*
Y240439D01*
X260424Y190310D02*
G75*
G02*
X263691Y188402I1076J-1908D01*
G01*
G75*
G02*
X260424Y186493I-2191J0D01*
G01*
G75*
G02*
X260405Y186504I575J1044D01*
G01*
X259116Y187248D01*
X218228D01*
X216489Y185509D01*
X218359Y182270D01*
G75*
G02*
X218858Y180439I-3109J-1832D01*
G01*
Y178864D01*
G75*
G02*
X211642I-3608J0D01*
G01*
Y180439D01*
G75*
G02*
X212141Y182270I3608J0D01*
G01*
X214096Y185657D01*
Y185902D01*
G75*
G02*
X214436Y186719I1154J0D01*
G01*
X216933Y189216D01*
G75*
G02*
X217750Y189555I817J-814D01*
G01*
X259116D01*
X260405Y190299D01*
G75*
G02*
X260424Y190310I594J-1034D01*
G01*
X211642Y240439D02*
G75*
G02*
X218859I3608J0D01*
G01*
Y238864D01*
G75*
G02*
X211642I-3608J0D01*
G01*
Y240439D01*
X281642D02*
G75*
G02*
X288858I3608J0D01*
G01*
Y238864D01*
G75*
G02*
X288381Y237072I-3609J0D01*
G01*
G75*
G02*
X288375Y237060I-1144J641D01*
G01*
X286404Y233646D01*
Y233402D01*
G75*
G02*
X286064Y232585I-1154J0D01*
G01*
X282317Y228837D01*
G75*
G02*
X281500Y228498I-817J814D01*
G01*
X223884D01*
X222595Y227754D01*
G75*
G02*
X222576Y227743I-594J1034D01*
G01*
G75*
G02*
X219309Y229652I-1076J1908D01*
G01*
G75*
G02*
X222576Y231560I2191J0D01*
G01*
G75*
G02*
X222595Y231549I-575J-1044D01*
G01*
X223884Y230805D01*
X281022D01*
X284011Y233794D01*
X282125Y237060D01*
G75*
G02*
X282119Y237072I973J559D01*
G01*
G75*
G02*
X281642Y238864I3132J1793D01*
G01*
Y240439D01*
X221642D02*
G75*
G02*
X228859I3608J0D01*
G01*
Y238864D01*
G75*
G02*
X221642I-3608J0D01*
G01*
Y240439D01*
X231642D02*
G75*
G02*
X238859I3608J0D01*
G01*
Y238864D01*
G75*
G02*
X231642I-3608J0D01*
G01*
Y240439D01*
X241642D02*
G75*
G02*
X248859I3608J0D01*
G01*
Y238864D01*
G75*
G02*
X241642I-3608J0D01*
G01*
Y240439D01*
X251642D02*
G75*
G02*
X258859I3608J0D01*
G01*
Y238864D01*
G75*
G02*
X251642I-3608J0D01*
G01*
Y240439D01*
X261642D02*
G75*
G02*
X268859I3608J0D01*
G01*
Y238864D01*
G75*
G02*
X261642I-3608J0D01*
G01*
Y240439D01*
X271642D02*
G75*
G02*
X278859I3608J0D01*
G01*
Y238864D01*
G75*
G02*
X271642I-3608J0D01*
G01*
Y240439D01*
X291642D02*
G75*
G02*
X298859I3608J0D01*
G01*
Y238864D01*
G75*
G02*
X291642I-3608J0D01*
G01*
Y240439D01*
X301642D02*
G75*
G02*
X308859I3608J0D01*
G01*
Y238864D01*
G75*
G02*
X301642I-3608J0D01*
G01*
Y240439D01*
X316000Y199652D02*
G75*
G02*
X324500I4250J0D01*
G01*
G75*
G02*
X316000I-4250J0D01*
G01*
X331000D02*
G75*
G02*
X339500I4250J0D01*
G01*
G75*
G02*
X331000I-4250J0D01*
G01*
X86398Y207152D02*
G75*
G02*
X94102I3852J0D01*
G01*
Y207151D01*
G75*
G02*
X93571Y205199I-3853J0D01*
G01*
X91811Y202152D01*
X93571Y199104D01*
G75*
G02*
X94102Y197152I-3322J-1952D01*
G01*
Y197152D01*
G75*
G02*
X86398I-3852J0D01*
G01*
Y197152D01*
G75*
G02*
X86929Y199104I3853J0D01*
G01*
X88689Y202152D01*
X86929Y205199D01*
G75*
G02*
X86398Y207151I3322J1952D01*
G01*
Y207152D01*
Y227152D02*
G75*
G02*
X94102I3852J0D01*
G01*
Y227151D01*
G75*
G02*
X93571Y225199I-3853J0D01*
G01*
X91811Y222152D01*
X93571Y219104D01*
G75*
G02*
X94102Y217152I-3322J-1952D01*
G01*
Y217152D01*
G75*
G02*
X86398I-3852J0D01*
G01*
Y217152D01*
G75*
G02*
X86929Y219104I3853J0D01*
G01*
X88689Y222152D01*
X86929Y225199D01*
G75*
G02*
X86398Y227151I3322J1952D01*
G01*
Y227152D01*
X76398Y187152D02*
G75*
G02*
X84102I3852J0D01*
G01*
G75*
G02*
X76398I-3852J0D01*
G01*
Y207152D02*
G75*
G02*
X84102I3852J0D01*
G01*
G75*
G02*
X76398I-3852J0D01*
G01*
Y227152D02*
G75*
G02*
X84102I3852J0D01*
G01*
G75*
G02*
X76398I-3852J0D01*
G01*
X56398Y147152D02*
G75*
G02*
X64102I3852J0D01*
G01*
G75*
G02*
X56398I-3852J0D01*
G01*
Y167152D02*
G75*
G02*
X64102I3852J0D01*
G01*
G75*
G02*
X56398I-3852J0D01*
G01*
Y187152D02*
G75*
G02*
X64102I3852J0D01*
G01*
G75*
G02*
X56398I-3852J0D01*
G01*
Y207152D02*
G75*
G02*
X64102I3852J0D01*
G01*
G75*
G02*
X56398I-3852J0D01*
G01*
X46398Y127152D02*
G75*
G02*
X54102I3852J0D01*
G01*
G75*
G02*
X46398I-3852J0D01*
G01*
Y137152D02*
G75*
G02*
X54102I3852J0D01*
G01*
G75*
G02*
X46398I-3852J0D01*
G01*
Y147152D02*
G75*
G02*
X54102I3852J0D01*
G01*
G75*
G02*
X46398I-3852J0D01*
G01*
Y157152D02*
G75*
G02*
X54102I3852J0D01*
G01*
G75*
G02*
X46398I-3852J0D01*
G01*
Y167152D02*
G75*
G02*
X54102I3852J0D01*
G01*
G75*
G02*
X46398I-3852J0D01*
G01*
Y177152D02*
G75*
G02*
X54102I3852J0D01*
G01*
G75*
G02*
X46398I-3852J0D01*
G01*
Y187152D02*
G75*
G02*
X54102I3852J0D01*
G01*
G75*
G02*
X46398I-3852J0D01*
G01*
Y197152D02*
G75*
G02*
X54102I3852J0D01*
G01*
G75*
G02*
X46398I-3852J0D01*
G01*
Y207152D02*
G75*
G02*
X54102I3852J0D01*
G01*
G75*
G02*
X46398I-3852J0D01*
G01*
Y217152D02*
G75*
G02*
X54102I3852J0D01*
G01*
G75*
G02*
X46398I-3852J0D01*
G01*
X26000Y127152D02*
G75*
G02*
X34500I4250J0D01*
G01*
G75*
G02*
X26000I-4250J0D01*
G01*
X26398Y137152D02*
G75*
G02*
X34102I3852J0D01*
G01*
G75*
G02*
X26398I-3852J0D01*
G01*
Y147152D02*
G75*
G02*
X34102I3852J0D01*
G01*
G75*
G02*
X26398I-3852J0D01*
G01*
Y157152D02*
G75*
G02*
X34102I3852J0D01*
G01*
G75*
G02*
X26398I-3852J0D01*
G01*
Y167152D02*
G75*
G02*
X34102I3852J0D01*
G01*
G75*
G02*
X26398I-3852J0D01*
G01*
Y177152D02*
G75*
G02*
X34102I3852J0D01*
G01*
G75*
G02*
X26398I-3852J0D01*
G01*
Y187152D02*
G75*
G02*
X34102I3852J0D01*
G01*
G75*
G02*
X26398I-3852J0D01*
G01*
Y197152D02*
G75*
G02*
X34102I3852J0D01*
G01*
G75*
G02*
X26398I-3852J0D01*
G01*
Y207152D02*
G75*
G02*
X34102I3852J0D01*
G01*
G75*
G02*
X26398I-3852J0D01*
G01*
Y217152D02*
G75*
G02*
X34102I3852J0D01*
G01*
G75*
G02*
X26398I-3852J0D01*
G01*
X336931Y72561D02*
G75*
G02*
X357140I10104J0D01*
G01*
G75*
G02*
X336931I-10104J0D01*
G01*
X311642Y105439D02*
G75*
G02*
X318859I3608J0D01*
G01*
Y103864D01*
G75*
G02*
X311642I-3608J0D01*
G01*
Y105439D01*
X321642D02*
G75*
G02*
X328859I3608J0D01*
G01*
Y103864D01*
G75*
G02*
X321642I-3608J0D01*
G01*
Y105439D01*
X171642D02*
G75*
G02*
X178859I3608J0D01*
G01*
Y103864D01*
G75*
G02*
X171642I-3608J0D01*
G01*
Y105439D01*
X267924Y97810D02*
G75*
G02*
X271191Y95902I1076J-1908D01*
G01*
G75*
G02*
X267924Y93993I-2191J0D01*
G01*
G75*
G02*
X267905Y94004I575J1044D01*
G01*
X267192Y94415D01*
G75*
G02*
X264174Y91493I-1942J-1014D01*
G01*
G75*
G02*
X264155Y91504I575J1044D01*
G01*
X263442Y91915D01*
G75*
G02*
X260424Y88993I-1942J-1014D01*
G01*
G75*
G02*
X260405Y89004I575J1044D01*
G01*
X259116Y89748D01*
X228213D01*
G75*
G02*
X225408Y86493I-1728J-1346D01*
G01*
G75*
G02*
X225389Y86504I575J1044D01*
G01*
X224100Y87248D01*
X209000D01*
G75*
G02*
X208183Y87587I0J1154D01*
G01*
X201120Y94650D01*
X199710Y95028D01*
G75*
G02*
X198059Y97152I540J2123D01*
G01*
G75*
G02*
X202373Y97692I2191J0D01*
G01*
X202751Y96282D01*
X209478Y89555D01*
X224100D01*
X224435Y89748D01*
X212750D01*
G75*
G02*
X211933Y90087I0J1154D01*
G01*
X204436Y97585D01*
G75*
G02*
X204096Y98402I814J817D01*
G01*
Y98646D01*
X202125Y102060D01*
G75*
G02*
X202119Y102072I973J559D01*
G01*
G75*
G02*
X201642Y103864I3132J1793D01*
G01*
Y105439D01*
G75*
G02*
X208858I3608J0D01*
G01*
Y103864D01*
G75*
G02*
X208381Y102072I-3609J0D01*
G01*
G75*
G02*
X208375Y102060I-1144J641D01*
G01*
X206489Y98794D01*
X213228Y92055D01*
X236950D01*
X236616Y92248D01*
X220250D01*
G75*
G02*
X219433Y92587I0J1154D01*
G01*
X214436Y97585D01*
G75*
G02*
X214096Y98402I814J817D01*
G01*
Y98646D01*
X212125Y102060D01*
G75*
G02*
X212119Y102072I973J559D01*
G01*
G75*
G02*
X211642Y103864I3132J1793D01*
G01*
Y105439D01*
G75*
G02*
X218858I3608J0D01*
G01*
Y103864D01*
G75*
G02*
X218381Y102072I-3609J0D01*
G01*
G75*
G02*
X218375Y102060I-1144J641D01*
G01*
X216489Y98794D01*
X220728Y94555D01*
X227272D01*
G75*
G02*
X230076Y97810I1728J1346D01*
G01*
G75*
G02*
X230095Y97799I-575J-1044D01*
G01*
X231384Y97055D01*
X241500D01*
G75*
G02*
X242317Y96716I0J-1154D01*
G01*
X243060Y95973D01*
G75*
G02*
X246326Y97810I2190J-71D01*
G01*
G75*
G02*
X246345Y97799I-575J-1044D01*
G01*
X247634Y97055D01*
X266616D01*
X267905Y97799D01*
G75*
G02*
X267924Y97810I594J-1034D01*
G01*
X222924Y76560D02*
G75*
G02*
X226191Y74652I1076J-1908D01*
G01*
G75*
G02*
X222924Y72743I-2191J0D01*
G01*
G75*
G02*
X222905Y72754I575J1044D01*
G01*
X221616Y73498D01*
X209478D01*
X209001Y73021D01*
X208623Y71611D01*
G75*
G02*
X204309Y72152I-2123J540D01*
G01*
G75*
G02*
X205960Y74275I2191J0D01*
G01*
X207370Y74653D01*
X208183Y75466D01*
G75*
G02*
X209000Y75805I817J-814D01*
G01*
X221616D01*
X222905Y76549D01*
G75*
G02*
X222924Y76560I594J-1034D01*
G01*
X221642Y105439D02*
G75*
G02*
X228859I3608J0D01*
G01*
Y103864D01*
G75*
G02*
X221642I-3608J0D01*
G01*
Y105439D01*
X231642D02*
G75*
G02*
X238859I3608J0D01*
G01*
Y103864D01*
G75*
G02*
X231642I-3608J0D01*
G01*
Y105439D01*
X241642D02*
G75*
G02*
X248859I3608J0D01*
G01*
Y103864D01*
G75*
G02*
X241642I-3608J0D01*
G01*
Y105439D01*
X251642D02*
G75*
G02*
X258859I3608J0D01*
G01*
Y103864D01*
G75*
G02*
X251642I-3608J0D01*
G01*
Y105439D01*
X261642D02*
G75*
G02*
X268859I3608J0D01*
G01*
Y103864D01*
G75*
G02*
X261642I-3608J0D01*
G01*
Y105439D01*
X271642D02*
G75*
G02*
X278859I3608J0D01*
G01*
Y103864D01*
G75*
G02*
X271642I-3608J0D01*
G01*
Y105439D01*
X281642D02*
G75*
G02*
X288859I3608J0D01*
G01*
Y103864D01*
G75*
G02*
X281642I-3608J0D01*
G01*
Y105439D01*
X291642D02*
G75*
G02*
X298859I3608J0D01*
G01*
Y103864D01*
G75*
G02*
X291642I-3608J0D01*
G01*
Y105439D01*
X301642D02*
G75*
G02*
X308859I3608J0D01*
G01*
Y103864D01*
G75*
G02*
X301642I-3608J0D01*
G01*
Y105439D01*
X161642D02*
G75*
G02*
X168859I3608J0D01*
G01*
Y103864D01*
G75*
G02*
X161642I-3608J0D01*
G01*
Y105439D01*
X65219Y62207D02*
G36*
X65219Y62207D02*
Y62206D01*
G75*
G03*
X67750Y59675I2531J0D01*
G01*
X107666D01*
G75*
G02*
X110134Y57207I0J-2468D01*
G01*
Y51152D01*
X113127D01*
X115132Y54625D01*
Y65885D01*
Y65902D01*
G75*
G02*
X115148Y66106I1393J-2D01*
G01*
Y71591D01*
X114178Y72561D01*
X65219D01*
Y62207D01*
G37*
X117837Y65713D02*
G36*
X117837Y65713D02*
Y54625D01*
X119842Y51152D01*
X122818D01*
X123132Y51697D01*
Y52710D01*
X120720Y55122D01*
G75*
G02*
X120397Y55902I780J780D01*
G01*
Y55902D01*
Y55904D01*
Y72561D01*
X117789D01*
G75*
G02*
X117852Y72152I-1287J-409D01*
G01*
Y65934D01*
Y65917D01*
G75*
G02*
X117837Y65713I-1393J2D01*
G01*
G37*
X139837Y52679D02*
G36*
X139837Y52679D02*
Y51697D01*
X140152Y51152D01*
X163158D01*
X165331Y54916D01*
Y59636D01*
G75*
G02*
X165670Y60453I1154J0D01*
G01*
X166596Y61380D01*
Y62267D01*
X165852Y63556D01*
G75*
G02*
X165842Y63575I293J177D01*
G01*
G75*
G02*
X165559Y64652I1915J1078D01*
G01*
G75*
G02*
X169941I2191J0D01*
G01*
G75*
G02*
X169658Y63575I-2198J2D01*
G01*
G75*
G02*
X169648Y63556I-304J158D01*
G01*
X168904Y62267D01*
Y60902D01*
G75*
G02*
X168564Y60085I-1154J0D01*
G01*
X167638Y59158D01*
Y54916D01*
X169811Y51152D01*
X173158D01*
X175331Y54916D01*
Y59174D01*
X174436Y60069D01*
G75*
G02*
X174096Y60886I814J817D01*
G01*
Y67267D01*
X173352Y68556D01*
G75*
G02*
X173342Y68575I293J177D01*
G01*
G75*
G02*
X173059Y69652I1915J1078D01*
G01*
G75*
G02*
X177441I2191J0D01*
G01*
G75*
G02*
X177158Y68575I-2198J2D01*
G01*
G75*
G02*
X177148Y68556I-304J158D01*
G01*
X176404Y67267D01*
Y61364D01*
X177299Y60469D01*
G75*
G02*
X177638Y59652I-814J-817D01*
G01*
Y54916D01*
X179811Y51152D01*
X183158D01*
X185331Y54916D01*
Y60887D01*
Y60902D01*
G75*
G02*
X185346Y61090I1187J-2D01*
G01*
Y62267D01*
X184602Y63556D01*
G75*
G02*
X184592Y63575I293J177D01*
G01*
G75*
G02*
X184309Y64652I1915J1078D01*
G01*
G75*
G02*
X188691I2191J0D01*
G01*
G75*
G02*
X188408Y63575I-2198J2D01*
G01*
G75*
G02*
X188398Y63556I-304J158D01*
G01*
X187654Y62267D01*
Y60931D01*
Y60917D01*
G75*
G02*
X187638Y60729I-1187J2D01*
G01*
Y54916D01*
X189811Y51152D01*
X193158D01*
X195331Y54916D01*
Y59189D01*
X192370Y62150D01*
X190960Y62528D01*
G75*
G02*
X189309Y64652I540J2123D01*
G01*
G75*
G02*
X193623Y65192I2191J0D01*
G01*
X194001Y63782D01*
X197299Y60484D01*
G75*
G02*
X197638Y59667I-814J-817D01*
G01*
Y54916D01*
X199811Y51152D01*
X203158D01*
X205331Y54916D01*
Y64636D01*
G75*
G02*
X205670Y65453I1154J0D01*
G01*
X209433Y69216D01*
G75*
G02*
X210250Y69555I817J-814D01*
G01*
X228522D01*
X228999Y70032D01*
X229377Y71442D01*
G75*
G02*
X230070Y72561I2124J-541D01*
G01*
X224656D01*
G75*
G02*
X223344I-656J2091D01*
G01*
X208878D01*
X208623Y71611D01*
G75*
G02*
X204309Y72152I-2123J540D01*
G01*
G75*
G02*
X204348Y72561I2191J0D01*
G01*
X142603D01*
Y55904D01*
Y55902D01*
Y55902D01*
G75*
G02*
X142280Y55122I-1103J0D01*
G01*
X139837Y52679D01*
G37*
X207638Y64158D02*
G36*
X207638Y64158D02*
Y54916D01*
X209811Y51152D01*
X213158D01*
X215407Y55046D01*
G75*
G02*
X215670Y55453I1077J-410D01*
G01*
X218999Y58782D01*
X219377Y60192D01*
G75*
G02*
X223691Y59652I2123J-540D01*
G01*
G75*
G02*
X222040Y57528I-2191J0D01*
G01*
X220630Y57150D01*
X217915Y54436D01*
X219811Y51152D01*
X223158D01*
X225331Y54916D01*
Y60439D01*
X222272Y63498D01*
X215134D01*
X213845Y62754D01*
G75*
G02*
X213826Y62743I-177J293D01*
G01*
G75*
G02*
X210559Y64652I-1076J1909D01*
G01*
G75*
G02*
X213826Y66560I2191J0D01*
G01*
G75*
G02*
X213845Y66549I-158J-304D01*
G01*
X215134Y65805D01*
X222750D01*
G75*
G02*
X223567Y65466I0J-1154D01*
G01*
X227299Y61734D01*
G75*
G02*
X227638Y60917I-814J-817D01*
G01*
Y54916D01*
X229811Y51152D01*
X233158D01*
X235331Y54916D01*
Y56674D01*
X234436Y57569D01*
G75*
G02*
X234096Y58386I814J817D01*
G01*
Y62267D01*
X233352Y63556D01*
G75*
G02*
X233342Y63575I293J177D01*
G01*
G75*
G02*
X233059Y64652I1915J1078D01*
G01*
G75*
G02*
X237441I2191J0D01*
G01*
G75*
G02*
X237158Y63575I-2198J2D01*
G01*
G75*
G02*
X237148Y63556I-304J158D01*
G01*
X236404Y62267D01*
Y58864D01*
X237299Y57969D01*
G75*
G02*
X237638Y57152I-814J-817D01*
G01*
Y54916D01*
X239811Y51152D01*
X243158D01*
X245065Y54455D01*
X239870Y59650D01*
X238460Y60028D01*
G75*
G02*
X236809Y62152I540J2123D01*
G01*
G75*
G02*
X241123Y62692I2191J0D01*
G01*
X241501Y61282D01*
X247299Y55484D01*
G75*
G02*
X247589Y55002I-809J-814D01*
G01*
X249811Y51152D01*
X253158D01*
X255331Y54916D01*
Y62272D01*
X254606Y63551D01*
G75*
G02*
X254309Y64652I1900J1102D01*
G01*
G75*
G02*
X258691I2191J0D01*
G01*
Y64651D01*
G75*
G02*
X258400Y63560I-2189J0D01*
G01*
G75*
G02*
X258389Y63542I-465J257D01*
G01*
X257638Y62263D01*
Y54916D01*
X259811Y51152D01*
X263158D01*
X265331Y54916D01*
Y59189D01*
X262370Y62150D01*
X260960Y62528D01*
G75*
G02*
X259309Y64652I540J2123D01*
G01*
G75*
G02*
X263623Y65192I2191J0D01*
G01*
X264001Y63782D01*
X267299Y60484D01*
G75*
G02*
X267638Y59667I-814J-817D01*
G01*
Y54916D01*
X269811Y51152D01*
X273158D01*
X275331Y54916D01*
Y60439D01*
X273620Y62150D01*
X272210Y62528D01*
G75*
G02*
X270559Y64652I540J2123D01*
G01*
G75*
G02*
X274873Y65192I2191J0D01*
G01*
X275251Y63782D01*
X277299Y61734D01*
G75*
G02*
X277638Y60917I-814J-817D01*
G01*
Y54916D01*
X279811Y51152D01*
X283158D01*
X285331Y54916D01*
Y59636D01*
G75*
G02*
X285670Y60453I1154J0D01*
G01*
X290683Y65466D01*
G75*
G02*
X291500Y65805I817J-814D01*
G01*
X322866D01*
X324155Y66549D01*
G75*
G02*
X324174Y66560I177J-293D01*
G01*
G75*
G02*
X327441Y64652I1076J-1909D01*
G01*
G75*
G02*
X324174Y62743I-2191J0D01*
G01*
G75*
G02*
X324155Y62754I158J304D01*
G01*
X322866Y63498D01*
X291978D01*
X287638Y59158D01*
Y54916D01*
X289811Y51152D01*
X293158D01*
X295331Y54916D01*
Y56689D01*
X293620Y58400D01*
X292210Y58778D01*
G75*
G02*
X290559Y60902I540J2123D01*
G01*
G75*
G02*
X294873Y61442I2191J0D01*
G01*
X295251Y60032D01*
X297299Y57984D01*
G75*
G02*
X297638Y57167I-814J-817D01*
G01*
Y54916D01*
X299811Y51152D01*
X362835D01*
Y57207D01*
G75*
G02*
X365304Y59675I2469J1D01*
G01*
X407750D01*
G75*
G03*
X410031Y61109I0J2531D01*
G01*
Y72561D01*
X357140D01*
G75*
G02*
X336931I-10104J0D01*
G01*
X232931D01*
G75*
G02*
X233691Y70902I-1431J-1659D01*
G01*
G75*
G02*
X232040Y68778I-2191J0D01*
G01*
X230630Y68400D01*
X229817Y67587D01*
G75*
G02*
X229000Y67248I-817J814D01*
G01*
X210728D01*
X207638Y64158D01*
G37*
X65219Y102207D02*
G36*
X65219Y102207D02*
Y72561D01*
X114178D01*
X85940Y100799D01*
X75250D01*
G75*
G02*
X74293Y101196I-1J1350D01*
G01*
X70837Y104652D01*
X64807D01*
G75*
G02*
X65219Y102207I-7056J-2444D01*
G01*
Y102207D01*
G37*
X74663Y104652D02*
G36*
X74663Y104652D02*
X75810Y103504D01*
X86500D01*
G75*
G02*
X87457Y103107I1J-1350D01*
G01*
X117455Y73109D01*
G75*
G02*
X117789Y72561I-953J-956D01*
G01*
X120397D01*
Y83167D01*
Y83167D01*
G75*
G02*
X120537Y83704I1102J0D01*
G01*
G75*
G02*
X115829Y92246I5396J8543D01*
G01*
G75*
G02*
X120537Y100789I10104J0D01*
G01*
G75*
G02*
X120397Y101326I962J537D01*
G01*
Y101326D01*
Y104652D01*
X74663D01*
G37*
X142603Y72945D02*
G36*
X142603Y72945D02*
Y72561D01*
X204348D01*
G75*
G02*
X205960Y74275I2152J-409D01*
G01*
X207370Y74653D01*
X208183Y75466D01*
G75*
G02*
X209000Y75805I817J-814D01*
G01*
X221616D01*
X222905Y76549D01*
G75*
G02*
X222924Y76560I177J-293D01*
G01*
G75*
G02*
X226191Y74652I1076J-1909D01*
G01*
G75*
G02*
X224656Y72561I-2191J0D01*
G01*
X230070D01*
G75*
G02*
X232931I1431J-1659D01*
G01*
X336931D01*
G75*
G02*
X357140I10104J0D01*
G01*
X410031D01*
Y104652D01*
X404102D01*
G75*
G02*
X396398I-3852J0D01*
G01*
X388859D01*
Y103864D01*
G75*
G02*
X381642I-3608J0D01*
G01*
Y104652D01*
X381602D01*
Y86691D01*
X382148Y85747D01*
X382170Y85708D01*
G75*
G02*
X382441Y84652I-1918J-1056D01*
G01*
Y84652D01*
Y84652D01*
G75*
G02*
X378059I-2191J0D01*
G01*
Y84652D01*
Y84652D01*
G75*
G02*
X378330Y85708I2189J0D01*
G01*
X378352Y85747D01*
X378898Y86691D01*
Y104652D01*
X378858D01*
Y103864D01*
G75*
G02*
X371642I-3608J0D01*
G01*
Y104652D01*
X368858D01*
Y103864D01*
G75*
G02*
X361642I-3608J0D01*
G01*
Y104652D01*
X358858D01*
Y103864D01*
G75*
G02*
X351642I-3608J0D01*
G01*
Y104652D01*
X348858D01*
Y103864D01*
G75*
G02*
X341642I-3608J0D01*
G01*
Y104652D01*
X338858D01*
Y103864D01*
G75*
G02*
X331642I-3608J0D01*
G01*
Y104652D01*
X328859D01*
Y103864D01*
G75*
G02*
X321642I-3608J0D01*
G01*
Y104652D01*
X318859D01*
Y103864D01*
G75*
G02*
X311642I-3608J0D01*
G01*
Y104652D01*
X308859D01*
Y103864D01*
G75*
G02*
X301642I-3608J0D01*
G01*
Y104652D01*
X298859D01*
Y103864D01*
G75*
G02*
X291642I-3608J0D01*
G01*
Y104652D01*
X288859D01*
Y103864D01*
G75*
G02*
X281642I-3608J0D01*
G01*
Y104652D01*
X278859D01*
Y103864D01*
G75*
G02*
X271642I-3608J0D01*
G01*
Y104652D01*
X268859D01*
Y103864D01*
G75*
G02*
X261642I-3608J0D01*
G01*
Y104652D01*
X258859D01*
Y103864D01*
G75*
G02*
X251642I-3608J0D01*
G01*
Y104652D01*
X248859D01*
Y103864D01*
G75*
G02*
X241642I-3608J0D01*
G01*
Y104652D01*
X238859D01*
Y103864D01*
G75*
G02*
X231642I-3608J0D01*
G01*
Y104652D01*
X228859D01*
Y103864D01*
G75*
G02*
X221642I-3608J0D01*
G01*
Y104652D01*
X218858D01*
Y103864D01*
G75*
G02*
X218381Y102072I-3608J0D01*
G01*
G75*
G02*
X218375Y102060I-120J60D01*
G01*
X216489Y98794D01*
X220728Y94555D01*
X227272D01*
G75*
G02*
X226809Y95902I1728J1346D01*
G01*
G75*
G02*
X230076Y97810I2191J0D01*
G01*
G75*
G02*
X230095Y97799I-158J-304D01*
G01*
X231384Y97055D01*
X241500D01*
G75*
G02*
X242317Y96716I0J-1154D01*
G01*
X243060Y95973D01*
G75*
G02*
X246326Y97810I2190J-72D01*
G01*
G75*
G02*
X246345Y97799I-158J-304D01*
G01*
X247634Y97055D01*
X266616D01*
X267905Y97799D01*
G75*
G02*
X267924Y97810I177J-293D01*
G01*
G75*
G02*
X271191Y95902I1076J-1909D01*
G01*
G75*
G02*
X267924Y93993I-2191J0D01*
G01*
G75*
G02*
X267905Y94004I158J304D01*
G01*
X267192Y94415D01*
G75*
G02*
X267441Y93402I-1943J-1013D01*
G01*
G75*
G02*
X264174Y91493I-2191J0D01*
G01*
G75*
G02*
X264155Y91504I158J304D01*
G01*
X263442Y91915D01*
G75*
G02*
X263691Y90902I-1943J-1013D01*
G01*
G75*
G02*
X260424Y88993I-2191J0D01*
G01*
G75*
G02*
X260405Y89004I158J304D01*
G01*
X259116Y89748D01*
X228213D01*
G75*
G02*
X228676Y88402I-1728J-1346D01*
G01*
G75*
G02*
X225408Y86493I-2191J0D01*
G01*
G75*
G02*
X225389Y86504I158J304D01*
G01*
X224100Y87248D01*
X209000D01*
G75*
G02*
X208183Y87587I0J1154D01*
G01*
X201120Y94650D01*
X199710Y95028D01*
G75*
G02*
X198059Y97152I540J2123D01*
G01*
G75*
G02*
X202373Y97692I2191J0D01*
G01*
X202751Y96282D01*
X209478Y89555D01*
X224100D01*
X224435Y89748D01*
X212750D01*
G75*
G02*
X211933Y90087I0J1154D01*
G01*
X204436Y97585D01*
G75*
G02*
X204096Y98402I814J817D01*
G01*
Y98646D01*
X202125Y102060D01*
G75*
G02*
X202119Y102072I114J72D01*
G01*
G75*
G02*
X201642Y103864I3131J1793D01*
G01*
Y104652D01*
X198858D01*
Y103864D01*
G75*
G02*
X198381Y102072I-3608J0D01*
G01*
G75*
G02*
X198375Y102060I-120J60D01*
G01*
X196402Y98643D01*
Y98402D01*
G75*
G02*
X196064Y97586I-1153J0D01*
G01*
X192316Y93836D01*
G75*
G02*
X191498Y93498I-817J817D01*
G01*
X180728D01*
G75*
G02*
X181191Y92152I-1728J-1346D01*
G01*
G75*
G02*
X177924Y90243I-2191J0D01*
G01*
G75*
G02*
X177905Y90254I158J304D01*
G01*
X176616Y90998D01*
X160250D01*
G75*
G02*
X159433Y91337I0J1154D01*
G01*
X154436Y96335D01*
G75*
G02*
X154096Y97152I814J817D01*
G01*
Y98646D01*
X152125Y102060D01*
G75*
G02*
X152119Y102072I114J72D01*
G01*
G75*
G02*
X151689Y103281I3135J1794D01*
G01*
X147603Y99195D01*
Y78404D01*
Y78402D01*
Y78402D01*
G75*
G02*
X147280Y77622I-1103J0D01*
G01*
X142603Y72945D01*
G37*
X156404Y98646D02*
G36*
X156404Y98646D02*
Y97630D01*
X160728Y93305D01*
X166022D01*
G75*
G02*
X165559Y94652I1728J1346D01*
G01*
G75*
G02*
X166022Y95998I2191J0D01*
G01*
X165134D01*
X163845Y95254D01*
G75*
G02*
X163826Y95243I-177J293D01*
G01*
G75*
G02*
X160559Y97152I-1076J1909D01*
G01*
G75*
G02*
X163826Y99060I2191J0D01*
G01*
G75*
G02*
X163845Y99049I-158J-304D01*
G01*
X165134Y98305D01*
X183522D01*
X184011Y98794D01*
X182125Y102060D01*
G75*
G02*
X182119Y102072I114J72D01*
G01*
G75*
G02*
X181642Y103864I3131J1793D01*
G01*
Y104652D01*
X178859D01*
Y103864D01*
G75*
G02*
X171642I-3608J0D01*
G01*
Y104652D01*
X168859D01*
Y103864D01*
G75*
G02*
X161642I-3608J0D01*
G01*
Y104652D01*
X158858D01*
Y103864D01*
G75*
G02*
X158381Y102072I-3608J0D01*
G01*
G75*
G02*
X158375Y102060I-120J60D01*
G01*
X156404Y98646D01*
G37*
X169800Y95998D02*
G36*
X169800Y95998D02*
X170134Y95805D01*
X191022D01*
X194010Y98795D01*
X192125Y102060D01*
G75*
G02*
X192119Y102072I114J72D01*
G01*
G75*
G02*
X191642Y103864I3131J1793D01*
G01*
Y104652D01*
X188858D01*
Y103864D01*
G75*
G02*
X188381Y102072I-3608J0D01*
G01*
G75*
G02*
X188375Y102060I-120J60D01*
G01*
X186402Y98643D01*
Y98402D01*
G75*
G02*
X186065Y97586I-1155J0D01*
G01*
X184816Y96336D01*
G75*
G02*
X183998Y95998I-815J814D01*
G01*
X169800D01*
G37*
X208375Y102060D02*
G36*
X208375Y102060D02*
X206489Y98794D01*
X213228Y92055D01*
X236950D01*
X236616Y92248D01*
X220250D01*
G75*
G02*
X219433Y92587I0J1154D01*
G01*
X214436Y97585D01*
G75*
G02*
X214096Y98402I814J817D01*
G01*
Y98646D01*
X212125Y102060D01*
G75*
G02*
X212119Y102072I114J72D01*
G01*
G75*
G02*
X211642Y103864I3131J1793D01*
G01*
Y104652D01*
X208858D01*
Y103864D01*
G75*
G02*
X208381Y102072I-3608J0D01*
G01*
G75*
G02*
X208375Y102060I-120J60D01*
G01*
G37*
X209001Y73021D02*
G36*
X209001Y73021D02*
X208878Y72561D01*
X223344D01*
G75*
G02*
X222924Y72743I656J2091D01*
G01*
G75*
G02*
X222905Y72754I158J304D01*
G01*
X221616Y73498D01*
X209478D01*
X209001Y73021D01*
G37*
X17969Y124652D02*
G36*
X17969Y124652D02*
Y112104D01*
G75*
G03*
X21500Y109675I3531J1352D01*
G01*
X57750D01*
G75*
G02*
X64807Y104652I0J-7469D01*
G01*
X70837D01*
X59295Y116194D01*
G75*
G02*
X58898Y117151I953J957D01*
G01*
G75*
G02*
Y117152I1253J0D01*
G01*
Y121789D01*
X57245Y124652D01*
X53181D01*
G75*
G02*
X47319I-2931J2500D01*
G01*
X33687D01*
G75*
G02*
X26813I-3437J2500D01*
G01*
X17969D01*
G37*
X61602Y121789D02*
G36*
X61602Y121789D02*
Y117712D01*
X74663Y104652D01*
X120397D01*
Y107149D01*
Y107151D01*
Y107152D01*
G75*
G02*
X120720Y107931I1103J0D01*
G01*
X136088Y123299D01*
X122060D01*
X111207Y112446D01*
G75*
G02*
X110250Y112049I-957J953D01*
G01*
X72750D01*
G75*
G02*
X71793Y112446I-1J1350D01*
G01*
X65545Y118694D01*
G75*
G02*
X65148Y119651I953J957D01*
G01*
G75*
G02*
Y119652I1253J0D01*
G01*
Y124652D01*
X63255D01*
X61602Y121789D01*
G37*
X158219Y109810D02*
G36*
X158219Y109810D02*
X157002Y108594D01*
G75*
G02*
X158858Y105439I-1753J-3155D01*
G01*
Y104652D01*
X161642D01*
Y105439D01*
G75*
G02*
X168859I3608J0D01*
G01*
Y104652D01*
X171642D01*
Y105439D01*
G75*
G02*
X178859I3608J0D01*
G01*
Y104652D01*
X181642D01*
Y105439D01*
G75*
G02*
X188858I3608J0D01*
G01*
Y104652D01*
X191642D01*
Y105439D01*
G75*
G02*
X198858I3608J0D01*
G01*
Y104652D01*
X201642D01*
Y105439D01*
G75*
G02*
X208858I3608J0D01*
G01*
Y104652D01*
X211642D01*
Y105439D01*
G75*
G02*
X218858I3608J0D01*
G01*
Y104652D01*
X221642D01*
Y105439D01*
G75*
G02*
X228859I3608J0D01*
G01*
Y104652D01*
X231642D01*
Y105439D01*
G75*
G02*
X238859I3608J0D01*
G01*
Y104652D01*
X241642D01*
Y105439D01*
G75*
G02*
X248859I3608J0D01*
G01*
Y104652D01*
X251642D01*
Y105439D01*
G75*
G02*
X258859I3608J0D01*
G01*
Y104652D01*
X261642D01*
Y105439D01*
G75*
G02*
X268859I3608J0D01*
G01*
Y104652D01*
X271642D01*
Y105439D01*
G75*
G02*
X278859I3608J0D01*
G01*
Y104652D01*
X281642D01*
Y105439D01*
G75*
G02*
X288859I3608J0D01*
G01*
Y104652D01*
X291642D01*
Y105439D01*
G75*
G02*
X298859I3608J0D01*
G01*
Y104652D01*
X301642D01*
Y105439D01*
G75*
G02*
X308859I3608J0D01*
G01*
Y104652D01*
X311642D01*
Y105439D01*
G75*
G02*
X318859I3608J0D01*
G01*
Y104652D01*
X321642D01*
Y105439D01*
G75*
G02*
X328859I3608J0D01*
G01*
Y104652D01*
X331642D01*
Y105439D01*
G75*
G02*
Y105440I3470J0D01*
G01*
G75*
G02*
X332118Y107230I3604J0D01*
G01*
G75*
G02*
X332125Y107243I153J-77D01*
G01*
X333601Y109799D01*
X311191D01*
G75*
G02*
X310913Y109834I3J1127D01*
G01*
G75*
G02*
X307924Y108993I-1913J1067D01*
G01*
G75*
G02*
X307905Y109004I158J304D01*
G01*
X306616Y109748D01*
X162634D01*
X161345Y109004D01*
G75*
G02*
X161326Y108993I-177J293D01*
G01*
G75*
G02*
X158337Y109834I-1076J1908D01*
G01*
G75*
G02*
X158219Y109810I-258J968D01*
G01*
G37*
X332163Y124652D02*
G36*
X332163Y124652D02*
X336205Y120609D01*
G75*
G02*
X336602Y119652I-953J-957D01*
G01*
Y110313D01*
X338375Y107243D01*
G75*
G02*
X338382Y107230I-146J-90D01*
G01*
G75*
G02*
X338858Y105439I-3136J-1792D01*
G01*
Y104652D01*
X341642D01*
Y105439D01*
G75*
G02*
Y105440I3470J0D01*
G01*
G75*
G02*
X342118Y107230I3604J0D01*
G01*
G75*
G02*
X342125Y107243I153J-77D01*
G01*
X343898Y110313D01*
Y119091D01*
X338337Y124652D01*
X332163D01*
G37*
X342163D02*
G36*
X342163Y124652D02*
X346205Y120609D01*
G75*
G02*
X346602Y119652I-953J-957D01*
G01*
Y110313D01*
X348375Y107243D01*
G75*
G02*
X348382Y107230I-146J-90D01*
G01*
G75*
G02*
X348858Y105439I-3136J-1792D01*
G01*
Y104652D01*
X351642D01*
Y105439D01*
G75*
G02*
Y105440I3470J0D01*
G01*
G75*
G02*
X352118Y107230I3604J0D01*
G01*
G75*
G02*
X352125Y107243I153J-77D01*
G01*
X353898Y110313D01*
Y119091D01*
X348337Y124652D01*
X342163D01*
G37*
X352163D02*
G36*
X352163Y124652D02*
X356205Y120609D01*
G75*
G02*
X356602Y119652I-953J-957D01*
G01*
Y110313D01*
X358375Y107243D01*
G75*
G02*
X358382Y107230I-146J-90D01*
G01*
G75*
G02*
X358858Y105439I-3136J-1792D01*
G01*
Y104652D01*
X361642D01*
Y105439D01*
G75*
G02*
Y105440I3470J0D01*
G01*
G75*
G02*
X362118Y107230I3604J0D01*
G01*
G75*
G02*
X362125Y107243I153J-77D01*
G01*
X363898Y110313D01*
Y119091D01*
X358337Y124652D01*
X352163D01*
G37*
X362163D02*
G36*
X362163Y124652D02*
X366205Y120609D01*
G75*
G02*
X366602Y119652I-953J-957D01*
G01*
Y110313D01*
X368375Y107243D01*
G75*
G02*
X368382Y107230I-146J-90D01*
G01*
G75*
G02*
X368858Y105439I-3136J-1792D01*
G01*
Y104652D01*
X371642D01*
Y105439D01*
G75*
G02*
Y105440I3470J0D01*
G01*
G75*
G02*
X372118Y107230I3604J0D01*
G01*
G75*
G02*
X372125Y107243I153J-77D01*
G01*
X373898Y110313D01*
Y119091D01*
X368337Y124652D01*
X362163D01*
G37*
X372163D02*
G36*
X372163Y124652D02*
X376205Y120609D01*
G75*
G02*
X376602Y119652I-953J-957D01*
G01*
Y110313D01*
X378375Y107243D01*
G75*
G02*
X378382Y107230I-146J-90D01*
G01*
G75*
G02*
X378858Y105439I-3136J-1792D01*
G01*
Y104652D01*
X378898D01*
Y124652D01*
X372163D01*
G37*
X381602D02*
G36*
X381602Y124652D02*
Y104652D01*
X381642D01*
Y105439D01*
G75*
G02*
X388859I3608J0D01*
G01*
Y104652D01*
X396398D01*
G75*
G02*
X404102I3852J0D01*
G01*
X410031D01*
Y124652D01*
X404500D01*
G75*
G02*
X396000I-4250J0D01*
G01*
X381602D01*
G37*
X17969Y137152D02*
G36*
X17969Y137152D02*
Y124652D01*
X26813D01*
G75*
G02*
X26000Y127152I3437J2500D01*
G01*
G75*
G02*
X34500I4250J0D01*
G01*
G75*
G02*
X33687Y124652I-4250J0D01*
G01*
X47319D01*
G75*
G02*
X46398Y127152I2931J2500D01*
G01*
G75*
G02*
X54102I3852J0D01*
G01*
G75*
G02*
X53181Y124652I-3852J0D01*
G01*
X57245D01*
X56929Y125199D01*
G75*
G02*
X56398Y127150I3319J1951D01*
G01*
G75*
G02*
Y127151I4511J0D01*
G01*
Y127152D01*
G75*
G02*
X64102I3852J0D01*
G01*
Y127151D01*
G75*
G02*
Y127150I-4511J0D01*
G01*
G75*
G02*
X63571Y125199I-3850J0D01*
G01*
X63255Y124652D01*
X65148D01*
Y137152D01*
X54102D01*
G75*
G02*
X46398I-3852J0D01*
G01*
X34102D01*
G75*
G02*
X26398I-3852J0D01*
G01*
X17969D01*
G37*
X147457Y136196D02*
G36*
X147457Y136196D02*
G75*
G02*
X147215Y136004I-950J947D01*
G01*
X360250D01*
G75*
G02*
X361207Y135607I1J-1350D01*
G01*
X372163Y124652D01*
X378898D01*
Y137152D01*
X148413D01*
X147457Y136196D01*
G37*
X330965Y125799D02*
G36*
X330965Y125799D02*
G75*
G02*
X331207Y125607I-708J-1139D01*
G01*
X332163Y124652D01*
X338337D01*
X337190Y125799D01*
X330965D01*
G37*
X338465Y128299D02*
G36*
X338465Y128299D02*
G75*
G02*
X338707Y128107I-708J-1139D01*
G01*
X342163Y124652D01*
X348337D01*
X344690Y128299D01*
X338465D01*
G37*
X345965Y130799D02*
G36*
X345965Y130799D02*
G75*
G02*
X346207Y130607I-708J-1139D01*
G01*
X352163Y124652D01*
X358337D01*
X352190Y130799D01*
X345965D01*
G37*
X353465Y133299D02*
G36*
X353465Y133299D02*
G75*
G02*
X353707Y133107I-708J-1139D01*
G01*
X362163Y124652D01*
X368337D01*
X359690Y133299D01*
X353465D01*
G37*
X381602Y137152D02*
G36*
X381602Y137152D02*
Y124652D01*
X396000D01*
G75*
G02*
X404500I4250J0D01*
G01*
X410031D01*
Y137152D01*
X381602D01*
G37*
X17969Y147152D02*
G36*
X17969Y147152D02*
Y137152D01*
X26398D01*
G75*
G02*
X34102I3852J0D01*
G01*
X46398D01*
G75*
G02*
X54102I3852J0D01*
G01*
X65148D01*
Y147152D01*
X64102D01*
G75*
G02*
X56398I-3852J0D01*
G01*
X54102D01*
G75*
G02*
X46398I-3852J0D01*
G01*
X34102D01*
G75*
G02*
X26398I-3852J0D01*
G01*
X17969D01*
G37*
X154560Y143299D02*
G36*
X154560Y143299D02*
X148413Y137152D01*
X378898D01*
Y147152D01*
X367163D01*
X363707Y143696D01*
G75*
G02*
X362750Y143299I-957J953D01*
G01*
X154560D01*
G37*
X356207Y146196D02*
G36*
X356207Y146196D02*
G75*
G02*
X355965Y146004I-950J947D01*
G01*
X362190D01*
X363337Y147152D01*
X357163D01*
X356207Y146196D01*
G37*
X381602Y147152D02*
G36*
X381602Y147152D02*
Y137152D01*
X410031D01*
Y147152D01*
X381602D01*
G37*
X17969Y157152D02*
G36*
X17969Y157152D02*
Y147152D01*
X26398D01*
G75*
G02*
X34102I3852J0D01*
G01*
X46398D01*
G75*
G02*
X54102I3852J0D01*
G01*
X56398D01*
G75*
G02*
X64102I3852J0D01*
G01*
X65148D01*
Y157152D01*
X54102D01*
G75*
G02*
X46398I-3852J0D01*
G01*
X34102D01*
G75*
G02*
X26398I-3852J0D01*
G01*
X17969D01*
G37*
X323707Y156196D02*
G36*
X323707Y156196D02*
G75*
G02*
X323465Y156004I-950J947D01*
G01*
X330940D01*
X332087Y157152D01*
X324663D01*
X323707Y156196D01*
G37*
X332457Y153696D02*
G36*
X332457Y153696D02*
G75*
G02*
X332215Y153504I-950J947D01*
G01*
X339690D01*
X343337Y157152D01*
X335913D01*
X332457Y153696D01*
G37*
X341207Y151196D02*
G36*
X341207Y151196D02*
G75*
G02*
X340965Y151004I-950J947D01*
G01*
X347190D01*
X353337Y157152D01*
X346602D01*
G75*
G02*
Y157151I-1253J0D01*
G01*
G75*
G02*
X346205Y156194I-1350J0D01*
G01*
X341207Y151196D01*
G37*
X348707Y148696D02*
G36*
X348707Y148696D02*
G75*
G02*
X348465Y148504I-950J947D01*
G01*
X354690D01*
X363337Y157152D01*
X356602D01*
G75*
G02*
Y157151I-1253J0D01*
G01*
G75*
G02*
X356205Y156194I-1350J0D01*
G01*
X348707Y148696D01*
G37*
X357163Y147152D02*
G36*
X357163Y147152D02*
X363337D01*
X373337Y157152D01*
X366602D01*
G75*
G02*
Y157151I-1253J0D01*
G01*
G75*
G02*
X366205Y156194I-1350J0D01*
G01*
X357163Y147152D01*
G37*
X376205Y156194D02*
G36*
X376205Y156194D02*
X367163Y147152D01*
X378898D01*
Y157152D01*
X376602D01*
G75*
G02*
Y157151I-1253J0D01*
G01*
G75*
G02*
X376205Y156194I-1350J0D01*
G01*
G37*
X381602Y157152D02*
G36*
X381602Y157152D02*
Y147152D01*
X410031D01*
Y157152D01*
X381602D01*
G37*
X17969Y164652D02*
G36*
X17969Y164652D02*
Y157152D01*
X26398D01*
G75*
G02*
X34102I3852J0D01*
G01*
X46398D01*
G75*
G02*
X54102I3852J0D01*
G01*
X65148D01*
Y159652D01*
G75*
G02*
X65545Y160609I1350J1D01*
G01*
X69587Y164652D01*
X63181D01*
G75*
G02*
X57319I-2931J2500D01*
G01*
X53181D01*
G75*
G02*
X47319I-2931J2500D01*
G01*
X33181D01*
G75*
G02*
X27319I-2931J2500D01*
G01*
X17969D01*
G37*
X151244Y163864D02*
G36*
X151244Y163864D02*
Y164652D01*
X147163D01*
X153310Y158504D01*
X322190D01*
X323898Y160212D01*
Y160519D01*
G75*
G02*
X321642Y163864I1353J3345D01*
G01*
Y164652D01*
X318859D01*
Y163864D01*
G75*
G02*
X311642I-3608J0D01*
G01*
Y164652D01*
X308859D01*
Y163864D01*
G75*
G02*
X301642I-3608J0D01*
G01*
Y164652D01*
X298859D01*
Y163864D01*
G75*
G02*
X291642I-3608J0D01*
G01*
Y164652D01*
X288859D01*
Y163864D01*
G75*
G02*
X281642I-3608J0D01*
G01*
Y164652D01*
X279197D01*
X278735Y162930D01*
G75*
G02*
X278730Y162912I-228J54D01*
G01*
G75*
G02*
X271642Y163864I-3480J952D01*
G01*
Y164652D01*
X268859D01*
Y163864D01*
G75*
G02*
X261642I-3608J0D01*
G01*
Y164652D01*
X258859D01*
Y163864D01*
G75*
G02*
X251642I-3608J0D01*
G01*
Y164652D01*
X248859D01*
Y163864D01*
G75*
G02*
X241642I-3608J0D01*
G01*
Y164652D01*
X238859D01*
Y163864D01*
G75*
G02*
X231642I-3608J0D01*
G01*
Y164652D01*
X228859D01*
Y163864D01*
G75*
G02*
X221642I-3608J0D01*
G01*
Y164652D01*
X218859D01*
Y163864D01*
G75*
G02*
X211642I-3608J0D01*
G01*
Y164652D01*
X208859D01*
Y163864D01*
G75*
G02*
X201642I-3608J0D01*
G01*
Y164652D01*
X198859D01*
Y163864D01*
G75*
G02*
X191642I-3608J0D01*
G01*
Y164652D01*
X188859D01*
Y163864D01*
G75*
G02*
X181642I-3608J0D01*
G01*
Y164652D01*
X178859D01*
Y163864D01*
G75*
G02*
X171642I-3608J0D01*
G01*
Y164652D01*
X168859D01*
Y163864D01*
G75*
G02*
X161642I-3608J0D01*
G01*
Y164652D01*
X159256D01*
Y163864D01*
G75*
G02*
X151244I-4006J0D01*
G01*
G37*
X326205Y158694D02*
G36*
X326205Y158694D02*
X324663Y157152D01*
X332087D01*
X333898Y158962D01*
Y158990D01*
X332125Y162060D01*
G75*
G02*
X332118Y162073I146J90D01*
G01*
G75*
G02*
X331642Y163864I3136J1792D01*
G01*
Y164652D01*
X328859D01*
Y163864D01*
G75*
G02*
X326602Y160519I-3609J1D01*
G01*
Y159652D01*
G75*
G02*
Y159651I-1253J0D01*
G01*
G75*
G02*
X326205Y158694I-1350J0D01*
G01*
G37*
X336205Y157444D02*
G36*
X336205Y157444D02*
X335913Y157152D01*
X343337D01*
X343898Y157712D01*
Y158990D01*
X342125Y162060D01*
G75*
G02*
X342118Y162073I146J90D01*
G01*
G75*
G02*
X341642Y163864I3136J1792D01*
G01*
Y164652D01*
X338858D01*
Y163864D01*
G75*
G02*
Y163863I-3470J0D01*
G01*
G75*
G02*
X338382Y162073I-3604J0D01*
G01*
G75*
G02*
X338375Y162060I-153J77D01*
G01*
X336602Y158990D01*
Y158402D01*
G75*
G02*
Y158401I-1253J0D01*
G01*
G75*
G02*
X336205Y157444I-1350J0D01*
G01*
G37*
X346602Y158990D02*
G36*
X346602Y158990D02*
Y157152D01*
X353337D01*
X353898Y157712D01*
Y158990D01*
X352125Y162060D01*
G75*
G02*
X352118Y162073I146J90D01*
G01*
G75*
G02*
X351642Y163864I3136J1792D01*
G01*
Y164652D01*
X348858D01*
Y163864D01*
G75*
G02*
Y163863I-3470J0D01*
G01*
G75*
G02*
X348382Y162073I-3604J0D01*
G01*
G75*
G02*
X348375Y162060I-153J77D01*
G01*
X346602Y158990D01*
G37*
X356602D02*
G36*
X356602Y158990D02*
Y157152D01*
X363337D01*
X363898Y157712D01*
Y158990D01*
X362125Y162060D01*
G75*
G02*
X362118Y162073I146J90D01*
G01*
G75*
G02*
X361642Y163864I3136J1792D01*
G01*
Y164652D01*
X358858D01*
Y163864D01*
G75*
G02*
Y163863I-3470J0D01*
G01*
G75*
G02*
X358382Y162073I-3604J0D01*
G01*
G75*
G02*
X358375Y162060I-153J77D01*
G01*
X356602Y158990D01*
G37*
X366602D02*
G36*
X366602Y158990D02*
Y157152D01*
X373337D01*
X373898Y157712D01*
Y158990D01*
X372125Y162060D01*
G75*
G02*
X372118Y162073I146J90D01*
G01*
G75*
G02*
X371642Y163864I3136J1792D01*
G01*
Y164652D01*
X368858D01*
Y163864D01*
G75*
G02*
Y163863I-3470J0D01*
G01*
G75*
G02*
X368382Y162073I-3604J0D01*
G01*
G75*
G02*
X368375Y162060I-153J77D01*
G01*
X366602Y158990D01*
G37*
X376602D02*
G36*
X376602Y158990D02*
Y157152D01*
X378898D01*
Y164652D01*
X378858D01*
Y163864D01*
G75*
G02*
Y163863I-3470J0D01*
G01*
G75*
G02*
X378382Y162073I-3604J0D01*
G01*
G75*
G02*
X378375Y162060I-153J77D01*
G01*
X376602Y158990D01*
G37*
X381602Y162209D02*
G36*
X381602Y162209D02*
Y157152D01*
X410031D01*
Y164652D01*
X389256D01*
Y163864D01*
G75*
G02*
X381602Y162209I-4006J0D01*
G01*
G37*
X17969Y179652D02*
G36*
X17969Y179652D02*
Y164652D01*
X27319D01*
G75*
G02*
X26398Y167152I2931J2500D01*
G01*
G75*
G02*
X34102I3852J0D01*
G01*
G75*
G02*
X33181Y164652I-3852J0D01*
G01*
X47319D01*
G75*
G02*
X46398Y167152I2931J2500D01*
G01*
G75*
G02*
X54102I3852J0D01*
G01*
G75*
G02*
X53181Y164652I-3852J0D01*
G01*
X57319D01*
G75*
G02*
X56398Y167152I2931J2500D01*
G01*
G75*
G02*
X64102I3852J0D01*
G01*
G75*
G02*
X63181Y164652I-3852J0D01*
G01*
X69587D01*
X78043Y173107D01*
G75*
G02*
X79000Y173504I957J-953D01*
G01*
X89011D01*
G75*
G02*
X86398Y177152I1239J3648D01*
G01*
Y177152D01*
G75*
G02*
Y177153I4511J0D01*
G01*
G75*
G02*
X86929Y179104I3850J0D01*
G01*
X87245Y179652D01*
X53181D01*
G75*
G02*
X54102Y177152I-2931J-2500D01*
G01*
G75*
G02*
X46398I-3852J0D01*
G01*
G75*
G02*
X47319Y179652I3852J0D01*
G01*
X33181D01*
G75*
G02*
X34102Y177152I-2931J-2500D01*
G01*
G75*
G02*
X26398I-3852J0D01*
G01*
G75*
G02*
X27319Y179652I3852J0D01*
G01*
X17969D01*
G37*
X93255D02*
G36*
X93255Y179652D02*
X93571Y179104D01*
G75*
G02*
X94102Y177153I-3319J-1951D01*
G01*
G75*
G02*
Y177152I-4511J0D01*
G01*
Y177152D01*
G75*
G02*
X91489Y173504I-3852J0D01*
G01*
X109011D01*
G75*
G02*
X106398Y177152I1239J3648D01*
G01*
Y177152D01*
G75*
G02*
Y177153I4511J0D01*
G01*
G75*
G02*
X106929Y179104I3850J0D01*
G01*
X107245Y179652D01*
X93255D01*
G37*
X113255D02*
G36*
X113255Y179652D02*
X113571Y179104D01*
G75*
G02*
X114102Y177153I-3319J-1951D01*
G01*
G75*
G02*
Y177152I-4511J0D01*
G01*
Y177152D01*
G75*
G02*
X111489Y173504I-3852J0D01*
G01*
X135250D01*
G75*
G02*
X136207Y173107I1J-1350D01*
G01*
X137415Y171900D01*
X141202Y170884D01*
G75*
G02*
X143898Y168391I-953J-3733D01*
G01*
Y179652D01*
X113255D01*
G37*
X146602D02*
G36*
X146602Y179652D02*
Y165212D01*
X147163Y164652D01*
X151244D01*
Y165439D01*
G75*
G02*
X159256I4006J0D01*
G01*
Y164652D01*
X161642D01*
Y165439D01*
G75*
G02*
X168859I3608J0D01*
G01*
Y164652D01*
X171642D01*
Y165439D01*
G75*
G02*
X178859I3608J0D01*
G01*
Y164652D01*
X181642D01*
Y165439D01*
G75*
G02*
X188859I3608J0D01*
G01*
Y164652D01*
X191642D01*
Y165439D01*
G75*
G02*
X198859I3608J0D01*
G01*
Y164652D01*
X201642D01*
Y165439D01*
G75*
G02*
X203337Y168498I3608J0D01*
G01*
X202634D01*
X201345Y167754D01*
G75*
G02*
X201326Y167743I-177J293D01*
G01*
G75*
G02*
X198059Y169652I-1076J1909D01*
G01*
G75*
G02*
X201326Y171560I2191J0D01*
G01*
G75*
G02*
X201345Y171549I-158J-304D01*
G01*
X202634Y170805D01*
X229116D01*
X229450Y170998D01*
X212750D01*
G75*
G02*
X211933Y171337I0J1154D01*
G01*
X208469Y174802D01*
X205133Y175258D01*
G75*
G02*
X204340Y175372I121J3635D01*
G01*
G75*
G02*
X204293Y175385I308J1223D01*
G01*
G75*
G02*
X201642Y178864I957J3479D01*
G01*
Y179652D01*
X198859D01*
Y178864D01*
G75*
G02*
X191642I-3608J0D01*
G01*
Y179652D01*
X188859D01*
Y178864D01*
G75*
G02*
X181642I-3608J0D01*
G01*
Y179652D01*
X178859D01*
Y178864D01*
G75*
G02*
X171642I-3608J0D01*
G01*
Y179652D01*
X168859D01*
Y178864D01*
G75*
G02*
X161642I-3608J0D01*
G01*
Y179652D01*
X158859D01*
Y178864D01*
G75*
G02*
X151642I-3608J0D01*
G01*
Y179652D01*
X146602D01*
G37*
X208859Y165439D02*
G36*
X208859Y165439D02*
Y164652D01*
X211642D01*
Y165439D01*
G75*
G02*
X213337Y168498I3608J0D01*
G01*
X207164D01*
G75*
G02*
X208859Y165439I-1913J-3059D01*
G01*
G37*
X209197Y179652D02*
G36*
X209197Y179652D02*
X210044Y176489D01*
X213228Y173305D01*
X292866D01*
X293200Y173498D01*
X231500D01*
G75*
G02*
X230683Y173837I0J1154D01*
G01*
X227996Y176524D01*
G75*
G02*
X221642Y178864I-2746J2341D01*
G01*
Y179652D01*
X218858D01*
Y178864D01*
G75*
G02*
X211642I-3608J0D01*
G01*
Y179652D01*
X209197D01*
G37*
X218859Y165439D02*
G36*
X218859Y165439D02*
Y164652D01*
X221642D01*
Y165439D01*
G75*
G02*
X223337Y168498I3608J0D01*
G01*
X217164D01*
G75*
G02*
X218859Y165439I-1913J-3059D01*
G01*
G37*
X228859D02*
G36*
X228859Y165439D02*
Y164652D01*
X231642D01*
Y165439D01*
G75*
G02*
X232403Y167656I3611J-1D01*
G01*
G75*
G02*
X230424Y167743I-903J1998D01*
G01*
G75*
G02*
X230405Y167754I158J304D01*
G01*
X229116Y168498D01*
X227164D01*
G75*
G02*
X228859Y165439I-1913J-3059D01*
G01*
G37*
Y179652D02*
G36*
X228859Y179652D02*
Y178924D01*
X231978Y175805D01*
X233337D01*
G75*
G02*
X231642Y178864I1913J3059D01*
G01*
Y179652D01*
X228859D01*
G37*
X233691Y169652D02*
G36*
X233691Y169652D02*
G75*
G02*
X233378Y168524I-2191J0D01*
G01*
G75*
G02*
X238859Y165439I1872J-3085D01*
G01*
Y164652D01*
X241642D01*
Y165439D01*
G75*
G02*
X248859I3608J0D01*
G01*
Y164652D01*
X251642D01*
Y165439D01*
G75*
G02*
X258859I3608J0D01*
G01*
Y164652D01*
X261642D01*
Y165439D01*
G75*
G02*
X268859I3608J0D01*
G01*
Y164652D01*
X271642D01*
Y165439D01*
G75*
G02*
X274290Y168917I3609J0D01*
G01*
G75*
G02*
X274342Y168931I249J-816D01*
G01*
G75*
G02*
X275132Y169045I904J-3468D01*
G01*
X278469Y169502D01*
X279433Y170466D01*
G75*
G02*
X280250Y170805I817J-814D01*
G01*
X287866D01*
X288200Y170998D01*
X233228D01*
G75*
G02*
X233691Y169652I-1728J-1346D01*
G01*
G37*
X238859Y178864D02*
G36*
X238859Y178864D02*
G75*
G02*
X237164Y175805I-3608J0D01*
G01*
X243337D01*
G75*
G02*
X241642Y178864I1913J3059D01*
G01*
Y179652D01*
X238859D01*
Y178864D01*
G37*
X248859D02*
G36*
X248859Y178864D02*
G75*
G02*
X247164Y175805I-3608J0D01*
G01*
X253337D01*
G75*
G02*
X251642Y178864I1913J3059D01*
G01*
Y179652D01*
X248859D01*
Y178864D01*
G37*
X258859D02*
G36*
X258859Y178864D02*
G75*
G02*
X257164Y175805I-3608J0D01*
G01*
X263337D01*
G75*
G02*
X261642Y178864I1913J3059D01*
G01*
Y179652D01*
X258859D01*
Y178864D01*
G37*
X268859D02*
G36*
X268859Y178864D02*
G75*
G02*
X267164Y175805I-3608J0D01*
G01*
X273337D01*
G75*
G02*
X271642Y178864I1913J3059D01*
G01*
Y179652D01*
X268859D01*
Y178864D01*
G37*
X278859D02*
G36*
X278859Y178864D02*
G75*
G02*
X277164Y175805I-3608J0D01*
G01*
X283337D01*
G75*
G02*
X281642Y178864I1913J3059D01*
G01*
Y179652D01*
X278859D01*
Y178864D01*
G37*
X280044Y167814D02*
G36*
X280044Y167814D02*
X279197Y164652D01*
X281642D01*
Y165439D01*
G75*
G02*
X283337Y168498I3608J0D01*
G01*
X280728D01*
X280044Y167814D01*
G37*
X287866Y168498D02*
G36*
X287866Y168498D02*
X287164D01*
G75*
G02*
X288859Y165439I-1913J-3059D01*
G01*
Y164652D01*
X291642D01*
Y165439D01*
G75*
G02*
X298859I3608J0D01*
G01*
Y164652D01*
X301642D01*
Y165439D01*
G75*
G02*
X308859I3608J0D01*
G01*
Y164652D01*
X311642D01*
Y165439D01*
G75*
G02*
X318859I3608J0D01*
G01*
Y164652D01*
X321642D01*
Y165439D01*
G75*
G02*
X328859I3608J0D01*
G01*
Y164652D01*
X331642D01*
Y165439D01*
G75*
G02*
X338858I3608J0D01*
G01*
Y164652D01*
X341642D01*
Y165439D01*
G75*
G02*
X348858I3608J0D01*
G01*
Y164652D01*
X351642D01*
Y165439D01*
G75*
G02*
X358858I3608J0D01*
G01*
Y164652D01*
X361642D01*
Y165439D01*
G75*
G02*
X368858I3608J0D01*
G01*
Y164652D01*
X371642D01*
Y165439D01*
G75*
G02*
X378858I3608J0D01*
G01*
Y164652D01*
X378898D01*
Y175902D01*
G75*
G02*
X379295Y176859I1350J1D01*
G01*
X382087Y179652D01*
X380913D01*
X372456Y171195D01*
G75*
G02*
X370794Y170998I-956J957D01*
G01*
X297634D01*
X296345Y170254D01*
G75*
G02*
X296320Y170240I-531J900D01*
G01*
G75*
G02*
X294174Y170243I-1070J1912D01*
G01*
G75*
G02*
X294155Y170254I158J304D01*
G01*
X292866Y170998D01*
X291978D01*
G75*
G02*
X292441Y169652I-1728J-1346D01*
G01*
G75*
G02*
X289174Y167743I-2191J0D01*
G01*
G75*
G02*
X289155Y167754I158J304D01*
G01*
X287866Y168498D01*
G37*
X288859Y178864D02*
G36*
X288859Y178864D02*
G75*
G02*
X287164Y175805I-3608J0D01*
G01*
X293337D01*
G75*
G02*
X291642Y178864I1913J3059D01*
G01*
Y179652D01*
X288859D01*
Y178864D01*
G37*
X298859D02*
G36*
X298859Y178864D02*
G75*
G02*
X297164Y175805I-3608J0D01*
G01*
X303337D01*
G75*
G02*
X301642Y178864I1913J3059D01*
G01*
Y179652D01*
X298859D01*
Y178864D01*
G37*
X308859D02*
G36*
X308859Y178864D02*
G75*
G02*
X307164Y175805I-3608J0D01*
G01*
X312866D01*
X314155Y176549D01*
G75*
G02*
X314174Y176560I177J-293D01*
G01*
G75*
G02*
X316320Y176563I1077J-1909D01*
G01*
G75*
G02*
X316345Y176549I-506J-914D01*
G01*
X317634Y175805D01*
X320037D01*
G75*
G02*
X316398Y179652I213J3846D01*
G01*
X308859D01*
Y178864D01*
G37*
X317634Y173498D02*
G36*
X317634Y173498D02*
X317300Y173305D01*
X370741D01*
X377088Y179652D01*
X339102D01*
G75*
G02*
X336211Y175921I-3853J1D01*
G01*
X332031Y174801D01*
X331067Y173837D01*
G75*
G02*
X330250Y173498I-817J814D01*
G01*
X317634D01*
G37*
X324102Y179652D02*
G36*
X324102Y179652D02*
G75*
G02*
X320463Y175805I-3852J0D01*
G01*
X329772D01*
X330399Y176432D01*
X331262Y179652D01*
X324102D01*
G37*
X381602Y175341D02*
G36*
X381602Y175341D02*
Y167094D01*
G75*
G02*
X389256Y165439I3648J-1655D01*
G01*
Y164652D01*
X410031D01*
Y179652D01*
X385913D01*
X381602Y175341D01*
G37*
X17969Y187152D02*
G36*
X17969Y187152D02*
Y179652D01*
X27319D01*
G75*
G02*
X33181I2931J-2500D01*
G01*
X47319D01*
G75*
G02*
X53181I2931J-2500D01*
G01*
X87245D01*
X88689Y182152D01*
X86929Y185199D01*
G75*
G02*
X86398Y187150I3319J1951D01*
G01*
G75*
G02*
Y187151I4511J0D01*
G01*
Y187152D01*
X84102D01*
G75*
G02*
X76398I-3852J0D01*
G01*
X64102D01*
G75*
G02*
X56398I-3852J0D01*
G01*
X54102D01*
G75*
G02*
X46398I-3852J0D01*
G01*
X34102D01*
G75*
G02*
X26398I-3852J0D01*
G01*
X17969D01*
G37*
X91811Y182152D02*
G36*
X91811Y182152D02*
X93255Y179652D01*
X107245D01*
X108689Y182152D01*
X106929Y185199D01*
G75*
G02*
X106398Y187150I3319J1951D01*
G01*
G75*
G02*
Y187151I4511J0D01*
G01*
Y187152D01*
X94102D01*
Y187151D01*
G75*
G02*
Y187150I-4511J0D01*
G01*
G75*
G02*
X93571Y185199I-3850J0D01*
G01*
X91811Y182152D01*
G37*
X111811D02*
G36*
X111811Y182152D02*
X113255Y179652D01*
X143898D01*
Y185912D01*
G75*
G02*
X138298Y183830I-3648J1239D01*
G01*
X134888Y185799D01*
X129790D01*
X128846Y185254D01*
X128806Y185232D01*
G75*
G02*
X125559Y187152I-1056J1920D01*
G01*
X124102D01*
G75*
G02*
X116398I-3852J0D01*
G01*
X114102D01*
Y187151D01*
G75*
G02*
Y187150I-4511J0D01*
G01*
G75*
G02*
X113571Y185199I-3850J0D01*
G01*
X111811Y182152D01*
G37*
X146602Y187152D02*
G36*
X146602Y187152D02*
Y179652D01*
X151642D01*
Y180439D01*
G75*
G02*
X158859I3608J0D01*
G01*
Y179652D01*
X161642D01*
Y180439D01*
G75*
G02*
X168859I3608J0D01*
G01*
Y179652D01*
X171642D01*
Y180439D01*
G75*
G02*
X178859I3608J0D01*
G01*
Y179652D01*
X181642D01*
Y180439D01*
G75*
G02*
X188859I3608J0D01*
G01*
Y179652D01*
X191642D01*
Y180439D01*
G75*
G02*
X198859I3608J0D01*
G01*
Y179652D01*
X201642D01*
Y180439D01*
G75*
G02*
X208730Y181391I3608J0D01*
G01*
G75*
G02*
X208735Y181373I-222J-72D01*
G01*
X209197Y179652D01*
X211642D01*
Y180439D01*
G75*
G02*
X212141Y182270I3607J0D01*
G01*
X214096Y185657D01*
Y185902D01*
G75*
G02*
X214436Y186719I1154J0D01*
G01*
X214869Y187152D01*
X146602D01*
G37*
X218131D02*
G36*
X218131Y187152D02*
X216489Y185509D01*
X218359Y182270D01*
G75*
G02*
X218858Y180439I-3108J-1831D01*
G01*
Y179652D01*
X221642D01*
Y180439D01*
G75*
G02*
X228859I3608J0D01*
G01*
Y179652D01*
X231642D01*
Y180439D01*
G75*
G02*
X238859I3608J0D01*
G01*
Y179652D01*
X241642D01*
Y180439D01*
G75*
G02*
X248859I3608J0D01*
G01*
Y179652D01*
X251642D01*
Y180439D01*
G75*
G02*
X258859I3608J0D01*
G01*
Y179652D01*
X261642D01*
Y180439D01*
G75*
G02*
X268859I3608J0D01*
G01*
Y179652D01*
X271642D01*
Y180439D01*
G75*
G02*
X278859I3608J0D01*
G01*
Y179652D01*
X281642D01*
Y180439D01*
G75*
G02*
X288859I3608J0D01*
G01*
Y179652D01*
X291642D01*
Y180439D01*
G75*
G02*
X298859I3608J0D01*
G01*
Y179652D01*
X301642D01*
Y180439D01*
G75*
G02*
X308859I3608J0D01*
G01*
Y179652D01*
X316398D01*
G75*
G02*
X320250Y183504I3852J0D01*
G01*
G75*
G02*
X324102Y179652I0J-3852D01*
G01*
X331262D01*
X331520Y180613D01*
G75*
G02*
X339102Y179652I3730J-961D01*
G01*
X377088D01*
X382648Y185212D01*
Y187152D01*
X263299D01*
G75*
G02*
X260424Y186493I-1799J1250D01*
G01*
G75*
G02*
X260405Y186504I158J304D01*
G01*
X259283Y187152D01*
X218131D01*
G37*
X380913Y179652D02*
G36*
X380913Y179652D02*
X382087D01*
X385148Y182712D01*
Y183935D01*
G75*
G02*
X384956Y183694I-1144J713D01*
G01*
X380913Y179652D01*
G37*
X387455Y181194D02*
G36*
X387455Y181194D02*
X385913Y179652D01*
X410031D01*
Y187152D01*
X387852D01*
Y182152D01*
G75*
G02*
Y182151I-1253J0D01*
G01*
G75*
G02*
X387455Y181194I-1350J0D01*
G01*
G37*
X17969Y197152D02*
G36*
X17969Y197152D02*
Y187152D01*
X26398D01*
G75*
G02*
X34102I3852J0D01*
G01*
X46398D01*
G75*
G02*
X54102I3852J0D01*
G01*
X56398D01*
G75*
G02*
X64102I3852J0D01*
G01*
X76398D01*
G75*
G02*
X84102I3852J0D01*
G01*
X86398D01*
G75*
G02*
X94102I3852J0D01*
G01*
X106398D01*
G75*
G02*
X114102I3852J0D01*
G01*
X116398D01*
G75*
G02*
X124102I3852J0D01*
G01*
X125559D01*
G75*
G02*
X128806Y189071I2191J0D01*
G01*
X128846Y189049D01*
X129790Y188504D01*
X134888D01*
X138298Y190473D01*
G75*
G02*
X143898Y188391I1952J-3321D01*
G01*
Y197152D01*
X114102D01*
G75*
G02*
X106398I-3852J0D01*
G01*
X94102D01*
G75*
G02*
X86398I-3852J0D01*
G01*
X54102D01*
G75*
G02*
X46398I-3852J0D01*
G01*
X34102D01*
G75*
G02*
X26398I-3852J0D01*
G01*
X17969D01*
G37*
X146602D02*
G36*
X146602Y197152D02*
Y187152D01*
X214869D01*
X216933Y189216D01*
G75*
G02*
X217750Y189555I817J-814D01*
G01*
X259116D01*
X260405Y190299D01*
G75*
G02*
X260424Y190310I177J-293D01*
G01*
G75*
G02*
X263691Y188402I1076J-1909D01*
G01*
G75*
G02*
X263299Y187152I-2191J0D01*
G01*
X382648D01*
Y197152D01*
X338687D01*
G75*
G02*
X331813I-3437J2500D01*
G01*
X323687D01*
G75*
G02*
X316813I-3437J2500D01*
G01*
X146602D01*
G37*
X218228Y187248D02*
G36*
X218228Y187248D02*
X218131Y187152D01*
X259283D01*
X259116Y187248D01*
X218228D01*
G37*
X387852Y197152D02*
G36*
X387852Y197152D02*
Y187152D01*
X410031D01*
Y197152D01*
X387852D01*
G37*
X17969Y202152D02*
G36*
X17969Y202152D02*
Y197152D01*
X26398D01*
G75*
G02*
X34102I3852J0D01*
G01*
X46398D01*
G75*
G02*
X54102I3852J0D01*
G01*
X86398D01*
Y197152D01*
G75*
G02*
Y197153I4511J0D01*
G01*
G75*
G02*
X86929Y199104I3850J0D01*
G01*
X88689Y202152D01*
X17969D01*
G37*
X91811D02*
G36*
X91811Y202152D02*
X93571Y199104D01*
G75*
G02*
X94102Y197153I-3319J-1951D01*
G01*
G75*
G02*
Y197152I-4511J0D01*
G01*
Y197152D01*
X106398D01*
Y197152D01*
G75*
G02*
Y197153I4511J0D01*
G01*
G75*
G02*
X106929Y199104I3850J0D01*
G01*
X108689Y202152D01*
X91811D01*
G37*
X111811D02*
G36*
X111811Y202152D02*
X113571Y199104D01*
G75*
G02*
X114102Y197153I-3319J-1951D01*
G01*
G75*
G02*
Y197152I-4511J0D01*
G01*
Y197152D01*
X143898D01*
Y202152D01*
X111811D01*
G37*
X146602D02*
G36*
X146602Y202152D02*
Y197152D01*
X316813D01*
G75*
G02*
X316000Y199652I3437J2500D01*
G01*
G75*
G02*
X316813Y202152I4250J0D01*
G01*
X146602D01*
G37*
X324500Y199652D02*
G36*
X324500Y199652D02*
G75*
G02*
X323687Y197152I-4250J0D01*
G01*
X331813D01*
G75*
G02*
X331000Y199652I3437J2500D01*
G01*
G75*
G02*
X331813Y202152I4250J0D01*
G01*
X323687D01*
G75*
G02*
X324500Y199652I-3437J-2500D01*
G01*
G37*
X339500D02*
G36*
X339500Y199652D02*
G75*
G02*
X338687Y197152I-4250J0D01*
G01*
X382648D01*
Y202152D01*
X338687D01*
G75*
G02*
X339500Y199652I-3437J-2500D01*
G01*
G37*
X387852Y202152D02*
G36*
X387852Y202152D02*
Y197152D01*
X410031D01*
Y202152D01*
X387852D01*
G37*
X17969Y207152D02*
G36*
X17969Y207152D02*
Y202152D01*
X88689D01*
X86929Y205199D01*
G75*
G02*
X86398Y207150I3319J1951D01*
G01*
G75*
G02*
Y207151I4511J0D01*
G01*
Y207152D01*
X84102D01*
G75*
G02*
X76398I-3852J0D01*
G01*
X64102D01*
G75*
G02*
X56398I-3852J0D01*
G01*
X54102D01*
G75*
G02*
X46398I-3852J0D01*
G01*
X34102D01*
G75*
G02*
X26398I-3852J0D01*
G01*
X17969D01*
G37*
X93571Y205199D02*
G36*
X93571Y205199D02*
X91811Y202152D01*
X108689D01*
X106929Y205199D01*
G75*
G02*
X106398Y207150I3319J1951D01*
G01*
G75*
G02*
Y207151I4511J0D01*
G01*
Y207152D01*
X94102D01*
Y207151D01*
G75*
G02*
Y207150I-4511J0D01*
G01*
G75*
G02*
X93571Y205199I-3850J0D01*
G01*
G37*
X113571D02*
G36*
X113571Y205199D02*
X111811Y202152D01*
X143898D01*
Y205913D01*
G75*
G02*
X136398Y207152I-3648J1239D01*
G01*
X124102D01*
G75*
G02*
X116398I-3852J0D01*
G01*
X114102D01*
Y207151D01*
G75*
G02*
Y207150I-4511J0D01*
G01*
G75*
G02*
X113571Y205199I-3850J0D01*
G01*
G37*
X146602Y207152D02*
G36*
X146602Y207152D02*
Y202152D01*
X316813D01*
G75*
G02*
X323687I3437J-2500D01*
G01*
X331813D01*
G75*
G02*
X338687I3437J-2500D01*
G01*
X382648D01*
Y207152D01*
X146602D01*
G37*
X387852D02*
G36*
X387852Y207152D02*
Y202152D01*
X410031D01*
Y207152D01*
X387852D01*
G37*
X17969Y218402D02*
G36*
X17969Y218402D02*
Y207152D01*
X26398D01*
G75*
G02*
X34102I3852J0D01*
G01*
X46398D01*
G75*
G02*
X54102I3852J0D01*
G01*
X56398D01*
G75*
G02*
X64102I3852J0D01*
G01*
X76398D01*
G75*
G02*
X84102I3852J0D01*
G01*
X86398D01*
G75*
G02*
X94102I3852J0D01*
G01*
X106398D01*
G75*
G02*
X114102I3852J0D01*
G01*
X116398D01*
G75*
G02*
X124102I3852J0D01*
G01*
X136398D01*
G75*
G02*
X143898Y208391I3852J0D01*
G01*
Y211591D01*
X139295Y216194D01*
G75*
G02*
X138898Y217151I953J957D01*
G01*
G75*
G02*
Y217152I1253J0D01*
G01*
Y218402D01*
X113894D01*
G75*
G02*
X114102Y217153I-3642J-1249D01*
G01*
G75*
G02*
Y217152I-4511J0D01*
G01*
Y217152D01*
G75*
G02*
X106398I-3852J0D01*
G01*
Y217152D01*
G75*
G02*
Y217153I4511J0D01*
G01*
G75*
G02*
X106606Y218402I3850J0D01*
G01*
X93894D01*
G75*
G02*
X94102Y217153I-3642J-1249D01*
G01*
G75*
G02*
Y217152I-4511J0D01*
G01*
Y217152D01*
G75*
G02*
X86398I-3852J0D01*
G01*
Y217152D01*
G75*
G02*
Y217153I4511J0D01*
G01*
G75*
G02*
X86606Y218402I3850J0D01*
G01*
X53894D01*
G75*
G02*
X54102Y217152I-3644J-1250D01*
G01*
G75*
G02*
X46398I-3852J0D01*
G01*
G75*
G02*
X46606Y218402I3852J0D01*
G01*
X33894D01*
G75*
G02*
X34102Y217152I-3644J-1250D01*
G01*
G75*
G02*
X26398I-3852J0D01*
G01*
G75*
G02*
X26606Y218402I3852J0D01*
G01*
X17969D01*
G37*
X141602D02*
G36*
X141602Y218402D02*
Y217712D01*
X146205Y213109D01*
G75*
G02*
X146602Y212152I-953J-957D01*
G01*
Y207152D01*
X382648D01*
Y218402D01*
X141602D01*
G37*
X387852D02*
G36*
X387852Y218402D02*
Y207152D01*
X410031D01*
Y217355D01*
G75*
G02*
X403778Y218402I-3039J1047D01*
G01*
X397215D01*
G75*
G02*
X390785I-3215J0D01*
G01*
X387852D01*
G37*
X17969Y222152D02*
G36*
X17969Y222152D02*
Y218402D01*
X26606D01*
G75*
G02*
X33894I3644J-1250D01*
G01*
X46606D01*
G75*
G02*
X53894I3644J-1250D01*
G01*
X86606D01*
G75*
G02*
X86929Y219104I3642J-1249D01*
G01*
X88689Y222152D01*
X17969D01*
G37*
X91811D02*
G36*
X91811Y222152D02*
X93571Y219104D01*
G75*
G02*
X93894Y218402I-3319J-1951D01*
G01*
X106606D01*
G75*
G02*
X106929Y219104I3642J-1249D01*
G01*
X108689Y222152D01*
X91811D01*
G37*
X111811D02*
G36*
X111811Y222152D02*
X113571Y219104D01*
G75*
G02*
X113894Y218402I-3319J-1951D01*
G01*
X138898D01*
Y221789D01*
X138689Y222152D01*
X111811D01*
G37*
X141602Y221789D02*
G36*
X141602Y221789D02*
Y218402D01*
X382648D01*
Y222152D01*
X141811D01*
X141602Y221789D01*
G37*
X387852Y222152D02*
G36*
X387852Y222152D02*
Y218402D01*
X390785D01*
G75*
G02*
X397215I3215J0D01*
G01*
X403778D01*
G75*
G02*
X410031Y219448I3215J0D01*
G01*
Y222152D01*
X387852D01*
G37*
X17969Y227152D02*
G36*
X17969Y227152D02*
Y222152D01*
X88689D01*
X86929Y225199D01*
G75*
G02*
X86398Y227150I3319J1951D01*
G01*
G75*
G02*
Y227151I4511J0D01*
G01*
Y227152D01*
X84102D01*
G75*
G02*
X76398I-3852J0D01*
G01*
X64102D01*
G75*
G02*
X56398I-3852J0D01*
G01*
X54102D01*
G75*
G02*
X46398I-3852J0D01*
G01*
X34102D01*
G75*
G02*
X26398I-3852J0D01*
G01*
X17969D01*
G37*
X93571Y225199D02*
G36*
X93571Y225199D02*
X91811Y222152D01*
X108689D01*
X106929Y225199D01*
G75*
G02*
X106398Y227150I3319J1951D01*
G01*
G75*
G02*
Y227151I4511J0D01*
G01*
Y227152D01*
X94102D01*
Y227151D01*
G75*
G02*
Y227150I-4511J0D01*
G01*
G75*
G02*
X93571Y225199I-3850J0D01*
G01*
G37*
X113571D02*
G36*
X113571Y225199D02*
X111811Y222152D01*
X138689D01*
X136929Y225199D01*
G75*
G02*
X136398Y227150I3319J1951D01*
G01*
G75*
G02*
Y227151I4511J0D01*
G01*
Y227152D01*
X124102D01*
G75*
G02*
X116398I-3852J0D01*
G01*
X114102D01*
Y227151D01*
G75*
G02*
Y227150I-4511J0D01*
G01*
G75*
G02*
X113571Y225199I-3850J0D01*
G01*
G37*
X143571D02*
G36*
X143571Y225199D02*
X141811Y222152D01*
X382648D01*
Y227152D01*
X144102D01*
Y227151D01*
G75*
G02*
Y227150I-4511J0D01*
G01*
G75*
G02*
X143571Y225199I-3850J0D01*
G01*
G37*
X387852Y226591D02*
G36*
X387852Y226591D02*
Y222152D01*
X410031D01*
Y227152D01*
X410015D01*
G75*
G02*
X405360Y225475I-3023J1093D01*
G01*
X402906Y226892D01*
X398087D01*
X395625Y225470D01*
G75*
G02*
X392368Y225475I-1625J2774D01*
G01*
X389913Y226892D01*
X388153D01*
X387852Y226591D01*
G37*
X17969Y228504D02*
G36*
X17969Y228504D02*
Y227152D01*
X26398D01*
Y227152D01*
G75*
G02*
X29515Y230933I3852J0D01*
G01*
X21500D01*
G75*
G03*
X17969Y228504I0J-3781D01*
G01*
G37*
X34102Y227152D02*
G36*
X34102Y227152D02*
Y227152D01*
X46398D01*
Y227152D01*
G75*
G02*
X49515Y230933I3852J0D01*
G01*
X30985D01*
G75*
G02*
X34102Y227152I-735J-3781D01*
G01*
G37*
X54102D02*
G36*
X54102Y227152D02*
Y227152D01*
X56398D01*
Y227152D01*
G75*
G02*
X59515Y230933I3852J0D01*
G01*
X50985D01*
G75*
G02*
X54102Y227152I-735J-3781D01*
G01*
G37*
X64102D02*
G36*
X64102Y227152D02*
Y227152D01*
X76398D01*
G75*
G02*
X84102I3852J0D01*
G01*
X86398D01*
G75*
G02*
X94102I3852J0D01*
G01*
X106398D01*
G75*
G02*
X114102I3852J0D01*
G01*
X116398D01*
G75*
G02*
X124102I3852J0D01*
G01*
X136398D01*
G75*
G02*
X144102I3852J0D01*
G01*
X382648D01*
Y234337D01*
G75*
G02*
X383045Y235294I1350J1D01*
G01*
X386793Y239042D01*
G75*
G02*
X387750Y239439I957J-953D01*
G01*
X389913D01*
X390281Y239652D01*
X308859D01*
Y238864D01*
G75*
G02*
X301642I-3608J0D01*
G01*
Y239652D01*
X298859D01*
Y238864D01*
G75*
G02*
X291642I-3608J0D01*
G01*
Y239652D01*
X288858D01*
Y238864D01*
G75*
G02*
X288381Y237072I-3608J0D01*
G01*
G75*
G02*
X288375Y237060I-120J60D01*
G01*
X286404Y233646D01*
Y233402D01*
G75*
G02*
X286064Y232585I-1154J0D01*
G01*
X282317Y228837D01*
G75*
G02*
X281500Y228498I-817J814D01*
G01*
X223884D01*
X222595Y227754D01*
G75*
G02*
X222576Y227743I-177J293D01*
G01*
G75*
G02*
X219309Y229652I-1076J1909D01*
G01*
G75*
G02*
X222576Y231560I2191J0D01*
G01*
G75*
G02*
X222595Y231549I-158J-304D01*
G01*
X223884Y230805D01*
X281022D01*
X284011Y233794D01*
X282125Y237060D01*
G75*
G02*
X282119Y237072I114J72D01*
G01*
G75*
G02*
X281642Y238864I3131J1793D01*
G01*
Y239652D01*
X278859D01*
Y238864D01*
G75*
G02*
X271642I-3608J0D01*
G01*
Y239652D01*
X268859D01*
Y238864D01*
G75*
G02*
X261642I-3608J0D01*
G01*
Y239652D01*
X258859D01*
Y238864D01*
G75*
G02*
X251642I-3608J0D01*
G01*
Y239652D01*
X248859D01*
Y238864D01*
G75*
G02*
X241642I-3608J0D01*
G01*
Y239652D01*
X238859D01*
Y238864D01*
G75*
G02*
X231642I-3608J0D01*
G01*
Y239652D01*
X228859D01*
Y238864D01*
G75*
G02*
X221642I-3608J0D01*
G01*
Y239652D01*
X218859D01*
Y238864D01*
G75*
G02*
X211642I-3608J0D01*
G01*
Y239652D01*
X208859D01*
Y238864D01*
G75*
G02*
X201642I-3608J0D01*
G01*
Y239652D01*
X198859D01*
Y238864D01*
G75*
G02*
X191642I-3608J0D01*
G01*
Y239652D01*
X188859D01*
Y238864D01*
G75*
G02*
X181642I-3608J0D01*
G01*
Y239652D01*
X178859D01*
Y238864D01*
G75*
G02*
X171642I-3608J0D01*
G01*
Y239652D01*
X168859D01*
Y238864D01*
G75*
G02*
X161642I-3608J0D01*
G01*
Y239652D01*
X159256D01*
Y238864D01*
G75*
G02*
X151244I-4006J0D01*
G01*
Y239652D01*
X144500D01*
G75*
G02*
X136000I-4250J0D01*
G01*
X124102D01*
G75*
G02*
X116398I-3852J0D01*
G01*
X86390D01*
G75*
G02*
X76500Y230933I-9890J1250D01*
G01*
X60985D01*
G75*
G02*
X64102Y227152I-735J-3781D01*
G01*
G37*
X385353Y233776D02*
G36*
X385353Y233776D02*
Y227868D01*
G75*
G02*
X385545Y228109I1144J-713D01*
G01*
X386635Y229199D01*
G75*
G02*
X387593Y229596I957J-953D01*
G01*
X389913D01*
X392368Y231013D01*
G75*
G02*
X395625Y231018I1632J-2770D01*
G01*
X398087Y229596D01*
X402906D01*
X405360Y231013D01*
G75*
G02*
X410031Y229291I1632J-2770D01*
G01*
Y237040D01*
G75*
G02*
X405360Y235317I-3039J1047D01*
G01*
X402906Y236734D01*
X398087D01*
X395625Y235313D01*
G75*
G02*
X392368Y235317I-1625J2774D01*
G01*
X389913Y236734D01*
X388310D01*
X385353Y233776D01*
G37*
X397719Y239652D02*
G36*
X397719Y239652D02*
X398087Y239439D01*
X402906D01*
X403274Y239652D01*
X397719D01*
G37*
X410015Y227152D02*
G36*
X410015Y227152D02*
X410031D01*
Y227198D01*
G75*
G02*
X410015Y227152I-3052J1044D01*
G01*
G37*
X409800Y239652D02*
G36*
X409800Y239652D02*
G75*
G02*
X410031Y239133I-2809J-1565D01*
G01*
Y239652D01*
X409800D01*
G37*
X86469Y243402D02*
G36*
X86469Y243402D02*
Y240902D01*
G75*
G02*
X86390Y239652I-9969J0D01*
G01*
X116398D01*
G75*
G02*
X124102I3852J0D01*
G01*
X136000D01*
G75*
G02*
X144500I4250J0D01*
G01*
X151244D01*
Y240439D01*
G75*
G02*
X159256I4006J0D01*
G01*
Y239652D01*
X161642D01*
Y240439D01*
G75*
G02*
X168859I3608J0D01*
G01*
Y239652D01*
X171642D01*
Y240439D01*
G75*
G02*
X178859I3608J0D01*
G01*
Y239652D01*
X181642D01*
Y240439D01*
G75*
G02*
X188859I3608J0D01*
G01*
Y239652D01*
X191642D01*
Y240439D01*
G75*
G02*
X198859I3608J0D01*
G01*
Y239652D01*
X201642D01*
Y240439D01*
G75*
G02*
X208859I3608J0D01*
G01*
Y239652D01*
X211642D01*
Y240439D01*
G75*
G02*
X218859I3608J0D01*
G01*
Y239652D01*
X221642D01*
Y240439D01*
G75*
G02*
X228859I3608J0D01*
G01*
Y239652D01*
X231642D01*
Y240439D01*
G75*
G02*
X238859I3608J0D01*
G01*
Y239652D01*
X241642D01*
Y240439D01*
G75*
G02*
X248859I3608J0D01*
G01*
Y239652D01*
X251642D01*
Y240439D01*
G75*
G02*
X258859I3608J0D01*
G01*
Y239652D01*
X261642D01*
Y240439D01*
G75*
G02*
X268859I3608J0D01*
G01*
Y239652D01*
X271642D01*
Y240439D01*
G75*
G02*
X278859I3608J0D01*
G01*
Y239652D01*
X281642D01*
Y240439D01*
G75*
G02*
X288858I3608J0D01*
G01*
Y239652D01*
X291642D01*
Y240439D01*
G75*
G02*
X298859I3608J0D01*
G01*
Y239652D01*
X301642D01*
Y240439D01*
G75*
G02*
X308859I3608J0D01*
G01*
Y239652D01*
X390281D01*
X392368Y240856D01*
G75*
G02*
X395625Y240860I1632J-2770D01*
G01*
X397719Y239652D01*
X403274D01*
X405360Y240856D01*
G75*
G02*
X409800Y239652I1632J-2769D01*
G01*
X410031D01*
Y244754D01*
G75*
G03*
X407852Y246933I-3531J-1352D01*
G01*
X88898D01*
G75*
G03*
X86469Y243402I1352J-3531D01*
G01*
Y243402D01*
G37*
X70352Y155341D02*
Y149117D01*
G75*
G02*
X70545Y149359I1148J-715D01*
G01*
X74293Y153107D01*
G75*
G02*
X75250Y153504I957J-955D01*
G01*
X89011D01*
G75*
G02*
X86398Y157152I1239J3648D01*
G01*
G75*
G02*
X94102I3852J0D01*
G01*
G75*
G02*
X91489Y153504I-3852J0D01*
G01*
X109011D01*
G75*
G02*
X106398Y157152I1239J3648D01*
G01*
G75*
G02*
X114102I3852J0D01*
G01*
G75*
G02*
X111489Y153504I-3852J0D01*
G01*
X122750D01*
G75*
G02*
X123707Y153107I0J-1352D01*
G01*
X128310Y148504D01*
X134888D01*
X138298Y150473D01*
G75*
G02*
X139010Y150799I1952J-3322D01*
G01*
X134790D01*
X133846Y150254D01*
G75*
G02*
X133806Y150232I-680J1167D01*
G01*
G75*
G02*
X130559Y152152I-1056J1920D01*
G01*
G75*
G02*
X133085Y154317I2191J0D01*
G01*
G75*
G02*
X136306Y156571I2165J335D01*
G01*
G75*
G02*
X136346Y156549I-640J-1189D01*
G01*
X137290Y156004D01*
X152035D01*
G75*
G02*
X151793Y156196I715J1148D01*
G01*
X144295Y163694D01*
G75*
G02*
X143898Y164652I955J957D01*
G01*
Y165913D01*
G75*
G02*
X136517Y166199I-3648J1239D01*
G01*
X135502Y169987D01*
X134690Y170799D01*
X121489D01*
G75*
G02*
X124102Y167152I-1239J-3648D01*
G01*
G75*
G02*
X116398I-3852J0D01*
G01*
G75*
G02*
X119011Y170799I3852J0D01*
G01*
X111489D01*
G75*
G02*
X114102Y167152I-1239J-3648D01*
G01*
G75*
G02*
X106398I-3852J0D01*
G01*
G75*
G02*
X109011Y170799I3852J0D01*
G01*
X91489D01*
G75*
G02*
X94102Y167152I-1239J-3648D01*
G01*
G75*
G02*
X86398I-3852J0D01*
G01*
G75*
G02*
X89011Y170799I3852J0D01*
G01*
X81489D01*
G75*
G02*
X81202Y163419I-1239J-3648D01*
G01*
X77415Y162404D01*
X70352Y155341D01*
G36*
X70352Y155341D02*
Y149117D01*
G75*
G02*
X70545Y149359I1148J-715D01*
G01*
X74293Y153107D01*
G75*
G02*
X75250Y153504I957J-955D01*
G01*
X89011D01*
G75*
G02*
X86398Y157152I1239J3648D01*
G01*
G75*
G02*
X94102I3852J0D01*
G01*
G75*
G02*
X91489Y153504I-3852J0D01*
G01*
X109011D01*
G75*
G02*
X106398Y157152I1239J3648D01*
G01*
G75*
G02*
X114102I3852J0D01*
G01*
G75*
G02*
X111489Y153504I-3852J0D01*
G01*
X122750D01*
G75*
G02*
X123707Y153107I0J-1352D01*
G01*
X128310Y148504D01*
X134888D01*
X138298Y150473D01*
G75*
G02*
X139010Y150799I1952J-3322D01*
G01*
X134790D01*
X133846Y150254D01*
G75*
G02*
X133806Y150232I-680J1167D01*
G01*
G75*
G02*
X130559Y152152I-1056J1920D01*
G01*
G75*
G02*
X133085Y154317I2191J0D01*
G01*
G75*
G02*
X136306Y156571I2165J335D01*
G01*
G75*
G02*
X136346Y156549I-640J-1189D01*
G01*
X137290Y156004D01*
X152035D01*
G75*
G02*
X151793Y156196I715J1148D01*
G01*
X144295Y163694D01*
G75*
G02*
X143898Y164652I955J957D01*
G01*
Y165913D01*
G75*
G02*
X136517Y166199I-3648J1239D01*
G01*
X135502Y169987D01*
X134690Y170799D01*
X121489D01*
G75*
G02*
X124102Y167152I-1239J-3648D01*
G01*
G75*
G02*
X116398I-3852J0D01*
G01*
G75*
G02*
X119011Y170799I3852J0D01*
G01*
X111489D01*
G75*
G02*
X114102Y167152I-1239J-3648D01*
G01*
G75*
G02*
X106398I-3852J0D01*
G01*
G75*
G02*
X109011Y170799I3852J0D01*
G01*
X91489D01*
G75*
G02*
X94102Y167152I-1239J-3648D01*
G01*
G75*
G02*
X86398I-3852J0D01*
G01*
G75*
G02*
X89011Y170799I3852J0D01*
G01*
X81489D01*
G75*
G02*
X81202Y163419I-1239J-3648D01*
G01*
X77415Y162404D01*
X70352Y155341D01*
G37*
X75352Y140341D02*
Y123962D01*
X77060Y122254D01*
X105940D01*
X116793Y133107D01*
G75*
G02*
X117035Y133299I957J-956D01*
G01*
X115810D01*
X108707Y126196D01*
G75*
G02*
X107750Y125799I-957J955D01*
G01*
X85612D01*
X82202Y123830D01*
G75*
G02*
X76398Y127152I-1952J3321D01*
G01*
G75*
G02*
X82202Y130473I3852J0D01*
G01*
X85612Y128504D01*
X107190D01*
X114293Y135607D01*
G75*
G02*
X115250Y136004I957J-955D01*
G01*
X123383D01*
G75*
G02*
X125585Y139317I1867J1148D01*
G01*
G75*
G02*
X128085Y141817I2165J335D01*
G01*
G75*
G02*
X131306Y144071I2165J335D01*
G01*
G75*
G02*
X131346Y144049I-640J-1189D01*
G01*
X132290Y143504D01*
X139010D01*
G75*
G02*
X138298Y143830I1240J3648D01*
G01*
X134888Y145799D01*
X127750D01*
G75*
G02*
X126793Y146196I0J1352D01*
G01*
X122190Y150799D01*
X121489D01*
G75*
G02*
X124102Y147152I-1239J-3648D01*
G01*
G75*
G02*
X116398I-3852J0D01*
G01*
G75*
G02*
X119011Y150799I3852J0D01*
G01*
X111489D01*
G75*
G02*
X114102Y147152I-1239J-3648D01*
G01*
G75*
G02*
X106398I-3852J0D01*
G01*
G75*
G02*
X109011Y150799I3852J0D01*
G01*
X91489D01*
G75*
G02*
X94102Y147152I-1239J-3648D01*
G01*
G75*
G02*
X86398I-3852J0D01*
G01*
G75*
G02*
X89011Y150799I3852J0D01*
G01*
X81489D01*
G75*
G02*
X81202Y143419I-1239J-3648D01*
G01*
X77415Y142404D01*
X75352Y140341D01*
X106398Y137152D02*
G75*
G02*
X114102I3852J0D01*
G01*
G75*
G02*
X106398I-3852J0D01*
G01*
X86398D02*
G75*
G02*
X94102I3852J0D01*
G01*
G75*
G02*
X86398I-3852J0D01*
G01*
X75602D02*
G36*
X75602Y137152D02*
Y123712D01*
X76810Y122504D01*
X106190D01*
X116793Y133107D01*
G75*
G02*
X117035Y133299I950J-947D01*
G01*
X115810D01*
X108707Y126196D01*
G75*
G02*
X107750Y125799I-957J953D01*
G01*
X85612D01*
X82202Y123830D01*
G75*
G02*
X76398Y127152I-1952J3322D01*
G01*
G75*
G02*
X82202Y130473I3853J0D01*
G01*
X85612Y128504D01*
X107190D01*
X114293Y135607D01*
G75*
G02*
X115250Y136004I957J-953D01*
G01*
X123383D01*
G75*
G02*
X123059Y137152I1866J1148D01*
G01*
X114102D01*
G75*
G02*
X106398I-3852J0D01*
G01*
X94102D01*
G75*
G02*
X86398I-3852J0D01*
G01*
X75602D01*
G37*
Y140591D02*
G36*
X75602Y140591D02*
Y137152D01*
X86398D01*
G75*
G02*
X94102I3852J0D01*
G01*
X106398D01*
G75*
G02*
X114102I3852J0D01*
G01*
X123059D01*
G75*
G02*
X125585Y139317I2191J0D01*
G01*
G75*
G02*
X125559Y139651I2165J334D01*
G01*
G75*
G02*
X128085Y141817I2191J0D01*
G01*
G75*
G02*
X128059Y142152I2165J334D01*
G01*
G75*
G02*
X131306Y144071I2191J0D01*
G01*
X131346Y144049D01*
X132290Y143504D01*
X138760D01*
Y143598D01*
G75*
G02*
X138298Y143830I1483J3535D01*
G01*
X134888Y145799D01*
X127750D01*
G75*
G02*
X126793Y146196I-1J1350D01*
G01*
X122440Y150549D01*
X122066D01*
G75*
G02*
X124102Y147152I-1816J-3398D01*
G01*
G75*
G02*
X116398I-3852J0D01*
G01*
G75*
G02*
X118434Y150549I3852J0D01*
G01*
X112066D01*
G75*
G02*
X114102Y147152I-1816J-3398D01*
G01*
G75*
G02*
X106398I-3852J0D01*
G01*
G75*
G02*
X108434Y150549I3852J0D01*
G01*
X92066D01*
G75*
G02*
X94102Y147152I-1816J-3398D01*
G01*
G75*
G02*
X86398I-3852J0D01*
G01*
G75*
G02*
X88434Y150549I3852J0D01*
G01*
X82065D01*
G75*
G02*
X84102Y147152I-1816J-3398D01*
G01*
G75*
G02*
X81202Y143419I-3852J0D01*
G01*
X77415Y142404D01*
X75602Y140591D01*
G37*
X112946Y9569D02*
X359806D01*
G75*
G03*
X365304Y15066I0J5497D01*
G01*
Y57207D01*
X407750D01*
G75*
G03*
X412750Y62207I0J5000D01*
G01*
Y243402D01*
G75*
G03*
X406500Y249652I-6250J0D01*
G01*
X90250D01*
G75*
G03*
X84000Y243402I0J-6250D01*
G01*
Y240902D01*
G75*
G02*
X76500Y233402I-7500J0D01*
G01*
X21500D01*
G75*
G03*
X15250Y227152I0J-6250D01*
G01*
Y113457D01*
G75*
G03*
X21500Y107207I6250J0D01*
G01*
X57750D01*
G75*
G02*
X62750Y102207I0J-5000D01*
G01*
Y62207D01*
G75*
G03*
X67750Y57207I5000J0D01*
G01*
X107666D01*
Y14849D01*
G75*
G03*
X112946Y9569I5280J0D01*
G01*
X121500Y83167D02*
Y55902D01*
X124000Y53402D01*
X139000D01*
X141500Y55902D01*
Y73402D01*
X146500Y78402D01*
Y99652D01*
X151642Y104793D01*
Y105439D01*
G75*
G02*
X155846Y108998I3608J0D01*
G01*
X157750Y110902D01*
X158059D01*
G75*
G02*
X161326Y112810I2191J0D01*
G01*
G75*
G02*
X161345Y112799I-575J-1044D01*
G01*
X162634Y112055D01*
X306616D01*
X307905Y112799D01*
G75*
G02*
X307924Y112810I594J-1034D01*
G01*
G75*
G02*
X311191Y110902I1076J-1908D01*
G01*
X333898D01*
Y119091D01*
X329690Y123299D01*
X137648D01*
X121500Y107152D01*
Y101326D01*
G75*
G02*
X136038Y92246I4433J-9080D01*
G01*
G75*
G02*
X121500Y83167I-10104J0D01*
G01*
G36*
X121500Y83167D02*
Y55902D01*
X124000Y53402D01*
X139000D01*
X141500Y55902D01*
Y73402D01*
X146500Y78402D01*
Y99652D01*
X151642Y104793D01*
Y105439D01*
G75*
G02*
X155846Y108998I3608J0D01*
G01*
X157750Y110902D01*
X158059D01*
G75*
G02*
X161326Y112810I2191J0D01*
G01*
G75*
G02*
X161345Y112799I-575J-1044D01*
G01*
X162634Y112055D01*
X306616D01*
X307905Y112799D01*
G75*
G02*
X307924Y112810I594J-1034D01*
G01*
G75*
G02*
X311191Y110902I1076J-1908D01*
G01*
X333898D01*
Y119091D01*
X329690Y123299D01*
X137648D01*
X121500Y107152D01*
Y101326D01*
G75*
G02*
X136038Y92246I4433J-9080D01*
G01*
G75*
G02*
X121500Y83167I-10104J0D01*
G01*
G37*
D02*
D14*
X20250Y114652D03*
Y143402D03*
Y172152D03*
Y212152D03*
Y228402D03*
X40250Y147152D03*
Y167152D03*
Y187152D03*
Y207152D03*
Y227152D03*
X55250Y114652D03*
X60250Y137152D03*
Y157152D03*
Y177152D03*
Y197152D03*
Y217152D03*
X67750Y64652D03*
Y92152D03*
X69000Y167152D03*
X70250Y187152D03*
Y207152D03*
Y227152D03*
X84000Y140902D03*
X90250Y244652D03*
X100250Y137152D03*
Y147152D03*
Y157152D03*
Y167152D03*
Y177152D03*
Y187152D03*
Y197152D03*
Y207152D03*
Y217152D03*
Y227152D03*
X107750Y64652D03*
Y92152D03*
X120250Y139652D03*
Y159652D03*
Y177152D03*
Y197152D03*
Y217152D03*
X130250Y207152D03*
Y244652D03*
X140250Y159652D03*
X147750Y64652D03*
Y74652D03*
X151500Y84652D03*
Y94652D03*
X155250Y64652D03*
Y74652D03*
X160250Y139652D03*
X161500Y57152D03*
X165250Y204652D03*
X170250Y244652D03*
X171500Y57152D03*
X181500D03*
Y69652D03*
X186500Y84652D03*
X200250Y80902D03*
X205250Y204652D03*
X210250Y244652D03*
X215250Y80902D03*
Y139652D03*
X221500Y55902D03*
X231500D03*
X242750Y80902D03*
X245250Y139652D03*
X250250Y244652D03*
X251500Y55902D03*
X255250Y204652D03*
X261500Y55902D03*
X267750Y80902D03*
X270250Y139652D03*
X281500Y55902D03*
X285250Y80902D03*
X290250Y244652D03*
X295250Y204652D03*
X296500Y80902D03*
X315250D03*
X326500Y219652D03*
Y244652D03*
X330250Y55902D03*
Y89652D03*
X335250Y139652D03*
X365250Y62152D03*
Y89652D03*
Y139652D03*
Y179652D03*
Y219652D03*
Y244652D03*
X405250Y62152D03*
Y89652D03*
Y139652D03*
Y179652D03*
Y244652D03*
D02*
D17*
X125250Y137152D03*
X127750Y139652D03*
Y187152D03*
X130250Y142152D03*
X132750Y152152D03*
X135250Y154652D03*
X160250Y110902D03*
X162750Y97152D03*
X167750Y64652D03*
Y94652D03*
X175250Y69652D03*
X179000Y92152D03*
X186500Y64652D03*
X191500D03*
X200250Y97152D03*
Y169652D03*
X206500Y72152D03*
X212750Y64652D03*
X221500Y59652D03*
Y229652D03*
X224000Y74652D03*
X226485Y88402D03*
X229000Y95902D03*
X231500Y70902D03*
Y169652D03*
X235250Y64652D03*
X239000Y62152D03*
Y93402D03*
X245250Y95902D03*
X256500Y64652D03*
X261500D03*
Y90902D03*
Y188402D03*
X265250Y93402D03*
X269000Y95902D03*
X272750Y64652D03*
X290250Y169652D03*
X292750Y60902D03*
X295250Y172152D03*
X309000Y110902D03*
X315250Y174652D03*
X325250Y64652D03*
X380250Y84652D03*
D02*
D82*
X126485Y31616D02*
Y55902D01*
X136485D01*
Y31616D01*
X126485Y50799D02*
X125638Y49333D01*
X127331D01*
X126485Y50799D01*
G36*
X126485Y50799D02*
X125638Y49333D01*
X127331D01*
X126485Y50799D01*
G37*
X136485D02*
X135638Y49333D01*
X137331D01*
X136485Y50799D01*
G36*
X136485Y50799D02*
X135638Y49333D01*
X137331D01*
X136485Y50799D01*
G37*
X146485Y31616D02*
Y58402D01*
X156500D01*
Y31631D01*
X156485Y31616D01*
X146485Y50799D02*
X145638Y49333D01*
X147331D01*
X146485Y50799D01*
G36*
X146485Y50799D02*
X145638Y49333D01*
X147331D01*
X146485Y50799D01*
G37*
X156501Y50772D02*
X155638Y49333D01*
X157331D01*
X156501Y50772D01*
G36*
X156501Y50772D02*
X155638Y49333D01*
X157331D01*
X156501Y50772D01*
G37*
D02*
D83*
X27750Y127152D02*
X25750D01*
X30250Y124652D02*
Y122652D01*
Y129652D02*
Y131652D01*
X32750Y127152D02*
X34750D01*
X60250Y122152D02*
X58085Y125902D01*
G75*
G03*
X62415I2165J1250D01*
G01*
X60250Y122152D01*
G36*
X60250Y122152D02*
X58085Y125902D01*
G75*
G03*
X62415I2165J1250D01*
G01*
X60250Y122152D01*
G37*
Y127152D02*
Y117152D01*
X75250Y102152D01*
X86500D01*
X116500Y72152D01*
Y65917D01*
X116485Y65902D01*
Y31616D01*
X76715Y143616D02*
X77835Y147798D01*
G75*
G03*
X80897Y144737I2415J-647D01*
G01*
X76715Y143616D01*
G36*
X76715Y143616D02*
X77835Y147798D01*
G75*
G03*
X80897Y144737I2415J-647D01*
G01*
X76715Y143616D01*
G37*
Y163616D02*
X77835Y167798D01*
G75*
G03*
X80897Y164737I2415J-647D01*
G01*
X76715Y163616D01*
G36*
X76715Y163616D02*
X77835Y167798D01*
G75*
G03*
X80897Y164737I2415J-647D01*
G01*
X76715Y163616D01*
G37*
X80250Y127152D02*
X107750D01*
X115250Y134652D01*
X360250D01*
X375250Y119652D01*
Y104652D01*
X80250Y147152D02*
X74000Y140902D01*
Y123402D01*
X76500Y120902D01*
X106500D01*
X117750Y132152D01*
X352750D01*
X365250Y119652D01*
Y104652D01*
X80250Y167152D02*
X69000Y155902D01*
Y120902D01*
X74000Y115902D01*
X109000D01*
X120250Y127152D01*
X337750D01*
X345250Y119652D01*
Y104652D01*
X85250Y127152D02*
X81500Y124987D01*
G75*
G03*
Y129317I-1250J2165D01*
G01*
X85250Y127152D01*
G36*
X85250Y127152D02*
X81500Y124987D01*
G75*
G03*
Y129317I-1250J2165D01*
G01*
X85250Y127152D01*
G37*
X90250Y182152D02*
X92415Y178402D01*
G75*
G03*
X88085I-2165J-1250D01*
G01*
X90250Y182152D01*
G36*
X90250Y182152D02*
X92415Y178402D01*
G75*
G03*
X88085I-2165J-1250D01*
G01*
X90250Y182152D01*
G37*
X88085Y185902D01*
G75*
G03*
X92415I2165J1250D01*
G01*
X90250Y182152D01*
G36*
X90250Y182152D02*
X88085Y185902D01*
G75*
G03*
X92415I2165J1250D01*
G01*
X90250Y182152D01*
G37*
Y187152D02*
Y177152D01*
Y202152D02*
X92415Y198402D01*
G75*
G03*
X88085I-2165J-1250D01*
G01*
X90250Y202152D01*
G36*
X90250Y202152D02*
X92415Y198402D01*
G75*
G03*
X88085I-2165J-1250D01*
G01*
X90250Y202152D01*
G37*
X88085Y205902D01*
G75*
G03*
X92415I2165J1250D01*
G01*
X90250Y202152D01*
G36*
X90250Y202152D02*
X88085Y205902D01*
G75*
G03*
X92415I2165J1250D01*
G01*
X90250Y202152D01*
G37*
Y207152D02*
Y197152D01*
Y222152D02*
X92415Y218402D01*
G75*
G03*
X88085I-2165J-1250D01*
G01*
X90250Y222152D01*
G36*
X90250Y222152D02*
X92415Y218402D01*
G75*
G03*
X88085I-2165J-1250D01*
G01*
X90250Y222152D01*
G37*
X88085Y225902D01*
G75*
G03*
X92415I2165J1250D01*
G01*
X90250Y222152D01*
G36*
X90250Y222152D02*
X88085Y225902D01*
G75*
G03*
X92415I2165J1250D01*
G01*
X90250Y222152D01*
G37*
Y227152D02*
Y217152D01*
X110250Y182152D02*
X112415Y178402D01*
G75*
G03*
X108085I-2165J-1250D01*
G01*
X110250Y182152D01*
G36*
X110250Y182152D02*
X112415Y178402D01*
G75*
G03*
X108085I-2165J-1250D01*
G01*
X110250Y182152D01*
G37*
X108085Y185902D01*
G75*
G03*
X112415I2165J1250D01*
G01*
X110250Y182152D01*
G36*
X110250Y182152D02*
X108085Y185902D01*
G75*
G03*
X112415I2165J1250D01*
G01*
X110250Y182152D01*
G37*
Y187152D02*
Y177152D01*
Y202152D02*
X112415Y198402D01*
G75*
G03*
X108085I-2165J-1250D01*
G01*
X110250Y202152D01*
G36*
X110250Y202152D02*
X112415Y198402D01*
G75*
G03*
X108085I-2165J-1250D01*
G01*
X110250Y202152D01*
G37*
X108085Y205902D01*
G75*
G03*
X112415I2165J1250D01*
G01*
X110250Y202152D01*
G36*
X110250Y202152D02*
X108085Y205902D01*
G75*
G03*
X112415I2165J1250D01*
G01*
X110250Y202152D01*
G37*
Y207152D02*
Y197152D01*
Y222152D02*
X112415Y218402D01*
G75*
G03*
X108085I-2165J-1250D01*
G01*
X110250Y222152D01*
G36*
X110250Y222152D02*
X112415Y218402D01*
G75*
G03*
X108085I-2165J-1250D01*
G01*
X110250Y222152D01*
G37*
X108085Y225902D01*
G75*
G03*
X112415I2165J1250D01*
G01*
X110250Y222152D01*
G36*
X110250Y222152D02*
X108085Y225902D01*
G75*
G03*
X112415I2165J1250D01*
G01*
X110250Y222152D01*
G37*
Y227152D02*
Y217152D01*
X116485Y54263D02*
X113638Y49333D01*
X119331D01*
X116485Y54263D01*
G36*
X116485Y54263D02*
X113638Y49333D01*
X119331D01*
X116485Y54263D01*
G37*
X125250Y137152D02*
X146500D01*
X154000Y144652D01*
X362750D01*
X375250Y157152D01*
Y164652D01*
X126927Y137152D02*
X125669Y136425D01*
G75*
G03*
Y137878I-419J726D01*
G01*
X126927Y137152D01*
G36*
X126927Y137152D02*
X125669Y136425D01*
G75*
G03*
Y137878I-419J726D01*
G01*
X126927Y137152D01*
G37*
X127750Y139652D02*
X145250D01*
X152750Y147152D01*
X355250D01*
X365250Y157152D01*
Y164652D01*
X129427Y139652D02*
X128169Y138925D01*
G75*
G03*
Y140378I-419J726D01*
G01*
X129427Y139652D01*
G36*
X129427Y139652D02*
X128169Y138925D01*
G75*
G03*
Y140378I-419J726D01*
G01*
X129427Y139652D01*
G37*
Y187152D02*
X128169Y186425D01*
G75*
G03*
Y187878I-419J726D01*
G01*
X129427Y187152D01*
G36*
X129427Y187152D02*
X128169Y186425D01*
G75*
G03*
Y187878I-419J726D01*
G01*
X129427Y187152D01*
G37*
X130250Y142152D02*
X144000D01*
X151500Y149652D01*
X347750D01*
X355250Y157152D01*
Y164652D01*
X131927Y142152D02*
X130669Y141425D01*
G75*
G03*
Y142878I-419J726D01*
G01*
X131927Y142152D01*
G36*
X131927Y142152D02*
X130669Y141425D01*
G75*
G03*
Y142878I-419J726D01*
G01*
X131927Y142152D01*
G37*
X132750Y152152D02*
X340250D01*
X345250Y157152D01*
Y164652D01*
X134427Y152152D02*
X133169Y151425D01*
G75*
G03*
Y152878I-419J726D01*
G01*
X134427Y152152D01*
G36*
X134427Y152152D02*
X133169Y151425D01*
G75*
G03*
Y152878I-419J726D01*
G01*
X134427Y152152D01*
G37*
X135250Y147152D02*
X139000Y149317D01*
G75*
G03*
Y144987I1250J-2165D01*
G01*
X135250Y147152D01*
G36*
X135250Y147152D02*
X139000Y149317D01*
G75*
G03*
Y144987I1250J-2165D01*
G01*
X135250Y147152D01*
G37*
Y154652D02*
X331500D01*
X335250Y158402D01*
Y164652D01*
X135250Y187152D02*
X139000Y189317D01*
G75*
G03*
Y184987I1250J-2165D01*
G01*
X135250Y187152D01*
G36*
X135250Y187152D02*
X139000Y189317D01*
G75*
G03*
Y184987I1250J-2165D01*
G01*
X135250Y187152D01*
G37*
X136715Y170687D02*
X140897Y169566D01*
G75*
G03*
X137835Y166505I-647J-2415D01*
G01*
X136715Y170687D01*
G36*
X136715Y170687D02*
X140897Y169566D01*
G75*
G03*
X137835Y166505I-647J-2415D01*
G01*
X136715Y170687D01*
G37*
X136927Y154652D02*
X135669Y153925D01*
G75*
G03*
Y155378I-419J726D01*
G01*
X136927Y154652D01*
G36*
X136927Y154652D02*
X135669Y153925D01*
G75*
G03*
Y155378I-419J726D01*
G01*
X136927Y154652D01*
G37*
X137750Y239652D02*
X135750D01*
X140250Y147152D02*
X127750D01*
X122750Y152152D01*
X75250D01*
X71500Y148402D01*
Y122152D01*
X75250Y118402D01*
X107750D01*
X119000Y129652D01*
X345250D01*
X355250Y119652D01*
Y104652D01*
X140250Y167152D02*
X135250Y172152D01*
X79000D01*
X66500Y159652D01*
Y119652D01*
X72750Y113402D01*
X110250D01*
X121500Y124652D01*
X330250D01*
X335250Y119652D01*
Y104652D01*
X140250Y187152D02*
X127750D01*
X140250Y222152D02*
X138085Y225902D01*
G75*
G03*
X142415I2165J1250D01*
G01*
X140250Y222152D01*
G36*
X140250Y222152D02*
X138085Y225902D01*
G75*
G03*
X142415I2165J1250D01*
G01*
X140250Y222152D01*
G37*
Y237152D02*
Y235152D01*
Y242152D02*
Y244152D01*
X142750Y239652D02*
X144750D01*
X152994Y164652D02*
X150993D01*
X152994Y239652D02*
X150993D01*
X155250Y161608D02*
Y159608D01*
Y167695D02*
Y169695D01*
Y236608D02*
Y234608D01*
Y242695D02*
Y244695D01*
X157506Y164652D02*
X159504D01*
X157506Y239652D02*
X159504D01*
X317750Y199652D02*
X315750D01*
X320250Y197152D02*
Y195152D01*
Y202152D02*
Y204152D01*
X322750Y199652D02*
X324750D01*
X325250Y164652D02*
Y159652D01*
X322750Y157152D01*
X152750D01*
X145250Y164652D01*
Y212152D01*
X140250Y217152D01*
Y227152D01*
X332750Y199652D02*
X330750D01*
X335250Y109950D02*
X333296Y106567D01*
X337204D01*
X335250Y109950D01*
G36*
X335250Y109950D02*
X333296Y106567D01*
X337204D01*
X335250Y109950D01*
G37*
Y159353D02*
X337204Y162736D01*
X333296D01*
X335250Y159353D01*
G36*
X335250Y159353D02*
X337204Y162736D01*
X333296D01*
X335250Y159353D01*
G37*
Y197152D02*
Y195152D01*
Y202152D02*
Y204152D01*
X337750Y199652D02*
X339750D01*
X345250Y109950D02*
X343296Y106567D01*
X347204D01*
X345250Y109950D01*
G36*
X345250Y109950D02*
X343296Y106567D01*
X347204D01*
X345250Y109950D01*
G37*
Y159353D02*
X347204Y162736D01*
X343296D01*
X345250Y159353D01*
G36*
X345250Y159353D02*
X347204Y162736D01*
X343296D01*
X345250Y159353D01*
G37*
X355250Y109950D02*
X353296Y106567D01*
X357204D01*
X355250Y109950D01*
G36*
X355250Y109950D02*
X353296Y106567D01*
X357204D01*
X355250Y109950D01*
G37*
Y159353D02*
X357204Y162736D01*
X353296D01*
X355250Y159353D01*
G36*
X355250Y159353D02*
X357204Y162736D01*
X353296D01*
X355250Y159353D01*
G37*
X365250Y109950D02*
X363296Y106567D01*
X367204D01*
X365250Y109950D01*
G36*
X365250Y109950D02*
X363296Y106567D01*
X367204D01*
X365250Y109950D01*
G37*
Y159353D02*
X367204Y162736D01*
X363296D01*
X365250Y159353D01*
G36*
X365250Y159353D02*
X367204Y162736D01*
X363296D01*
X365250Y159353D01*
G37*
X371500Y172152D02*
X384000Y184652D01*
Y234337D01*
X387750Y238087D01*
X394000D01*
X375250Y109950D02*
X373296Y106567D01*
X377204D01*
X375250Y109950D01*
G36*
X375250Y109950D02*
X373296Y106567D01*
X377204D01*
X375250Y109950D01*
G37*
Y159353D02*
X377204Y162736D01*
X373296D01*
X375250Y159353D01*
G36*
X375250Y159353D02*
X377204Y162736D01*
X373296D01*
X375250Y159353D01*
G37*
X380250Y84652D02*
Y175902D01*
X386500Y182152D01*
Y227152D01*
X387593Y228244D01*
X394000D01*
X380250Y86329D02*
X380976Y85071D01*
G75*
G03*
X379524I-726J-419D01*
G01*
X380250Y86329D01*
G36*
X380250Y86329D02*
X380976Y85071D01*
G75*
G03*
X379524I-726J-419D01*
G01*
X380250Y86329D01*
G37*
X383301Y162703D02*
X381872Y161274D01*
X383301Y166600D02*
X381872Y168030D01*
X387199Y162703D02*
X388626Y161275D01*
X387199Y166600D02*
X388626Y168028D01*
X390276Y228244D02*
X393069Y229857D01*
G75*
G03*
Y226631I931J-1613D01*
G01*
X390276Y228244D01*
G36*
X390276Y228244D02*
X393069Y229857D01*
G75*
G03*
Y226631I931J-1613D01*
G01*
X390276Y228244D01*
G37*
X394000D02*
X406992D01*
X397724D02*
X394931Y226631D01*
G75*
G03*
Y229857I-931J1613D01*
G01*
X397724Y228244D01*
G36*
X397724Y228244D02*
X394931Y226631D01*
G75*
G03*
Y229857I-931J1613D01*
G01*
X397724Y228244D01*
G37*
X397750Y124652D02*
X395750D01*
X400250Y122152D02*
Y120152D01*
Y127152D02*
Y129152D01*
X402750Y124652D02*
X404750D01*
X403268Y228244D02*
X406061Y229857D01*
G75*
G03*
Y226631I931J-1613D01*
G01*
X403268Y228244D01*
G36*
X403268Y228244D02*
X406061Y229857D01*
G75*
G03*
Y226631I931J-1613D01*
G01*
X403268Y228244D01*
G37*
X406992Y238087D02*
X394000D01*
D02*
D84*
X315250Y119652D03*
X320250Y114652D03*
X324000Y119652D03*
X329000Y114652D03*
D02*
D86*
X116485Y31616D03*
X126485D03*
X136485D03*
X146485D03*
X156485D03*
X166485D03*
X176485D03*
X186485D03*
X196485D03*
X206485D03*
X216485D03*
X226485D03*
X236485D03*
X246485D03*
X256485D03*
X266485D03*
X276485D03*
X286485D03*
X296485D03*
X306485D03*
X316485D03*
X326485D03*
X336485D03*
X346485D03*
X356485D03*
D02*
D88*
X155250Y104652D03*
Y164652D03*
Y179652D03*
Y239652D03*
X165250Y104652D03*
Y164652D03*
Y179652D03*
Y239652D03*
X175250Y104652D03*
Y164652D03*
Y179652D03*
Y239652D03*
X185250Y104652D03*
Y164652D03*
Y179652D03*
Y239652D03*
X195250Y104652D03*
Y164652D03*
Y179652D03*
Y239652D03*
X205250Y104652D03*
Y164652D03*
Y179652D03*
Y239652D03*
X215250Y104652D03*
Y164652D03*
Y179652D03*
Y239652D03*
X225250Y104652D03*
Y164652D03*
Y179652D03*
Y239652D03*
X235250Y104652D03*
Y164652D03*
Y179652D03*
Y239652D03*
X245250Y104652D03*
Y164652D03*
Y179652D03*
Y239652D03*
X255250Y104652D03*
Y164652D03*
Y179652D03*
Y239652D03*
X265250Y104652D03*
Y164652D03*
Y179652D03*
Y239652D03*
X275250Y104652D03*
Y164652D03*
Y179652D03*
Y239652D03*
X285250Y104652D03*
Y164652D03*
Y179652D03*
Y239652D03*
X295250Y104652D03*
Y164652D03*
Y179652D03*
Y239652D03*
X305250Y104652D03*
Y164652D03*
Y179652D03*
Y239652D03*
X315250Y104652D03*
Y164652D03*
X325250Y104652D03*
Y164652D03*
X335250Y104652D03*
Y164652D03*
X345250Y104652D03*
Y164652D03*
X355250Y104652D03*
Y164652D03*
X365250Y104652D03*
Y164652D03*
X375250Y104652D03*
Y164652D03*
X385250Y104652D03*
Y164652D03*
D02*
D89*
X30250Y127152D03*
Y137152D03*
Y147152D03*
Y157152D03*
Y167152D03*
Y177152D03*
Y187152D03*
Y197152D03*
Y207152D03*
Y217152D03*
Y227152D03*
X50250Y127152D03*
Y137152D03*
Y147152D03*
Y157152D03*
Y167152D03*
Y177152D03*
Y187152D03*
Y197152D03*
Y207152D03*
Y217152D03*
Y227152D03*
X60250Y127152D03*
Y147152D03*
Y167152D03*
Y187152D03*
Y207152D03*
Y227152D03*
X80250Y127152D03*
Y147152D03*
Y167152D03*
Y187152D03*
Y207152D03*
Y227152D03*
X90250Y137152D03*
Y147152D03*
Y157152D03*
Y167152D03*
Y177152D03*
Y187152D03*
Y197152D03*
Y207152D03*
Y217152D03*
Y227152D03*
X110250Y137152D03*
Y147152D03*
Y157152D03*
Y167152D03*
Y177152D03*
Y187152D03*
Y197152D03*
Y207152D03*
Y217152D03*
Y227152D03*
X120250Y147152D03*
Y167152D03*
Y187152D03*
Y207152D03*
Y227152D03*
Y239652D03*
X140250Y147152D03*
Y167152D03*
Y187152D03*
Y207152D03*
Y227152D03*
Y239652D03*
X320250Y179652D03*
Y199652D03*
X335250Y179652D03*
Y199652D03*
X400250Y104652D03*
Y124652D03*
D02*
D90*
X394000Y218402D03*
Y228244D03*
Y238087D03*
X406992Y218402D03*
Y228244D03*
Y238087D03*
X0Y0D02*
M02*
