G04 DesignSpark PCB PRO Gerber Version 10.0 Build 5299*
G04 #@! TF.Part,Single*
G04 #@! TF.FileFunction,Copper,L1,Top*
G04 #@! TF.FilePolarity,Positive*
%FSLAX35Y35*%
%MOIN*%
G04 #@! TA.AperFunction,ComponentPad*
%ADD101O,0.05512X0.07087*%
G04 #@! TA.AperFunction,SMDPad,CuDef*
%ADD100R,0.06693X0.29528*%
%ADD99R,0.06693X0.35433*%
G04 #@! TD.AperFunction*
%ADD11C,0.00500*%
%ADD93C,0.00602*%
%ADD98C,0.00709*%
%ADD92C,0.01000*%
G04 #@! TA.AperFunction,ViaPad*
%ADD95C,0.02677*%
%ADD96C,0.03200*%
%ADD97C,0.04800*%
G04 #@! TD.AperFunction*
%ADD94C,0.05000*%
G04 #@! TA.AperFunction,ComponentPad*
%ADD150C,0.06000*%
G04 #@! TD.AperFunction*
X0Y0D02*
D02*
D11*
X17719Y243402D02*
Y113457D01*
G75*
G03*
X21500Y109675I3781J0D01*
G01*
X57750D01*
G75*
G02*
X65219Y102207I0J-7469D01*
G01*
Y62207D01*
G75*
G03*
X67750Y59675I2531J0D01*
G01*
X107666D01*
G75*
G02*
X110134Y57207I0J-2469D01*
G01*
Y50902D01*
X132676D01*
G75*
G02*
X132735Y51009I2962J-1574D01*
G01*
X133132Y51697D01*
Y53402D01*
G75*
G02*
X136485Y56754I3352J0D01*
G01*
X146500D01*
G75*
G02*
X149853Y53402I0J-3352D01*
G01*
Y50902D01*
X153013D01*
X155331Y54916D01*
Y58386D01*
G75*
G02*
X155670Y59203I1154J0D01*
G01*
X159096Y62630D01*
Y108517D01*
X158352Y109806D01*
G75*
G02*
X158342Y109825I1034J594D01*
G01*
G75*
G02*
X158059Y110902I1909J1077D01*
G01*
G75*
G02*
X162441I2191J0D01*
G01*
G75*
G02*
X162158Y109825I-2191J0D01*
G01*
G75*
G02*
X162148Y109806I-1044J575D01*
G01*
X161404Y108517D01*
Y98880D01*
G75*
G02*
X163873Y99033I1346J-1728D01*
G01*
X162125Y102060D01*
G75*
G02*
X162119Y102072I973J559D01*
G01*
G75*
G02*
X161642Y103864I3132J1793D01*
G01*
Y105439D01*
G75*
G02*
X162141Y107270I3608J0D01*
G01*
X164096Y110657D01*
Y144174D01*
X160686Y147585D01*
G75*
G02*
X160346Y148402I814J817D01*
G01*
Y169652D01*
G75*
G02*
X160686Y170469I1154J0D01*
G01*
X164011Y173794D01*
X162125Y177060D01*
G75*
G02*
X162119Y177072I973J559D01*
G01*
G75*
G02*
X161642Y178864I3132J1793D01*
G01*
Y180439D01*
G75*
G02*
X168858I3608J0D01*
G01*
Y178864D01*
G75*
G02*
X168381Y177072I-3609J0D01*
G01*
G75*
G02*
X168375Y177060I-1144J641D01*
G01*
X166459Y173743D01*
X169096Y176380D01*
Y225424D01*
X164436Y230085D01*
G75*
G02*
X164096Y230902I814J817D01*
G01*
Y233646D01*
X162125Y237060D01*
G75*
G02*
X162119Y237072I973J559D01*
G01*
G75*
G02*
X161642Y238864I3132J1793D01*
G01*
Y240439D01*
G75*
G02*
X168858I3608J0D01*
G01*
Y238864D01*
G75*
G02*
X168381Y237072I-3609J0D01*
G01*
G75*
G02*
X168375Y237060I-1144J641D01*
G01*
X166404Y233646D01*
Y231380D01*
X171064Y226719D01*
G75*
G02*
X171404Y225902I-814J-817D01*
G01*
Y175902D01*
G75*
G02*
X171064Y175085I-1154J0D01*
G01*
X166489Y170509D01*
X168359Y167270D01*
G75*
G02*
X168858Y165439I-3108J-1832D01*
G01*
Y163864D01*
G75*
G02*
X168381Y162072I-3609J0D01*
G01*
G75*
G02*
X168375Y162060I-1144J641D01*
G01*
X166404Y158646D01*
Y150130D01*
X171064Y145469D01*
G75*
G02*
X171404Y144652I-814J-817D01*
G01*
Y68880D01*
X175728Y64555D01*
X181485D01*
G75*
G02*
X182302Y64216I0J-1154D01*
G01*
X187299Y59219D01*
G75*
G02*
X187638Y58402I-814J-817D01*
G01*
Y54916D01*
X189956Y50902D01*
X193013D01*
X195331Y54916D01*
Y74189D01*
X189436Y80085D01*
G75*
G02*
X189096Y80902I814J817D01*
G01*
Y142924D01*
X184436Y147585D01*
G75*
G02*
X184096Y148402I814J817D01*
G01*
Y158646D01*
X182125Y162060D01*
G75*
G02*
X182119Y162072I973J559D01*
G01*
G75*
G02*
X181642Y163864I3132J1793D01*
G01*
Y165439D01*
G75*
G02*
X182141Y167270I3608J0D01*
G01*
X184041Y170561D01*
X181404Y167924D01*
Y148880D01*
X184814Y145469D01*
G75*
G02*
X185154Y144652I-814J-817D01*
G01*
Y109046D01*
G75*
G02*
X188859Y105439I97J-3607D01*
G01*
Y103864D01*
G75*
G02*
X182654Y101359I-3608J0D01*
G01*
Y85130D01*
X192314Y75469D01*
G75*
G02*
X192654Y74652I-814J-817D01*
G01*
Y67036D01*
X193398Y65747D01*
G75*
G02*
X193408Y65728I-1034J-594D01*
G01*
G75*
G02*
X193691Y64652I-1909J-1077D01*
G01*
G75*
G02*
X189309I-2191J0D01*
G01*
G75*
G02*
X189592Y65728I2191J0D01*
G01*
G75*
G02*
X189602Y65747I1044J-575D01*
G01*
X190346Y67036D01*
Y74174D01*
X180686Y83835D01*
G75*
G02*
X180346Y84652I814J817D01*
G01*
Y90102D01*
X180154Y89767D01*
Y82630D01*
X187314Y75469D01*
G75*
G02*
X187654Y74652I-814J-817D01*
G01*
Y67036D01*
X188398Y65747D01*
G75*
G02*
X188408Y65728I-1034J-594D01*
G01*
G75*
G02*
X188691Y64652I-1909J-1077D01*
G01*
G75*
G02*
X184309I-2191J0D01*
G01*
G75*
G02*
X184592Y65728I2191J0D01*
G01*
G75*
G02*
X184602Y65747I1044J-575D01*
G01*
X185346Y67036D01*
Y74174D01*
X178186Y81335D01*
G75*
G02*
X177846Y82152I814J817D01*
G01*
Y89767D01*
X177102Y91056D01*
G75*
G02*
X177092Y91075I1034J594D01*
G01*
G75*
G02*
X180346Y93880I1908J1076D01*
G01*
Y141674D01*
X174436Y147585D01*
G75*
G02*
X174096Y148402I814J817D01*
G01*
Y158646D01*
X172125Y162060D01*
G75*
G02*
X172119Y162072I973J559D01*
G01*
G75*
G02*
X171642Y163864I3132J1793D01*
G01*
Y165439D01*
G75*
G02*
X172141Y167270I3608J0D01*
G01*
X174041Y170561D01*
X171404Y167924D01*
Y150130D01*
X176064Y145469D01*
G75*
G02*
X176404Y144652I-814J-817D01*
G01*
Y110657D01*
X178359Y107270D01*
G75*
G02*
X178858Y105439I-3108J-1832D01*
G01*
Y103864D01*
G75*
G02*
X178381Y102072I-3609J0D01*
G01*
G75*
G02*
X178375Y102060I-1144J641D01*
G01*
X176404Y98646D01*
Y72036D01*
X177148Y70747D01*
G75*
G02*
X177158Y70728I-1034J-594D01*
G01*
G75*
G02*
X177441Y69652I-1909J-1077D01*
G01*
G75*
G02*
X173059I-2191J0D01*
G01*
G75*
G02*
X173342Y70728I2191J0D01*
G01*
G75*
G02*
X173352Y70747I1044J-575D01*
G01*
X174096Y72036D01*
Y98646D01*
X172125Y102060D01*
G75*
G02*
X172119Y102072I973J559D01*
G01*
G75*
G02*
X171642Y103864I3132J1793D01*
G01*
Y105439D01*
G75*
G02*
X172141Y107270I3608J0D01*
G01*
X174096Y110657D01*
Y144174D01*
X169436Y148835D01*
G75*
G02*
X169096Y149652I814J817D01*
G01*
Y168402D01*
G75*
G02*
X169436Y169219I1154J0D01*
G01*
X174011Y173794D01*
X172125Y177060D01*
G75*
G02*
X172119Y177072I973J559D01*
G01*
G75*
G02*
X171642Y178864I3132J1793D01*
G01*
Y180439D01*
G75*
G02*
X178858I3608J0D01*
G01*
Y178864D01*
G75*
G02*
X178381Y177072I-3609J0D01*
G01*
G75*
G02*
X178375Y177060I-1144J641D01*
G01*
X176459Y173743D01*
X179096Y176380D01*
Y226674D01*
X174436Y231335D01*
G75*
G02*
X174096Y232152I814J817D01*
G01*
Y233646D01*
X172125Y237060D01*
G75*
G02*
X172119Y237072I973J559D01*
G01*
G75*
G02*
X171642Y238864I3132J1793D01*
G01*
Y240439D01*
G75*
G02*
X178858I3608J0D01*
G01*
Y238864D01*
G75*
G02*
X178381Y237072I-3609J0D01*
G01*
G75*
G02*
X178375Y237060I-1144J641D01*
G01*
X176404Y233646D01*
Y232630D01*
X181064Y227969D01*
G75*
G02*
X181404Y227152I-814J-817D01*
G01*
Y175902D01*
G75*
G02*
X181064Y175085I-1154J0D01*
G01*
X176489Y170509D01*
X178359Y167270D01*
G75*
G02*
X178858Y165439I-3108J-1832D01*
G01*
Y163864D01*
G75*
G02*
X178381Y162072I-3609J0D01*
G01*
G75*
G02*
X178375Y162060I-1144J641D01*
G01*
X176404Y158646D01*
Y148880D01*
X182314Y142969D01*
G75*
G02*
X182654Y142152I-814J-817D01*
G01*
Y107944D01*
G75*
G02*
X182846Y108130I2599J-2506D01*
G01*
Y144174D01*
X179436Y147585D01*
G75*
G02*
X179096Y148402I814J817D01*
G01*
Y168402D01*
G75*
G02*
X179436Y169219I1154J0D01*
G01*
X184011Y173794D01*
X182125Y177060D01*
G75*
G02*
X182119Y177072I973J559D01*
G01*
G75*
G02*
X181642Y178864I3132J1793D01*
G01*
Y180439D01*
G75*
G02*
X188858I3608J0D01*
G01*
Y178864D01*
G75*
G02*
X188381Y177072I-3609J0D01*
G01*
G75*
G02*
X188375Y177060I-1144J641D01*
G01*
X186459Y173743D01*
X189096Y176380D01*
Y226674D01*
X184436Y231335D01*
G75*
G02*
X184096Y232152I814J817D01*
G01*
Y233646D01*
X182125Y237060D01*
G75*
G02*
X182119Y237072I973J559D01*
G01*
G75*
G02*
X181642Y238864I3132J1793D01*
G01*
Y240439D01*
G75*
G02*
X188858I3608J0D01*
G01*
Y238864D01*
G75*
G02*
X188381Y237072I-3609J0D01*
G01*
G75*
G02*
X188375Y237060I-1144J641D01*
G01*
X186404Y233646D01*
Y232630D01*
X191064Y227969D01*
G75*
G02*
X191404Y227152I-814J-817D01*
G01*
Y175902D01*
G75*
G02*
X191064Y175085I-1154J0D01*
G01*
X186489Y170509D01*
X188359Y167270D01*
G75*
G02*
X188858Y165439I-3108J-1832D01*
G01*
Y163864D01*
G75*
G02*
X188381Y162072I-3609J0D01*
G01*
G75*
G02*
X188375Y162060I-1144J641D01*
G01*
X186404Y158646D01*
Y148880D01*
X191064Y144219D01*
G75*
G02*
X191404Y143402I-814J-817D01*
G01*
Y81380D01*
X197299Y75484D01*
G75*
G02*
X197638Y74667I-814J-817D01*
G01*
Y54916D01*
X199956Y50902D01*
X203013D01*
X205331Y54916D01*
Y69772D01*
X204606Y71051D01*
G75*
G02*
X204309Y72152I1894J1100D01*
G01*
G75*
G02*
X208691I2191J0D01*
G01*
G75*
G02*
X208400Y71060I-2191J0D01*
G01*
G75*
G02*
X208389Y71042I-993J562D01*
G01*
X207638Y69763D01*
Y54916D01*
X209956Y50902D01*
X213013D01*
X215331Y54916D01*
Y57136D01*
G75*
G02*
X215670Y57953I1154J0D01*
G01*
X217846Y60130D01*
Y82924D01*
X210686Y90085D01*
G75*
G02*
X210346Y90902I814J817D01*
G01*
Y144652D01*
G75*
G02*
X210686Y145469I1154J0D01*
G01*
X214096Y148880D01*
Y158646D01*
X212125Y162060D01*
G75*
G02*
X212119Y162072I973J559D01*
G01*
G75*
G02*
X211642Y163864I3132J1793D01*
G01*
Y165439D01*
G75*
G02*
X212141Y167270I3608J0D01*
G01*
X214096Y170657D01*
Y172152D01*
G75*
G02*
X214436Y172969I1154J0D01*
G01*
X217554Y176087D01*
G75*
G02*
X211642Y178864I-2304J2777D01*
G01*
Y180439D01*
G75*
G02*
X217846Y182945I3608J0D01*
G01*
Y226674D01*
X214436Y230085D01*
G75*
G02*
X214096Y230902I814J817D01*
G01*
Y233646D01*
X212125Y237060D01*
G75*
G02*
X212119Y237072I973J559D01*
G01*
G75*
G02*
X211642Y238864I3132J1793D01*
G01*
Y240439D01*
G75*
G02*
X218858I3608J0D01*
G01*
Y238864D01*
G75*
G02*
X218381Y237072I-3609J0D01*
G01*
G75*
G02*
X218375Y237060I-1144J641D01*
G01*
X216404Y233646D01*
Y231380D01*
X219814Y227969D01*
G75*
G02*
X220154Y227152I-814J-817D01*
G01*
Y175902D01*
G75*
G02*
X219814Y175085I-1154J0D01*
G01*
X216404Y171674D01*
Y170657D01*
X218359Y167270D01*
G75*
G02*
X218858Y165439I-3108J-1832D01*
G01*
Y163864D01*
G75*
G02*
X218381Y162072I-3609J0D01*
G01*
G75*
G02*
X218375Y162060I-1144J641D01*
G01*
X216404Y158646D01*
Y148402D01*
G75*
G02*
X216064Y147585I-1154J0D01*
G01*
X212654Y144174D01*
Y108158D01*
X214096Y110657D01*
Y134652D01*
G75*
G02*
X214436Y135469I1154J0D01*
G01*
X220346Y141380D01*
Y227267D01*
X219602Y228556D01*
G75*
G02*
X219592Y228575I1034J594D01*
G01*
G75*
G02*
X219309Y229652I1909J1077D01*
G01*
G75*
G02*
X223691I2191J0D01*
G01*
G75*
G02*
X223408Y228575I-2191J0D01*
G01*
G75*
G02*
X223398Y228556I-1044J575D01*
G01*
X222654Y227267D01*
Y182944D01*
G75*
G02*
X228859Y180439I2597J-2505D01*
G01*
Y178864D01*
G75*
G02*
X222654Y176359I-3608J0D01*
G01*
Y168158D01*
X224096Y170657D01*
Y170902D01*
G75*
G02*
X224436Y171719I1154J0D01*
G01*
X229096Y176380D01*
Y226674D01*
X224436Y231335D01*
G75*
G02*
X224096Y232152I814J817D01*
G01*
Y233646D01*
X222125Y237060D01*
G75*
G02*
X222119Y237072I973J559D01*
G01*
G75*
G02*
X221642Y238864I3132J1793D01*
G01*
Y240439D01*
G75*
G02*
X228858I3608J0D01*
G01*
Y238864D01*
G75*
G02*
X228381Y237072I-3609J0D01*
G01*
G75*
G02*
X228375Y237060I-1144J641D01*
G01*
X226404Y233646D01*
Y232630D01*
X231064Y227969D01*
G75*
G02*
X231404Y227152I-814J-817D01*
G01*
Y175902D01*
G75*
G02*
X231064Y175085I-1154J0D01*
G01*
X226489Y170509D01*
X228359Y167270D01*
G75*
G02*
X228858Y165439I-3108J-1832D01*
G01*
Y163864D01*
G75*
G02*
X228381Y162072I-3609J0D01*
G01*
G75*
G02*
X228375Y162060I-1144J641D01*
G01*
X226404Y158646D01*
Y140902D01*
G75*
G02*
X226064Y140085I-1154J0D01*
G01*
X220154Y134174D01*
Y92630D01*
X222314Y90469D01*
G75*
G02*
X222654Y89652I-814J-817D01*
G01*
Y76702D01*
X222846Y77036D01*
Y90424D01*
X220686Y92585D01*
G75*
G02*
X220346Y93402I814J817D01*
G01*
Y133402D01*
G75*
G02*
X220686Y134219I1154J0D01*
G01*
X234096Y147630D01*
Y158646D01*
X232125Y162060D01*
G75*
G02*
X232119Y162072I973J559D01*
G01*
G75*
G02*
X231642Y163864I3132J1793D01*
G01*
Y165439D01*
G75*
G02*
X232141Y167270I3608J0D01*
G01*
X232350Y167632D01*
G75*
G02*
X229309Y169652I-850J2019D01*
G01*
G75*
G02*
X230960Y171775I2191J0D01*
G01*
X232370Y172153D01*
X234011Y173794D01*
X232125Y177060D01*
G75*
G02*
X232119Y177072I973J559D01*
G01*
G75*
G02*
X231642Y178864I3132J1793D01*
G01*
Y180439D01*
G75*
G02*
X238858I3608J0D01*
G01*
Y178864D01*
G75*
G02*
X238381Y177072I-3609J0D01*
G01*
G75*
G02*
X238375Y177060I-1144J641D01*
G01*
X236459Y173743D01*
X239096Y176380D01*
Y226674D01*
X234436Y231335D01*
G75*
G02*
X234096Y232152I814J817D01*
G01*
Y233646D01*
X232125Y237060D01*
G75*
G02*
X232119Y237072I973J559D01*
G01*
G75*
G02*
X231642Y238864I3132J1793D01*
G01*
Y240439D01*
G75*
G02*
X238858I3608J0D01*
G01*
Y238864D01*
G75*
G02*
X238381Y237072I-3609J0D01*
G01*
G75*
G02*
X238375Y237060I-1144J641D01*
G01*
X236404Y233646D01*
Y232630D01*
X241064Y227969D01*
G75*
G02*
X241404Y227152I-814J-817D01*
G01*
Y175902D01*
G75*
G02*
X241064Y175085I-1154J0D01*
G01*
X236489Y170509D01*
X238359Y167270D01*
G75*
G02*
X238858Y165439I-3108J-1832D01*
G01*
Y163864D01*
G75*
G02*
X238381Y162072I-3609J0D01*
G01*
G75*
G02*
X238375Y162060I-1144J641D01*
G01*
X236404Y158646D01*
Y147437D01*
X239096Y150130D01*
Y168402D01*
G75*
G02*
X239436Y169219I1154J0D01*
G01*
X244011Y173794D01*
X242125Y177060D01*
G75*
G02*
X242119Y177072I973J559D01*
G01*
G75*
G02*
X241642Y178864I3132J1793D01*
G01*
Y180439D01*
G75*
G02*
X248858I3608J0D01*
G01*
Y178864D01*
G75*
G02*
X248381Y177072I-3609J0D01*
G01*
G75*
G02*
X248375Y177060I-1144J641D01*
G01*
X246459Y173743D01*
X249096Y176380D01*
Y226674D01*
X244436Y231335D01*
G75*
G02*
X244096Y232152I814J817D01*
G01*
Y233646D01*
X242125Y237060D01*
G75*
G02*
X242119Y237072I973J559D01*
G01*
G75*
G02*
X241642Y238864I3132J1793D01*
G01*
Y240439D01*
G75*
G02*
X248858I3608J0D01*
G01*
Y238864D01*
G75*
G02*
X248381Y237072I-3609J0D01*
G01*
G75*
G02*
X248375Y237060I-1144J641D01*
G01*
X246404Y233646D01*
Y232630D01*
X251064Y227969D01*
G75*
G02*
X251404Y227152I-814J-817D01*
G01*
Y175902D01*
G75*
G02*
X251064Y175085I-1154J0D01*
G01*
X246489Y170509D01*
X248050Y167806D01*
G75*
G02*
X248186Y167969I950J-656D01*
G01*
X254011Y173794D01*
X252125Y177060D01*
G75*
G02*
X252119Y177072I973J559D01*
G01*
G75*
G02*
X251642Y178864I3132J1793D01*
G01*
Y180439D01*
G75*
G02*
X257846Y182944I3608J0D01*
G01*
Y226674D01*
X254436Y230085D01*
G75*
G02*
X254096Y230902I814J817D01*
G01*
Y233646D01*
X252125Y237060D01*
G75*
G02*
X252119Y237072I973J559D01*
G01*
G75*
G02*
X251642Y238864I3132J1793D01*
G01*
Y240439D01*
G75*
G02*
X258858I3608J0D01*
G01*
Y238864D01*
G75*
G02*
X258381Y237072I-3609J0D01*
G01*
G75*
G02*
X258375Y237060I-1144J641D01*
G01*
X256404Y233646D01*
Y231380D01*
X259814Y227969D01*
G75*
G02*
X260154Y227152I-814J-817D01*
G01*
Y190130D01*
G75*
G02*
X263408Y187325I1346J-1728D01*
G01*
G75*
G02*
X263398Y187306I-1044J575D01*
G01*
X262654Y186017D01*
Y182944D01*
G75*
G02*
X268858Y180439I2596J-2506D01*
G01*
Y178864D01*
G75*
G02*
X268381Y177072I-3609J0D01*
G01*
G75*
G02*
X268375Y177060I-1144J641D01*
G01*
X266459Y173743D01*
X269096Y176380D01*
Y226674D01*
X264436Y231335D01*
G75*
G02*
X264096Y232152I814J817D01*
G01*
Y233646D01*
X262125Y237060D01*
G75*
G02*
X262119Y237072I973J559D01*
G01*
G75*
G02*
X261642Y238864I3132J1793D01*
G01*
Y240439D01*
G75*
G02*
X268858I3608J0D01*
G01*
Y238864D01*
G75*
G02*
X268381Y237072I-3609J0D01*
G01*
G75*
G02*
X268375Y237060I-1144J641D01*
G01*
X266404Y233646D01*
Y232630D01*
X271064Y227969D01*
G75*
G02*
X271404Y227152I-814J-817D01*
G01*
Y175902D01*
G75*
G02*
X271064Y175085I-1154J0D01*
G01*
X266489Y170509D01*
X268050Y167806D01*
G75*
G02*
X268186Y167969I950J-656D01*
G01*
X274011Y173794D01*
X272125Y177060D01*
G75*
G02*
X272119Y177072I973J559D01*
G01*
G75*
G02*
X271642Y178864I3132J1793D01*
G01*
Y180439D01*
G75*
G02*
X277556Y183214I3608J0D01*
G01*
X274436Y186335D01*
G75*
G02*
X274096Y187152I814J817D01*
G01*
Y233646D01*
X272125Y237060D01*
G75*
G02*
X272119Y237072I973J559D01*
G01*
G75*
G02*
X271642Y238864I3132J1793D01*
G01*
Y240439D01*
G75*
G02*
X278858I3608J0D01*
G01*
Y238864D01*
G75*
G02*
X278381Y237072I-3609J0D01*
G01*
G75*
G02*
X278375Y237060I-1144J641D01*
G01*
X276404Y233646D01*
Y187630D01*
X279814Y184219D01*
G75*
G02*
X280154Y183402I-814J-817D01*
G01*
Y174652D01*
G75*
G02*
X279814Y173835I-1154J0D01*
G01*
X275020Y169040D01*
G75*
G02*
X278858Y165439I230J-3601D01*
G01*
Y163864D01*
G75*
G02*
X278381Y162072I-3609J0D01*
G01*
G75*
G02*
X278375Y162060I-1144J641D01*
G01*
X276404Y158646D01*
Y150130D01*
X281064Y145469D01*
G75*
G02*
X281404Y144652I-814J-817D01*
G01*
Y66380D01*
X285728Y62055D01*
X290366D01*
X291655Y62799D01*
G75*
G02*
X291674Y62810I594J-1034D01*
G01*
G75*
G02*
X292679Y63091I1076J-1908D01*
G01*
X289436Y66335D01*
G75*
G02*
X289096Y67152I814J817D01*
G01*
Y144174D01*
X284436Y148835D01*
G75*
G02*
X284096Y149652I814J817D01*
G01*
Y158646D01*
X282125Y162060D01*
G75*
G02*
X282119Y162072I973J559D01*
G01*
G75*
G02*
X281642Y163864I3132J1793D01*
G01*
Y165439D01*
G75*
G02*
X285480Y169040I3608J0D01*
G01*
X284436Y170085D01*
G75*
G02*
X284096Y170902I814J817D01*
G01*
Y173646D01*
X282654Y176145D01*
Y169652D01*
G75*
G02*
X282314Y168835I-1154J0D01*
G01*
X281404Y167924D01*
Y150130D01*
X286064Y145469D01*
G75*
G02*
X286404Y144652I-814J-817D01*
G01*
Y110657D01*
X288359Y107270D01*
G75*
G02*
X288858Y105439I-3109J-1832D01*
G01*
Y103864D01*
G75*
G02*
X281642I-3608J0D01*
G01*
Y105439D01*
G75*
G02*
X282141Y107270I3608J0D01*
G01*
X284096Y110657D01*
Y144174D01*
X279436Y148835D01*
G75*
G02*
X279096Y149652I814J817D01*
G01*
Y168402D01*
G75*
G02*
X279436Y169219I1154J0D01*
G01*
X280346Y170130D01*
Y183402D01*
G75*
G02*
X280686Y184219I1154J0D01*
G01*
X284096Y187630D01*
Y220902D01*
G75*
G02*
X284436Y221719I1154J0D01*
G01*
X294096Y231380D01*
Y233646D01*
X292125Y237060D01*
G75*
G02*
X292119Y237072I973J559D01*
G01*
G75*
G02*
X291642Y238864I3132J1793D01*
G01*
Y240439D01*
G75*
G02*
X298858I3608J0D01*
G01*
Y238864D01*
G75*
G02*
X298381Y237072I-3609J0D01*
G01*
G75*
G02*
X298375Y237060I-1144J641D01*
G01*
X296404Y233646D01*
Y230902D01*
G75*
G02*
X296064Y230085I-1154J0D01*
G01*
X286404Y220424D01*
Y187152D01*
G75*
G02*
X286064Y186335I-1154J0D01*
G01*
X282944Y183214D01*
G75*
G02*
X288858Y180439I2306J-2775D01*
G01*
Y178864D01*
G75*
G02*
X288381Y177072I-3609J0D01*
G01*
G75*
G02*
X288375Y177060I-1144J641D01*
G01*
X286404Y173646D01*
Y171380D01*
X288060Y169723D01*
G75*
G02*
X288342Y170728I2190J-71D01*
G01*
G75*
G02*
X288352Y170747I1044J-575D01*
G01*
X289096Y172036D01*
Y174652D01*
G75*
G02*
X289436Y175469I1154J0D01*
G01*
X290456Y176489D01*
X291765Y181373D01*
G75*
G02*
X291770Y181391I1145J-314D01*
G01*
G75*
G02*
X297846Y182944I3480J-952D01*
G01*
Y224652D01*
G75*
G02*
X298186Y225469I1154J0D01*
G01*
X304096Y231380D01*
Y233646D01*
X302125Y237060D01*
G75*
G02*
X302119Y237072I973J559D01*
G01*
G75*
G02*
X301642Y238864I3132J1793D01*
G01*
Y240439D01*
G75*
G02*
X308858I3608J0D01*
G01*
Y238864D01*
G75*
G02*
X308381Y237072I-3609J0D01*
G01*
G75*
G02*
X308375Y237060I-1144J641D01*
G01*
X306404Y233646D01*
Y230902D01*
G75*
G02*
X306064Y230085I-1154J0D01*
G01*
X300154Y224174D01*
Y187365D01*
X301970Y189181D01*
G75*
G02*
X302752Y189504I780J-780D01*
G01*
X327748D01*
G75*
G02*
X328530Y189181I2J-1103D01*
G01*
X331030Y186681D01*
G75*
G02*
X331353Y185902I-780J-780D01*
G01*
Y185901D01*
G75*
G02*
Y185899I-364J-1D01*
G01*
Y132608D01*
X335707Y128254D01*
X388998D01*
G75*
G02*
X389780Y127931I2J-1103D01*
G01*
X393530Y124181D01*
G75*
G02*
X393853Y123402I-780J-780D01*
G01*
Y123401D01*
G75*
G02*
Y123399I-364J-1D01*
G01*
Y117608D01*
X395707Y115754D01*
X403998D01*
G75*
G02*
X404780Y115431I2J-1103D01*
G01*
X407280Y112931D01*
G75*
G02*
X407603Y112152I-780J-780D01*
G01*
Y112151D01*
G75*
G02*
Y112149I-364J-1D01*
G01*
Y97154D01*
G75*
G02*
Y97152I-367J-1D01*
G01*
Y97152D01*
G75*
G02*
X407280Y96372I-1103J0D01*
G01*
X404780Y93872D01*
G75*
G02*
X403998Y93549I-780J780D01*
G01*
X379002D01*
G75*
G02*
X378220Y93872I-2J1103D01*
G01*
X374470Y97622D01*
G75*
G02*
X374147Y98402I780J780D01*
G01*
Y98402D01*
G75*
G02*
Y98404I364J1D01*
G01*
Y100256D01*
G75*
G02*
X374160Y100424I1102J0D01*
G01*
G75*
G02*
X371642Y103864I1090J3440D01*
G01*
Y105439D01*
G75*
G02*
X372776Y108066I3608J0D01*
G01*
X371043Y109799D01*
X311192D01*
G75*
G02*
X310913Y109834I-1J1102D01*
G01*
G75*
G02*
X306809Y110902I-1913J1067D01*
G01*
G75*
G02*
X307092Y111978I2191J0D01*
G01*
G75*
G02*
X307102Y111997I1044J-575D01*
G01*
X307846Y113286D01*
Y145424D01*
X304436Y148835D01*
G75*
G02*
X304096Y149652I814J817D01*
G01*
Y157202D01*
G75*
G02*
X303317Y157525I0J1103D01*
G01*
X300154Y160689D01*
Y151380D01*
X306064Y145469D01*
G75*
G02*
X306404Y144652I-814J-817D01*
G01*
Y110657D01*
X308359Y107270D01*
G75*
G02*
X308858Y105439I-3109J-1832D01*
G01*
Y103864D01*
G75*
G02*
X301642I-3608J0D01*
G01*
Y105439D01*
G75*
G02*
X302141Y107270I3608J0D01*
G01*
X304096Y110657D01*
Y144174D01*
X298186Y150085D01*
G75*
G02*
X297846Y150902I814J817D01*
G01*
Y161145D01*
X296404Y158646D01*
Y150130D01*
X301064Y145469D01*
G75*
G02*
X301404Y144652I-814J-817D01*
G01*
Y66380D01*
X306978Y60805D01*
X342735D01*
G75*
G02*
X343552Y60466I0J-1154D01*
G01*
X347299Y56719D01*
G75*
G02*
X347638Y55902I-814J-817D01*
G01*
Y54916D01*
X349956Y50902D01*
X362835D01*
Y57207D01*
G75*
G02*
X365304Y59675I2469J0D01*
G01*
X407750D01*
G75*
G03*
X410281Y62207I0J2531D01*
G01*
Y243402D01*
G75*
G03*
X406500Y247183I-3781J0D01*
G01*
X21500D01*
G75*
G03*
X17719Y243402I0J-3781D01*
G01*
X26000Y127152D02*
G75*
G02*
X34500I4250J0D01*
G01*
G75*
G02*
X26000I-4250J0D01*
G01*
X58298Y130473D02*
G75*
G02*
X64102Y127152I1952J-3321D01*
G01*
G75*
G02*
X58298Y123830I-3852J0D01*
G01*
X55250Y125590D01*
X52184Y123820D01*
G75*
G02*
X48298Y123830I-1934J3332D01*
G01*
X44888Y125799D01*
X40250D01*
G75*
G02*
X39293Y126196I0J1352D01*
G01*
X33085Y132404D01*
X29298Y133419D01*
G75*
G02*
X26398Y137152I952J3733D01*
G01*
Y137152D01*
G75*
G02*
X26929Y139104I3852J0D01*
G01*
X28689Y142152D01*
X26929Y145199D01*
G75*
G02*
X26398Y147151I3322J1952D01*
G01*
Y147152D01*
G75*
G02*
X34102I3852J0D01*
G01*
Y147151D01*
G75*
G02*
X33571Y145199I-3853J0D01*
G01*
X31811Y142152D01*
X33571Y139104D01*
G75*
G02*
X33986Y138091I-3320J-1951D01*
G01*
X34998Y134316D01*
X40810Y128504D01*
X44888D01*
X48298Y130473D01*
G75*
G02*
X52184Y130483I1952J-3322D01*
G01*
X55250Y128713D01*
X58298Y130473D01*
X146205Y213109D02*
G75*
G02*
X146602Y212152I-955J-957D01*
G01*
Y204652D01*
G75*
G02*
X146205Y203694I-1352J0D01*
G01*
X136602Y194091D01*
Y188391D01*
G75*
G02*
X144102Y187152I3648J-1239D01*
G01*
G75*
G02*
X136602Y185913I-3852J0D01*
G01*
Y168391D01*
G75*
G02*
X144102Y167152I3648J-1239D01*
G01*
G75*
G02*
X136602Y165913I-3852J0D01*
G01*
Y156691D01*
X137148Y155747D01*
G75*
G02*
X137170Y155708I-1167J-680D01*
G01*
G75*
G02*
X137441Y154652I-1920J-1056D01*
G01*
Y154652D01*
G75*
G02*
X134915Y152486I-2191J0D01*
G01*
G75*
G02*
X134941Y152152I-2164J-334D01*
G01*
Y152152D01*
G75*
G02*
X131601Y150286I-2191J0D01*
G01*
Y144194D01*
X132148Y143247D01*
G75*
G02*
X132170Y143208I-1167J-680D01*
G01*
G75*
G02*
X132441Y142152I-1920J-1056D01*
G01*
Y142152D01*
G75*
G02*
X129915Y139986I-2191J0D01*
G01*
G75*
G02*
X129941Y139652I-2164J-334D01*
G01*
Y139652D01*
G75*
G02*
X127415Y137486I-2191J0D01*
G01*
G75*
G02*
X127441Y137152I-2164J-334D01*
G01*
Y137152D01*
G75*
G02*
X123059I-2191J0D01*
G01*
Y137152D01*
G75*
G02*
X123330Y138208I2191J0D01*
G01*
G75*
G02*
X123352Y138247I1189J-640D01*
G01*
X123896Y139189D01*
Y145908D01*
G75*
G02*
X118298Y143830I-3646J1244D01*
G01*
X115250Y145590D01*
X113070Y144331D01*
X111811Y142152D01*
X113571Y139104D01*
G75*
G02*
X114102Y137152I-3322J-1952D01*
G01*
Y137152D01*
G75*
G02*
X106398I-3852J0D01*
G01*
Y137152D01*
G75*
G02*
X106929Y139104I3853J0D01*
G01*
X108689Y142152D01*
X106917Y145220D01*
G75*
G02*
X106398Y147152I3334J1932D01*
G01*
G75*
G02*
X109011Y150799I3853J0D01*
G01*
X91489D01*
G75*
G02*
X94102Y147152I-1239J-3648D01*
G01*
Y147151D01*
G75*
G02*
X93571Y145199I-3853J0D01*
G01*
X91811Y142152D01*
X93571Y139104D01*
G75*
G02*
X94102Y137153I-3319J-1951D01*
G01*
Y137152D01*
G75*
G02*
X88298Y133830I-3853J0D01*
G01*
X84888Y135799D01*
X70250D01*
G75*
G02*
X69293Y136196I0J1352D01*
G01*
X63085Y142404D01*
X59298Y143419D01*
G75*
G02*
X58313Y143821I952J3733D01*
G01*
X55250Y145590D01*
X53070Y144331D01*
X51811Y142152D01*
X53571Y139104D01*
G75*
G02*
X54102Y137152I-3322J-1952D01*
G01*
Y137152D01*
G75*
G02*
X46398I-3852J0D01*
G01*
Y137152D01*
G75*
G02*
X46929Y139104I3853J0D01*
G01*
X48689Y142152D01*
X46917Y145220D01*
G75*
G02*
X46398Y147152I3334J1932D01*
G01*
G75*
G02*
X49011Y150799I3853J0D01*
G01*
X35250D01*
G75*
G02*
X34293Y151196I0J1352D01*
G01*
X33085Y152404D01*
X29298Y153419D01*
G75*
G02*
X26398Y157152I952J3733D01*
G01*
Y157152D01*
G75*
G02*
X26929Y159104I3852J0D01*
G01*
X28689Y162152D01*
X26929Y165199D01*
G75*
G02*
X26398Y167151I3322J1952D01*
G01*
Y167152D01*
G75*
G02*
X34102I3852J0D01*
G01*
Y167151D01*
G75*
G02*
X33571Y165199I-3853J0D01*
G01*
X31811Y162152D01*
X33571Y159104D01*
G75*
G02*
X33986Y158091I-3320J-1951D01*
G01*
X34998Y154316D01*
X35810Y153504D01*
X49011D01*
G75*
G02*
X46398Y157152I1239J3648D01*
G01*
Y157152D01*
G75*
G02*
X46929Y159104I3853J0D01*
G01*
X48689Y162152D01*
X46929Y165199D01*
G75*
G02*
X46398Y167150I3319J1951D01*
G01*
Y167151D01*
G75*
G02*
X49011Y170799I3853J0D01*
G01*
X35250D01*
G75*
G02*
X34293Y171196I0J1352D01*
G01*
X33085Y172404D01*
X29298Y173419D01*
G75*
G02*
X26909Y179069I952J3733D01*
G01*
G75*
G02*
X26914Y179078I1343J-753D01*
G01*
X28689Y182152D01*
X26929Y185199D01*
G75*
G02*
X26398Y187151I3322J1952D01*
G01*
Y187152D01*
G75*
G02*
X34102I3852J0D01*
G01*
Y187151D01*
G75*
G02*
X33571Y185199I-3853J0D01*
G01*
X31811Y182152D01*
X33586Y179078D01*
G75*
G02*
X33594Y179064I-1241J-702D01*
G01*
G75*
G02*
X33983Y178104I-3344J-1913D01*
G01*
X34998Y174316D01*
X35810Y173504D01*
X49011D01*
G75*
G02*
X46398Y177152I1239J3648D01*
G01*
Y177152D01*
G75*
G02*
X46929Y179104I3853J0D01*
G01*
X48689Y182152D01*
X46917Y185220D01*
G75*
G02*
X46398Y187152I3334J1932D01*
G01*
G75*
G02*
X49011Y190799I3853J0D01*
G01*
X35250D01*
G75*
G02*
X34293Y191196I0J1352D01*
G01*
X33085Y192404D01*
X29298Y193419D01*
G75*
G02*
X26909Y199069I952J3733D01*
G01*
G75*
G02*
X26914Y199078I1343J-753D01*
G01*
X28689Y202152D01*
X26929Y205199D01*
G75*
G02*
X26398Y207151I3322J1952D01*
G01*
Y207152D01*
G75*
G02*
X34102I3852J0D01*
G01*
Y207151D01*
G75*
G02*
X33571Y205199I-3853J0D01*
G01*
X31811Y202152D01*
X33586Y199078D01*
G75*
G02*
X33594Y199064I-1241J-702D01*
G01*
G75*
G02*
X33983Y198104I-3344J-1913D01*
G01*
X34998Y194316D01*
X35810Y193504D01*
X49011D01*
G75*
G02*
X46398Y197152I1239J3648D01*
G01*
Y197152D01*
G75*
G02*
X46929Y199104I3853J0D01*
G01*
X48689Y202152D01*
X46929Y205199D01*
G75*
G02*
X46398Y207150I3319J1951D01*
G01*
Y207151D01*
G75*
G02*
X49011Y210799I3853J0D01*
G01*
X35250D01*
G75*
G02*
X34293Y211196I0J1352D01*
G01*
X33085Y212404D01*
X29298Y213419D01*
G75*
G02*
X26398Y217152I952J3733D01*
G01*
Y217152D01*
G75*
G02*
X26929Y219104I3852J0D01*
G01*
X28689Y222152D01*
X26929Y225199D01*
G75*
G02*
X26398Y227151I3322J1952D01*
G01*
Y227152D01*
G75*
G02*
X34102I3852J0D01*
G01*
Y227151D01*
G75*
G02*
X33571Y225199I-3853J0D01*
G01*
X31811Y222152D01*
X33571Y219104D01*
G75*
G02*
X33986Y218091I-3320J-1951D01*
G01*
X34998Y214316D01*
X35810Y213504D01*
X49011D01*
G75*
G02*
X46398Y217152I1239J3648D01*
G01*
Y217152D01*
G75*
G02*
X46929Y219104I3853J0D01*
G01*
X48689Y222152D01*
X46929Y225199D01*
G75*
G02*
X46398Y227150I3319J1951D01*
G01*
Y227151D01*
G75*
G02*
X52202Y230473I3853J0D01*
G01*
X55250Y228713D01*
X58298Y230473D01*
G75*
G02*
X63981Y228110I1952J-3322D01*
G01*
X64998Y224316D01*
X70810Y218504D01*
X84888D01*
X88298Y220473D01*
G75*
G02*
X89010Y220799I1952J-3322D01*
G01*
X85250D01*
G75*
G02*
X84293Y221196I0J1352D01*
G01*
X83085Y222404D01*
X79298Y223419D01*
G75*
G02*
X76398Y227152I952J3733D01*
G01*
G75*
G02*
X83983Y228104I3852J0D01*
G01*
X84998Y224316D01*
X85810Y223504D01*
X89011D01*
G75*
G02*
X86398Y227152I1239J3648D01*
G01*
G75*
G02*
X94102I3852J0D01*
G01*
G75*
G02*
X91489Y223504I-3852J0D01*
G01*
X109011D01*
G75*
G02*
X106398Y227152I1240J3648D01*
G01*
G75*
G02*
X112202Y230473I3852J0D01*
G01*
X115250Y228713D01*
X117430Y229972D01*
X118898Y232514D01*
Y234289D01*
X116929Y237699D01*
G75*
G02*
X116398Y239651I3322J1952D01*
G01*
Y239652D01*
G75*
G02*
X124102I3852J0D01*
G01*
Y239651D01*
G75*
G02*
X123571Y237699I-3853J0D01*
G01*
X121602Y234289D01*
Y232514D01*
X123583Y229083D01*
G75*
G02*
X124102Y227152I-3334J-1932D01*
G01*
G75*
G02*
X121489Y223504I-3853J0D01*
G01*
X135250D01*
G75*
G02*
X136207Y223107I0J-1352D01*
G01*
X146205Y213109D01*
X136398Y147152D02*
G75*
G02*
X144102I3852J0D01*
G01*
G75*
G02*
X136398I-3852J0D01*
G01*
X115829Y92246D02*
G75*
G02*
X136038I10104J0D01*
G01*
G75*
G02*
X115829I-10104J0D01*
G01*
X76398Y127152D02*
G75*
G02*
X84102I3852J0D01*
G01*
G75*
G02*
X76398I-3852J0D01*
G01*
X136000Y239652D02*
G75*
G02*
X144500I4250J0D01*
G01*
G75*
G02*
X136000I-4250J0D01*
G01*
X136398Y227152D02*
G75*
G02*
X144102I3852J0D01*
G01*
G75*
G02*
X136398I-3852J0D01*
G01*
X159814Y170469D02*
G75*
G02*
X160154Y169652I-814J-817D01*
G01*
Y159652D01*
G75*
G02*
X159814Y158835I-1154J0D01*
G01*
X156404Y155424D01*
Y110657D01*
X158359Y107270D01*
G75*
G02*
X158858Y105439I-3109J-1832D01*
G01*
Y103864D01*
G75*
G02*
X151642I-3608J0D01*
G01*
Y105439D01*
G75*
G02*
X152141Y107270I3608J0D01*
G01*
X154096Y110657D01*
Y155902D01*
G75*
G02*
X154436Y156719I1154J0D01*
G01*
X157846Y160130D01*
Y160813D01*
G75*
G02*
X151244Y163864I-2596J3051D01*
G01*
Y165439D01*
G75*
G02*
X157846Y168490I4006J0D01*
G01*
Y169174D01*
X154436Y172585D01*
G75*
G02*
X154096Y173402I814J817D01*
G01*
Y173646D01*
X152125Y177060D01*
G75*
G02*
X152119Y177072I973J559D01*
G01*
G75*
G02*
X151642Y178864I3132J1793D01*
G01*
Y180439D01*
G75*
G02*
X158858I3608J0D01*
G01*
Y178864D01*
G75*
G02*
X158381Y177072I-3609J0D01*
G01*
G75*
G02*
X158375Y177060I-1144J641D01*
G01*
X156489Y173794D01*
X159814Y170469D01*
X151244Y240439D02*
G75*
G02*
X159256I4006J0D01*
G01*
Y238864D01*
G75*
G02*
X151244I-4006J0D01*
G01*
Y240439D01*
X202158Y98228D02*
G75*
G02*
X202441Y97152I-1909J-1077D01*
G01*
G75*
G02*
X198059I-2191J0D01*
G01*
G75*
G02*
X198342Y98228I2191J0D01*
G01*
G75*
G02*
X198352Y98247I1044J-575D01*
G01*
X199096Y99536D01*
Y142924D01*
X194436Y147585D01*
G75*
G02*
X194096Y148402I814J817D01*
G01*
Y158646D01*
X192654Y161145D01*
Y148880D01*
X196064Y145469D01*
G75*
G02*
X196404Y144652I-814J-817D01*
G01*
Y110657D01*
X198359Y107270D01*
G75*
G02*
X198858Y105439I-3109J-1832D01*
G01*
Y103864D01*
G75*
G02*
X191642I-3608J0D01*
G01*
Y105439D01*
G75*
G02*
X192141Y107270I3608J0D01*
G01*
X194096Y110657D01*
Y144174D01*
X190686Y147585D01*
G75*
G02*
X190346Y148402I814J817D01*
G01*
Y169652D01*
G75*
G02*
X190686Y170469I1154J0D01*
G01*
X194011Y173794D01*
X192125Y177060D01*
G75*
G02*
X192119Y177072I973J559D01*
G01*
G75*
G02*
X191642Y178864I3132J1793D01*
G01*
Y180439D01*
G75*
G02*
X197846Y182944I3608J0D01*
G01*
Y226674D01*
X194436Y230085D01*
G75*
G02*
X194096Y230902I814J817D01*
G01*
Y233646D01*
X192125Y237060D01*
G75*
G02*
X192119Y237072I973J559D01*
G01*
G75*
G02*
X191642Y238864I3132J1793D01*
G01*
Y240439D01*
G75*
G02*
X198858I3608J0D01*
G01*
Y238864D01*
G75*
G02*
X198381Y237072I-3609J0D01*
G01*
G75*
G02*
X198375Y237060I-1144J641D01*
G01*
X196404Y233646D01*
Y231380D01*
X199814Y227969D01*
G75*
G02*
X200154Y227152I-814J-817D01*
G01*
Y174652D01*
G75*
G02*
X199814Y173835I-1154J0D01*
G01*
X196489Y170509D01*
X198359Y167270D01*
G75*
G02*
X198858Y165439I-3108J-1832D01*
G01*
Y163864D01*
G75*
G02*
X198381Y162072I-3609J0D01*
G01*
G75*
G02*
X198375Y162060I-1144J641D01*
G01*
X196404Y158646D01*
Y148880D01*
X201064Y144219D01*
G75*
G02*
X201404Y143402I-814J-817D01*
G01*
Y99536D01*
X202148Y98247D01*
G75*
G02*
X202158Y98228I-1034J-594D01*
G01*
X214658Y65728D02*
G75*
G02*
X214941Y64652I-1909J-1077D01*
G01*
G75*
G02*
X210559I-2191J0D01*
G01*
G75*
G02*
X210842Y65728I2191J0D01*
G01*
G75*
G02*
X210852Y65747I1044J-575D01*
G01*
X211596Y67036D01*
Y74174D01*
X208186Y77585D01*
G75*
G02*
X207846Y78402I814J817D01*
G01*
Y101359D01*
G75*
G02*
X201642Y103864I-2596J2506D01*
G01*
Y105439D01*
G75*
G02*
X202141Y107270I3608J0D01*
G01*
X204096Y110657D01*
Y144174D01*
X199436Y148835D01*
G75*
G02*
X199096Y149652I814J817D01*
G01*
Y167267D01*
X198352Y168556D01*
G75*
G02*
X198342Y168575I1034J594D01*
G01*
G75*
G02*
X198059Y169652I1909J1077D01*
G01*
G75*
G02*
X202441I2191J0D01*
G01*
G75*
G02*
X202158Y168575I-2191J0D01*
G01*
G75*
G02*
X202148Y168556I-1044J575D01*
G01*
X201404Y167267D01*
Y150130D01*
X206064Y145469D01*
G75*
G02*
X206404Y144652I-814J-817D01*
G01*
Y110657D01*
X207846Y108158D01*
Y146674D01*
X204436Y150085D01*
G75*
G02*
X204096Y150902I814J817D01*
G01*
Y158646D01*
X202125Y162060D01*
G75*
G02*
X202119Y162072I973J559D01*
G01*
G75*
G02*
X201642Y163864I3132J1793D01*
G01*
Y165439D01*
G75*
G02*
X202141Y167270I3608J0D01*
G01*
X204096Y170657D01*
Y170902D01*
G75*
G02*
X204436Y171719I1154J0D01*
G01*
X209096Y176380D01*
Y226674D01*
X204436Y231335D01*
G75*
G02*
X204096Y232152I814J817D01*
G01*
Y233646D01*
X202125Y237060D01*
G75*
G02*
X202119Y237072I973J559D01*
G01*
G75*
G02*
X201642Y238864I3132J1793D01*
G01*
Y240439D01*
G75*
G02*
X208858I3608J0D01*
G01*
Y238864D01*
G75*
G02*
X208381Y237072I-3609J0D01*
G01*
G75*
G02*
X208375Y237060I-1144J641D01*
G01*
X206404Y233646D01*
Y232630D01*
X211064Y227969D01*
G75*
G02*
X211404Y227152I-814J-817D01*
G01*
Y175902D01*
G75*
G02*
X211064Y175085I-1154J0D01*
G01*
X206489Y170509D01*
X208359Y167270D01*
G75*
G02*
X208858Y165439I-3108J-1832D01*
G01*
Y163864D01*
G75*
G02*
X208381Y162072I-3609J0D01*
G01*
G75*
G02*
X208375Y162060I-1144J641D01*
G01*
X206404Y158646D01*
Y151380D01*
X209814Y147969D01*
G75*
G02*
X210154Y147152I-814J-817D01*
G01*
Y78880D01*
X213564Y75469D01*
G75*
G02*
X213904Y74652I-814J-817D01*
G01*
Y67036D01*
X214648Y65747D01*
G75*
G02*
X214658Y65728I-1034J-594D01*
G01*
X201642Y180439D02*
G75*
G02*
X208859I3608J0D01*
G01*
Y178864D01*
G75*
G02*
X201642I-3608J0D01*
G01*
Y180439D01*
X281642Y240439D02*
G75*
G02*
X288859I3608J0D01*
G01*
Y238864D01*
G75*
G02*
X281642I-3608J0D01*
G01*
Y240439D01*
X316000Y199652D02*
G75*
G02*
X324500I4250J0D01*
G01*
G75*
G02*
X316000I-4250J0D01*
G01*
X331000D02*
G75*
G02*
X339500I4250J0D01*
G01*
G75*
G02*
X331000I-4250J0D01*
G01*
X331398Y179652D02*
G75*
G02*
X339102I3852J0D01*
G01*
G75*
G02*
X331398I-3852J0D01*
G01*
X331642Y165439D02*
G75*
G02*
X338859I3608J0D01*
G01*
Y163864D01*
G75*
G02*
X331642I-3608J0D01*
G01*
Y165439D01*
X341642D02*
G75*
G02*
X348859I3608J0D01*
G01*
Y163864D01*
G75*
G02*
X341642I-3608J0D01*
G01*
Y165439D01*
X351642D02*
G75*
G02*
X358859I3608J0D01*
G01*
Y163864D01*
G75*
G02*
X351642I-3608J0D01*
G01*
Y165439D01*
X361642D02*
G75*
G02*
X368859I3608J0D01*
G01*
Y163864D01*
G75*
G02*
X361642I-3608J0D01*
G01*
Y165439D01*
X371642D02*
G75*
G02*
X378859I3608J0D01*
G01*
Y163864D01*
G75*
G02*
X371642I-3608J0D01*
G01*
Y165439D01*
X381244D02*
G75*
G02*
X389256I4006J0D01*
G01*
Y163864D01*
G75*
G02*
X381244I-4006J0D01*
G01*
Y165439D01*
X396000Y124652D02*
G75*
G02*
X404500I4250J0D01*
G01*
G75*
G02*
X396000I-4250J0D01*
G01*
X401913Y77506D02*
G75*
G02*
X403163Y76256I0J-1250D01*
G01*
Y70823D01*
G75*
G02*
X401913Y69573I-1250J0D01*
G01*
X373646D01*
G75*
G02*
X372396Y70823I0J1250D01*
G01*
Y80980D01*
G75*
G02*
X373646Y82230I1250J0D01*
G01*
X390102D01*
G75*
G02*
X391352Y80980I0J-1250D01*
G01*
Y77506D01*
X401913D01*
X311642Y105439D02*
G75*
G02*
X318859I3608J0D01*
G01*
Y103864D01*
G75*
G02*
X311642I-3608J0D01*
G01*
Y105439D01*
X321642D02*
G75*
G02*
X328858I3608J0D01*
G01*
Y103864D01*
G75*
G02*
X328381Y102072I-3609J0D01*
G01*
G75*
G02*
X328375Y102060I-1144J641D01*
G01*
X326404Y98646D01*
Y67036D01*
X327148Y65747D01*
G75*
G02*
X327158Y65728I-1034J-594D01*
G01*
G75*
G02*
X327441Y64652I-1909J-1077D01*
G01*
G75*
G02*
X323059I-2191J0D01*
G01*
G75*
G02*
X323342Y65728I2191J0D01*
G01*
G75*
G02*
X323352Y65747I1044J-575D01*
G01*
X324096Y67036D01*
Y98646D01*
X322125Y102060D01*
G75*
G02*
X322119Y102072I973J559D01*
G01*
G75*
G02*
X321642Y103864I3132J1793D01*
G01*
Y105439D01*
X331642D02*
G75*
G02*
X338859I3608J0D01*
G01*
Y103864D01*
G75*
G02*
X331642I-3608J0D01*
G01*
Y105439D01*
X336931Y72561D02*
G75*
G02*
X357140I10104J0D01*
G01*
G75*
G02*
X336931I-10104J0D01*
G01*
X341642Y105439D02*
G75*
G02*
X348859I3608J0D01*
G01*
Y103864D01*
G75*
G02*
X341642I-3608J0D01*
G01*
Y105439D01*
X351642D02*
G75*
G02*
X358859I3608J0D01*
G01*
Y103864D01*
G75*
G02*
X351642I-3608J0D01*
G01*
Y105439D01*
X361642D02*
G75*
G02*
X368859I3608J0D01*
G01*
Y103864D01*
G75*
G02*
X361642I-3608J0D01*
G01*
Y105439D01*
X65219Y62207D02*
G36*
X65219Y62207D02*
Y62206D01*
G75*
G03*
X67750Y59675I2531J0D01*
G01*
X107666D01*
G75*
G02*
X110134Y57207I0J-2468D01*
G01*
Y51152D01*
X132818D01*
X133132Y51697D01*
Y53402D01*
G75*
G02*
X136485Y56754I3352J0D01*
G01*
X146500D01*
G75*
G02*
X149853Y53402I0J-3352D01*
G01*
Y51152D01*
X153158D01*
X155331Y54916D01*
Y58386D01*
G75*
G02*
X155670Y59203I1154J0D01*
G01*
X159096Y62630D01*
Y75902D01*
X65219D01*
Y62207D01*
G37*
X171404Y75902D02*
G36*
X171404Y75902D02*
Y68880D01*
X175728Y64555D01*
X181485D01*
G75*
G02*
X182302Y64216I0J-1154D01*
G01*
X187299Y59219D01*
G75*
G02*
X187638Y58402I-814J-817D01*
G01*
Y54916D01*
X189811Y51152D01*
X193158D01*
X195331Y54916D01*
Y74189D01*
X193619Y75902D01*
X191881D01*
X192314Y75469D01*
G75*
G02*
X192654Y74652I-814J-817D01*
G01*
Y67036D01*
X193398Y65747D01*
G75*
G02*
X193408Y65728I-293J-177D01*
G01*
G75*
G02*
X193691Y64652I-1915J-1078D01*
G01*
G75*
G02*
X189309I-2191J0D01*
G01*
G75*
G02*
X189592Y65728I2198J-2D01*
G01*
G75*
G02*
X189602Y65747I304J-158D01*
G01*
X190346Y67036D01*
Y74174D01*
X188619Y75902D01*
X186881D01*
X187314Y75469D01*
G75*
G02*
X187654Y74652I-814J-817D01*
G01*
Y67036D01*
X188398Y65747D01*
G75*
G02*
X188408Y65728I-293J-177D01*
G01*
G75*
G02*
X188691Y64652I-1915J-1078D01*
G01*
G75*
G02*
X184309I-2191J0D01*
G01*
G75*
G02*
X184592Y65728I2198J-2D01*
G01*
G75*
G02*
X184602Y65747I304J-158D01*
G01*
X185346Y67036D01*
Y74174D01*
X183619Y75902D01*
X176404D01*
Y72036D01*
X177148Y70747D01*
G75*
G02*
X177158Y70728I-293J-177D01*
G01*
G75*
G02*
X177441Y69652I-1915J-1078D01*
G01*
G75*
G02*
X173059I-2191J0D01*
G01*
G75*
G02*
X173342Y70728I2198J-2D01*
G01*
G75*
G02*
X173352Y70747I304J-158D01*
G01*
X174096Y72036D01*
Y75902D01*
X171404D01*
G37*
X196881D02*
G36*
X196881Y75902D02*
X197299Y75484D01*
G75*
G02*
X197638Y74667I-814J-817D01*
G01*
Y54916D01*
X199811Y51152D01*
X203158D01*
X205331Y54916D01*
Y69772D01*
X204606Y71051D01*
G75*
G02*
X204309Y72152I1900J1102D01*
G01*
G75*
G02*
X208691I2191J0D01*
G01*
Y72151D01*
G75*
G02*
X208400Y71060I-2189J0D01*
G01*
G75*
G02*
X208389Y71042I-465J257D01*
G01*
X207638Y69763D01*
Y54916D01*
X209811Y51152D01*
X213158D01*
X215331Y54916D01*
Y57136D01*
G75*
G02*
X215670Y57953I1154J0D01*
G01*
X217846Y60130D01*
Y75902D01*
X213131D01*
X213564Y75469D01*
G75*
G02*
X213904Y74652I-814J-817D01*
G01*
Y67036D01*
X214648Y65747D01*
G75*
G02*
X214658Y65728I-293J-177D01*
G01*
G75*
G02*
X214941Y64652I-1915J-1078D01*
G01*
G75*
G02*
X210559I-2191J0D01*
G01*
G75*
G02*
X210842Y65728I2198J-2D01*
G01*
G75*
G02*
X210852Y65747I304J-158D01*
G01*
X211596Y67036D01*
Y74174D01*
X209869Y75902D01*
X196881D01*
G37*
X281404D02*
G36*
X281404Y75902D02*
Y66380D01*
X285728Y62055D01*
X290366D01*
X291655Y62799D01*
G75*
G02*
X291674Y62810I177J-293D01*
G01*
G75*
G02*
X292679Y63091I1075J-1904D01*
G01*
X289436Y66335D01*
G75*
G02*
X289096Y67152I814J817D01*
G01*
Y75902D01*
X281404D01*
G37*
X301404D02*
G36*
X301404Y75902D02*
Y66380D01*
X306978Y60805D01*
X342735D01*
G75*
G02*
X343552Y60466I0J-1154D01*
G01*
X347299Y56719D01*
G75*
G02*
X347638Y55902I-814J-817D01*
G01*
Y54916D01*
X349811Y51152D01*
X362835D01*
Y57207D01*
G75*
G02*
X365304Y59675I2469J1D01*
G01*
X407750D01*
G75*
G03*
X410031Y61109I0J2531D01*
G01*
Y75902D01*
X403163D01*
Y70823D01*
G75*
G02*
X401913Y69573I-1250J0D01*
G01*
X373646D01*
G75*
G02*
X372396Y70823I0J1250D01*
G01*
Y75902D01*
X356572D01*
G75*
G02*
X357140Y72561I-9537J-3341D01*
G01*
G75*
G02*
X336931I-10104J0D01*
G01*
G75*
G02*
X337500Y75902I10105J0D01*
G01*
X326404D01*
Y67036D01*
X327148Y65747D01*
G75*
G02*
X327158Y65728I-293J-177D01*
G01*
G75*
G02*
X327441Y64652I-1915J-1078D01*
G01*
G75*
G02*
X323059I-2191J0D01*
G01*
G75*
G02*
X323342Y65728I2198J-2D01*
G01*
G75*
G02*
X323352Y65747I304J-158D01*
G01*
X324096Y67036D01*
Y75902D01*
X301404D01*
G37*
X65219Y92246D02*
G36*
X65219Y92246D02*
Y75902D01*
X159096D01*
Y92246D01*
X136038D01*
G75*
G02*
X115829I-10104J0D01*
G01*
X65219D01*
G37*
X171404D02*
G36*
X171404Y92246D02*
Y75902D01*
X174096D01*
Y92246D01*
X171404D01*
G37*
X176404D02*
G36*
X176404Y92246D02*
Y75902D01*
X183619D01*
X178186Y81335D01*
G75*
G02*
X177846Y82152I814J817D01*
G01*
Y89767D01*
X177102Y91056D01*
G75*
G02*
X177092Y91075I293J177D01*
G01*
G75*
G02*
X176809Y92152I1908J1076D01*
G01*
G75*
G02*
X176811Y92246I2195J2D01*
G01*
X176404D01*
G37*
X180154Y89767D02*
G36*
X180154Y89767D02*
Y82630D01*
X186881Y75902D01*
X188619D01*
X180686Y83835D01*
G75*
G02*
X180346Y84652I814J817D01*
G01*
Y90102D01*
X180154Y89767D01*
G37*
X182654Y92246D02*
G36*
X182654Y92246D02*
Y85130D01*
X191881Y75902D01*
X193619D01*
X189436Y80085D01*
G75*
G02*
X189096Y80902I814J817D01*
G01*
Y92246D01*
X182654D01*
G37*
X191404D02*
G36*
X191404Y92246D02*
Y81380D01*
X196881Y75902D01*
X209869D01*
X208186Y77585D01*
G75*
G02*
X207846Y78402I814J817D01*
G01*
Y92246D01*
X191404D01*
G37*
X210154D02*
G36*
X210154Y92246D02*
Y78880D01*
X213131Y75902D01*
X217846D01*
Y82924D01*
X210686Y90085D01*
G75*
G02*
X210346Y90902I814J817D01*
G01*
Y92246D01*
X210154D01*
G37*
X221024D02*
G36*
X221024Y92246D02*
X220537D01*
X222314Y90469D01*
G75*
G02*
X222654Y89652I-814J-817D01*
G01*
Y76702D01*
X222846Y77036D01*
Y90424D01*
X221024Y92246D01*
G37*
X281404D02*
G36*
X281404Y92246D02*
Y75902D01*
X289096D01*
Y92246D01*
X281404D01*
G37*
X301404D02*
G36*
X301404Y92246D02*
Y75902D01*
X324096D01*
Y92246D01*
X301404D01*
G37*
X326404D02*
G36*
X326404Y92246D02*
Y75902D01*
X337500D01*
G75*
G02*
X356572I9536J-3341D01*
G01*
X372396D01*
Y80980D01*
G75*
G02*
X373646Y82230I1250J0D01*
G01*
X390102D01*
G75*
G02*
X391352Y80980I0J-1250D01*
G01*
Y77506D01*
X401913D01*
G75*
G02*
X403163Y76256I0J-1250D01*
G01*
Y75902D01*
X410031D01*
Y92246D01*
X326404D01*
G37*
X65219Y102207D02*
G36*
X65219Y102207D02*
Y92246D01*
X115829D01*
G75*
G02*
X136038I10104J0D01*
G01*
X159096D01*
Y104652D01*
X158858D01*
Y103864D01*
G75*
G02*
X151642I-3608J0D01*
G01*
Y104652D01*
X64807D01*
G75*
G02*
X65219Y102207I-7056J-2444D01*
G01*
Y102207D01*
G37*
X161404Y104652D02*
G36*
X161404Y104652D02*
Y98880D01*
G75*
G02*
X163873Y99033I1347J-1730D01*
G01*
X162125Y102060D01*
G75*
G02*
X162119Y102072I114J72D01*
G01*
G75*
G02*
X161642Y103864I3131J1793D01*
G01*
Y104652D01*
X161404D01*
G37*
X171404D02*
G36*
X171404Y104652D02*
Y92246D01*
X174096D01*
Y98646D01*
X172125Y102060D01*
G75*
G02*
X172119Y102072I114J72D01*
G01*
G75*
G02*
X171642Y103864I3131J1793D01*
G01*
Y104652D01*
X171404D01*
G37*
X176404Y98646D02*
G36*
X176404Y98646D02*
Y92246D01*
X176811D01*
G75*
G02*
X180346Y93880I2189J-95D01*
G01*
Y104652D01*
X178858D01*
Y103864D01*
G75*
G02*
X178381Y102072I-3608J0D01*
G01*
G75*
G02*
X178375Y102060I-120J60D01*
G01*
X176404Y98646D01*
G37*
X182654Y101359D02*
G36*
X182654Y101359D02*
Y92246D01*
X189096D01*
Y104652D01*
X188859D01*
Y103864D01*
G75*
G02*
X182654Y101359I-3608J0D01*
G01*
G37*
X191404Y104652D02*
G36*
X191404Y104652D02*
Y92246D01*
X207846D01*
Y101359D01*
G75*
G02*
X201642Y103864I-2596J2506D01*
G01*
Y104652D01*
X201404D01*
Y99536D01*
X202148Y98247D01*
G75*
G02*
X202158Y98228I-293J-177D01*
G01*
G75*
G02*
X202441Y97152I-1915J-1078D01*
G01*
G75*
G02*
X198059I-2191J0D01*
G01*
G75*
G02*
X198342Y98228I2198J-2D01*
G01*
G75*
G02*
X198352Y98247I304J-158D01*
G01*
X199096Y99536D01*
Y104652D01*
X198858D01*
Y103864D01*
G75*
G02*
X191642I-3608J0D01*
G01*
Y104652D01*
X191404D01*
G37*
X210154D02*
G36*
X210154Y104652D02*
Y92246D01*
X210346D01*
Y104652D01*
X210154D01*
G37*
X220154D02*
G36*
X220154Y104652D02*
Y92630D01*
X220537Y92246D01*
X221024D01*
X220686Y92585D01*
G75*
G02*
X220346Y93402I814J817D01*
G01*
Y104652D01*
X220154D01*
G37*
X281404D02*
G36*
X281404Y104652D02*
Y92246D01*
X289096D01*
Y104652D01*
X288858D01*
Y103864D01*
G75*
G02*
X281642I-3608J0D01*
G01*
Y104652D01*
X281404D01*
G37*
X301404D02*
G36*
X301404Y104652D02*
Y92246D01*
X324096D01*
Y98646D01*
X322125Y102060D01*
G75*
G02*
X322119Y102072I114J72D01*
G01*
G75*
G02*
X321642Y103864I3131J1793D01*
G01*
Y104652D01*
X318859D01*
Y103864D01*
G75*
G02*
X311642I-3608J0D01*
G01*
Y104652D01*
X308858D01*
Y103864D01*
G75*
G02*
X301642I-3608J0D01*
G01*
Y104652D01*
X301404D01*
G37*
X326404Y98646D02*
G36*
X326404Y98646D02*
Y92246D01*
X410031D01*
Y104652D01*
X407603D01*
Y97154D01*
Y97152D01*
Y97152D01*
G75*
G02*
X407280Y96372I-1103J0D01*
G01*
X404780Y93872D01*
G75*
G02*
X403998Y93549I-780J781D01*
G01*
X379002D01*
G75*
G02*
X378220Y93872I-2J1104D01*
G01*
X374470Y97622D01*
G75*
G02*
X374147Y98402I780J780D01*
G01*
Y98402D01*
Y98404D01*
Y100256D01*
G75*
G02*
Y100259I1025J2D01*
G01*
G75*
G02*
X374160Y100424I1063J0D01*
G01*
G75*
G02*
X371642Y103864I1091J3440D01*
G01*
Y104652D01*
X368859D01*
Y103864D01*
G75*
G02*
X361642I-3608J0D01*
G01*
Y104652D01*
X358859D01*
Y103864D01*
G75*
G02*
X351642I-3608J0D01*
G01*
Y104652D01*
X348859D01*
Y103864D01*
G75*
G02*
X341642I-3608J0D01*
G01*
Y104652D01*
X338859D01*
Y103864D01*
G75*
G02*
X331642I-3608J0D01*
G01*
Y104652D01*
X328858D01*
Y103864D01*
G75*
G02*
X328381Y102072I-3608J0D01*
G01*
G75*
G02*
X328375Y102060I-120J60D01*
G01*
X326404Y98646D01*
G37*
X17969Y127152D02*
G36*
X17969Y127152D02*
Y112104D01*
G75*
G03*
X21500Y109675I3531J1352D01*
G01*
X57750D01*
G75*
G02*
X64807Y104652I0J-7469D01*
G01*
X151642D01*
Y105439D01*
G75*
G02*
X152141Y107270I3607J0D01*
G01*
X154096Y110657D01*
Y127152D01*
X84102D01*
G75*
G02*
X76398I-3852J0D01*
G01*
X64102D01*
G75*
G02*
X58298Y123830I-3853J0D01*
G01*
X55250Y125590D01*
X52184Y123820D01*
G75*
G02*
X48298Y123830I-1934J3331D01*
G01*
X44888Y125799D01*
X40250D01*
G75*
G02*
X39293Y126196I-1J1350D01*
G01*
X38337Y127152D01*
X34500D01*
G75*
G02*
X26000I-4250J0D01*
G01*
X17969D01*
G37*
X156404D02*
G36*
X156404Y127152D02*
Y110657D01*
X158359Y107270D01*
G75*
G02*
X158858Y105439I-3108J-1831D01*
G01*
Y104652D01*
X159096D01*
Y108517D01*
X158352Y109806D01*
G75*
G02*
X158342Y109825I293J177D01*
G01*
G75*
G02*
X158059Y110902I1915J1078D01*
G01*
G75*
G02*
X162441I2191J0D01*
G01*
G75*
G02*
X162158Y109825I-2198J2D01*
G01*
G75*
G02*
X162148Y109806I-304J158D01*
G01*
X161404Y108517D01*
Y104652D01*
X161642D01*
Y105439D01*
G75*
G02*
X162141Y107270I3607J0D01*
G01*
X164096Y110657D01*
Y127152D01*
X156404D01*
G37*
X171404D02*
G36*
X171404Y127152D02*
Y104652D01*
X171642D01*
Y105439D01*
G75*
G02*
X172141Y107270I3607J0D01*
G01*
X174096Y110657D01*
Y127152D01*
X171404D01*
G37*
X176404D02*
G36*
X176404Y127152D02*
Y110657D01*
X178359Y107270D01*
G75*
G02*
X178858Y105439I-3108J-1831D01*
G01*
Y104652D01*
X180346D01*
Y127152D01*
X176404D01*
G37*
X182654D02*
G36*
X182654Y127152D02*
Y107944D01*
G75*
G02*
X182846Y108130I2574J-2480D01*
G01*
Y127152D01*
X182654D01*
G37*
X185154D02*
G36*
X185154Y127152D02*
Y109046D01*
G75*
G02*
X188859Y105439I96J-3607D01*
G01*
Y104652D01*
X189096D01*
Y127152D01*
X185154D01*
G37*
X191404D02*
G36*
X191404Y127152D02*
Y104652D01*
X191642D01*
Y105439D01*
G75*
G02*
X192141Y107270I3607J0D01*
G01*
X194096Y110657D01*
Y127152D01*
X191404D01*
G37*
X196404D02*
G36*
X196404Y127152D02*
Y110657D01*
X198359Y107270D01*
G75*
G02*
X198858Y105439I-3108J-1831D01*
G01*
Y104652D01*
X199096D01*
Y127152D01*
X196404D01*
G37*
X201404D02*
G36*
X201404Y127152D02*
Y104652D01*
X201642D01*
Y105439D01*
G75*
G02*
X202141Y107270I3607J0D01*
G01*
X204096Y110657D01*
Y127152D01*
X201404D01*
G37*
X206404D02*
G36*
X206404Y127152D02*
Y110657D01*
X207846Y108158D01*
Y127152D01*
X206404D01*
G37*
X210154D02*
G36*
X210154Y127152D02*
Y104652D01*
X210346D01*
Y127152D01*
X210154D01*
G37*
X212654D02*
G36*
X212654Y127152D02*
Y108158D01*
X214096Y110657D01*
Y127152D01*
X212654D01*
G37*
X220154D02*
G36*
X220154Y127152D02*
Y104652D01*
X220346D01*
Y127152D01*
X220154D01*
G37*
X281404D02*
G36*
X281404Y127152D02*
Y104652D01*
X281642D01*
Y105439D01*
G75*
G02*
X282141Y107270I3607J0D01*
G01*
X284096Y110657D01*
Y127152D01*
X281404D01*
G37*
X286404D02*
G36*
X286404Y127152D02*
Y110657D01*
X288359Y107270D01*
G75*
G02*
X288858Y105439I-3108J-1831D01*
G01*
Y104652D01*
X289096D01*
Y127152D01*
X286404D01*
G37*
X301404D02*
G36*
X301404Y127152D02*
Y104652D01*
X301642D01*
Y105439D01*
G75*
G02*
X302141Y107270I3607J0D01*
G01*
X304096Y110657D01*
Y127152D01*
X301404D01*
G37*
X306404D02*
G36*
X306404Y127152D02*
Y110657D01*
X308359Y107270D01*
G75*
G02*
X308858Y105439I-3108J-1831D01*
G01*
Y104652D01*
X311642D01*
Y105439D01*
G75*
G02*
X318859I3608J0D01*
G01*
Y104652D01*
X321642D01*
Y105439D01*
G75*
G02*
X328858I3608J0D01*
G01*
Y104652D01*
X331642D01*
Y105439D01*
G75*
G02*
X338859I3608J0D01*
G01*
Y104652D01*
X341642D01*
Y105439D01*
G75*
G02*
X348859I3608J0D01*
G01*
Y104652D01*
X351642D01*
Y105439D01*
G75*
G02*
X358859I3608J0D01*
G01*
Y104652D01*
X361642D01*
Y105439D01*
G75*
G02*
X368859I3608J0D01*
G01*
Y104652D01*
X371642D01*
Y105439D01*
Y105439D01*
G75*
G02*
X372776Y108066I3608J0D01*
G01*
X371043Y109799D01*
X311192D01*
G75*
G02*
X310913Y109834I-3J1085D01*
G01*
G75*
G02*
X306809Y110902I-1913J1067D01*
G01*
G75*
G02*
X307092Y111978I2198J-2D01*
G01*
G75*
G02*
X307102Y111997I304J-158D01*
G01*
X307846Y113286D01*
Y127152D01*
X306404D01*
G37*
X390560D02*
G36*
X390560Y127152D02*
X393530Y124181D01*
G75*
G02*
X393853Y123402I-780J-780D01*
G01*
Y123401D01*
Y123399D01*
Y117608D01*
X395707Y115754D01*
X403998D01*
G75*
G02*
X404780Y115431I2J-1104D01*
G01*
X407280Y112931D01*
G75*
G02*
X407603Y112152I-780J-780D01*
G01*
Y112151D01*
Y112149D01*
Y104652D01*
X410031D01*
Y127152D01*
X403687D01*
G75*
G02*
X404500Y124652I-3437J-2500D01*
G01*
G75*
G02*
X396000I-4250J0D01*
G01*
G75*
G02*
X396813Y127152I4250J0D01*
G01*
X390560D01*
G37*
X17969Y147152D02*
G36*
X17969Y147152D02*
Y127152D01*
X26000D01*
G75*
G02*
X34500I4250J0D01*
G01*
X38337D01*
X33085Y132404D01*
X29298Y133419D01*
G75*
G02*
X26398Y137152I952J3733D01*
G01*
Y137152D01*
G75*
G02*
Y137153I4511J0D01*
G01*
G75*
G02*
X26929Y139104I3850J0D01*
G01*
X28689Y142152D01*
X26929Y145199D01*
G75*
G02*
X26398Y147150I3319J1951D01*
G01*
G75*
G02*
Y147151I4511J0D01*
G01*
Y147152D01*
X17969D01*
G37*
X31811Y142152D02*
G36*
X31811Y142152D02*
X33571Y139104D01*
G75*
G02*
X33986Y138091I-3314J-1949D01*
G01*
X34998Y134316D01*
X40810Y128504D01*
X44888D01*
X48298Y130473D01*
G75*
G02*
X52184Y130483I1952J-3321D01*
G01*
X55250Y128713D01*
X58298Y130473D01*
G75*
G02*
X64102Y127152I1952J-3322D01*
G01*
X76398D01*
G75*
G02*
X84102I3852J0D01*
G01*
X154096D01*
Y147152D01*
X144102D01*
G75*
G02*
X136398I-3852J0D01*
G01*
X131601D01*
Y144194D01*
X132148Y143247D01*
X132170Y143208D01*
G75*
G02*
X132441Y142152I-1918J-1056D01*
G01*
Y142152D01*
Y142152D01*
G75*
G02*
X129915Y139986I-2191J0D01*
G01*
G75*
G02*
X129941Y139655I-2130J-331D01*
G01*
G75*
G02*
Y139652I-2313J-2D01*
G01*
Y139652D01*
G75*
G02*
X127415Y137486I-2191J0D01*
G01*
G75*
G02*
X127441Y137155I-2130J-331D01*
G01*
G75*
G02*
Y137152I-2313J-2D01*
G01*
Y137152D01*
G75*
G02*
X123059I-2191J0D01*
G01*
Y137152D01*
Y137152D01*
G75*
G02*
X123330Y138208I2189J0D01*
G01*
X123352Y138247D01*
X123896Y139189D01*
Y145908D01*
G75*
G02*
X118298Y143830I-3646J1244D01*
G01*
X115250Y145590D01*
X113070Y144331D01*
X111811Y142152D01*
X113571Y139104D01*
G75*
G02*
X114102Y137153I-3319J-1951D01*
G01*
G75*
G02*
Y137152I-4511J0D01*
G01*
Y137152D01*
G75*
G02*
X106398I-3852J0D01*
G01*
Y137152D01*
G75*
G02*
Y137153I4511J0D01*
G01*
G75*
G02*
X106929Y139104I3850J0D01*
G01*
X108689Y142152D01*
X106917Y145220D01*
G75*
G02*
X106398Y147152I3335J1932D01*
G01*
X94102D01*
Y147151D01*
G75*
G02*
Y147150I-4511J0D01*
G01*
G75*
G02*
X93571Y145199I-3850J0D01*
G01*
X91811Y142152D01*
X93571Y139104D01*
G75*
G02*
X94102Y137154I-3316J-1950D01*
G01*
G75*
G02*
Y137153I-5013J0D01*
G01*
Y137152D01*
G75*
G02*
X88298Y133830I-3853J0D01*
G01*
X84888Y135799D01*
X70250D01*
G75*
G02*
X69293Y136196I-1J1350D01*
G01*
X63085Y142404D01*
X59298Y143419D01*
G75*
G02*
X58313Y143821I950J3728D01*
G01*
X55250Y145590D01*
X53070Y144331D01*
X51811Y142152D01*
X53571Y139104D01*
G75*
G02*
X54102Y137153I-3319J-1951D01*
G01*
G75*
G02*
Y137152I-4511J0D01*
G01*
Y137152D01*
G75*
G02*
X46398I-3852J0D01*
G01*
Y137152D01*
G75*
G02*
Y137153I4511J0D01*
G01*
G75*
G02*
X46929Y139104I3850J0D01*
G01*
X48689Y142152D01*
X46917Y145220D01*
G75*
G02*
X46398Y147152I3335J1932D01*
G01*
X34102D01*
Y147151D01*
G75*
G02*
Y147150I-4511J0D01*
G01*
G75*
G02*
X33571Y145199I-3850J0D01*
G01*
X31811Y142152D01*
G37*
X156404Y147152D02*
G36*
X156404Y147152D02*
Y127152D01*
X164096D01*
Y144174D01*
X161119Y147152D01*
X156404D01*
G37*
X169381D02*
G36*
X169381Y147152D02*
X171064Y145469D01*
G75*
G02*
X171404Y144652I-814J-817D01*
G01*
Y127152D01*
X174096D01*
Y144174D01*
X171119Y147152D01*
X169381D01*
G37*
X174869D02*
G36*
X174869Y147152D02*
X174381D01*
X176064Y145469D01*
G75*
G02*
X176404Y144652I-814J-817D01*
G01*
Y127152D01*
X180346D01*
Y141674D01*
X174869Y147152D01*
G37*
X179869D02*
G36*
X179869Y147152D02*
X178131D01*
X182314Y142969D01*
G75*
G02*
X182654Y142152I-814J-817D01*
G01*
Y127152D01*
X182846D01*
Y144174D01*
X179869Y147152D01*
G37*
X183131D02*
G36*
X183131Y147152D02*
X184814Y145469D01*
G75*
G02*
X185154Y144652I-814J-817D01*
G01*
Y127152D01*
X189096D01*
Y142924D01*
X184869Y147152D01*
X183131D01*
G37*
X188131D02*
G36*
X188131Y147152D02*
X191064Y144219D01*
G75*
G02*
X191404Y143402I-814J-817D01*
G01*
Y127152D01*
X194096D01*
Y144174D01*
X191119Y147152D01*
X188131D01*
G37*
X194869D02*
G36*
X194869Y147152D02*
X194381D01*
X196064Y145469D01*
G75*
G02*
X196404Y144652I-814J-817D01*
G01*
Y127152D01*
X199096D01*
Y142924D01*
X194869Y147152D01*
G37*
X198131D02*
G36*
X198131Y147152D02*
X201064Y144219D01*
G75*
G02*
X201404Y143402I-814J-817D01*
G01*
Y127152D01*
X204096D01*
Y144174D01*
X201119Y147152D01*
X198131D01*
G37*
X204381D02*
G36*
X204381Y147152D02*
X206064Y145469D01*
G75*
G02*
X206404Y144652I-814J-817D01*
G01*
Y127152D01*
X207846D01*
Y146674D01*
X207369Y147152D01*
X204381D01*
G37*
X210154D02*
G36*
X210154Y147152D02*
Y127152D01*
X210346D01*
Y144652D01*
G75*
G02*
X210686Y145469I1154J0D01*
G01*
X212369Y147152D01*
X210154D01*
G37*
X212654Y144174D02*
G36*
X212654Y144174D02*
Y127152D01*
X214096D01*
Y134652D01*
G75*
G02*
X214436Y135469I1154J0D01*
G01*
X220346Y141380D01*
Y147152D01*
X215631D01*
X212654Y144174D01*
G37*
X220154Y134174D02*
G36*
X220154Y134174D02*
Y127152D01*
X220346D01*
Y133402D01*
G75*
G02*
X220686Y134219I1154J0D01*
G01*
X233619Y147152D01*
X226404D01*
Y140902D01*
G75*
G02*
X226064Y140085I-1154J0D01*
G01*
X220154Y134174D01*
G37*
X279381Y147152D02*
G36*
X279381Y147152D02*
X281064Y145469D01*
G75*
G02*
X281404Y144652I-814J-817D01*
G01*
Y127152D01*
X284096D01*
Y144174D01*
X281119Y147152D01*
X279381D01*
G37*
X284381D02*
G36*
X284381Y147152D02*
X286064Y145469D01*
G75*
G02*
X286404Y144652I-814J-817D01*
G01*
Y127152D01*
X289096D01*
Y144174D01*
X286119Y147152D01*
X284381D01*
G37*
X299381D02*
G36*
X299381Y147152D02*
X301064Y145469D01*
G75*
G02*
X301404Y144652I-814J-817D01*
G01*
Y127152D01*
X304096D01*
Y144174D01*
X301119Y147152D01*
X299381D01*
G37*
X304381D02*
G36*
X304381Y147152D02*
X306064Y145469D01*
G75*
G02*
X306404Y144652I-814J-817D01*
G01*
Y127152D01*
X307846D01*
Y145424D01*
X306119Y147152D01*
X304381D01*
G37*
X331353D02*
G36*
X331353Y147152D02*
Y132608D01*
X335707Y128254D01*
X388998D01*
G75*
G02*
X389780Y127931I2J-1104D01*
G01*
X390560Y127152D01*
X396813D01*
G75*
G02*
X403687I3437J-2500D01*
G01*
X410031D01*
Y147152D01*
X331353D01*
G37*
X17969Y164652D02*
G36*
X17969Y164652D02*
Y147152D01*
X26398D01*
G75*
G02*
X34102I3852J0D01*
G01*
X46398D01*
G75*
G02*
X49011Y150799I3852J0D01*
G01*
X35250D01*
G75*
G02*
X34293Y151196I-1J1350D01*
G01*
X33085Y152404D01*
X29298Y153419D01*
G75*
G02*
X26398Y157152I952J3733D01*
G01*
Y157152D01*
G75*
G02*
Y157153I4511J0D01*
G01*
G75*
G02*
X26929Y159104I3850J0D01*
G01*
X28689Y162152D01*
X27245Y164652D01*
X17969D01*
G37*
X33255D02*
G36*
X33255Y164652D02*
X31811Y162152D01*
X33571Y159104D01*
G75*
G02*
X33986Y158091I-3314J-1949D01*
G01*
X34998Y154316D01*
X35810Y153504D01*
X49011D01*
G75*
G02*
X46398Y157152I1239J3648D01*
G01*
Y157152D01*
G75*
G02*
Y157153I4511J0D01*
G01*
G75*
G02*
X46929Y159104I3850J0D01*
G01*
X48689Y162152D01*
X47245Y164652D01*
X33255D01*
G37*
X91489Y150799D02*
G36*
X91489Y150799D02*
G75*
G02*
X94102Y147152I-1239J-3648D01*
G01*
X106398D01*
G75*
G02*
X109011Y150799I3852J0D01*
G01*
X91489D01*
G37*
X131601Y150286D02*
G36*
X131601Y150286D02*
Y147152D01*
X136398D01*
G75*
G02*
X144102I3852J0D01*
G01*
X154096D01*
Y155902D01*
G75*
G02*
X154436Y156719I1154J0D01*
G01*
X157846Y160130D01*
Y160813D01*
G75*
G02*
X151244Y163864I-2596J3051D01*
G01*
Y164652D01*
X143181D01*
G75*
G02*
X137319I-2931J2500D01*
G01*
X136602D01*
Y156691D01*
X137148Y155747D01*
X137170Y155708D01*
G75*
G02*
X137441Y154652I-1918J-1056D01*
G01*
Y154652D01*
Y154652D01*
G75*
G02*
X134915Y152486I-2191J0D01*
G01*
G75*
G02*
X134941Y152155I-2130J-331D01*
G01*
G75*
G02*
Y152152I-2313J-2D01*
G01*
Y152152D01*
G75*
G02*
X131601Y150286I-2191J0D01*
G01*
G37*
X156404Y155424D02*
G36*
X156404Y155424D02*
Y147152D01*
X161119D01*
X160686Y147585D01*
G75*
G02*
X160346Y148402I814J817D01*
G01*
Y164652D01*
X160154D01*
Y159652D01*
G75*
G02*
X159814Y158835I-1154J0D01*
G01*
X156404Y155424D01*
G37*
X166404Y158646D02*
G36*
X166404Y158646D02*
Y150130D01*
X169381Y147152D01*
X171119D01*
X169436Y148835D01*
G75*
G02*
X169096Y149652I814J817D01*
G01*
Y164652D01*
X168858D01*
Y163864D01*
G75*
G02*
X168381Y162072I-3608J0D01*
G01*
G75*
G02*
X168375Y162060I-120J60D01*
G01*
X166404Y158646D01*
G37*
X171404Y164652D02*
G36*
X171404Y164652D02*
Y150130D01*
X174381Y147152D01*
X174869D01*
X174436Y147585D01*
G75*
G02*
X174096Y148402I814J817D01*
G01*
Y158646D01*
X172125Y162060D01*
G75*
G02*
X172119Y162072I114J72D01*
G01*
G75*
G02*
X171642Y163864I3131J1793D01*
G01*
Y164652D01*
X171404D01*
G37*
X176404Y158646D02*
G36*
X176404Y158646D02*
Y148880D01*
X178131Y147152D01*
X179869D01*
X179436Y147585D01*
G75*
G02*
X179096Y148402I814J817D01*
G01*
Y164652D01*
X178858D01*
Y163864D01*
G75*
G02*
X178381Y162072I-3608J0D01*
G01*
G75*
G02*
X178375Y162060I-120J60D01*
G01*
X176404Y158646D01*
G37*
X181404Y164652D02*
G36*
X181404Y164652D02*
Y148880D01*
X183131Y147152D01*
X184869D01*
X184436Y147585D01*
G75*
G02*
X184096Y148402I814J817D01*
G01*
Y158646D01*
X182125Y162060D01*
G75*
G02*
X182119Y162072I114J72D01*
G01*
G75*
G02*
X181642Y163864I3131J1793D01*
G01*
Y164652D01*
X181404D01*
G37*
X186404Y158646D02*
G36*
X186404Y158646D02*
Y148880D01*
X188131Y147152D01*
X191119D01*
X190686Y147585D01*
G75*
G02*
X190346Y148402I814J817D01*
G01*
Y164652D01*
X188858D01*
Y163864D01*
G75*
G02*
X188381Y162072I-3608J0D01*
G01*
G75*
G02*
X188375Y162060I-120J60D01*
G01*
X186404Y158646D01*
G37*
X192654Y161145D02*
G36*
X192654Y161145D02*
Y148880D01*
X194381Y147152D01*
X194869D01*
X194436Y147585D01*
G75*
G02*
X194096Y148402I814J817D01*
G01*
Y158646D01*
X192654Y161145D01*
G37*
X196404Y158646D02*
G36*
X196404Y158646D02*
Y148880D01*
X198131Y147152D01*
X201119D01*
X199436Y148835D01*
G75*
G02*
X199096Y149652I814J817D01*
G01*
Y164652D01*
X198858D01*
Y163864D01*
G75*
G02*
X198381Y162072I-3608J0D01*
G01*
G75*
G02*
X198375Y162060I-120J60D01*
G01*
X196404Y158646D01*
G37*
X201404Y164652D02*
G36*
X201404Y164652D02*
Y150130D01*
X204381Y147152D01*
X207369D01*
X204436Y150085D01*
G75*
G02*
X204096Y150902I814J817D01*
G01*
Y158646D01*
X202125Y162060D01*
G75*
G02*
X202119Y162072I114J72D01*
G01*
G75*
G02*
X201642Y163864I3131J1793D01*
G01*
Y164652D01*
X201404D01*
G37*
X206404Y158646D02*
G36*
X206404Y158646D02*
Y151380D01*
X209814Y147969D01*
G75*
G02*
X210154Y147152I-814J-817D01*
G01*
X212369D01*
X214096Y148880D01*
Y158646D01*
X212125Y162060D01*
G75*
G02*
X212119Y162072I114J72D01*
G01*
G75*
G02*
X211642Y163864I3131J1793D01*
G01*
Y164652D01*
X208858D01*
Y163864D01*
G75*
G02*
X208381Y162072I-3608J0D01*
G01*
G75*
G02*
X208375Y162060I-120J60D01*
G01*
X206404Y158646D01*
G37*
X216064Y147585D02*
G36*
X216064Y147585D02*
X215631Y147152D01*
X220346D01*
Y164652D01*
X218858D01*
Y163864D01*
G75*
G02*
X218381Y162072I-3608J0D01*
G01*
G75*
G02*
X218375Y162060I-120J60D01*
G01*
X216404Y158646D01*
Y148402D01*
G75*
G02*
X216064Y147585I-1154J0D01*
G01*
G37*
X226404Y158646D02*
G36*
X226404Y158646D02*
Y147152D01*
X233619D01*
X234096Y147630D01*
Y158646D01*
X232125Y162060D01*
G75*
G02*
X232119Y162072I114J72D01*
G01*
G75*
G02*
X231642Y163864I3131J1793D01*
G01*
Y164652D01*
X228858D01*
Y163864D01*
G75*
G02*
X228381Y162072I-3608J0D01*
G01*
G75*
G02*
X228375Y162060I-120J60D01*
G01*
X226404Y158646D01*
G37*
X236404D02*
G36*
X236404Y158646D02*
Y147437D01*
X239096Y150130D01*
Y164652D01*
X238858D01*
Y163864D01*
G75*
G02*
X238381Y162072I-3608J0D01*
G01*
G75*
G02*
X238375Y162060I-120J60D01*
G01*
X236404Y158646D01*
G37*
X276404D02*
G36*
X276404Y158646D02*
Y150130D01*
X279381Y147152D01*
X281119D01*
X279436Y148835D01*
G75*
G02*
X279096Y149652I814J817D01*
G01*
Y164652D01*
X278858D01*
Y163864D01*
G75*
G02*
X278381Y162072I-3608J0D01*
G01*
G75*
G02*
X278375Y162060I-120J60D01*
G01*
X276404Y158646D01*
G37*
X281404Y164652D02*
G36*
X281404Y164652D02*
Y150130D01*
X284381Y147152D01*
X286119D01*
X284436Y148835D01*
G75*
G02*
X284096Y149652I814J817D01*
G01*
Y158646D01*
X282125Y162060D01*
G75*
G02*
X282119Y162072I114J72D01*
G01*
G75*
G02*
X281642Y163864I3131J1793D01*
G01*
Y164652D01*
X281404D01*
G37*
X296404Y158646D02*
G36*
X296404Y158646D02*
Y150130D01*
X299381Y147152D01*
X301119D01*
X298186Y150085D01*
G75*
G02*
X297846Y150902I814J817D01*
G01*
Y161145D01*
X296404Y158646D01*
G37*
X300154Y160689D02*
G36*
X300154Y160689D02*
Y151380D01*
X304381Y147152D01*
X306119D01*
X304436Y148835D01*
G75*
G02*
X304096Y149652I814J817D01*
G01*
Y157202D01*
G75*
G02*
X303317Y157525I0J1103D01*
G01*
X300154Y160689D01*
G37*
X331353Y164652D02*
G36*
X331353Y164652D02*
Y147152D01*
X410031D01*
Y164652D01*
X389256D01*
Y163864D01*
G75*
G02*
X381244I-4006J0D01*
G01*
Y164652D01*
X378859D01*
Y163864D01*
G75*
G02*
X371642I-3608J0D01*
G01*
Y164652D01*
X368859D01*
Y163864D01*
G75*
G02*
X361642I-3608J0D01*
G01*
Y164652D01*
X358859D01*
Y163864D01*
G75*
G02*
X351642I-3608J0D01*
G01*
Y164652D01*
X348859D01*
Y163864D01*
G75*
G02*
X341642I-3608J0D01*
G01*
Y164652D01*
X338859D01*
Y163864D01*
G75*
G02*
X331642I-3608J0D01*
G01*
Y164652D01*
X331353D01*
G37*
X17969Y179652D02*
G36*
X17969Y179652D02*
Y164652D01*
X27245D01*
X26929Y165199D01*
G75*
G02*
X26398Y167150I3319J1951D01*
G01*
G75*
G02*
Y167151I4511J0D01*
G01*
Y167152D01*
G75*
G02*
X34102I3852J0D01*
G01*
Y167151D01*
G75*
G02*
Y167150I-4511J0D01*
G01*
G75*
G02*
X33571Y165199I-3850J0D01*
G01*
X33255Y164652D01*
X47245D01*
X46929Y165199D01*
G75*
G02*
X46398Y167150I3316J1950D01*
G01*
Y167151D01*
G75*
G02*
X49011Y170799I3853J0D01*
G01*
X35250D01*
G75*
G02*
X34293Y171196I-1J1350D01*
G01*
X33085Y172404D01*
X29298Y173419D01*
G75*
G02*
X26398Y177152I952J3733D01*
G01*
G75*
G02*
X26909Y179069I3852J0D01*
G01*
G75*
G02*
X26914Y179078I160J-85D01*
G01*
X27245Y179652D01*
X17969D01*
G37*
X33255D02*
G36*
X33255Y179652D02*
X33586Y179078D01*
G75*
G02*
X33594Y179064I-146J-90D01*
G01*
G75*
G02*
X33983Y178104I-3356J-1918D01*
G01*
X34998Y174316D01*
X35810Y173504D01*
X49011D01*
G75*
G02*
X46398Y177152I1239J3648D01*
G01*
Y177152D01*
G75*
G02*
Y177153I4511J0D01*
G01*
G75*
G02*
X46929Y179104I3850J0D01*
G01*
X47245Y179652D01*
X33255D01*
G37*
X136602Y165913D02*
G36*
X136602Y165913D02*
Y164652D01*
X137319D01*
G75*
G02*
X136602Y165913I2931J2500D01*
G01*
G37*
Y179652D02*
G36*
X136602Y179652D02*
Y168391D01*
G75*
G02*
X144102Y167152I3648J-1239D01*
G01*
G75*
G02*
X143181Y164652I-3852J0D01*
G01*
X151244D01*
Y165439D01*
G75*
G02*
X157846Y168490I4006J0D01*
G01*
Y169174D01*
X154436Y172585D01*
G75*
G02*
X154096Y173402I814J817D01*
G01*
Y173646D01*
X152125Y177060D01*
G75*
G02*
X152119Y177072I114J72D01*
G01*
G75*
G02*
X151642Y178864I3131J1793D01*
G01*
Y179652D01*
X136602D01*
G37*
X158375Y177060D02*
G36*
X158375Y177060D02*
X156489Y173794D01*
X159814Y170469D01*
G75*
G02*
X160154Y169652I-814J-817D01*
G01*
Y164652D01*
X160346D01*
Y169652D01*
G75*
G02*
X160686Y170469I1154J0D01*
G01*
X164011Y173794D01*
X162125Y177060D01*
G75*
G02*
X162119Y177072I114J72D01*
G01*
G75*
G02*
X161642Y178864I3131J1793D01*
G01*
Y179652D01*
X158858D01*
Y178864D01*
G75*
G02*
X158381Y177072I-3608J0D01*
G01*
G75*
G02*
X158375Y177060I-120J60D01*
G01*
G37*
X166489Y170509D02*
G36*
X166489Y170509D02*
X168359Y167270D01*
G75*
G02*
X168858Y165439I-3108J-1831D01*
G01*
Y164652D01*
X169096D01*
Y168402D01*
G75*
G02*
X169436Y169219I1154J0D01*
G01*
X174011Y173794D01*
X172125Y177060D01*
G75*
G02*
X172119Y177072I114J72D01*
G01*
G75*
G02*
X171642Y178864I3131J1793D01*
G01*
Y179652D01*
X171404D01*
Y175902D01*
G75*
G02*
X171064Y175085I-1154J0D01*
G01*
X166489Y170509D01*
G37*
X168375Y177060D02*
G36*
X168375Y177060D02*
X166459Y173743D01*
X169096Y176380D01*
Y179652D01*
X168858D01*
Y178864D01*
G75*
G02*
X168381Y177072I-3608J0D01*
G01*
G75*
G02*
X168375Y177060I-120J60D01*
G01*
G37*
X171404Y167924D02*
G36*
X171404Y167924D02*
Y164652D01*
X171642D01*
Y165439D01*
G75*
G02*
X172141Y167270I3607J0D01*
G01*
X174041Y170561D01*
X171404Y167924D01*
G37*
X176489Y170509D02*
G36*
X176489Y170509D02*
X178359Y167270D01*
G75*
G02*
X178858Y165439I-3108J-1831D01*
G01*
Y164652D01*
X179096D01*
Y168402D01*
G75*
G02*
X179436Y169219I1154J0D01*
G01*
X184011Y173794D01*
X182125Y177060D01*
G75*
G02*
X182119Y177072I114J72D01*
G01*
G75*
G02*
X181642Y178864I3131J1793D01*
G01*
Y179652D01*
X181404D01*
Y175902D01*
G75*
G02*
X181064Y175085I-1154J0D01*
G01*
X176489Y170509D01*
G37*
X178375Y177060D02*
G36*
X178375Y177060D02*
X176459Y173743D01*
X179096Y176380D01*
Y179652D01*
X178858D01*
Y178864D01*
G75*
G02*
X178381Y177072I-3608J0D01*
G01*
G75*
G02*
X178375Y177060I-120J60D01*
G01*
G37*
X181404Y167924D02*
G36*
X181404Y167924D02*
Y164652D01*
X181642D01*
Y165439D01*
G75*
G02*
X182141Y167270I3607J0D01*
G01*
X184041Y170561D01*
X181404Y167924D01*
G37*
X186489Y170509D02*
G36*
X186489Y170509D02*
X188359Y167270D01*
G75*
G02*
X188858Y165439I-3108J-1831D01*
G01*
Y164652D01*
X190346D01*
Y169652D01*
G75*
G02*
X190686Y170469I1154J0D01*
G01*
X194011Y173794D01*
X192125Y177060D01*
G75*
G02*
X192119Y177072I114J72D01*
G01*
G75*
G02*
X191642Y178864I3131J1793D01*
G01*
Y179652D01*
X191404D01*
Y175902D01*
G75*
G02*
X191064Y175085I-1154J0D01*
G01*
X186489Y170509D01*
G37*
X188375Y177060D02*
G36*
X188375Y177060D02*
X186459Y173743D01*
X189096Y176380D01*
Y179652D01*
X188858D01*
Y178864D01*
G75*
G02*
X188381Y177072I-3608J0D01*
G01*
G75*
G02*
X188375Y177060I-120J60D01*
G01*
G37*
X198342Y168575D02*
G36*
X198342Y168575D02*
G75*
G02*
X198059Y169652I1915J1078D01*
G01*
G75*
G02*
X202441I2191J0D01*
G01*
G75*
G02*
X202158Y168575I-2198J2D01*
G01*
G75*
G02*
X202148Y168556I-304J158D01*
G01*
X201404Y167267D01*
Y164652D01*
X201642D01*
Y165439D01*
G75*
G02*
X202141Y167270I3607J0D01*
G01*
X204096Y170657D01*
Y170902D01*
G75*
G02*
X204436Y171719I1154J0D01*
G01*
X209096Y176380D01*
Y179652D01*
X208859D01*
Y178864D01*
G75*
G02*
X201642I-3608J0D01*
G01*
Y179652D01*
X200154D01*
Y174652D01*
G75*
G02*
X199814Y173835I-1154J0D01*
G01*
X196489Y170509D01*
X198359Y167270D01*
G75*
G02*
X198858Y165439I-3108J-1831D01*
G01*
Y164652D01*
X199096D01*
Y167267D01*
X198352Y168556D01*
G75*
G02*
X198342Y168575I293J177D01*
G01*
G37*
X206489Y170509D02*
G36*
X206489Y170509D02*
X208359Y167270D01*
G75*
G02*
X208858Y165439I-3108J-1831D01*
G01*
Y164652D01*
X211642D01*
Y165439D01*
G75*
G02*
X212141Y167270I3607J0D01*
G01*
X214096Y170657D01*
Y172152D01*
G75*
G02*
X214436Y172969I1154J0D01*
G01*
X217554Y176087D01*
G75*
G02*
X211642Y178864I-2304J2777D01*
G01*
Y179652D01*
X211404D01*
Y175902D01*
G75*
G02*
X211064Y175085I-1154J0D01*
G01*
X206489Y170509D01*
G37*
X216404Y171674D02*
G36*
X216404Y171674D02*
Y170657D01*
X218359Y167270D01*
G75*
G02*
X218858Y165439I-3108J-1831D01*
G01*
Y164652D01*
X220346D01*
Y179652D01*
X220154D01*
Y175902D01*
G75*
G02*
X219814Y175085I-1154J0D01*
G01*
X216404Y171674D01*
G37*
X222654Y176359D02*
G36*
X222654Y176359D02*
Y168158D01*
X224096Y170657D01*
Y170902D01*
G75*
G02*
X224436Y171719I1154J0D01*
G01*
X229096Y176380D01*
Y179652D01*
X228859D01*
Y178864D01*
G75*
G02*
X222654Y176359I-3608J0D01*
G01*
G37*
X226489Y170509D02*
G36*
X226489Y170509D02*
X228359Y167270D01*
G75*
G02*
X228858Y165439I-3108J-1831D01*
G01*
Y164652D01*
X231642D01*
Y165439D01*
G75*
G02*
X232141Y167270I3607J0D01*
G01*
X232350Y167632D01*
G75*
G02*
X229309Y169652I-850J2020D01*
G01*
G75*
G02*
X230960Y171775I2191J0D01*
G01*
X232370Y172153D01*
X234011Y173794D01*
X232125Y177060D01*
G75*
G02*
X232119Y177072I114J72D01*
G01*
G75*
G02*
X231642Y178864I3131J1793D01*
G01*
Y179652D01*
X231404D01*
Y175902D01*
G75*
G02*
X231064Y175085I-1154J0D01*
G01*
X226489Y170509D01*
G37*
X236489D02*
G36*
X236489Y170509D02*
X238359Y167270D01*
G75*
G02*
X238858Y165439I-3108J-1831D01*
G01*
Y164652D01*
X239096D01*
Y168402D01*
G75*
G02*
X239436Y169219I1154J0D01*
G01*
X244011Y173794D01*
X242125Y177060D01*
G75*
G02*
X242119Y177072I114J72D01*
G01*
G75*
G02*
X241642Y178864I3131J1793D01*
G01*
Y179652D01*
X241404D01*
Y175902D01*
G75*
G02*
X241064Y175085I-1154J0D01*
G01*
X236489Y170509D01*
G37*
X238375Y177060D02*
G36*
X238375Y177060D02*
X236459Y173743D01*
X239096Y176380D01*
Y179652D01*
X238858D01*
Y178864D01*
G75*
G02*
X238381Y177072I-3608J0D01*
G01*
G75*
G02*
X238375Y177060I-120J60D01*
G01*
G37*
X246489Y170509D02*
G36*
X246489Y170509D02*
X248050Y167806D01*
G75*
G02*
X248186Y167969I925J-635D01*
G01*
X254011Y173794D01*
X252125Y177060D01*
G75*
G02*
X252119Y177072I114J72D01*
G01*
G75*
G02*
X251642Y178864I3131J1793D01*
G01*
Y179652D01*
X251404D01*
Y175902D01*
G75*
G02*
X251064Y175085I-1154J0D01*
G01*
X246489Y170509D01*
G37*
X248375Y177060D02*
G36*
X248375Y177060D02*
X246459Y173743D01*
X249096Y176380D01*
Y179652D01*
X248858D01*
Y178864D01*
G75*
G02*
X248381Y177072I-3608J0D01*
G01*
G75*
G02*
X248375Y177060I-120J60D01*
G01*
G37*
X266489Y170509D02*
G36*
X266489Y170509D02*
X268050Y167806D01*
G75*
G02*
X268186Y167969I925J-635D01*
G01*
X274011Y173794D01*
X272125Y177060D01*
G75*
G02*
X272119Y177072I114J72D01*
G01*
G75*
G02*
X271642Y178864I3131J1793D01*
G01*
Y179652D01*
X271404D01*
Y175902D01*
G75*
G02*
X271064Y175085I-1154J0D01*
G01*
X266489Y170509D01*
G37*
X268375Y177060D02*
G36*
X268375Y177060D02*
X266459Y173743D01*
X269096Y176380D01*
Y179652D01*
X268858D01*
Y178864D01*
G75*
G02*
X268381Y177072I-3608J0D01*
G01*
G75*
G02*
X268375Y177060I-120J60D01*
G01*
G37*
X278858Y165439D02*
G36*
X278858Y165439D02*
Y164652D01*
X279096D01*
Y168402D01*
G75*
G02*
X279436Y169219I1154J0D01*
G01*
X280346Y170130D01*
Y179652D01*
X280154D01*
Y174652D01*
G75*
G02*
X279814Y173835I-1154J0D01*
G01*
X275020Y169040D01*
G75*
G02*
X278858Y165439I230J-3601D01*
G01*
G37*
X281404Y167924D02*
G36*
X281404Y167924D02*
Y164652D01*
X281642D01*
Y165439D01*
G75*
G02*
X285480Y169040I3609J0D01*
G01*
X284436Y170085D01*
G75*
G02*
X284096Y170902I814J817D01*
G01*
Y173646D01*
X282654Y176145D01*
Y169652D01*
G75*
G02*
X282314Y168835I-1154J0D01*
G01*
X281404Y167924D01*
G37*
X286404Y173646D02*
G36*
X286404Y173646D02*
Y171380D01*
X288060Y169723D01*
G75*
G02*
X288342Y170728I2186J-70D01*
G01*
G75*
G02*
X288352Y170747I304J-158D01*
G01*
X289096Y172036D01*
Y174652D01*
G75*
G02*
X289436Y175469I1154J0D01*
G01*
X290456Y176489D01*
X291304Y179652D01*
X288858D01*
Y178864D01*
G75*
G02*
X288381Y177072I-3608J0D01*
G01*
G75*
G02*
X288375Y177060I-120J60D01*
G01*
X286404Y173646D01*
G37*
X331353Y179652D02*
G36*
X331353Y179652D02*
Y164652D01*
X331642D01*
Y165439D01*
G75*
G02*
X338859I3608J0D01*
G01*
Y164652D01*
X341642D01*
Y165439D01*
G75*
G02*
X348859I3608J0D01*
G01*
Y164652D01*
X351642D01*
Y165439D01*
G75*
G02*
X358859I3608J0D01*
G01*
Y164652D01*
X361642D01*
Y165439D01*
G75*
G02*
X368859I3608J0D01*
G01*
Y164652D01*
X371642D01*
Y165439D01*
G75*
G02*
X378859I3608J0D01*
G01*
Y164652D01*
X381244D01*
Y165439D01*
G75*
G02*
X389256I4006J0D01*
G01*
Y164652D01*
X410031D01*
Y179652D01*
X339102D01*
G75*
G02*
X331398I-3852J0D01*
G01*
X331353D01*
G37*
X17969Y188402D02*
G36*
X17969Y188402D02*
Y179652D01*
X27245D01*
X28689Y182152D01*
X26929Y185199D01*
G75*
G02*
X26398Y187150I3319J1951D01*
G01*
G75*
G02*
Y187151I4511J0D01*
G01*
Y187152D01*
G75*
G02*
X26606Y188402I3852J0D01*
G01*
X17969D01*
G37*
X31811Y182152D02*
G36*
X31811Y182152D02*
X33255Y179652D01*
X47245D01*
X48689Y182152D01*
X46917Y185220D01*
G75*
G02*
X46398Y187152I3335J1932D01*
G01*
G75*
G02*
X46606Y188402I3852J0D01*
G01*
X33894D01*
G75*
G02*
X34102Y187152I-3644J-1250D01*
G01*
Y187151D01*
G75*
G02*
Y187150I-4511J0D01*
G01*
G75*
G02*
X33571Y185199I-3850J0D01*
G01*
X31811Y182152D01*
G37*
X136602Y185913D02*
G36*
X136602Y185913D02*
Y179652D01*
X151642D01*
Y180439D01*
G75*
G02*
X158858I3608J0D01*
G01*
Y179652D01*
X161642D01*
Y180439D01*
G75*
G02*
X168858I3608J0D01*
G01*
Y179652D01*
X169096D01*
Y188402D01*
X143894D01*
G75*
G02*
X144102Y187152I-3644J-1250D01*
G01*
G75*
G02*
X136602Y185913I-3852J0D01*
G01*
G37*
Y188402D02*
G36*
X136602Y188402D02*
Y188391D01*
G75*
G02*
X136606Y188402I3653J-1298D01*
G01*
X136602D01*
G37*
X171404D02*
G36*
X171404Y188402D02*
Y179652D01*
X171642D01*
Y180439D01*
G75*
G02*
X178858I3608J0D01*
G01*
Y179652D01*
X179096D01*
Y188402D01*
X171404D01*
G37*
X181404D02*
G36*
X181404Y188402D02*
Y179652D01*
X181642D01*
Y180439D01*
G75*
G02*
X188858I3608J0D01*
G01*
Y179652D01*
X189096D01*
Y188402D01*
X181404D01*
G37*
X191404D02*
G36*
X191404Y188402D02*
Y179652D01*
X191642D01*
Y180439D01*
G75*
G02*
X197846Y182944I3608J0D01*
G01*
Y188402D01*
X191404D01*
G37*
X200154D02*
G36*
X200154Y188402D02*
Y179652D01*
X201642D01*
Y180439D01*
G75*
G02*
X208859I3608J0D01*
G01*
Y179652D01*
X209096D01*
Y188402D01*
X200154D01*
G37*
X211404D02*
G36*
X211404Y188402D02*
Y179652D01*
X211642D01*
Y180439D01*
G75*
G02*
X217846Y182945I3608J0D01*
G01*
Y188402D01*
X211404D01*
G37*
X220154D02*
G36*
X220154Y188402D02*
Y179652D01*
X220346D01*
Y188402D01*
X220154D01*
G37*
X222654D02*
G36*
X222654Y188402D02*
Y182944D01*
G75*
G02*
X228859Y180439I2597J-2506D01*
G01*
Y179652D01*
X229096D01*
Y188402D01*
X222654D01*
G37*
X231404D02*
G36*
X231404Y188402D02*
Y179652D01*
X231642D01*
Y180439D01*
G75*
G02*
X238858I3608J0D01*
G01*
Y179652D01*
X239096D01*
Y188402D01*
X231404D01*
G37*
X241404D02*
G36*
X241404Y188402D02*
Y179652D01*
X241642D01*
Y180439D01*
G75*
G02*
X248858I3608J0D01*
G01*
Y179652D01*
X249096D01*
Y188402D01*
X241404D01*
G37*
X251404D02*
G36*
X251404Y188402D02*
Y179652D01*
X251642D01*
Y180439D01*
G75*
G02*
X257846Y182944I3608J0D01*
G01*
Y188402D01*
X251404D01*
G37*
X262654Y186017D02*
G36*
X262654Y186017D02*
Y182944D01*
G75*
G02*
X268858Y180439I2596J-2506D01*
G01*
Y179652D01*
X269096D01*
Y188402D01*
X263691D01*
G75*
G02*
X263408Y187325I-2191J0D01*
G01*
G75*
G02*
X263398Y187306I-304J158D01*
G01*
X262654Y186017D01*
G37*
X271404Y188402D02*
G36*
X271404Y188402D02*
Y179652D01*
X271642D01*
Y180439D01*
G75*
G02*
X277556Y183214I3608J0D01*
G01*
X274436Y186335D01*
G75*
G02*
X274096Y187152I814J817D01*
G01*
Y188402D01*
X271404D01*
G37*
X276404D02*
G36*
X276404Y188402D02*
Y187630D01*
X279814Y184219D01*
G75*
G02*
X280154Y183402I-814J-817D01*
G01*
Y179652D01*
X280346D01*
Y183402D01*
G75*
G02*
X280686Y184219I1154J0D01*
G01*
X284096Y187630D01*
Y188402D01*
X276404D01*
G37*
X286064Y186335D02*
G36*
X286064Y186335D02*
X282944Y183214D01*
G75*
G02*
X288858Y180439I2306J-2775D01*
G01*
Y179652D01*
X291304D01*
X291765Y181373D01*
G75*
G02*
X291770Y181391I228J-54D01*
G01*
G75*
G02*
X297846Y182944I3480J-952D01*
G01*
Y188402D01*
X286404D01*
Y187152D01*
G75*
G02*
X286064Y186335I-1154J0D01*
G01*
G37*
X300154Y188402D02*
G36*
X300154Y188402D02*
Y187365D01*
X301190Y188402D01*
X300154D01*
G37*
X329310D02*
G36*
X329310Y188402D02*
X331030Y186681D01*
G75*
G02*
X331353Y185902I-780J-780D01*
G01*
Y185901D01*
Y185899D01*
Y179652D01*
X331398D01*
G75*
G02*
X339102I3852J0D01*
G01*
X410031D01*
Y188402D01*
X329310D01*
G37*
X17969Y199652D02*
G36*
X17969Y199652D02*
Y188402D01*
X26606D01*
G75*
G02*
X33894I3644J-1250D01*
G01*
X46606D01*
G75*
G02*
X49011Y190799I3644J-1250D01*
G01*
X35250D01*
G75*
G02*
X34293Y191196I-1J1350D01*
G01*
X33085Y192404D01*
X29298Y193419D01*
G75*
G02*
X26398Y197152I952J3733D01*
G01*
G75*
G02*
X26909Y199069I3852J0D01*
G01*
G75*
G02*
X26914Y199078I160J-85D01*
G01*
X27245Y199652D01*
X17969D01*
G37*
X33255D02*
G36*
X33255Y199652D02*
X33586Y199078D01*
G75*
G02*
X33594Y199064I-146J-90D01*
G01*
G75*
G02*
X33983Y198104I-3356J-1918D01*
G01*
X34998Y194316D01*
X35810Y193504D01*
X49011D01*
G75*
G02*
X46398Y197152I1239J3648D01*
G01*
Y197152D01*
G75*
G02*
Y197153I4511J0D01*
G01*
G75*
G02*
X46929Y199104I3850J0D01*
G01*
X47245Y199652D01*
X33255D01*
G37*
X136602Y194091D02*
G36*
X136602Y194091D02*
Y188402D01*
X136606D01*
G75*
G02*
X143894I3644J-1250D01*
G01*
X169096D01*
Y199652D01*
X142163D01*
X136602Y194091D01*
G37*
X171404Y199652D02*
G36*
X171404Y199652D02*
Y188402D01*
X179096D01*
Y199652D01*
X171404D01*
G37*
X181404D02*
G36*
X181404Y199652D02*
Y188402D01*
X189096D01*
Y199652D01*
X181404D01*
G37*
X191404D02*
G36*
X191404Y199652D02*
Y188402D01*
X197846D01*
Y199652D01*
X191404D01*
G37*
X200154D02*
G36*
X200154Y199652D02*
Y188402D01*
X209096D01*
Y199652D01*
X200154D01*
G37*
X211404D02*
G36*
X211404Y199652D02*
Y188402D01*
X217846D01*
Y199652D01*
X211404D01*
G37*
X220154D02*
G36*
X220154Y199652D02*
Y188402D01*
X220346D01*
Y199652D01*
X220154D01*
G37*
X222654D02*
G36*
X222654Y199652D02*
Y188402D01*
X229096D01*
Y199652D01*
X222654D01*
G37*
X231404D02*
G36*
X231404Y199652D02*
Y188402D01*
X239096D01*
Y199652D01*
X231404D01*
G37*
X241404D02*
G36*
X241404Y199652D02*
Y188402D01*
X249096D01*
Y199652D01*
X241404D01*
G37*
X251404D02*
G36*
X251404Y199652D02*
Y188402D01*
X257846D01*
Y199652D01*
X251404D01*
G37*
X260154D02*
G36*
X260154Y199652D02*
Y190130D01*
G75*
G02*
X263691Y188402I1346J-1728D01*
G01*
X269096D01*
Y199652D01*
X260154D01*
G37*
X271404D02*
G36*
X271404Y199652D02*
Y188402D01*
X274096D01*
Y199652D01*
X271404D01*
G37*
X276404D02*
G36*
X276404Y199652D02*
Y188402D01*
X284096D01*
Y199652D01*
X276404D01*
G37*
X286404D02*
G36*
X286404Y199652D02*
Y188402D01*
X297846D01*
Y199652D01*
X286404D01*
G37*
X300154D02*
G36*
X300154Y199652D02*
Y188402D01*
X301190D01*
X301970Y189181D01*
G75*
G02*
X302752Y189504I780J-781D01*
G01*
X327748D01*
G75*
G02*
X328530Y189181I2J-1104D01*
G01*
X329310Y188402D01*
X410031D01*
Y199652D01*
X339500D01*
G75*
G02*
X331000I-4250J0D01*
G01*
X324500D01*
G75*
G02*
X316000I-4250J0D01*
G01*
X300154D01*
G37*
X17969Y227152D02*
G36*
X17969Y227152D02*
Y199652D01*
X27245D01*
X28689Y202152D01*
X26929Y205199D01*
G75*
G02*
X26398Y207150I3319J1951D01*
G01*
G75*
G02*
Y207151I4511J0D01*
G01*
Y207152D01*
G75*
G02*
X34102I3852J0D01*
G01*
Y207151D01*
G75*
G02*
Y207150I-4511J0D01*
G01*
G75*
G02*
X33571Y205199I-3850J0D01*
G01*
X31811Y202152D01*
X33255Y199652D01*
X47245D01*
X48689Y202152D01*
X46929Y205199D01*
G75*
G02*
X46398Y207150I3316J1950D01*
G01*
Y207151D01*
G75*
G02*
X49011Y210799I3853J0D01*
G01*
X35250D01*
G75*
G02*
X34293Y211196I-1J1350D01*
G01*
X33085Y212404D01*
X29298Y213419D01*
G75*
G02*
X26398Y217152I952J3733D01*
G01*
Y217152D01*
G75*
G02*
Y217153I4511J0D01*
G01*
G75*
G02*
X26929Y219104I3850J0D01*
G01*
X28689Y222152D01*
X26929Y225199D01*
G75*
G02*
X26398Y227150I3319J1951D01*
G01*
G75*
G02*
Y227151I4511J0D01*
G01*
Y227152D01*
X17969D01*
G37*
X31811Y222152D02*
G36*
X31811Y222152D02*
X33571Y219104D01*
G75*
G02*
X33986Y218091I-3314J-1949D01*
G01*
X34998Y214316D01*
X35810Y213504D01*
X49011D01*
G75*
G02*
X46398Y217152I1239J3648D01*
G01*
Y217152D01*
G75*
G02*
Y217153I4511J0D01*
G01*
G75*
G02*
X46929Y219104I3850J0D01*
G01*
X48689Y222152D01*
X46929Y225199D01*
G75*
G02*
X46398Y227150I3316J1950D01*
G01*
Y227151D01*
Y227152D01*
X34102D01*
Y227151D01*
G75*
G02*
Y227150I-4511J0D01*
G01*
G75*
G02*
X33571Y225199I-3850J0D01*
G01*
X31811Y222152D01*
G37*
X64238Y227152D02*
G36*
X64238Y227152D02*
X64998Y224316D01*
X70810Y218504D01*
X84888D01*
X88298Y220473D01*
G75*
G02*
X89010Y220799I1944J-3304D01*
G01*
X85250D01*
G75*
G02*
X84293Y221196I-1J1350D01*
G01*
X83085Y222404D01*
X79298Y223419D01*
G75*
G02*
X76398Y227152I952J3733D01*
G01*
X64238D01*
G37*
X84238D02*
G36*
X84238Y227152D02*
X84998Y224316D01*
X85810Y223504D01*
X89011D01*
G75*
G02*
X86398Y227152I1239J3648D01*
G01*
X84238D01*
G37*
X94102D02*
G36*
X94102Y227152D02*
G75*
G02*
X91489Y223504I-3852J0D01*
G01*
X109011D01*
G75*
G02*
X106398Y227152I1241J3648D01*
G01*
X94102D01*
G37*
X124102D02*
G36*
X124102Y227152D02*
G75*
G02*
X121489Y223504I-3852J0D01*
G01*
X135250D01*
G75*
G02*
X136207Y223107I1J-1350D01*
G01*
X146205Y213109D01*
G75*
G02*
X146602Y212152I-953J-957D01*
G01*
Y204652D01*
G75*
G02*
Y204651I-1253J0D01*
G01*
G75*
G02*
X146205Y203694I-1350J0D01*
G01*
X142163Y199652D01*
X169096D01*
Y225424D01*
X167369Y227152D01*
X144102D01*
G75*
G02*
X136398I-3852J0D01*
G01*
X124102D01*
G37*
X170631D02*
G36*
X170631Y227152D02*
X171064Y226719D01*
G75*
G02*
X171404Y225902I-814J-817D01*
G01*
Y199652D01*
X179096D01*
Y226674D01*
X178619Y227152D01*
X170631D01*
G37*
X181404D02*
G36*
X181404Y227152D02*
Y199652D01*
X189096D01*
Y226674D01*
X188619Y227152D01*
X181404D01*
G37*
X191404D02*
G36*
X191404Y227152D02*
Y199652D01*
X197846D01*
Y226674D01*
X197369Y227152D01*
X191404D01*
G37*
X200154D02*
G36*
X200154Y227152D02*
Y199652D01*
X209096D01*
Y226674D01*
X208619Y227152D01*
X200154D01*
G37*
X211404D02*
G36*
X211404Y227152D02*
Y199652D01*
X217846D01*
Y226674D01*
X217369Y227152D01*
X211404D01*
G37*
X220154D02*
G36*
X220154Y227152D02*
Y199652D01*
X220346D01*
Y227152D01*
X220154D01*
G37*
X222654D02*
G36*
X222654Y227152D02*
Y199652D01*
X229096D01*
Y226674D01*
X228619Y227152D01*
X222654D01*
G37*
X231404D02*
G36*
X231404Y227152D02*
Y199652D01*
X239096D01*
Y226674D01*
X238619Y227152D01*
X231404D01*
G37*
X241404D02*
G36*
X241404Y227152D02*
Y199652D01*
X249096D01*
Y226674D01*
X248619Y227152D01*
X241404D01*
G37*
X251404D02*
G36*
X251404Y227152D02*
Y199652D01*
X257846D01*
Y226674D01*
X257369Y227152D01*
X251404D01*
G37*
X260154D02*
G36*
X260154Y227152D02*
Y199652D01*
X269096D01*
Y226674D01*
X268619Y227152D01*
X260154D01*
G37*
X271404D02*
G36*
X271404Y227152D02*
Y199652D01*
X274096D01*
Y227152D01*
X271404D01*
G37*
X276404D02*
G36*
X276404Y227152D02*
Y199652D01*
X284096D01*
Y220902D01*
G75*
G02*
X284436Y221719I1154J0D01*
G01*
X289869Y227152D01*
X276404D01*
G37*
X286404Y220424D02*
G36*
X286404Y220424D02*
Y199652D01*
X297846D01*
Y224652D01*
G75*
G02*
X298186Y225469I1154J0D01*
G01*
X299869Y227152D01*
X293131D01*
X286404Y220424D01*
G37*
X300154Y224174D02*
G36*
X300154Y224174D02*
Y199652D01*
X316000D01*
G75*
G02*
X324500I4250J0D01*
G01*
X331000D01*
G75*
G02*
X339500I4250J0D01*
G01*
X410031D01*
Y227152D01*
X303131D01*
X300154Y224174D01*
G37*
X17969Y239652D02*
G36*
X17969Y239652D02*
Y227152D01*
X26398D01*
G75*
G02*
X34102I3852J0D01*
G01*
X46398D01*
G75*
G02*
X52202Y230473I3853J0D01*
G01*
X55250Y228713D01*
X58298Y230473D01*
G75*
G02*
X63981Y228110I1952J-3322D01*
G01*
X64238Y227152D01*
X76398D01*
G75*
G02*
X83983Y228104I3852J0D01*
G01*
X84238Y227152D01*
X86398D01*
G75*
G02*
X94102I3852J0D01*
G01*
X106398D01*
G75*
G02*
X112202Y230473I3853J0D01*
G01*
X115250Y228713D01*
X117430Y229972D01*
X118898Y232514D01*
Y234289D01*
X116929Y237699D01*
G75*
G02*
X116398Y239650I3319J1951D01*
G01*
G75*
G02*
Y239651I4511J0D01*
G01*
Y239652D01*
X17969D01*
G37*
X121602Y234289D02*
G36*
X121602Y234289D02*
Y232514D01*
X123583Y229083D01*
G75*
G02*
X124102Y227152I-3335J-1932D01*
G01*
X136398D01*
G75*
G02*
X144102I3852J0D01*
G01*
X167369D01*
X164436Y230085D01*
G75*
G02*
X164096Y230902I814J817D01*
G01*
Y233646D01*
X162125Y237060D01*
G75*
G02*
X162119Y237072I114J72D01*
G01*
G75*
G02*
X161642Y238864I3131J1793D01*
G01*
Y239652D01*
X159256D01*
Y238864D01*
G75*
G02*
X151244I-4006J0D01*
G01*
Y239652D01*
X144500D01*
G75*
G02*
X136000I-4250J0D01*
G01*
X124102D01*
Y239651D01*
G75*
G02*
Y239650I-4511J0D01*
G01*
G75*
G02*
X123571Y237699I-3850J0D01*
G01*
X121602Y234289D01*
G37*
X166404Y233646D02*
G36*
X166404Y233646D02*
Y231380D01*
X170631Y227152D01*
X178619D01*
X174436Y231335D01*
G75*
G02*
X174096Y232152I814J817D01*
G01*
Y233646D01*
X172125Y237060D01*
G75*
G02*
X172119Y237072I114J72D01*
G01*
G75*
G02*
X171642Y238864I3131J1793D01*
G01*
Y239652D01*
X168858D01*
Y238864D01*
G75*
G02*
X168381Y237072I-3608J0D01*
G01*
G75*
G02*
X168375Y237060I-120J60D01*
G01*
X166404Y233646D01*
G37*
X176404D02*
G36*
X176404Y233646D02*
Y232630D01*
X181064Y227969D01*
G75*
G02*
X181404Y227152I-814J-817D01*
G01*
X188619D01*
X184436Y231335D01*
G75*
G02*
X184096Y232152I814J817D01*
G01*
Y233646D01*
X182125Y237060D01*
G75*
G02*
X182119Y237072I114J72D01*
G01*
G75*
G02*
X181642Y238864I3131J1793D01*
G01*
Y239652D01*
X178858D01*
Y238864D01*
G75*
G02*
X178381Y237072I-3608J0D01*
G01*
G75*
G02*
X178375Y237060I-120J60D01*
G01*
X176404Y233646D01*
G37*
X186404D02*
G36*
X186404Y233646D02*
Y232630D01*
X191064Y227969D01*
G75*
G02*
X191404Y227152I-814J-817D01*
G01*
X197369D01*
X194436Y230085D01*
G75*
G02*
X194096Y230902I814J817D01*
G01*
Y233646D01*
X192125Y237060D01*
G75*
G02*
X192119Y237072I114J72D01*
G01*
G75*
G02*
X191642Y238864I3131J1793D01*
G01*
Y239652D01*
X188858D01*
Y238864D01*
G75*
G02*
X188381Y237072I-3608J0D01*
G01*
G75*
G02*
X188375Y237060I-120J60D01*
G01*
X186404Y233646D01*
G37*
X196404D02*
G36*
X196404Y233646D02*
Y231380D01*
X199814Y227969D01*
G75*
G02*
X200154Y227152I-814J-817D01*
G01*
X208619D01*
X204436Y231335D01*
G75*
G02*
X204096Y232152I814J817D01*
G01*
Y233646D01*
X202125Y237060D01*
G75*
G02*
X202119Y237072I114J72D01*
G01*
G75*
G02*
X201642Y238864I3131J1793D01*
G01*
Y239652D01*
X198858D01*
Y238864D01*
G75*
G02*
X198381Y237072I-3608J0D01*
G01*
G75*
G02*
X198375Y237060I-120J60D01*
G01*
X196404Y233646D01*
G37*
X206404D02*
G36*
X206404Y233646D02*
Y232630D01*
X211064Y227969D01*
G75*
G02*
X211404Y227152I-814J-817D01*
G01*
X217369D01*
X214436Y230085D01*
G75*
G02*
X214096Y230902I814J817D01*
G01*
Y233646D01*
X212125Y237060D01*
G75*
G02*
X212119Y237072I114J72D01*
G01*
G75*
G02*
X211642Y238864I3131J1793D01*
G01*
Y239652D01*
X208858D01*
Y238864D01*
G75*
G02*
X208381Y237072I-3608J0D01*
G01*
G75*
G02*
X208375Y237060I-120J60D01*
G01*
X206404Y233646D01*
G37*
X216404D02*
G36*
X216404Y233646D02*
Y231380D01*
X219814Y227969D01*
G75*
G02*
X220154Y227152I-814J-817D01*
G01*
X220346D01*
Y227267D01*
X219602Y228556D01*
G75*
G02*
X219592Y228575I293J177D01*
G01*
G75*
G02*
X219309Y229652I1915J1078D01*
G01*
G75*
G02*
X223691I2191J0D01*
G01*
G75*
G02*
X223408Y228575I-2198J2D01*
G01*
G75*
G02*
X223398Y228556I-304J158D01*
G01*
X222654Y227267D01*
Y227152D01*
X228619D01*
X224436Y231335D01*
G75*
G02*
X224096Y232152I814J817D01*
G01*
Y233646D01*
X222125Y237060D01*
G75*
G02*
X222119Y237072I114J72D01*
G01*
G75*
G02*
X221642Y238864I3131J1793D01*
G01*
Y239652D01*
X218858D01*
Y238864D01*
G75*
G02*
X218381Y237072I-3608J0D01*
G01*
G75*
G02*
X218375Y237060I-120J60D01*
G01*
X216404Y233646D01*
G37*
X226404D02*
G36*
X226404Y233646D02*
Y232630D01*
X231064Y227969D01*
G75*
G02*
X231404Y227152I-814J-817D01*
G01*
X238619D01*
X234436Y231335D01*
G75*
G02*
X234096Y232152I814J817D01*
G01*
Y233646D01*
X232125Y237060D01*
G75*
G02*
X232119Y237072I114J72D01*
G01*
G75*
G02*
X231642Y238864I3131J1793D01*
G01*
Y239652D01*
X228858D01*
Y238864D01*
G75*
G02*
X228381Y237072I-3608J0D01*
G01*
G75*
G02*
X228375Y237060I-120J60D01*
G01*
X226404Y233646D01*
G37*
X236404D02*
G36*
X236404Y233646D02*
Y232630D01*
X241064Y227969D01*
G75*
G02*
X241404Y227152I-814J-817D01*
G01*
X248619D01*
X244436Y231335D01*
G75*
G02*
X244096Y232152I814J817D01*
G01*
Y233646D01*
X242125Y237060D01*
G75*
G02*
X242119Y237072I114J72D01*
G01*
G75*
G02*
X241642Y238864I3131J1793D01*
G01*
Y239652D01*
X238858D01*
Y238864D01*
G75*
G02*
X238381Y237072I-3608J0D01*
G01*
G75*
G02*
X238375Y237060I-120J60D01*
G01*
X236404Y233646D01*
G37*
X246404D02*
G36*
X246404Y233646D02*
Y232630D01*
X251064Y227969D01*
G75*
G02*
X251404Y227152I-814J-817D01*
G01*
X257369D01*
X254436Y230085D01*
G75*
G02*
X254096Y230902I814J817D01*
G01*
Y233646D01*
X252125Y237060D01*
G75*
G02*
X252119Y237072I114J72D01*
G01*
G75*
G02*
X251642Y238864I3131J1793D01*
G01*
Y239652D01*
X248858D01*
Y238864D01*
G75*
G02*
X248381Y237072I-3608J0D01*
G01*
G75*
G02*
X248375Y237060I-120J60D01*
G01*
X246404Y233646D01*
G37*
X256404D02*
G36*
X256404Y233646D02*
Y231380D01*
X259814Y227969D01*
G75*
G02*
X260154Y227152I-814J-817D01*
G01*
X268619D01*
X264436Y231335D01*
G75*
G02*
X264096Y232152I814J817D01*
G01*
Y233646D01*
X262125Y237060D01*
G75*
G02*
X262119Y237072I114J72D01*
G01*
G75*
G02*
X261642Y238864I3131J1793D01*
G01*
Y239652D01*
X258858D01*
Y238864D01*
G75*
G02*
X258381Y237072I-3608J0D01*
G01*
G75*
G02*
X258375Y237060I-120J60D01*
G01*
X256404Y233646D01*
G37*
X266404D02*
G36*
X266404Y233646D02*
Y232630D01*
X271064Y227969D01*
G75*
G02*
X271404Y227152I-814J-817D01*
G01*
X274096D01*
Y233646D01*
X272125Y237060D01*
G75*
G02*
X272119Y237072I114J72D01*
G01*
G75*
G02*
X271642Y238864I3131J1793D01*
G01*
Y239652D01*
X268858D01*
Y238864D01*
G75*
G02*
X268381Y237072I-3608J0D01*
G01*
G75*
G02*
X268375Y237060I-120J60D01*
G01*
X266404Y233646D01*
G37*
X276404D02*
G36*
X276404Y233646D02*
Y227152D01*
X289869D01*
X294096Y231380D01*
Y233646D01*
X292125Y237060D01*
G75*
G02*
X292119Y237072I114J72D01*
G01*
G75*
G02*
X291642Y238864I3131J1793D01*
G01*
Y239652D01*
X288859D01*
Y238864D01*
G75*
G02*
X281642I-3608J0D01*
G01*
Y239652D01*
X278858D01*
Y238864D01*
G75*
G02*
X278381Y237072I-3608J0D01*
G01*
G75*
G02*
X278375Y237060I-120J60D01*
G01*
X276404Y233646D01*
G37*
X296064Y230085D02*
G36*
X296064Y230085D02*
X293131Y227152D01*
X299869D01*
X304096Y231380D01*
Y233646D01*
X302125Y237060D01*
G75*
G02*
X302119Y237072I114J72D01*
G01*
G75*
G02*
X301642Y238864I3131J1793D01*
G01*
Y239652D01*
X298858D01*
Y238864D01*
G75*
G02*
X298381Y237072I-3608J0D01*
G01*
G75*
G02*
X298375Y237060I-120J60D01*
G01*
X296404Y233646D01*
Y230902D01*
G75*
G02*
X296064Y230085I-1154J0D01*
G01*
G37*
X306064D02*
G36*
X306064Y230085D02*
X303131Y227152D01*
X410031D01*
Y239652D01*
X308858D01*
Y238864D01*
G75*
G02*
X308381Y237072I-3608J0D01*
G01*
G75*
G02*
X308375Y237060I-120J60D01*
G01*
X306404Y233646D01*
Y230902D01*
G75*
G02*
X306064Y230085I-1154J0D01*
G01*
G37*
X17969Y244754D02*
G36*
X17969Y244754D02*
Y239652D01*
X116398D01*
G75*
G02*
X124102I3852J0D01*
G01*
X136000D01*
G75*
G02*
X144500I4250J0D01*
G01*
X151244D01*
Y240439D01*
G75*
G02*
X159256I4006J0D01*
G01*
Y239652D01*
X161642D01*
Y240439D01*
G75*
G02*
X168858I3608J0D01*
G01*
Y239652D01*
X171642D01*
Y240439D01*
G75*
G02*
X178858I3608J0D01*
G01*
Y239652D01*
X181642D01*
Y240439D01*
G75*
G02*
X188858I3608J0D01*
G01*
Y239652D01*
X191642D01*
Y240439D01*
G75*
G02*
X198858I3608J0D01*
G01*
Y239652D01*
X201642D01*
Y240439D01*
G75*
G02*
X208858I3608J0D01*
G01*
Y239652D01*
X211642D01*
Y240439D01*
G75*
G02*
X218858I3608J0D01*
G01*
Y239652D01*
X221642D01*
Y240439D01*
G75*
G02*
X228858I3608J0D01*
G01*
Y239652D01*
X231642D01*
Y240439D01*
G75*
G02*
X238858I3608J0D01*
G01*
Y239652D01*
X241642D01*
Y240439D01*
G75*
G02*
X248858I3608J0D01*
G01*
Y239652D01*
X251642D01*
Y240439D01*
G75*
G02*
X258858I3608J0D01*
G01*
Y239652D01*
X261642D01*
Y240439D01*
G75*
G02*
X268858I3608J0D01*
G01*
Y239652D01*
X271642D01*
Y240439D01*
G75*
G02*
X278858I3608J0D01*
G01*
Y239652D01*
X281642D01*
Y240439D01*
G75*
G02*
X288859I3608J0D01*
G01*
Y239652D01*
X291642D01*
Y240439D01*
G75*
G02*
X298858I3608J0D01*
G01*
Y239652D01*
X301642D01*
Y240439D01*
G75*
G02*
X308858I3608J0D01*
G01*
Y239652D01*
X410031D01*
Y244754D01*
G75*
G03*
X407852Y246933I-3531J-1352D01*
G01*
X20148D01*
G75*
G03*
X17969Y244754I1352J-3531D01*
G01*
G37*
X54102Y157152D02*
G75*
G02*
X51489Y153504I-3852J0D01*
G01*
X89011D01*
G75*
G02*
X88298Y153830I1239J3649D01*
G01*
X84888Y155799D01*
X70250D01*
G75*
G02*
X69293Y156196I0J1352D01*
G01*
X63085Y162404D01*
X59306Y163417D01*
G75*
G02*
X58298Y163830I944J3735D01*
G01*
X55250Y165590D01*
X53070Y164332D01*
X51811Y162152D01*
X53571Y159104D01*
G75*
G02*
X54102Y157152I-3322J-1952D01*
G01*
Y157152D01*
G36*
X54102Y157152D02*
G75*
G02*
X51489Y153504I-3852J0D01*
G01*
X89011D01*
G75*
G02*
X88298Y153830I1239J3649D01*
G01*
X84888Y155799D01*
X70250D01*
G75*
G02*
X69293Y156196I0J1352D01*
G01*
X63085Y162404D01*
X59306Y163417D01*
G75*
G02*
X58298Y163830I944J3735D01*
G01*
X55250Y165590D01*
X53070Y164332D01*
X51811Y162152D01*
X53571Y159104D01*
G75*
G02*
X54102Y157152I-3322J-1952D01*
G01*
Y157152D01*
G37*
Y177152D02*
G75*
G02*
X51489Y173504I-3852J0D01*
G01*
X89010D01*
G75*
G02*
X88298Y173830I1240J3648D01*
G01*
X84888Y175799D01*
X70250D01*
G75*
G02*
X69293Y176196I0J1352D01*
G01*
X63085Y182404D01*
X59298Y183419D01*
G75*
G02*
X58313Y183821I952J3733D01*
G01*
X55250Y185590D01*
X53070Y184331D01*
X51811Y182152D01*
X53571Y179104D01*
G75*
G02*
X54102Y177152I-3322J-1952D01*
G01*
Y177152D01*
G36*
X54102Y177152D02*
G75*
G02*
X51489Y173504I-3852J0D01*
G01*
X89010D01*
G75*
G02*
X88298Y173830I1240J3648D01*
G01*
X84888Y175799D01*
X70250D01*
G75*
G02*
X69293Y176196I0J1352D01*
G01*
X63085Y182404D01*
X59298Y183419D01*
G75*
G02*
X58313Y183821I952J3733D01*
G01*
X55250Y185590D01*
X53070Y184331D01*
X51811Y182152D01*
X53571Y179104D01*
G75*
G02*
X54102Y177152I-3322J-1952D01*
G01*
Y177152D01*
G37*
Y197152D02*
G75*
G02*
X51489Y193504I-3852J0D01*
G01*
X89010D01*
G75*
G02*
X88298Y193830I1240J3648D01*
G01*
X84888Y195799D01*
X70250D01*
G75*
G02*
X69293Y196196I0J1352D01*
G01*
X63085Y202404D01*
X59306Y203417D01*
G75*
G02*
X58298Y203830I944J3735D01*
G01*
X55250Y205590D01*
X53070Y204332D01*
X51811Y202152D01*
X53571Y199104D01*
G75*
G02*
X54102Y197152I-3322J-1952D01*
G01*
Y197152D01*
G36*
X54102Y197152D02*
G75*
G02*
X51489Y193504I-3852J0D01*
G01*
X89010D01*
G75*
G02*
X88298Y193830I1240J3648D01*
G01*
X84888Y195799D01*
X70250D01*
G75*
G02*
X69293Y196196I0J1352D01*
G01*
X63085Y202404D01*
X59306Y203417D01*
G75*
G02*
X58298Y203830I944J3735D01*
G01*
X55250Y205590D01*
X53070Y204332D01*
X51811Y202152D01*
X53571Y199104D01*
G75*
G02*
X54102Y197152I-3322J-1952D01*
G01*
Y197152D01*
G37*
Y217152D02*
G75*
G02*
X51489Y213504I-3852J0D01*
G01*
X89010D01*
G75*
G02*
X88298Y213830I1240J3648D01*
G01*
X84888Y215799D01*
X70250D01*
G75*
G02*
X69293Y216196I0J1352D01*
G01*
X63085Y222404D01*
X59306Y223417D01*
G75*
G02*
X58298Y223830I944J3735D01*
G01*
X55250Y225590D01*
X53070Y224332D01*
X51811Y222152D01*
X53571Y219104D01*
G75*
G02*
X54102Y217152I-3322J-1952D01*
G01*
Y217152D01*
G36*
X54102Y217152D02*
G75*
G02*
X51489Y213504I-3852J0D01*
G01*
X89010D01*
G75*
G02*
X88298Y213830I1240J3648D01*
G01*
X84888Y215799D01*
X70250D01*
G75*
G02*
X69293Y216196I0J1352D01*
G01*
X63085Y222404D01*
X59306Y223417D01*
G75*
G02*
X58298Y223830I944J3735D01*
G01*
X55250Y225590D01*
X53070Y224332D01*
X51811Y222152D01*
X53571Y219104D01*
G75*
G02*
X54102Y217152I-3322J-1952D01*
G01*
Y217152D01*
G37*
X79011Y150799D02*
X61488D01*
G75*
G02*
X63983Y148104I-1238J-3648D01*
G01*
X64998Y144316D01*
X70810Y138504D01*
X84888D01*
X87430Y139971D01*
X88689Y142152D01*
X86929Y145199D01*
G75*
G02*
X86398Y147151I3322J1952D01*
G01*
Y147152D01*
G75*
G02*
X89011Y150799I3852J0D01*
G01*
X81489D01*
G75*
G02*
X84102Y147152I-1239J-3648D01*
G01*
G75*
G02*
X76398I-3852J0D01*
G01*
G75*
G02*
X79011Y150799I3852J0D01*
G01*
G36*
X79011Y150799D02*
X61488D01*
G75*
G02*
X63983Y148104I-1238J-3648D01*
G01*
X64998Y144316D01*
X70810Y138504D01*
X84888D01*
X87430Y139971D01*
X88689Y142152D01*
X86929Y145199D01*
G75*
G02*
X86398Y147151I3322J1952D01*
G01*
Y147152D01*
G75*
G02*
X89011Y150799I3852J0D01*
G01*
X81489D01*
G75*
G02*
X84102Y147152I-1239J-3648D01*
G01*
G75*
G02*
X76398I-3852J0D01*
G01*
G75*
G02*
X79011Y150799I3852J0D01*
G01*
G37*
Y170799D02*
X61489D01*
G75*
G02*
X63981Y168110I-1239J-3648D01*
G01*
X64998Y164316D01*
X70810Y158504D01*
X84888D01*
X87430Y159972D01*
X88689Y162152D01*
X86929Y165199D01*
G75*
G02*
X86398Y167151I3322J1952D01*
G01*
Y167152D01*
G75*
G02*
X89011Y170799I3852J0D01*
G01*
X81489D01*
G75*
G02*
X84102Y167152I-1239J-3648D01*
G01*
G75*
G02*
X76398I-3852J0D01*
G01*
G75*
G02*
X79011Y170799I3852J0D01*
G01*
G36*
X79011Y170799D02*
X61489D01*
G75*
G02*
X63981Y168110I-1239J-3648D01*
G01*
X64998Y164316D01*
X70810Y158504D01*
X84888D01*
X87430Y159972D01*
X88689Y162152D01*
X86929Y165199D01*
G75*
G02*
X86398Y167151I3322J1952D01*
G01*
Y167152D01*
G75*
G02*
X89011Y170799I3852J0D01*
G01*
X81489D01*
G75*
G02*
X84102Y167152I-1239J-3648D01*
G01*
G75*
G02*
X76398I-3852J0D01*
G01*
G75*
G02*
X79011Y170799I3852J0D01*
G01*
G37*
X79011Y190799D02*
X61488D01*
G75*
G02*
X63983Y188104I-1238J-3648D01*
G01*
X64998Y184316D01*
X70810Y178504D01*
X84888D01*
X88298Y180473D01*
G75*
G02*
X89010Y180799I1952J-3322D01*
G01*
X85250D01*
G75*
G02*
X84293Y181196I0J1352D01*
G01*
X83085Y182404D01*
X79298Y183419D01*
G75*
G02*
X79011Y190799I952J3733D01*
G01*
G36*
X79011Y190799D02*
X61488D01*
G75*
G02*
X63983Y188104I-1238J-3648D01*
G01*
X64998Y184316D01*
X70810Y178504D01*
X84888D01*
X88298Y180473D01*
G75*
G02*
X89010Y180799I1952J-3322D01*
G01*
X85250D01*
G75*
G02*
X84293Y181196I0J1352D01*
G01*
X83085Y182404D01*
X79298Y183419D01*
G75*
G02*
X79011Y190799I952J3733D01*
G01*
G37*
Y210799D02*
X61489D01*
G75*
G02*
X63981Y208110I-1239J-3648D01*
G01*
X64998Y204316D01*
X70810Y198504D01*
X84888D01*
X88298Y200473D01*
G75*
G02*
X89010Y200799I1952J-3322D01*
G01*
X85250D01*
G75*
G02*
X84293Y201196I0J1352D01*
G01*
X83085Y202404D01*
X79298Y203419D01*
G75*
G02*
X79011Y210799I952J3733D01*
G01*
G36*
X79011Y210799D02*
X61489D01*
G75*
G02*
X63981Y208110I-1239J-3648D01*
G01*
X64998Y204316D01*
X70810Y198504D01*
X84888D01*
X88298Y200473D01*
G75*
G02*
X89010Y200799I1952J-3322D01*
G01*
X85250D01*
G75*
G02*
X84293Y201196I0J1352D01*
G01*
X83085Y202404D01*
X79298Y203419D01*
G75*
G02*
X79011Y210799I952J3733D01*
G01*
G37*
X91489Y190799D02*
G75*
G02*
Y183504I-1239J-3648D01*
G01*
X109011D01*
G75*
G02*
Y190799I1240J3648D01*
G01*
X91489D01*
G36*
X91489Y190799D02*
G75*
G02*
Y183504I-1239J-3648D01*
G01*
X109011D01*
G75*
G02*
Y190799I1240J3648D01*
G01*
X91489D01*
G37*
Y210799D02*
G75*
G02*
Y203504I-1239J-3648D01*
G01*
X109011D01*
G75*
G02*
Y210799I1240J3648D01*
G01*
X91489D01*
G36*
X91489Y210799D02*
G75*
G02*
Y203504I-1239J-3648D01*
G01*
X109011D01*
G75*
G02*
Y210799I1240J3648D01*
G01*
X91489D01*
G37*
X94102Y157152D02*
G75*
G02*
X91489Y153504I-3853J0D01*
G01*
X109011D01*
G75*
G02*
X106398Y157152I1239J3648D01*
G01*
Y157152D01*
G75*
G02*
X106929Y159104I3853J0D01*
G01*
X108689Y162152D01*
X106929Y165199D01*
G75*
G02*
X106398Y167150I3319J1951D01*
G01*
Y167151D01*
G75*
G02*
X109011Y170799I3853J0D01*
G01*
X91489D01*
G75*
G02*
X94102Y167152I-1239J-3648D01*
G01*
Y167151D01*
G75*
G02*
X93571Y165199I-3853J0D01*
G01*
X91811Y162152D01*
X93583Y159083D01*
G75*
G02*
X94102Y157152I-3334J-1932D01*
G01*
G36*
X94102Y157152D02*
G75*
G02*
X91489Y153504I-3853J0D01*
G01*
X109011D01*
G75*
G02*
X106398Y157152I1239J3648D01*
G01*
Y157152D01*
G75*
G02*
X106929Y159104I3853J0D01*
G01*
X108689Y162152D01*
X106929Y165199D01*
G75*
G02*
X106398Y167150I3319J1951D01*
G01*
Y167151D01*
G75*
G02*
X109011Y170799I3853J0D01*
G01*
X91489D01*
G75*
G02*
X94102Y167152I-1239J-3648D01*
G01*
Y167151D01*
G75*
G02*
X93571Y165199I-3853J0D01*
G01*
X91811Y162152D01*
X93583Y159083D01*
G75*
G02*
X94102Y157152I-3334J-1932D01*
G01*
G37*
X109011Y180799D02*
X91489D01*
G75*
G02*
Y173504I-1240J-3648D01*
G01*
X109011D01*
G75*
G02*
Y180799I1239J3648D01*
G01*
G36*
X109011Y180799D02*
X91489D01*
G75*
G02*
Y173504I-1240J-3648D01*
G01*
X109011D01*
G75*
G02*
Y180799I1239J3648D01*
G01*
G37*
Y200799D02*
X91489D01*
G75*
G02*
Y193504I-1240J-3648D01*
G01*
X109011D01*
G75*
G02*
Y200799I1239J3648D01*
G01*
G36*
X109011Y200799D02*
X91489D01*
G75*
G02*
Y193504I-1240J-3648D01*
G01*
X109011D01*
G75*
G02*
Y200799I1239J3648D01*
G01*
G37*
Y220799D02*
X91489D01*
G75*
G02*
Y213504I-1240J-3648D01*
G01*
X109011D01*
G75*
G02*
Y220799I1239J3648D01*
G01*
G36*
X109011Y220799D02*
X91489D01*
G75*
G02*
Y213504I-1240J-3648D01*
G01*
X109011D01*
G75*
G02*
Y220799I1239J3648D01*
G01*
G37*
X111489Y180799D02*
G75*
G02*
Y173504I-1239J-3648D01*
G01*
X115250D01*
G75*
G02*
X116207Y173107I0J-1352D01*
G01*
X117415Y171900D01*
X121207Y170883D01*
G75*
G02*
X123896Y168395I-957J-3732D01*
G01*
Y177842D01*
X120940Y180799D01*
X111489D01*
G36*
X111489Y180799D02*
G75*
G02*
Y173504I-1239J-3648D01*
G01*
X115250D01*
G75*
G02*
X116207Y173107I0J-1352D01*
G01*
X117415Y171900D01*
X121207Y170883D01*
G75*
G02*
X123896Y168395I-957J-3732D01*
G01*
Y177842D01*
X120940Y180799D01*
X111489D01*
G37*
Y200799D02*
G75*
G02*
Y193504I-1239J-3648D01*
G01*
X115250D01*
G75*
G02*
X116207Y193107I0J-1352D01*
G01*
X117415Y191900D01*
X121207Y190883D01*
G75*
G02*
X121489Y183504I-957J-3731D01*
G01*
X121500D01*
G75*
G02*
X122457Y183106I0J-1352D01*
G01*
X126204Y179359D01*
G75*
G02*
X126398Y179115I-954J-956D01*
G01*
Y185112D01*
X125852Y186056D01*
G75*
G02*
X125830Y186095I1167J680D01*
G01*
G75*
G02*
X125559Y187151I1920J1056D01*
G01*
Y187152D01*
G75*
G02*
X128896Y189019I2191J0D01*
G01*
Y195341D01*
X123440Y200799D01*
X111489D01*
G36*
X111489Y200799D02*
G75*
G02*
Y193504I-1239J-3648D01*
G01*
X115250D01*
G75*
G02*
X116207Y193107I0J-1352D01*
G01*
X117415Y191900D01*
X121207Y190883D01*
G75*
G02*
X121489Y183504I-957J-3731D01*
G01*
X121500D01*
G75*
G02*
X122457Y183106I0J-1352D01*
G01*
X126204Y179359D01*
G75*
G02*
X126398Y179115I-954J-956D01*
G01*
Y185112D01*
X125852Y186056D01*
G75*
G02*
X125830Y186095I1167J680D01*
G01*
G75*
G02*
X125559Y187151I1920J1056D01*
G01*
Y187152D01*
G75*
G02*
X128896Y189019I2191J0D01*
G01*
Y195341D01*
X123440Y200799D01*
X111489D01*
G37*
Y220799D02*
G75*
G02*
Y213504I-1239J-3648D01*
G01*
X115250D01*
G75*
G02*
X116207Y213107I0J-1352D01*
G01*
X117415Y211900D01*
X121202Y210884D01*
G75*
G02*
X121488Y203504I-952J-3733D01*
G01*
X123998D01*
G75*
G02*
X124956Y203108I2J-1352D01*
G01*
X131205Y196858D01*
G75*
G02*
X131398Y196615I-957J-957D01*
G01*
Y199652D01*
G75*
G02*
X131795Y200609I1352J0D01*
G01*
X135502Y204316D01*
X136517Y208104D01*
G75*
G02*
X143898Y208391I3733J-952D01*
G01*
Y211591D01*
X134690Y220799D01*
X111489D01*
G36*
X111489Y220799D02*
G75*
G02*
Y213504I-1239J-3648D01*
G01*
X115250D01*
G75*
G02*
X116207Y213107I0J-1352D01*
G01*
X117415Y211900D01*
X121202Y210884D01*
G75*
G02*
X121488Y203504I-952J-3733D01*
G01*
X123998D01*
G75*
G02*
X124956Y203108I2J-1352D01*
G01*
X131205Y196858D01*
G75*
G02*
X131398Y196615I-957J-957D01*
G01*
Y199652D01*
G75*
G02*
X131795Y200609I1352J0D01*
G01*
X135502Y204316D01*
X136517Y208104D01*
G75*
G02*
X143898Y208391I3733J-952D01*
G01*
Y211591D01*
X134690Y220799D01*
X111489D01*
G37*
X112946Y9569D02*
G75*
G02*
X107666Y14849I0J5280D01*
G01*
Y57207D01*
X67750D01*
G75*
G02*
X62750Y62207I0J5000D01*
G01*
Y102207D01*
G75*
G03*
X57750Y107207I-5000J0D01*
G01*
X21500D01*
G75*
G02*
X15250Y113457I0J6250D01*
G01*
Y243402D01*
G75*
G02*
X21500Y249652I6250J0D01*
G01*
X406500D01*
G75*
G02*
X412750Y243402I0J-6250D01*
G01*
Y62207D01*
G75*
G02*
X407750Y57207I-5000J0D01*
G01*
X365304D01*
Y15066D01*
G75*
G02*
X359806Y9569I-5497J0D01*
G01*
X112946D01*
X114102Y157152D02*
G75*
G02*
X111489Y153504I-3852J0D01*
G01*
X115250D01*
G75*
G02*
X116207Y153107I0J-1352D01*
G01*
X117415Y151900D01*
X121207Y150883D01*
G75*
G02*
X123896Y148395I-957J-3732D01*
G01*
Y165908D01*
G75*
G02*
X118298Y163830I-3646J1244D01*
G01*
X115250Y165590D01*
X113070Y164332D01*
X111811Y162152D01*
X113571Y159104D01*
G75*
G02*
X114102Y157152I-3322J-1952D01*
G01*
Y157152D01*
G36*
X114102Y157152D02*
G75*
G02*
X111489Y153504I-3852J0D01*
G01*
X115250D01*
G75*
G02*
X116207Y153107I0J-1352D01*
G01*
X117415Y151900D01*
X121207Y150883D01*
G75*
G02*
X123896Y148395I-957J-3732D01*
G01*
Y165908D01*
G75*
G02*
X118298Y163830I-3646J1244D01*
G01*
X115250Y165590D01*
X113070Y164332D01*
X111811Y162152D01*
X113571Y159104D01*
G75*
G02*
X114102Y157152I-3322J-1952D01*
G01*
Y157152D01*
G37*
X157638Y57908D02*
Y54916D01*
X159956Y50902D01*
X163013D01*
X165331Y54916D01*
Y57924D01*
X161936Y61319D01*
G75*
G02*
X161596Y62136I814J817D01*
G01*
Y94767D01*
X161404Y95102D01*
Y62152D01*
G75*
G02*
X161064Y61335I-1154J0D01*
G01*
X157638Y57908D01*
G36*
X157638Y57908D02*
Y54916D01*
X159956Y50902D01*
X163013D01*
X165331Y54916D01*
Y57924D01*
X161936Y61319D01*
G75*
G02*
X161596Y62136I814J817D01*
G01*
Y94767D01*
X161404Y95102D01*
Y62152D01*
G75*
G02*
X161064Y61335I-1154J0D01*
G01*
X157638Y57908D01*
G37*
X163904Y94767D02*
Y62614D01*
X167299Y59219D01*
G75*
G02*
X167638Y58402I-814J-817D01*
G01*
Y54916D01*
X169956Y50902D01*
X173013D01*
X175331Y54916D01*
Y57924D01*
X173507Y59748D01*
X167750D01*
G75*
G02*
X166933Y60087I0J1154D01*
G01*
X164436Y62585D01*
G75*
G02*
X164096Y63402I814J817D01*
G01*
Y95102D01*
X163904Y94767D01*
G36*
X163904Y94767D02*
Y62614D01*
X167299Y59219D01*
G75*
G02*
X167638Y58402I-814J-817D01*
G01*
Y54916D01*
X169956Y50902D01*
X173013D01*
X175331Y54916D01*
Y57924D01*
X173507Y59748D01*
X167750D01*
G75*
G02*
X166933Y60087I0J1154D01*
G01*
X164436Y62585D01*
G75*
G02*
X164096Y63402I814J817D01*
G01*
Y95102D01*
X163904Y94767D01*
G37*
X167821Y62462D02*
X168228Y62055D01*
X173985D01*
G75*
G02*
X174802Y61716I0J-1154D01*
G01*
X177299Y59219D01*
G75*
G02*
X177638Y58402I-814J-817D01*
G01*
Y54916D01*
X179956Y50902D01*
X183013D01*
X185331Y54916D01*
Y57924D01*
X181007Y62248D01*
X175250D01*
G75*
G02*
X174433Y62587I0J1154D01*
G01*
X169436Y67585D01*
G75*
G02*
X169096Y68402I814J817D01*
G01*
Y92602D01*
X168904Y92267D01*
Y67036D01*
X169648Y65747D01*
G75*
G02*
X169658Y65728I-1034J-594D01*
G01*
G75*
G02*
X167821Y62462I-1908J-1076D01*
G01*
G36*
X167821Y62462D02*
X168228Y62055D01*
X173985D01*
G75*
G02*
X174802Y61716I0J-1154D01*
G01*
X177299Y59219D01*
G75*
G02*
X177638Y58402I-814J-817D01*
G01*
Y54916D01*
X179956Y50902D01*
X183013D01*
X185331Y54916D01*
Y57924D01*
X181007Y62248D01*
X175250D01*
G75*
G02*
X174433Y62587I0J1154D01*
G01*
X169436Y67585D01*
G75*
G02*
X169096Y68402I814J817D01*
G01*
Y92602D01*
X168904Y92267D01*
Y67036D01*
X169648Y65747D01*
G75*
G02*
X169658Y65728I-1034J-594D01*
G01*
G75*
G02*
X167821Y62462I-1908J-1076D01*
G01*
G37*
X217638Y56658D02*
Y54916D01*
X219956Y50902D01*
X223013D01*
X225331Y54916D01*
Y72911D01*
G75*
G02*
X222654Y72923I-1331J1740D01*
G01*
Y62036D01*
X223398Y60747D01*
G75*
G02*
X223408Y60728I-1034J-594D01*
G01*
G75*
G02*
X223691Y59652I-1909J-1077D01*
G01*
G75*
G02*
X219579Y58599I-2191J0D01*
G01*
X217638Y56658D01*
G36*
X217638Y56658D02*
Y54916D01*
X219956Y50902D01*
X223013D01*
X225331Y54916D01*
Y72911D01*
G75*
G02*
X222654Y72923I-1331J1740D01*
G01*
Y62036D01*
X223398Y60747D01*
G75*
G02*
X223408Y60728I-1034J-594D01*
G01*
G75*
G02*
X223691Y59652I-1909J-1077D01*
G01*
G75*
G02*
X219579Y58599I-2191J0D01*
G01*
X217638Y56658D01*
G37*
X227638Y86017D02*
Y54916D01*
X229956Y50902D01*
X233013D01*
X235331Y54916D01*
Y56674D01*
X228186Y63819D01*
G75*
G02*
X227846Y64636I814J817D01*
G01*
Y86378D01*
X227638Y86017D01*
G36*
X227638Y86017D02*
Y54916D01*
X229956Y50902D01*
X233013D01*
X235331Y54916D01*
Y56674D01*
X228186Y63819D01*
G75*
G02*
X227846Y64636I814J817D01*
G01*
Y86378D01*
X227638Y86017D01*
G37*
X230154Y69173D02*
Y65114D01*
X237299Y57969D01*
G75*
G02*
X237638Y57152I-814J-817D01*
G01*
Y54916D01*
X239956Y50902D01*
X243013D01*
X245331Y54916D01*
Y90439D01*
X239436Y96335D01*
G75*
G02*
X239096Y97152I814J817D01*
G01*
Y143117D01*
X232654Y136674D01*
Y107944D01*
G75*
G02*
X238858Y105439I2596J-2506D01*
G01*
Y103864D01*
G75*
G02*
X238381Y102072I-3609J0D01*
G01*
G75*
G02*
X238375Y102060I-1144J641D01*
G01*
X236404Y98646D01*
Y67036D01*
X237148Y65747D01*
G75*
G02*
X237158Y65728I-1034J-594D01*
G01*
G75*
G02*
X237441Y64652I-1909J-1077D01*
G01*
G75*
G02*
X233059I-2191J0D01*
G01*
G75*
G02*
X233342Y65728I2191J0D01*
G01*
G75*
G02*
X233352Y65747I1044J-575D01*
G01*
X234096Y67036D01*
Y98646D01*
X232654Y101145D01*
Y73286D01*
X233398Y71997D01*
G75*
G02*
X233408Y71978I-1034J-594D01*
G01*
G75*
G02*
X230154Y69173I-1908J-1076D01*
G01*
X236809Y93402D02*
G75*
G02*
X241191I2191J0D01*
G01*
G75*
G02*
X240908Y92325I-2191J0D01*
G01*
G75*
G02*
X240898Y92306I-1044J575D01*
G01*
X240154Y91017D01*
Y64536D01*
X240898Y63247D01*
G75*
G02*
X240908Y63228I-1034J-594D01*
G01*
G75*
G02*
X241191Y62152I-1909J-1077D01*
G01*
G75*
G02*
X236809I-2191J0D01*
G01*
G75*
G02*
X237092Y63228I2191J0D01*
G01*
G75*
G02*
X237102Y63247I1044J-575D01*
G01*
X237846Y64536D01*
Y91017D01*
X237102Y92306D01*
G75*
G02*
X237092Y92325I1034J594D01*
G01*
G75*
G02*
X236809Y93402I1909J1077D01*
G01*
X230404Y69005D02*
G36*
X230404Y69005D02*
Y64864D01*
X237299Y57969D01*
G75*
G02*
X237638Y57152I-814J-817D01*
G01*
Y54916D01*
X239811Y51152D01*
X243158D01*
X245081Y54483D01*
Y77776D01*
X240154D01*
Y64536D01*
X240898Y63247D01*
G75*
G02*
X240908Y63228I-293J-177D01*
G01*
G75*
G02*
X241191Y62152I-1915J-1078D01*
G01*
G75*
G02*
X236809I-2191J0D01*
G01*
G75*
G02*
X237092Y63228I2198J-2D01*
G01*
G75*
G02*
X237102Y63247I304J-158D01*
G01*
X237846Y64536D01*
Y77776D01*
X236404D01*
Y67036D01*
X237148Y65747D01*
G75*
G02*
X237158Y65728I-293J-177D01*
G01*
G75*
G02*
X237441Y64652I-1915J-1078D01*
G01*
G75*
G02*
X233059I-2191J0D01*
G01*
G75*
G02*
X233342Y65728I2198J-2D01*
G01*
G75*
G02*
X233352Y65747I304J-158D01*
G01*
X234096Y67036D01*
Y77776D01*
X232654D01*
Y73286D01*
X233398Y71997D01*
G75*
G02*
X233408Y71978I-293J-177D01*
G01*
G75*
G02*
X233691Y70902I-1908J-1076D01*
G01*
G75*
G02*
X230404Y69005I-2191J0D01*
G01*
G37*
X232654Y101145D02*
G36*
X232654Y101145D02*
Y77776D01*
X234096D01*
Y98646D01*
X232654Y101145D01*
G37*
Y136674D02*
G36*
X232654Y136674D02*
Y107944D01*
G75*
G02*
X238858Y105439I2596J-2506D01*
G01*
Y103864D01*
G75*
G02*
X238381Y102072I-3608J0D01*
G01*
G75*
G02*
X238375Y102060I-120J60D01*
G01*
X236404Y98646D01*
Y77776D01*
X237846D01*
Y91017D01*
X237102Y92306D01*
G75*
G02*
X237092Y92325I293J177D01*
G01*
G75*
G02*
X236809Y93402I1915J1078D01*
G01*
G75*
G02*
X241191I2191J0D01*
G01*
G75*
G02*
X240908Y92325I-2198J2D01*
G01*
G75*
G02*
X240898Y92306I-304J158D01*
G01*
X240154Y91017D01*
Y77776D01*
X245081D01*
Y90689D01*
X239436Y96335D01*
G75*
G02*
X239096Y97152I814J817D01*
G01*
Y142867D01*
X238846D01*
X232654Y136674D01*
G37*
X241404Y142924D02*
Y97630D01*
X243060Y95973D01*
G75*
G02*
X243342Y96978I2190J-71D01*
G01*
G75*
G02*
X243352Y96997I1044J-575D01*
G01*
X244096Y98286D01*
Y98646D01*
X242125Y102060D01*
G75*
G02*
X242119Y102072I973J559D01*
G01*
G75*
G02*
X241642Y103864I3132J1793D01*
G01*
Y105439D01*
G75*
G02*
X247846Y107944I3608J0D01*
G01*
Y144652D01*
G75*
G02*
X248186Y145469I1154J0D01*
G01*
X254096Y151380D01*
Y158646D01*
X252125Y162060D01*
G75*
G02*
X252119Y162072I973J559D01*
G01*
G75*
G02*
X251642Y163864I3132J1793D01*
G01*
Y165439D01*
G75*
G02*
X252141Y167270I3608J0D01*
G01*
X254041Y170561D01*
X250154Y166674D01*
Y152152D01*
G75*
G02*
X249814Y151335I-1154J0D01*
G01*
X241404Y142924D01*
G36*
X241404Y142924D02*
Y97630D01*
X243060Y95973D01*
G75*
G02*
X243342Y96978I2190J-71D01*
G01*
G75*
G02*
X243352Y96997I1044J-575D01*
G01*
X244096Y98286D01*
Y98646D01*
X242125Y102060D01*
G75*
G02*
X242119Y102072I973J559D01*
G01*
G75*
G02*
X241642Y103864I3132J1793D01*
G01*
Y105439D01*
G75*
G02*
X247846Y107944I3608J0D01*
G01*
Y144652D01*
G75*
G02*
X248186Y145469I1154J0D01*
G01*
X254096Y151380D01*
Y158646D01*
X252125Y162060D01*
G75*
G02*
X252119Y162072I973J559D01*
G01*
G75*
G02*
X251642Y163864I3132J1793D01*
G01*
Y165439D01*
G75*
G02*
X252141Y167270I3608J0D01*
G01*
X254041Y170561D01*
X250154Y166674D01*
Y152152D01*
G75*
G02*
X249814Y151335I-1154J0D01*
G01*
X241404Y142924D01*
G37*
X246404Y98646D02*
Y98286D01*
X247148Y96997D01*
G75*
G02*
X247158Y96978I-1034J-594D01*
G01*
G75*
G02*
X245321Y93712I-1908J-1076D01*
G01*
X247299Y91734D01*
G75*
G02*
X247638Y90917I-814J-817D01*
G01*
Y54916D01*
X249956Y50902D01*
X253013D01*
X255331Y54916D01*
Y55424D01*
X248186Y62569D01*
G75*
G02*
X247846Y63386I814J817D01*
G01*
Y101145D01*
X246404Y98646D01*
G36*
X246404Y98646D02*
Y98286D01*
X247148Y96997D01*
G75*
G02*
X247158Y96978I-1034J-594D01*
G01*
G75*
G02*
X245321Y93712I-1908J-1076D01*
G01*
X247299Y91734D01*
G75*
G02*
X247638Y90917I-814J-817D01*
G01*
Y54916D01*
X249956Y50902D01*
X253013D01*
X255331Y54916D01*
Y55424D01*
X248186Y62569D01*
G75*
G02*
X247846Y63386I814J817D01*
G01*
Y101145D01*
X246404Y98646D01*
G37*
X250154Y144174D02*
Y63864D01*
X257299Y56719D01*
G75*
G02*
X257638Y55902I-814J-817D01*
G01*
Y54916D01*
X259956Y50902D01*
X265346D01*
Y57924D01*
X263522Y59748D01*
X256500D01*
G75*
G02*
X255683Y60087I0J1154D01*
G01*
X250686Y65085D01*
G75*
G02*
X250346Y65902I814J817D01*
G01*
Y142152D01*
G75*
G02*
X250686Y142969I1154J0D01*
G01*
X257846Y150130D01*
Y161145D01*
X256404Y158646D01*
Y150902D01*
G75*
G02*
X256064Y150085I-1154J0D01*
G01*
X250154Y144174D01*
G36*
X250154Y144174D02*
Y63864D01*
X257299Y56719D01*
G75*
G02*
X257638Y55902I-814J-817D01*
G01*
Y54916D01*
X259956Y50902D01*
X265346D01*
Y57924D01*
X263522Y59748D01*
X256500D01*
G75*
G02*
X255683Y60087I0J1154D01*
G01*
X250686Y65085D01*
G75*
G02*
X250346Y65902I814J817D01*
G01*
Y142152D01*
G75*
G02*
X250686Y142969I1154J0D01*
G01*
X257846Y150130D01*
Y161145D01*
X256404Y158646D01*
Y150902D01*
G75*
G02*
X256064Y150085I-1154J0D01*
G01*
X250154Y144174D01*
G37*
X256571Y62462D02*
X256978Y62055D01*
X264000D01*
G75*
G02*
X264817Y61716I0J-1154D01*
G01*
X267314Y59219D01*
G75*
G02*
X267654Y58402I-814J-817D01*
G01*
Y50902D01*
X273013D01*
X275331Y54916D01*
Y87939D01*
X269870Y93400D01*
X268460Y93778D01*
G75*
G02*
X266809Y95902I540J2123D01*
G01*
G75*
G02*
X271123Y96442I2191J0D01*
G01*
X271501Y95032D01*
X277299Y89234D01*
G75*
G02*
X277638Y88417I-814J-817D01*
G01*
Y54916D01*
X279956Y50902D01*
X293013D01*
X295331Y54916D01*
Y60439D01*
X294940Y60830D01*
G75*
G02*
X291674Y58993I-2190J71D01*
G01*
G75*
G02*
X291655Y59004I575J1044D01*
G01*
X290366Y59748D01*
X285250D01*
G75*
G02*
X284433Y60087I0J1154D01*
G01*
X279436Y65085D01*
G75*
G02*
X279096Y65902I814J817D01*
G01*
Y144174D01*
X274436Y148835D01*
G75*
G02*
X274096Y149652I814J817D01*
G01*
Y158646D01*
X272654Y161145D01*
Y148880D01*
X276064Y145469D01*
G75*
G02*
X276404Y144652I-814J-817D01*
G01*
Y110657D01*
X278359Y107270D01*
G75*
G02*
X278858Y105439I-3109J-1832D01*
G01*
Y103864D01*
G75*
G02*
X271642I-3608J0D01*
G01*
Y105439D01*
G75*
G02*
X272141Y107270I3608J0D01*
G01*
X274096Y110657D01*
Y144174D01*
X270686Y147585D01*
G75*
G02*
X270346Y148402I814J817D01*
G01*
Y166867D01*
X270154Y166674D01*
Y148402D01*
G75*
G02*
X269814Y147585I-1154J0D01*
G01*
X266404Y144174D01*
Y110657D01*
X268359Y107270D01*
G75*
G02*
X268858Y105439I-3109J-1832D01*
G01*
Y103864D01*
G75*
G02*
X261642I-3608J0D01*
G01*
Y105439D01*
G75*
G02*
X262141Y107270I3608J0D01*
G01*
X264096Y110657D01*
Y144652D01*
G75*
G02*
X264436Y145469I1154J0D01*
G01*
X267846Y148880D01*
Y161145D01*
X266404Y158646D01*
Y149652D01*
G75*
G02*
X266064Y148835I-1154J0D01*
G01*
X261404Y144174D01*
Y95902D01*
G75*
G02*
X261064Y95085I-1154J0D01*
G01*
X257654Y91674D01*
Y67036D01*
X258398Y65747D01*
G75*
G02*
X258408Y65728I-1034J-594D01*
G01*
G75*
G02*
X256571Y62462I-1908J-1076D01*
G01*
X274658Y65728D02*
G75*
G02*
X274941Y64652I-1909J-1077D01*
G01*
G75*
G02*
X270559I-2191J0D01*
G01*
G75*
G02*
X270842Y65728I2191J0D01*
G01*
G75*
G02*
X270852Y65747I1044J-575D01*
G01*
X271596Y67036D01*
Y85424D01*
X266120Y90900D01*
X264710Y91278D01*
G75*
G02*
X263059Y93402I540J2123D01*
G01*
G75*
G02*
X267373Y93942I2191J0D01*
G01*
X267751Y92532D01*
X273564Y86719D01*
G75*
G02*
X273904Y85902I-814J-817D01*
G01*
Y67036D01*
X274648Y65747D01*
G75*
G02*
X274658Y65728I-1034J-594D01*
G01*
X259309Y90902D02*
G75*
G02*
X263691I2191J0D01*
G01*
G75*
G02*
X263408Y89825I-2191J0D01*
G01*
G75*
G02*
X263398Y89806I-1044J575D01*
G01*
X262654Y88517D01*
Y67036D01*
X263398Y65747D01*
G75*
G02*
X263408Y65728I-1034J-594D01*
G01*
G75*
G02*
X263691Y64652I-1909J-1077D01*
G01*
G75*
G02*
X259309I-2191J0D01*
G01*
G75*
G02*
X259592Y65728I2191J0D01*
G01*
G75*
G02*
X259602Y65747I1044J-575D01*
G01*
X260346Y67036D01*
Y88517D01*
X259602Y89806D01*
G75*
G02*
X259592Y89825I1034J594D01*
G01*
G75*
G02*
X259309Y90902I1909J1077D01*
G01*
X256821Y62484D02*
G36*
X256821Y62484D02*
Y62212D01*
X256978Y62055D01*
X264000D01*
G75*
G02*
X264817Y61716I0J-1154D01*
G01*
X267314Y59219D01*
G75*
G02*
X267654Y58402I-814J-817D01*
G01*
Y51152D01*
X273158D01*
X275331Y54916D01*
Y79026D01*
X273904D01*
Y67036D01*
X274648Y65747D01*
G75*
G02*
X274658Y65728I-293J-177D01*
G01*
G75*
G02*
X274941Y64652I-1915J-1078D01*
G01*
G75*
G02*
X270559I-2191J0D01*
G01*
G75*
G02*
X270842Y65728I2198J-2D01*
G01*
G75*
G02*
X270852Y65747I304J-158D01*
G01*
X271596Y67036D01*
Y79026D01*
X262654D01*
Y67036D01*
X263398Y65747D01*
G75*
G02*
X263408Y65728I-293J-177D01*
G01*
G75*
G02*
X263691Y64652I-1915J-1078D01*
G01*
G75*
G02*
X259309I-2191J0D01*
G01*
G75*
G02*
X259592Y65728I2198J-2D01*
G01*
G75*
G02*
X259602Y65747I304J-158D01*
G01*
X260346Y67036D01*
Y79026D01*
X257654D01*
Y67036D01*
X258398Y65747D01*
G75*
G02*
X258408Y65728I-293J-177D01*
G01*
G75*
G02*
X258691Y64652I-1909J-1077D01*
G01*
G75*
G02*
X256821Y62484I-2191J0D01*
G01*
G37*
X277638Y79026D02*
G36*
X277638Y79026D02*
Y54916D01*
X279811Y51152D01*
X293158D01*
X295081Y54483D01*
Y60689D01*
X294940Y60830D01*
G75*
G02*
X291674Y58993I-2190J72D01*
G01*
G75*
G02*
X291655Y59004I158J304D01*
G01*
X290366Y59748D01*
X285250D01*
G75*
G02*
X284433Y60087I0J1154D01*
G01*
X279436Y65085D01*
G75*
G02*
X279096Y65902I814J817D01*
G01*
Y79026D01*
X277638D01*
G37*
X257654Y91674D02*
G36*
X257654Y91674D02*
Y79026D01*
X260346D01*
Y88517D01*
X259602Y89806D01*
G75*
G02*
X259592Y89825I293J177D01*
G01*
G75*
G02*
X259309Y90902I1915J1078D01*
G01*
G75*
G02*
X263691I2191J0D01*
G01*
G75*
G02*
X263408Y89825I-2198J2D01*
G01*
G75*
G02*
X263398Y89806I-304J158D01*
G01*
X262654Y88517D01*
Y79026D01*
X271596D01*
Y85424D01*
X266120Y90900D01*
X264710Y91278D01*
G75*
G02*
X263059Y93402I540J2123D01*
G01*
G75*
G02*
X267373Y93942I2191J0D01*
G01*
X267751Y92532D01*
X273564Y86719D01*
G75*
G02*
X273904Y85902I-814J-817D01*
G01*
Y79026D01*
X275331D01*
Y87939D01*
X269870Y93400D01*
X268460Y93778D01*
G75*
G02*
X266809Y95902I540J2123D01*
G01*
G75*
G02*
X271123Y96442I2191J0D01*
G01*
X271501Y95032D01*
X277299Y89234D01*
G75*
G02*
X277638Y88417I-814J-817D01*
G01*
Y79026D01*
X279096D01*
Y144174D01*
X274436Y148835D01*
G75*
G02*
X274096Y149652I814J817D01*
G01*
Y158646D01*
X272654Y161145D01*
Y148880D01*
X276064Y145469D01*
G75*
G02*
X276404Y144652I-814J-817D01*
G01*
Y110657D01*
X278359Y107270D01*
G75*
G02*
X278858Y105439I-3108J-1831D01*
G01*
Y103864D01*
G75*
G02*
X271642I-3608J0D01*
G01*
Y105439D01*
G75*
G02*
X272141Y107270I3607J0D01*
G01*
X274096Y110657D01*
Y144174D01*
X270686Y147585D01*
G75*
G02*
X270346Y148402I814J817D01*
G01*
Y166617D01*
X270154D01*
Y148402D01*
G75*
G02*
X269814Y147585I-1154J0D01*
G01*
X266404Y144174D01*
Y110657D01*
X268359Y107270D01*
G75*
G02*
X268858Y105439I-3108J-1831D01*
G01*
Y103864D01*
G75*
G02*
X261642I-3608J0D01*
G01*
Y105439D01*
G75*
G02*
X262141Y107270I3607J0D01*
G01*
X264096Y110657D01*
Y144652D01*
G75*
G02*
X264436Y145469I1154J0D01*
G01*
X267846Y148880D01*
Y161145D01*
X266404Y158646D01*
Y149652D01*
G75*
G02*
X266064Y148835I-1154J0D01*
G01*
X261404Y144174D01*
Y95902D01*
G75*
G02*
X261064Y95085I-1154J0D01*
G01*
X257654Y91674D01*
G37*
X286404Y158646D02*
Y150130D01*
X291064Y145469D01*
G75*
G02*
X291404Y144652I-814J-817D01*
G01*
Y67630D01*
X297299Y61734D01*
G75*
G02*
X297638Y60917I-814J-817D01*
G01*
Y54916D01*
X299956Y50902D01*
X343013D01*
X345331Y54916D01*
Y55424D01*
X342257Y58498D01*
X306500D01*
G75*
G02*
X305683Y58837I0J1154D01*
G01*
X299436Y65085D01*
G75*
G02*
X299096Y65902I814J817D01*
G01*
Y144174D01*
X294436Y148835D01*
G75*
G02*
X294096Y149652I814J817D01*
G01*
Y158646D01*
X292125Y162060D01*
G75*
G02*
X292119Y162072I973J559D01*
G01*
G75*
G02*
X291642Y163864I3132J1793D01*
G01*
Y165439D01*
G75*
G02*
X292141Y167270I3608J0D01*
G01*
X293840Y170212D01*
X293352Y171056D01*
G75*
G02*
X293342Y171075I1034J594D01*
G01*
G75*
G02*
X293059Y172152I1909J1077D01*
G01*
G75*
G02*
X297441I2191J0D01*
G01*
G75*
G02*
X297158Y171075I-2191J0D01*
G01*
G75*
G02*
X297148Y171056I-1044J575D01*
G01*
X296660Y170212D01*
X297846Y168158D01*
Y176359D01*
G75*
G02*
X296210Y175386I-2596J2506D01*
G01*
G75*
G02*
X296158Y175372I-327J1104D01*
G01*
G75*
G02*
X295367Y175258I-908J3493D01*
G01*
X292031Y174802D01*
X291404Y174174D01*
Y172036D01*
X292148Y170747D01*
G75*
G02*
X292158Y170728I-1034J-594D01*
G01*
G75*
G02*
X290110Y167465I-1908J-1076D01*
G01*
G75*
G02*
X290154Y167152I-1110J-313D01*
G01*
Y150130D01*
X296064Y144219D01*
G75*
G02*
X296404Y143402I-814J-817D01*
G01*
Y110657D01*
X298359Y107270D01*
G75*
G02*
X298858Y105439I-3109J-1832D01*
G01*
Y103864D01*
G75*
G02*
X291642I-3608J0D01*
G01*
Y105439D01*
G75*
G02*
X292141Y107270I3608J0D01*
G01*
X294096Y110657D01*
Y142924D01*
X288186Y148835D01*
G75*
G02*
X287846Y149652I814J817D01*
G01*
Y161145D01*
X286404Y158646D01*
G36*
X286404Y158646D02*
Y150130D01*
X291064Y145469D01*
G75*
G02*
X291404Y144652I-814J-817D01*
G01*
Y67630D01*
X297299Y61734D01*
G75*
G02*
X297638Y60917I-814J-817D01*
G01*
Y54916D01*
X299956Y50902D01*
X343013D01*
X345331Y54916D01*
Y55424D01*
X342257Y58498D01*
X306500D01*
G75*
G02*
X305683Y58837I0J1154D01*
G01*
X299436Y65085D01*
G75*
G02*
X299096Y65902I814J817D01*
G01*
Y144174D01*
X294436Y148835D01*
G75*
G02*
X294096Y149652I814J817D01*
G01*
Y158646D01*
X292125Y162060D01*
G75*
G02*
X292119Y162072I973J559D01*
G01*
G75*
G02*
X291642Y163864I3132J1793D01*
G01*
Y165439D01*
G75*
G02*
X292141Y167270I3608J0D01*
G01*
X293840Y170212D01*
X293352Y171056D01*
G75*
G02*
X293342Y171075I1034J594D01*
G01*
G75*
G02*
X293059Y172152I1909J1077D01*
G01*
G75*
G02*
X297441I2191J0D01*
G01*
G75*
G02*
X297158Y171075I-2191J0D01*
G01*
G75*
G02*
X297148Y171056I-1044J575D01*
G01*
X296660Y170212D01*
X297846Y168158D01*
Y176359D01*
G75*
G02*
X296210Y175386I-2596J2506D01*
G01*
G75*
G02*
X296158Y175372I-327J1104D01*
G01*
G75*
G02*
X295367Y175258I-908J3493D01*
G01*
X292031Y174802D01*
X291404Y174174D01*
Y172036D01*
X292148Y170747D01*
G75*
G02*
X292158Y170728I-1034J-594D01*
G01*
G75*
G02*
X290110Y167465I-1908J-1076D01*
G01*
G75*
G02*
X290154Y167152I-1110J-313D01*
G01*
Y150130D01*
X296064Y144219D01*
G75*
G02*
X296404Y143402I-814J-817D01*
G01*
Y110657D01*
X298359Y107270D01*
G75*
G02*
X298858Y105439I-3109J-1832D01*
G01*
Y103864D01*
G75*
G02*
X291642I-3608J0D01*
G01*
Y105439D01*
G75*
G02*
X292141Y107270I3608J0D01*
G01*
X294096Y110657D01*
Y142924D01*
X288186Y148835D01*
G75*
G02*
X287846Y149652I814J817D01*
G01*
Y161145D01*
X286404Y158646D01*
G37*
X300250Y185902D02*
Y162152D01*
X304096Y158305D01*
Y158646D01*
X302125Y162060D01*
G75*
G02*
X302119Y162072I973J559D01*
G01*
G75*
G02*
X301642Y163864I3132J1793D01*
G01*
Y165439D01*
G75*
G02*
X308858I3608J0D01*
G01*
Y163864D01*
G75*
G02*
X308381Y162072I-3609J0D01*
G01*
G75*
G02*
X308375Y162060I-1144J641D01*
G01*
X306404Y158646D01*
Y150130D01*
X309814Y146719D01*
G75*
G02*
X310154Y145902I-814J-817D01*
G01*
Y113286D01*
X310898Y111997D01*
G75*
G02*
X310908Y111978I-1034J-594D01*
G01*
G75*
G02*
X311191Y110902I-1909J-1077D01*
G01*
X371500D01*
X373703Y108698D01*
G75*
G02*
X378859Y105439I1547J-3259D01*
G01*
Y103864D01*
G75*
G02*
X375250Y100256I-3609J0D01*
G01*
Y98402D01*
X379000Y94652D01*
X404000D01*
X406500Y97152D01*
Y112152D01*
X404000Y114652D01*
X395250D01*
X392750Y117152D01*
Y123402D01*
X389000Y127152D01*
X335250D01*
X330250Y132152D01*
Y185902D01*
X327750Y188402D01*
X302750D01*
X300250Y185902D01*
X396000Y104652D02*
G75*
G02*
X404500I4250J0D01*
G01*
G75*
G02*
X396000I-4250J0D01*
G01*
X381244Y105439D02*
G75*
G02*
X389256I4006J0D01*
G01*
Y103864D01*
G75*
G02*
X381244I-4006J0D01*
G01*
Y105439D01*
X318359Y167270D02*
G75*
G02*
X318858Y165439I-3109J-1832D01*
G01*
Y163864D01*
G75*
G02*
X311642I-3608J0D01*
G01*
Y165439D01*
G75*
G02*
X312141Y167270I3608J0D01*
G01*
X314096Y170657D01*
Y172267D01*
X313352Y173556D01*
G75*
G02*
X313342Y173575I1034J594D01*
G01*
G75*
G02*
X313059Y174652I1909J1077D01*
G01*
G75*
G02*
X317441I2191J0D01*
G01*
G75*
G02*
X317158Y173575I-2191J0D01*
G01*
G75*
G02*
X317148Y173556I-1044J575D01*
G01*
X316404Y172267D01*
Y170657D01*
X318359Y167270D01*
X316000Y179652D02*
G75*
G02*
X324500I4250J0D01*
G01*
G75*
G02*
X316000I-4250J0D01*
G01*
X321642Y165439D02*
G75*
G02*
X328859I3608J0D01*
G01*
Y163864D01*
G75*
G02*
X321642I-3608J0D01*
G01*
Y165439D01*
X301244Y180439D02*
G75*
G02*
X309256I4006J0D01*
G01*
Y178864D01*
G75*
G02*
X301244I-4006J0D01*
G01*
Y180439D01*
X375250Y100256D02*
G36*
X375250Y100256D02*
Y98402D01*
X378750Y94902D01*
X404250D01*
X406250Y96902D01*
Y104652D01*
X404500D01*
G75*
G02*
X396000I-4250J0D01*
G01*
X389256D01*
Y103864D01*
G75*
G02*
X381244I-4006J0D01*
G01*
Y104652D01*
X378859D01*
Y103864D01*
Y103864D01*
G75*
G02*
X375250Y100256I-3609J0D01*
G01*
G37*
X300500Y168549D02*
G36*
X300500Y168549D02*
Y161902D01*
X304096Y158305D01*
Y158646D01*
X302125Y162060D01*
G75*
G02*
X302119Y162072I114J72D01*
G01*
G75*
G02*
X301642Y163864I3131J1793D01*
G01*
Y165439D01*
G75*
G02*
X303421Y168549I3608J0D01*
G01*
X300500D01*
G37*
X306404Y158646D02*
G36*
X306404Y158646D02*
Y150130D01*
X309814Y146719D01*
G75*
G02*
X310154Y145902I-814J-817D01*
G01*
Y113286D01*
X310898Y111997D01*
G75*
G02*
X310908Y111978I-293J-177D01*
G01*
G75*
G02*
X311191Y110902I-1915J-1078D01*
G01*
X371500D01*
X373703Y108698D01*
G75*
G02*
X378859Y105439I1547J-3259D01*
G01*
Y104652D01*
X381244D01*
Y105439D01*
G75*
G02*
X389256I4006J0D01*
G01*
Y104652D01*
X396000D01*
G75*
G02*
X404500I4250J0D01*
G01*
X406250D01*
Y112402D01*
X404000Y114652D01*
X395250D01*
X392750Y117152D01*
Y123402D01*
X389000Y127152D01*
X335250D01*
X330250Y132152D01*
Y168549D01*
X327080D01*
G75*
G02*
X328859Y165439I-1829J-3110D01*
G01*
Y163864D01*
G75*
G02*
X321642I-3608J0D01*
G01*
Y165439D01*
G75*
G02*
X323421Y168549I3608J0D01*
G01*
X317620D01*
X318359Y167270D01*
G75*
G02*
X318858Y165439I-3108J-1831D01*
G01*
Y163864D01*
G75*
G02*
X311642I-3608J0D01*
G01*
Y165439D01*
G75*
G02*
X312141Y167270I3607J0D01*
G01*
X312880Y168549D01*
X307079D01*
G75*
G02*
X308858Y165439I-1829J-3110D01*
G01*
Y163864D01*
G75*
G02*
X308381Y162072I-3608J0D01*
G01*
G75*
G02*
X308375Y162060I-120J60D01*
G01*
X306404Y158646D01*
G37*
X300500Y179652D02*
G36*
X300500Y179652D02*
Y168549D01*
X303421D01*
G75*
G02*
X307079I1829J-3110D01*
G01*
X312880D01*
X314096Y170657D01*
Y172267D01*
X313352Y173556D01*
G75*
G02*
X313342Y173575I293J177D01*
G01*
G75*
G02*
X313059Y174652I1915J1078D01*
G01*
G75*
G02*
X317441I2191J0D01*
G01*
G75*
G02*
X317158Y173575I-2198J2D01*
G01*
G75*
G02*
X317148Y173556I-304J158D01*
G01*
X316404Y172267D01*
Y170657D01*
X317620Y168549D01*
X323421D01*
G75*
G02*
X327080I1829J-3110D01*
G01*
X330250D01*
Y179652D01*
X324500D01*
G75*
G02*
X316000I-4250J0D01*
G01*
X309256D01*
Y178864D01*
G75*
G02*
X301244I-4006J0D01*
G01*
Y179652D01*
X300500D01*
G37*
Y186152D02*
G36*
X300500Y186152D02*
Y179652D01*
X301244D01*
Y180439D01*
G75*
G02*
X309256I4006J0D01*
G01*
Y179652D01*
X316000D01*
G75*
G02*
X324500I4250J0D01*
G01*
X330250D01*
Y185902D01*
X328000Y188152D01*
X302500D01*
X300500Y186152D01*
G37*
D02*
D92*
X27750Y127152D02*
X25750D01*
X30250Y124652D02*
Y122652D01*
Y129652D02*
Y131652D01*
Y137152D02*
X40250Y127152D01*
X50250D01*
X30250Y142152D02*
X32415Y138402D01*
G75*
G03*
X28085I-2165J-1250D01*
G01*
X30250Y142152D01*
G36*
X30250Y142152D02*
X32415Y138402D01*
G75*
G03*
X28085I-2165J-1250D01*
G01*
X30250Y142152D01*
G37*
X28085Y145902D01*
G75*
G03*
X32415I2165J1250D01*
G01*
X30250Y142152D01*
G36*
X30250Y142152D02*
X28085Y145902D01*
G75*
G03*
X32415I2165J1250D01*
G01*
X30250Y142152D01*
G37*
Y147152D02*
Y137152D01*
Y157152D02*
X35250Y152152D01*
X115250D01*
X120250Y147152D01*
X30250Y162152D02*
X32415Y158402D01*
G75*
G03*
X28085I-2165J-1250D01*
G01*
X30250Y162152D01*
G36*
X30250Y162152D02*
X32415Y158402D01*
G75*
G03*
X28085I-2165J-1250D01*
G01*
X30250Y162152D01*
G37*
X28085Y165902D01*
G75*
G03*
X32415I2165J1250D01*
G01*
X30250Y162152D01*
G36*
X30250Y162152D02*
X28085Y165902D01*
G75*
G03*
X32415I2165J1250D01*
G01*
X30250Y162152D01*
G37*
Y167152D02*
Y157152D01*
Y182152D02*
X32415Y178402D01*
G75*
G03*
X28085I-2165J-1250D01*
G01*
X30250Y182152D01*
G36*
X30250Y182152D02*
X32415Y178402D01*
G75*
G03*
X28085I-2165J-1250D01*
G01*
X30250Y182152D01*
G37*
X28085Y185902D01*
G75*
G03*
X32415I2165J1250D01*
G01*
X30250Y182152D01*
G36*
X30250Y182152D02*
X28085Y185902D01*
G75*
G03*
X32415I2165J1250D01*
G01*
X30250Y182152D01*
G37*
Y187152D02*
Y177152D01*
Y197152D02*
X35250Y192152D01*
X115250D01*
X120250Y187152D01*
X30250Y202152D02*
X32415Y198402D01*
G75*
G03*
X28085I-2165J-1250D01*
G01*
X30250Y202152D01*
G36*
X30250Y202152D02*
X32415Y198402D01*
G75*
G03*
X28085I-2165J-1250D01*
G01*
X30250Y202152D01*
G37*
X28085Y205902D01*
G75*
G03*
X32415I2165J1250D01*
G01*
X30250Y202152D01*
G36*
X30250Y202152D02*
X28085Y205902D01*
G75*
G03*
X32415I2165J1250D01*
G01*
X30250Y202152D01*
G37*
Y207152D02*
Y197152D01*
Y217152D02*
X35250Y212152D01*
X115250D01*
X120250Y207152D01*
X30250Y222152D02*
X32415Y218402D01*
G75*
G03*
X28085I-2165J-1250D01*
G01*
X30250Y222152D01*
G36*
X30250Y222152D02*
X32415Y218402D01*
G75*
G03*
X28085I-2165J-1250D01*
G01*
X30250Y222152D01*
G37*
X28085Y225902D01*
G75*
G03*
X32415I2165J1250D01*
G01*
X30250Y222152D01*
G36*
X30250Y222152D02*
X28085Y225902D01*
G75*
G03*
X32415I2165J1250D01*
G01*
X30250Y222152D01*
G37*
Y227152D02*
Y217152D01*
X32750Y127152D02*
X34750D01*
X33785Y133616D02*
X29603Y134737D01*
G75*
G03*
X32665Y137798I647J2415D01*
G01*
X33785Y133616D01*
G36*
X33785Y133616D02*
X29603Y134737D01*
G75*
G03*
X32665Y137798I647J2415D01*
G01*
X33785Y133616D01*
G37*
Y153616D02*
X29603Y154737D01*
G75*
G03*
X32665Y157798I647J2415D01*
G01*
X33785Y153616D01*
G36*
X33785Y153616D02*
X29603Y154737D01*
G75*
G03*
X32665Y157798I647J2415D01*
G01*
X33785Y153616D01*
G37*
Y173616D02*
X29603Y174737D01*
G75*
G03*
X32665Y177798I647J2415D01*
G01*
X33785Y173616D01*
G36*
X33785Y173616D02*
X29603Y174737D01*
G75*
G03*
X32665Y177798I647J2415D01*
G01*
X33785Y173616D01*
G37*
Y193616D02*
X29603Y194737D01*
G75*
G03*
X32665Y197798I647J2415D01*
G01*
X33785Y193616D01*
G36*
X33785Y193616D02*
X29603Y194737D01*
G75*
G03*
X32665Y197798I647J2415D01*
G01*
X33785Y193616D01*
G37*
Y213616D02*
X29603Y214737D01*
G75*
G03*
X32665Y217798I647J2415D01*
G01*
X33785Y213616D01*
G36*
X33785Y213616D02*
X29603Y214737D01*
G75*
G03*
X32665Y217798I647J2415D01*
G01*
X33785Y213616D01*
G37*
X45250Y127152D02*
X49000Y129317D01*
G75*
G03*
Y124987I1250J-2165D01*
G01*
X45250Y127152D01*
G36*
X45250Y127152D02*
X49000Y129317D01*
G75*
G03*
Y124987I1250J-2165D01*
G01*
X45250Y127152D01*
G37*
X50250D02*
X60250D01*
X50250Y142152D02*
X52415Y138402D01*
G75*
G03*
X48085I-2165J-1250D01*
G01*
X50250Y142152D01*
G36*
X50250Y142152D02*
X52415Y138402D01*
G75*
G03*
X48085I-2165J-1250D01*
G01*
X50250Y142152D01*
G37*
X48085Y145902D01*
G75*
G03*
X52415I2165J1250D01*
G01*
X50250Y142152D01*
G36*
X50250Y142152D02*
X48085Y145902D01*
G75*
G03*
X52415I2165J1250D01*
G01*
X50250Y142152D01*
G37*
Y147152D02*
Y137152D01*
Y162152D02*
X52415Y158402D01*
G75*
G03*
X48085I-2165J-1250D01*
G01*
X50250Y162152D01*
G36*
X50250Y162152D02*
X52415Y158402D01*
G75*
G03*
X48085I-2165J-1250D01*
G01*
X50250Y162152D01*
G37*
X48085Y165902D01*
G75*
G03*
X52415I2165J1250D01*
G01*
X50250Y162152D01*
G36*
X50250Y162152D02*
X48085Y165902D01*
G75*
G03*
X52415I2165J1250D01*
G01*
X50250Y162152D01*
G37*
Y167152D02*
X60250D01*
X50250D02*
Y157152D01*
Y182152D02*
X52415Y178402D01*
G75*
G03*
X48085I-2165J-1250D01*
G01*
X50250Y182152D01*
G36*
X50250Y182152D02*
X52415Y178402D01*
G75*
G03*
X48085I-2165J-1250D01*
G01*
X50250Y182152D01*
G37*
X48085Y185902D01*
G75*
G03*
X52415I2165J1250D01*
G01*
X50250Y182152D01*
G36*
X50250Y182152D02*
X48085Y185902D01*
G75*
G03*
X52415I2165J1250D01*
G01*
X50250Y182152D01*
G37*
Y187152D02*
Y177152D01*
Y187152D02*
X60250D01*
X50250Y202152D02*
X52415Y198402D01*
G75*
G03*
X48085I-2165J-1250D01*
G01*
X50250Y202152D01*
G36*
X50250Y202152D02*
X52415Y198402D01*
G75*
G03*
X48085I-2165J-1250D01*
G01*
X50250Y202152D01*
G37*
X48085Y205902D01*
G75*
G03*
X52415I2165J1250D01*
G01*
X50250Y202152D01*
G36*
X50250Y202152D02*
X48085Y205902D01*
G75*
G03*
X52415I2165J1250D01*
G01*
X50250Y202152D01*
G37*
Y207152D02*
X60250D01*
X50250D02*
Y197152D01*
Y222152D02*
X52415Y218402D01*
G75*
G03*
X48085I-2165J-1250D01*
G01*
X50250Y222152D01*
G36*
X50250Y222152D02*
X52415Y218402D01*
G75*
G03*
X48085I-2165J-1250D01*
G01*
X50250Y222152D01*
G37*
X48085Y225902D01*
G75*
G03*
X52415I2165J1250D01*
G01*
X50250Y222152D01*
G36*
X50250Y222152D02*
X48085Y225902D01*
G75*
G03*
X52415I2165J1250D01*
G01*
X50250Y222152D01*
G37*
Y227152D02*
X60250D01*
X50250D02*
Y217152D01*
X55250Y127152D02*
X59000Y129317D01*
G75*
G03*
Y124987I1250J-2165D01*
G01*
X55250Y127152D01*
G36*
X55250Y127152D02*
X59000Y129317D01*
G75*
G03*
Y124987I1250J-2165D01*
G01*
X55250Y127152D01*
G37*
X51500Y124987D01*
G75*
G03*
Y129317I-1250J2165D01*
G01*
X55250Y127152D01*
G36*
X55250Y127152D02*
X51500Y124987D01*
G75*
G03*
Y129317I-1250J2165D01*
G01*
X55250Y127152D01*
G37*
Y147152D02*
X51500Y144987D01*
G75*
G03*
Y149317I-1250J2165D01*
G01*
X55250Y147152D01*
G36*
X55250Y147152D02*
X51500Y144987D01*
G75*
G03*
Y149317I-1250J2165D01*
G01*
X55250Y147152D01*
G37*
X59000Y149317D01*
G75*
G03*
Y144987I1250J-2165D01*
G01*
X55250Y147152D01*
G36*
X55250Y147152D02*
X59000Y149317D01*
G75*
G03*
Y144987I1250J-2165D01*
G01*
X55250Y147152D01*
G37*
Y167152D02*
X59000Y169317D01*
G75*
G03*
Y164987I1250J-2165D01*
G01*
X55250Y167152D01*
G36*
X55250Y167152D02*
X59000Y169317D01*
G75*
G03*
Y164987I1250J-2165D01*
G01*
X55250Y167152D01*
G37*
X51500Y164987D01*
G75*
G03*
Y169317I-1250J2165D01*
G01*
X55250Y167152D01*
G36*
X55250Y167152D02*
X51500Y164987D01*
G75*
G03*
Y169317I-1250J2165D01*
G01*
X55250Y167152D01*
G37*
Y187152D02*
X59000Y189317D01*
G75*
G03*
Y184987I1250J-2165D01*
G01*
X55250Y187152D01*
G36*
X55250Y187152D02*
X59000Y189317D01*
G75*
G03*
Y184987I1250J-2165D01*
G01*
X55250Y187152D01*
G37*
X51500Y184987D01*
G75*
G03*
Y189317I-1250J2165D01*
G01*
X55250Y187152D01*
G36*
X55250Y187152D02*
X51500Y184987D01*
G75*
G03*
Y189317I-1250J2165D01*
G01*
X55250Y187152D01*
G37*
Y207152D02*
X59000Y209317D01*
G75*
G03*
Y204987I1250J-2165D01*
G01*
X55250Y207152D01*
G36*
X55250Y207152D02*
X59000Y209317D01*
G75*
G03*
Y204987I1250J-2165D01*
G01*
X55250Y207152D01*
G37*
X51500Y204987D01*
G75*
G03*
Y209317I-1250J2165D01*
G01*
X55250Y207152D01*
G36*
X55250Y207152D02*
X51500Y204987D01*
G75*
G03*
Y209317I-1250J2165D01*
G01*
X55250Y207152D01*
G37*
Y227152D02*
X59000Y229317D01*
G75*
G03*
Y224987I1250J-2165D01*
G01*
X55250Y227152D01*
G36*
X55250Y227152D02*
X59000Y229317D01*
G75*
G03*
Y224987I1250J-2165D01*
G01*
X55250Y227152D01*
G37*
X51500Y224987D01*
G75*
G03*
Y229317I-1250J2165D01*
G01*
X55250Y227152D01*
G36*
X55250Y227152D02*
X51500Y224987D01*
G75*
G03*
Y229317I-1250J2165D01*
G01*
X55250Y227152D01*
G37*
X60250Y147152D02*
X50250D01*
X60250Y167152D02*
X70250Y157152D01*
X90250D01*
X60250Y207152D02*
X70250Y197152D01*
X90250D01*
X60250Y227152D02*
X70250Y217152D01*
X90250D01*
X63785Y143616D02*
X59603Y144737D01*
G75*
G03*
X62665Y147798I647J2415D01*
G01*
X63785Y143616D01*
G36*
X63785Y143616D02*
X59603Y144737D01*
G75*
G03*
X62665Y147798I647J2415D01*
G01*
X63785Y143616D01*
G37*
Y163616D02*
X59603Y164737D01*
G75*
G03*
X62665Y167798I647J2415D01*
G01*
X63785Y163616D01*
G36*
X63785Y163616D02*
X59603Y164737D01*
G75*
G03*
X62665Y167798I647J2415D01*
G01*
X63785Y163616D01*
G37*
Y183616D02*
X59603Y184737D01*
G75*
G03*
X62665Y187798I647J2415D01*
G01*
X63785Y183616D01*
G36*
X63785Y183616D02*
X59603Y184737D01*
G75*
G03*
X62665Y187798I647J2415D01*
G01*
X63785Y183616D01*
G37*
Y203616D02*
X59603Y204737D01*
G75*
G03*
X62665Y207798I647J2415D01*
G01*
X63785Y203616D01*
G36*
X63785Y203616D02*
X59603Y204737D01*
G75*
G03*
X62665Y207798I647J2415D01*
G01*
X63785Y203616D01*
G37*
Y223616D02*
X59603Y224737D01*
G75*
G03*
X62665Y227798I647J2415D01*
G01*
X63785Y223616D01*
G36*
X63785Y223616D02*
X59603Y224737D01*
G75*
G03*
X62665Y227798I647J2415D01*
G01*
X63785Y223616D01*
G37*
X80250Y187152D02*
X85250Y182152D01*
X121500D01*
X125250Y178402D01*
Y137152D01*
X80250Y207152D02*
X85250Y202152D01*
X124000D01*
X130250Y195902D01*
Y142152D01*
X80250Y227152D02*
X85250Y222152D01*
X135250D01*
X145250Y212152D01*
Y204652D01*
X135250Y194652D01*
Y154652D01*
X83785Y183616D02*
X79603Y184737D01*
G75*
G03*
X82665Y187798I647J2415D01*
G01*
X83785Y183616D01*
G36*
X83785Y183616D02*
X79603Y184737D01*
G75*
G03*
X82665Y187798I647J2415D01*
G01*
X83785Y183616D01*
G37*
Y203616D02*
X79603Y204737D01*
G75*
G03*
X82665Y207798I647J2415D01*
G01*
X83785Y203616D01*
G36*
X83785Y203616D02*
X79603Y204737D01*
G75*
G03*
X82665Y207798I647J2415D01*
G01*
X83785Y203616D01*
G37*
Y223616D02*
X79603Y224737D01*
G75*
G03*
X82665Y227798I647J2415D01*
G01*
X83785Y223616D01*
G36*
X83785Y223616D02*
X79603Y224737D01*
G75*
G03*
X82665Y227798I647J2415D01*
G01*
X83785Y223616D01*
G37*
X85250Y137152D02*
X89000Y139317D01*
G75*
G03*
Y134987I1250J-2165D01*
G01*
X85250Y137152D01*
G36*
X85250Y137152D02*
X89000Y139317D01*
G75*
G03*
Y134987I1250J-2165D01*
G01*
X85250Y137152D01*
G37*
Y157152D02*
X89000Y159317D01*
G75*
G03*
Y154987I1250J-2165D01*
G01*
X85250Y157152D01*
G36*
X85250Y157152D02*
X89000Y159317D01*
G75*
G03*
Y154987I1250J-2165D01*
G01*
X85250Y157152D01*
G37*
Y177152D02*
X89000Y179317D01*
G75*
G03*
Y174987I1250J-2165D01*
G01*
X85250Y177152D01*
G36*
X85250Y177152D02*
X89000Y179317D01*
G75*
G03*
Y174987I1250J-2165D01*
G01*
X85250Y177152D01*
G37*
Y197152D02*
X89000Y199317D01*
G75*
G03*
Y194987I1250J-2165D01*
G01*
X85250Y197152D01*
G36*
X85250Y197152D02*
X89000Y199317D01*
G75*
G03*
Y194987I1250J-2165D01*
G01*
X85250Y197152D01*
G37*
Y217152D02*
X89000Y219317D01*
G75*
G03*
Y214987I1250J-2165D01*
G01*
X85250Y217152D01*
G36*
X85250Y217152D02*
X89000Y219317D01*
G75*
G03*
Y214987I1250J-2165D01*
G01*
X85250Y217152D01*
G37*
X90250Y137152D02*
X70250D01*
X60250Y147152D01*
X90250Y142152D02*
X92415Y138402D01*
G75*
G03*
X88085I-2165J-1250D01*
G01*
X90250Y142152D01*
G36*
X90250Y142152D02*
X92415Y138402D01*
G75*
G03*
X88085I-2165J-1250D01*
G01*
X90250Y142152D01*
G37*
X88085Y145902D01*
G75*
G03*
X92415I2165J1250D01*
G01*
X90250Y142152D01*
G36*
X90250Y142152D02*
X88085Y145902D01*
G75*
G03*
X92415I2165J1250D01*
G01*
X90250Y142152D01*
G37*
Y147152D02*
Y137152D01*
Y162152D02*
X92415Y158402D01*
G75*
G03*
X88085I-2165J-1250D01*
G01*
X90250Y162152D01*
G36*
X90250Y162152D02*
X92415Y158402D01*
G75*
G03*
X88085I-2165J-1250D01*
G01*
X90250Y162152D01*
G37*
X88085Y165902D01*
G75*
G03*
X92415I2165J1250D01*
G01*
X90250Y162152D01*
G36*
X90250Y162152D02*
X88085Y165902D01*
G75*
G03*
X92415I2165J1250D01*
G01*
X90250Y162152D01*
G37*
Y167152D02*
Y157152D01*
Y177152D02*
X70250D01*
X60250Y187152D01*
X110250Y142152D02*
X112415Y138402D01*
G75*
G03*
X108085I-2165J-1250D01*
G01*
X110250Y142152D01*
G36*
X110250Y142152D02*
X112415Y138402D01*
G75*
G03*
X108085I-2165J-1250D01*
G01*
X110250Y142152D01*
G37*
X108085Y145902D01*
G75*
G03*
X112415I2165J1250D01*
G01*
X110250Y142152D01*
G36*
X110250Y142152D02*
X108085Y145902D01*
G75*
G03*
X112415I2165J1250D01*
G01*
X110250Y142152D01*
G37*
Y147152D02*
Y137152D01*
Y147152D02*
X120250D01*
X110250Y157152D02*
Y167152D01*
Y162152D02*
X108085Y165902D01*
G75*
G03*
X112415I2165J1250D01*
G01*
X110250Y162152D01*
G36*
X110250Y162152D02*
X108085Y165902D01*
G75*
G03*
X112415I2165J1250D01*
G01*
X110250Y162152D01*
G37*
X112415Y158402D01*
G75*
G03*
X108085I-2165J-1250D01*
G01*
X110250Y162152D01*
G36*
X110250Y162152D02*
X112415Y158402D01*
G75*
G03*
X108085I-2165J-1250D01*
G01*
X110250Y162152D01*
G37*
Y167152D02*
X120250D01*
X110250Y187152D02*
X120250D01*
X110250Y207152D02*
X120250D01*
X110250Y227152D02*
X120250D01*
X115250Y147152D02*
X119000Y149317D01*
G75*
G03*
Y144987I1250J-2165D01*
G01*
X115250Y147152D01*
G36*
X115250Y147152D02*
X119000Y149317D01*
G75*
G03*
Y144987I1250J-2165D01*
G01*
X115250Y147152D01*
G37*
X111500Y144987D01*
G75*
G03*
Y149317I-1250J2165D01*
G01*
X115250Y147152D01*
G36*
X115250Y147152D02*
X111500Y144987D01*
G75*
G03*
Y149317I-1250J2165D01*
G01*
X115250Y147152D01*
G37*
Y167152D02*
X119000Y169317D01*
G75*
G03*
Y164987I1250J-2165D01*
G01*
X115250Y167152D01*
G36*
X115250Y167152D02*
X119000Y169317D01*
G75*
G03*
Y164987I1250J-2165D01*
G01*
X115250Y167152D01*
G37*
X111500Y164987D01*
G75*
G03*
Y169317I-1250J2165D01*
G01*
X115250Y167152D01*
G36*
X115250Y167152D02*
X111500Y164987D01*
G75*
G03*
Y169317I-1250J2165D01*
G01*
X115250Y167152D01*
G37*
Y187152D02*
X119000Y189317D01*
G75*
G03*
Y184987I1250J-2165D01*
G01*
X115250Y187152D01*
G36*
X115250Y187152D02*
X119000Y189317D01*
G75*
G03*
Y184987I1250J-2165D01*
G01*
X115250Y187152D01*
G37*
X111500Y184987D01*
G75*
G03*
Y189317I-1250J2165D01*
G01*
X115250Y187152D01*
G36*
X115250Y187152D02*
X111500Y184987D01*
G75*
G03*
Y189317I-1250J2165D01*
G01*
X115250Y187152D01*
G37*
Y207152D02*
X119000Y209317D01*
G75*
G03*
Y204987I1250J-2165D01*
G01*
X115250Y207152D01*
G36*
X115250Y207152D02*
X119000Y209317D01*
G75*
G03*
Y204987I1250J-2165D01*
G01*
X115250Y207152D01*
G37*
X111500Y204987D01*
G75*
G03*
Y209317I-1250J2165D01*
G01*
X115250Y207152D01*
G36*
X115250Y207152D02*
X111500Y204987D01*
G75*
G03*
Y209317I-1250J2165D01*
G01*
X115250Y207152D01*
G37*
Y227152D02*
X119000Y229317D01*
G75*
G03*
Y224987I1250J-2165D01*
G01*
X115250Y227152D01*
G36*
X115250Y227152D02*
X119000Y229317D01*
G75*
G03*
Y224987I1250J-2165D01*
G01*
X115250Y227152D01*
G37*
X111500Y224987D01*
G75*
G03*
Y229317I-1250J2165D01*
G01*
X115250Y227152D01*
G36*
X115250Y227152D02*
X111500Y224987D01*
G75*
G03*
Y229317I-1250J2165D01*
G01*
X115250Y227152D01*
G37*
X116715Y150687D02*
X120897Y149566D01*
G75*
G03*
X117835Y146505I-647J-2415D01*
G01*
X116715Y150687D01*
G36*
X116715Y150687D02*
X120897Y149566D01*
G75*
G03*
X117835Y146505I-647J-2415D01*
G01*
X116715Y150687D01*
G37*
Y170687D02*
X120897Y169566D01*
G75*
G03*
X117835Y166505I-647J-2415D01*
G01*
X116715Y170687D01*
G36*
X116715Y170687D02*
X120897Y169566D01*
G75*
G03*
X117835Y166505I-647J-2415D01*
G01*
X116715Y170687D01*
G37*
Y190687D02*
X120897Y189566D01*
G75*
G03*
X117835Y186505I-647J-2415D01*
G01*
X116715Y190687D01*
G36*
X116715Y190687D02*
X120897Y189566D01*
G75*
G03*
X117835Y186505I-647J-2415D01*
G01*
X116715Y190687D01*
G37*
Y210687D02*
X120897Y209566D01*
G75*
G03*
X117835Y206505I-647J-2415D01*
G01*
X116715Y210687D01*
G36*
X116715Y210687D02*
X120897Y209566D01*
G75*
G03*
X117835Y206505I-647J-2415D01*
G01*
X116715Y210687D01*
G37*
X120250Y167152D02*
X115250Y172152D01*
X35250D01*
X30250Y177152D01*
X120250Y232152D02*
X122415Y228402D01*
G75*
G03*
X118085I-2165J-1250D01*
G01*
X120250Y232152D01*
G36*
X120250Y232152D02*
X122415Y228402D01*
G75*
G03*
X118085I-2165J-1250D01*
G01*
X120250Y232152D01*
G37*
Y234652D02*
X118085Y238402D01*
G75*
G03*
X122415I2165J1250D01*
G01*
X120250Y234652D01*
G36*
X120250Y234652D02*
X118085Y238402D01*
G75*
G03*
X122415I2165J1250D01*
G01*
X120250Y234652D01*
G37*
Y239652D02*
Y227152D01*
X125250Y138829D02*
X125976Y137571D01*
G75*
G03*
X124524I-726J-419D01*
G01*
X125250Y138829D01*
G36*
X125250Y138829D02*
X125976Y137571D01*
G75*
G03*
X124524I-726J-419D01*
G01*
X125250Y138829D01*
G37*
X127750Y139652D02*
Y187152D01*
Y141329D02*
X128476Y140071D01*
G75*
G03*
X127024I-726J-419D01*
G01*
X127750Y141329D01*
G36*
X127750Y141329D02*
X128476Y140071D01*
G75*
G03*
X127024I-726J-419D01*
G01*
X127750Y141329D01*
G37*
Y185474D02*
X127024Y186732D01*
G75*
G03*
X128476I726J419D01*
G01*
X127750Y185474D01*
G36*
X127750Y185474D02*
X127024Y186732D01*
G75*
G03*
X128476I726J419D01*
G01*
X127750Y185474D01*
G37*
X130250Y143829D02*
X130976Y142571D01*
G75*
G03*
X129524I-726J-419D01*
G01*
X130250Y143829D01*
G36*
X130250Y143829D02*
X130976Y142571D01*
G75*
G03*
X129524I-726J-419D01*
G01*
X130250Y143829D01*
G37*
X132750Y152152D02*
Y199652D01*
X140250Y207152D01*
X132750Y153829D02*
X133476Y152571D01*
G75*
G03*
X132024I-726J-419D01*
G01*
X132750Y153829D01*
G36*
X132750Y153829D02*
X133476Y152571D01*
G75*
G03*
X132024I-726J-419D01*
G01*
X132750Y153829D01*
G37*
X135250Y156329D02*
X135976Y155071D01*
G75*
G03*
X134524I-726J-419D01*
G01*
X135250Y156329D01*
G36*
X135250Y156329D02*
X135976Y155071D01*
G75*
G03*
X134524I-726J-419D01*
G01*
X135250Y156329D01*
G37*
X136715Y203616D02*
X137835Y207798D01*
G75*
G03*
X140897Y204737I2415J-647D01*
G01*
X136715Y203616D01*
G36*
X136715Y203616D02*
X137835Y207798D01*
G75*
G03*
X140897Y204737I2415J-647D01*
G01*
X136715Y203616D01*
G37*
X137750Y239652D02*
X135750D01*
X140250Y237152D02*
Y235152D01*
Y242152D02*
Y244152D01*
X142750Y239652D02*
X144750D01*
X152994Y164652D02*
X150993D01*
X152994Y239652D02*
X150993D01*
X155250Y161608D02*
Y159608D01*
Y167695D02*
Y169695D01*
Y236608D02*
Y234608D01*
Y242695D02*
Y244695D01*
X157506Y239652D02*
X159504D01*
X302994Y179652D02*
X300993D01*
X305250Y176608D02*
Y174608D01*
Y182695D02*
Y184695D01*
X307506Y179652D02*
X309504D01*
X317750D02*
X315750D01*
X317750Y199652D02*
X315750D01*
X320250Y177152D02*
Y175152D01*
Y182152D02*
Y184152D01*
Y197152D02*
Y195152D01*
Y202152D02*
Y204152D01*
X322750Y179652D02*
X324750D01*
X322750Y199652D02*
X324750D01*
X332750D02*
X330750D01*
X335250Y197152D02*
Y195152D01*
Y202152D02*
Y204152D01*
X337750Y199652D02*
X339750D01*
X382994Y104652D02*
X380993D01*
X382994Y164652D02*
X380993D01*
X385250Y101608D02*
Y99608D01*
Y107695D02*
Y109695D01*
Y161608D02*
Y159608D01*
Y167695D02*
Y169695D01*
X387506Y104652D02*
X389504D01*
X387506Y164652D02*
X389504D01*
X397750Y104652D02*
X395750D01*
X397750Y124652D02*
X395750D01*
X400250Y102152D02*
Y100152D01*
Y107152D02*
Y109152D01*
Y122152D02*
Y120152D01*
Y127152D02*
Y129152D01*
X402750Y104652D02*
X404750D01*
X402750Y124652D02*
X404750D01*
D02*
D93*
X155250Y104652D02*
Y155902D01*
X159000Y159652D01*
Y169652D01*
X155250Y173402D01*
Y179652D01*
Y110348D02*
X153124Y106666D01*
X157376D01*
X155250Y110348D01*
G36*
X155250Y110348D02*
X153124Y106666D01*
X157376D01*
X155250Y110348D01*
G37*
Y173954D02*
X157376Y177637D01*
X153124D01*
X155250Y173954D01*
G36*
X155250Y173954D02*
X157376Y177637D01*
X153124D01*
X155250Y173954D01*
G37*
X156485Y54607D02*
X153439Y49333D01*
X159530D01*
X156485Y54607D01*
G36*
X156485Y54607D02*
X153439Y49333D01*
X159530D01*
X156485Y54607D01*
G37*
X160250Y108827D02*
X159352Y110383D01*
G75*
G03*
X161148I898J519D01*
G01*
X160250Y108827D01*
G36*
X160250Y108827D02*
X159352Y110383D01*
G75*
G03*
X161148I898J519D01*
G01*
X160250Y108827D01*
G37*
Y110902D02*
Y62152D01*
X156485Y58386D01*
Y31616D01*
X162750Y95077D02*
X161852Y96633D01*
G75*
G03*
X163648I898J519D01*
G01*
X162750Y95077D01*
G36*
X162750Y95077D02*
X161852Y96633D01*
G75*
G03*
X163648I898J519D01*
G01*
X162750Y95077D01*
G37*
Y97152D02*
Y62136D01*
X166485Y58402D01*
Y31616D01*
X165250Y98954D02*
X167376Y102637D01*
X163124D01*
X165250Y98954D01*
G36*
X165250Y98954D02*
X167376Y102637D01*
X163124D01*
X165250Y98954D01*
G37*
Y104652D02*
Y63402D01*
X167750Y60902D01*
X173985D01*
X176485Y58402D01*
Y31616D01*
X165250Y104652D02*
Y144652D01*
X161500Y148402D01*
Y169652D01*
X165250Y173402D01*
Y179652D01*
Y110348D02*
X163124Y106666D01*
X167376D01*
X165250Y110348D01*
G36*
X165250Y110348D02*
X163124Y106666D01*
X167376D01*
X165250Y110348D01*
G37*
Y158954D02*
X167376Y162637D01*
X163124D01*
X165250Y158954D01*
G36*
X165250Y158954D02*
X167376Y162637D01*
X163124D01*
X165250Y158954D01*
G37*
Y164652D02*
Y149652D01*
X170250Y144652D01*
Y68402D01*
X175250Y63402D01*
X181485D01*
X186485Y58402D01*
Y31616D01*
X165250Y164652D02*
Y170902D01*
X170250Y175902D01*
Y225902D01*
X165250Y230902D01*
Y239652D01*
Y170348D02*
X163124Y166666D01*
X167376D01*
X165250Y170348D01*
G36*
X165250Y170348D02*
X163124Y166666D01*
X167376D01*
X165250Y170348D01*
G37*
Y173954D02*
X167376Y177637D01*
X163124D01*
X165250Y173954D01*
G36*
X165250Y173954D02*
X167376Y177637D01*
X163124D01*
X165250Y173954D01*
G37*
Y233954D02*
X167376Y237637D01*
X163124D01*
X165250Y233954D01*
G36*
X165250Y233954D02*
X167376Y237637D01*
X163124D01*
X165250Y233954D01*
G37*
X166485Y54607D02*
X163439Y49333D01*
X169530D01*
X166485Y54607D01*
G36*
X166485Y54607D02*
X163439Y49333D01*
X169530D01*
X166485Y54607D01*
G37*
X167750Y66726D02*
X168648Y65170D01*
G75*
G03*
X166852I-898J-519D01*
G01*
X167750Y66726D01*
G36*
X167750Y66726D02*
X168648Y65170D01*
G75*
G03*
X166852I-898J-519D01*
G01*
X167750Y66726D01*
G37*
Y92577D02*
X166852Y94133D01*
G75*
G03*
X168648I898J519D01*
G01*
X167750Y92577D01*
G36*
X167750Y92577D02*
X166852Y94133D01*
G75*
G03*
X168648I898J519D01*
G01*
X167750Y92577D01*
G37*
Y94652D02*
Y64652D01*
X175250Y71726D02*
X176148Y70170D01*
G75*
G03*
X174352I-898J-519D01*
G01*
X175250Y71726D01*
G36*
X175250Y71726D02*
X176148Y70170D01*
G75*
G03*
X174352I-898J-519D01*
G01*
X175250Y71726D01*
G37*
Y98954D02*
X177376Y102637D01*
X173124D01*
X175250Y98954D01*
G36*
X175250Y98954D02*
X177376Y102637D01*
X173124D01*
X175250Y98954D01*
G37*
Y104652D02*
Y69652D01*
Y104652D02*
Y144652D01*
X170250Y149652D01*
Y168402D01*
X175250Y173402D01*
Y179652D01*
Y110348D02*
X173124Y106666D01*
X177376D01*
X175250Y110348D01*
G36*
X175250Y110348D02*
X173124Y106666D01*
X177376D01*
X175250Y110348D01*
G37*
Y158954D02*
X177376Y162637D01*
X173124D01*
X175250Y158954D01*
G36*
X175250Y158954D02*
X177376Y162637D01*
X173124D01*
X175250Y158954D01*
G37*
Y164652D02*
Y148402D01*
X181500Y142152D01*
Y84652D01*
X191500Y74652D01*
Y64652D01*
X175250Y164652D02*
Y170902D01*
X180250Y175902D01*
Y227152D01*
X175250Y232152D01*
Y239652D01*
Y170348D02*
X173124Y166666D01*
X177376D01*
X175250Y170348D01*
G36*
X175250Y170348D02*
X173124Y166666D01*
X177376D01*
X175250Y170348D01*
G37*
Y173954D02*
X177376Y177637D01*
X173124D01*
X175250Y173954D01*
G36*
X175250Y173954D02*
X177376Y177637D01*
X173124D01*
X175250Y173954D01*
G37*
Y233954D02*
X177376Y237637D01*
X173124D01*
X175250Y233954D01*
G36*
X175250Y233954D02*
X177376Y237637D01*
X173124D01*
X175250Y233954D01*
G37*
X176485Y54607D02*
X173439Y49333D01*
X179530D01*
X176485Y54607D01*
G36*
X176485Y54607D02*
X173439Y49333D01*
X179530D01*
X176485Y54607D01*
G37*
X179000Y90077D02*
X178102Y91633D01*
G75*
G03*
X179898I898J519D01*
G01*
X179000Y90077D01*
G36*
X179000Y90077D02*
X178102Y91633D01*
G75*
G03*
X179898I898J519D01*
G01*
X179000Y90077D01*
G37*
Y92152D02*
Y82152D01*
X186500Y74652D01*
Y64652D01*
X185250Y158954D02*
X187376Y162637D01*
X183124D01*
X185250Y158954D01*
G36*
X185250Y158954D02*
X187376Y162637D01*
X183124D01*
X185250Y158954D01*
G37*
Y164652D02*
Y148402D01*
X190250Y143402D01*
Y80902D01*
X196485Y74667D01*
Y31616D01*
X185250Y164652D02*
Y170902D01*
X190250Y175902D01*
Y227152D01*
X185250Y232152D01*
Y239652D01*
Y170348D02*
X183124Y166666D01*
X187376D01*
X185250Y170348D01*
G36*
X185250Y170348D02*
X183124Y166666D01*
X187376D01*
X185250Y170348D01*
G37*
Y173954D02*
X187376Y177637D01*
X183124D01*
X185250Y173954D01*
G36*
X185250Y173954D02*
X187376Y177637D01*
X183124D01*
X185250Y173954D01*
G37*
Y179652D02*
Y173402D01*
X180250Y168402D01*
Y148402D01*
X184000Y144652D01*
Y104652D01*
X185250D01*
Y233954D02*
X187376Y237637D01*
X183124D01*
X185250Y233954D01*
G36*
X185250Y233954D02*
X187376Y237637D01*
X183124D01*
X185250Y233954D01*
G37*
X186485Y54607D02*
X183439Y49333D01*
X189530D01*
X186485Y54607D01*
G36*
X186485Y54607D02*
X183439Y49333D01*
X189530D01*
X186485Y54607D01*
G37*
X186500Y66726D02*
X187398Y65170D01*
G75*
G03*
X185602I-898J-519D01*
G01*
X186500Y66726D01*
G36*
X186500Y66726D02*
X187398Y65170D01*
G75*
G03*
X185602I-898J-519D01*
G01*
X186500Y66726D01*
G37*
X191500D02*
X192398Y65170D01*
G75*
G03*
X190602I-898J-519D01*
G01*
X191500Y66726D01*
G36*
X191500Y66726D02*
X192398Y65170D01*
G75*
G03*
X190602I-898J-519D01*
G01*
X191500Y66726D01*
G37*
X195250Y104652D02*
Y144652D01*
X191500Y148402D01*
Y169652D01*
X195250Y173402D01*
Y179652D01*
Y110348D02*
X193124Y106666D01*
X197376D01*
X195250Y110348D01*
G36*
X195250Y110348D02*
X193124Y106666D01*
X197376D01*
X195250Y110348D01*
G37*
Y158954D02*
X197376Y162637D01*
X193124D01*
X195250Y158954D01*
G36*
X195250Y158954D02*
X197376Y162637D01*
X193124D01*
X195250Y158954D01*
G37*
Y164652D02*
Y148402D01*
X200250Y143402D01*
Y97152D01*
X195250Y164652D02*
Y170902D01*
X199000Y174652D01*
Y227152D01*
X195250Y230902D01*
Y239652D01*
Y170348D02*
X193124Y166666D01*
X197376D01*
X195250Y170348D01*
G36*
X195250Y170348D02*
X193124Y166666D01*
X197376D01*
X195250Y170348D01*
G37*
Y173954D02*
X197376Y177637D01*
X193124D01*
X195250Y173954D01*
G36*
X195250Y173954D02*
X197376Y177637D01*
X193124D01*
X195250Y173954D01*
G37*
Y233954D02*
X197376Y237637D01*
X193124D01*
X195250Y233954D01*
G36*
X195250Y233954D02*
X197376Y237637D01*
X193124D01*
X195250Y233954D01*
G37*
X196485Y54607D02*
X193439Y49333D01*
X199530D01*
X196485Y54607D01*
G36*
X196485Y54607D02*
X193439Y49333D01*
X199530D01*
X196485Y54607D01*
G37*
X200250Y99226D02*
X201148Y97670D01*
G75*
G03*
X199352I-898J-519D01*
G01*
X200250Y99226D01*
G36*
X200250Y99226D02*
X201148Y97670D01*
G75*
G03*
X199352I-898J-519D01*
G01*
X200250Y99226D01*
G37*
Y167577D02*
X199352Y169133D01*
G75*
G03*
X201148I898J519D01*
G01*
X200250Y167577D01*
G36*
X200250Y167577D02*
X199352Y169133D01*
G75*
G03*
X201148I898J519D01*
G01*
X200250Y167577D01*
G37*
X205250Y104652D02*
Y144652D01*
X200250Y149652D01*
Y169652D01*
X205250Y110348D02*
X203124Y106666D01*
X207376D01*
X205250Y110348D01*
G36*
X205250Y110348D02*
X203124Y106666D01*
X207376D01*
X205250Y110348D01*
G37*
Y158954D02*
X207376Y162637D01*
X203124D01*
X205250Y158954D01*
G36*
X205250Y158954D02*
X207376Y162637D01*
X203124D01*
X205250Y158954D01*
G37*
Y164652D02*
Y150902D01*
X209000Y147152D01*
Y78402D01*
X212750Y74652D01*
Y64652D01*
X205250Y164652D02*
Y170902D01*
X210250Y175902D01*
Y227152D01*
X205250Y232152D01*
Y239652D01*
Y170348D02*
X203124Y166666D01*
X207376D01*
X205250Y170348D01*
G36*
X205250Y170348D02*
X203124Y166666D01*
X207376D01*
X205250Y170348D01*
G37*
Y233954D02*
X207376Y237637D01*
X203124D01*
X205250Y233954D01*
G36*
X205250Y233954D02*
X207376Y237637D01*
X203124D01*
X205250Y233954D01*
G37*
X206485Y31616D02*
Y72136D01*
X206500Y72152D01*
X206485Y54607D02*
X203439Y49333D01*
X209530D01*
X206485Y54607D01*
G36*
X206485Y54607D02*
X203439Y49333D01*
X209530D01*
X206485Y54607D01*
G37*
Y70077D02*
X205598Y71640D01*
G75*
G03*
X207394Y71626I902J512D01*
G01*
X206485Y70077D01*
G36*
X206485Y70077D02*
X205598Y71640D01*
G75*
G03*
X207394Y71626I902J512D01*
G01*
X206485Y70077D01*
G37*
X212750Y66726D02*
X213648Y65170D01*
G75*
G03*
X211852I-898J-519D01*
G01*
X212750Y66726D01*
G36*
X212750Y66726D02*
X213648Y65170D01*
G75*
G03*
X211852I-898J-519D01*
G01*
X212750Y66726D01*
G37*
X215250Y104652D02*
Y134652D01*
X221500Y140902D01*
Y229652D01*
X215250Y110348D02*
X213124Y106666D01*
X217376D01*
X215250Y110348D01*
G36*
X215250Y110348D02*
X213124Y106666D01*
X217376D01*
X215250Y110348D01*
G37*
Y158954D02*
X217376Y162637D01*
X213124D01*
X215250Y158954D01*
G36*
X215250Y158954D02*
X217376Y162637D01*
X213124D01*
X215250Y158954D01*
G37*
Y164652D02*
Y148402D01*
X211500Y144652D01*
Y90902D01*
X219000Y83402D01*
Y59652D01*
X216485Y57136D01*
Y31616D01*
X215250Y164652D02*
Y172152D01*
X219000Y175902D01*
Y227152D01*
X215250Y230902D01*
Y239652D01*
Y170348D02*
X213124Y166666D01*
X217376D01*
X215250Y170348D01*
G36*
X215250Y170348D02*
X213124Y166666D01*
X217376D01*
X215250Y170348D01*
G37*
Y233954D02*
X217376Y237637D01*
X213124D01*
X215250Y233954D01*
G36*
X215250Y233954D02*
X217376Y237637D01*
X213124D01*
X215250Y233954D01*
G37*
X216485Y54607D02*
X213439Y49333D01*
X219530D01*
X216485Y54607D01*
G36*
X216485Y54607D02*
X213439Y49333D01*
X219530D01*
X216485Y54607D01*
G37*
X221500Y61726D02*
X222398Y60170D01*
G75*
G03*
X220602I-898J-519D01*
G01*
X221500Y61726D01*
G36*
X221500Y61726D02*
X222398Y60170D01*
G75*
G03*
X220602I-898J-519D01*
G01*
X221500Y61726D01*
G37*
Y227577D02*
X220602Y229133D01*
G75*
G03*
X222398I898J519D01*
G01*
X221500Y227577D01*
G36*
X221500Y227577D02*
X220602Y229133D01*
G75*
G03*
X222398I898J519D01*
G01*
X221500Y227577D01*
G37*
X224000Y76726D02*
X224898Y75170D01*
G75*
G03*
X223102I-898J-519D01*
G01*
X224000Y76726D01*
G36*
X224000Y76726D02*
X224898Y75170D01*
G75*
G03*
X223102I-898J-519D01*
G01*
X224000Y76726D01*
G37*
X225250Y98954D02*
X227376Y102637D01*
X223124D01*
X225250Y98954D01*
G36*
X225250Y98954D02*
X227376Y102637D01*
X223124D01*
X225250Y98954D01*
G37*
Y104652D02*
Y93402D01*
X229000Y89652D01*
Y64636D01*
X236485Y57152D01*
Y31616D01*
X225250Y158954D02*
X227376Y162637D01*
X223124D01*
X225250Y158954D01*
G36*
X225250Y158954D02*
X227376Y162637D01*
X223124D01*
X225250Y158954D01*
G37*
Y164652D02*
Y140902D01*
X219000Y134652D01*
Y92152D01*
X221500Y89652D01*
Y59652D01*
X225250Y164652D02*
Y170902D01*
X230250Y175902D01*
Y227152D01*
X225250Y232152D01*
Y239652D01*
Y170348D02*
X223124Y166666D01*
X227376D01*
X225250Y170348D01*
G36*
X225250Y170348D02*
X223124Y166666D01*
X227376D01*
X225250Y170348D01*
G37*
Y233954D02*
X227376Y237637D01*
X223124D01*
X225250Y233954D01*
G36*
X225250Y233954D02*
X227376Y237637D01*
X223124D01*
X225250Y233954D01*
G37*
X226485Y54607D02*
X223439Y49333D01*
X229530D01*
X226485Y54607D01*
G36*
X226485Y54607D02*
X223439Y49333D01*
X229530D01*
X226485Y54607D01*
G37*
Y86327D02*
X225586Y87883D01*
G75*
G03*
X227383I898J519D01*
G01*
X226485Y86327D01*
G36*
X226485Y86327D02*
X225586Y87883D01*
G75*
G03*
X227383I898J519D01*
G01*
X226485Y86327D01*
G37*
Y88402D02*
Y31616D01*
X229000Y97976D02*
X229898Y96420D01*
G75*
G03*
X228102I-898J-519D01*
G01*
X229000Y97976D01*
G36*
X229000Y97976D02*
X229898Y96420D01*
G75*
G03*
X228102I-898J-519D01*
G01*
X229000Y97976D01*
G37*
X231500Y72976D02*
X232398Y71420D01*
G75*
G03*
X230602I-898J-519D01*
G01*
X231500Y72976D01*
G36*
X231500Y72976D02*
X232398Y71420D01*
G75*
G03*
X230602I-898J-519D01*
G01*
X231500Y72976D01*
G37*
Y169652D02*
X235250Y173402D01*
Y179652D01*
X232967Y171119D02*
X232502Y169383D01*
G75*
G03*
X231231Y170654I-1002J269D01*
G01*
X232967Y171119D01*
G36*
X232967Y171119D02*
X232502Y169383D01*
G75*
G03*
X231231Y170654I-1002J269D01*
G01*
X232967Y171119D01*
G37*
X235250Y64652D02*
Y104652D01*
Y66726D02*
X236148Y65170D01*
G75*
G03*
X234352I-898J-519D01*
G01*
X235250Y66726D01*
G36*
X235250Y66726D02*
X236148Y65170D01*
G75*
G03*
X234352I-898J-519D01*
G01*
X235250Y66726D01*
G37*
Y98954D02*
X237376Y102637D01*
X233124D01*
X235250Y98954D01*
G36*
X235250Y98954D02*
X237376Y102637D01*
X233124D01*
X235250Y98954D01*
G37*
Y158954D02*
X237376Y162637D01*
X233124D01*
X235250Y158954D01*
G36*
X235250Y158954D02*
X237376Y162637D01*
X233124D01*
X235250Y158954D01*
G37*
Y164652D02*
Y147152D01*
X221500Y133402D01*
Y93402D01*
X224000Y90902D01*
Y74652D01*
X235250Y164652D02*
Y170902D01*
X240250Y175902D01*
Y227152D01*
X235250Y232152D01*
Y239652D01*
Y170348D02*
X233124Y166666D01*
X237376D01*
X235250Y170348D01*
G36*
X235250Y170348D02*
X233124Y166666D01*
X237376D01*
X235250Y170348D01*
G37*
Y173954D02*
X237376Y177637D01*
X233124D01*
X235250Y173954D01*
G36*
X235250Y173954D02*
X237376Y177637D01*
X233124D01*
X235250Y173954D01*
G37*
Y233954D02*
X237376Y237637D01*
X233124D01*
X235250Y233954D01*
G36*
X235250Y233954D02*
X237376Y237637D01*
X233124D01*
X235250Y233954D01*
G37*
X236485Y54607D02*
X233439Y49333D01*
X239530D01*
X236485Y54607D01*
G36*
X236485Y54607D02*
X233439Y49333D01*
X239530D01*
X236485Y54607D01*
G37*
X239000Y62152D02*
Y93402D01*
Y64226D02*
X239898Y62670D01*
G75*
G03*
X238102I-898J-519D01*
G01*
X239000Y64226D01*
G36*
X239000Y64226D02*
X239898Y62670D01*
G75*
G03*
X238102I-898J-519D01*
G01*
X239000Y64226D01*
G37*
Y91327D02*
X238102Y92883D01*
G75*
G03*
X239898I898J519D01*
G01*
X239000Y91327D01*
G36*
X239000Y91327D02*
X238102Y92883D01*
G75*
G03*
X239898I898J519D01*
G01*
X239000Y91327D01*
G37*
X245250Y95902D02*
Y104652D01*
Y97976D02*
X246148Y96420D01*
G75*
G03*
X244352I-898J-519D01*
G01*
X245250Y97976D01*
G36*
X245250Y97976D02*
X246148Y96420D01*
G75*
G03*
X244352I-898J-519D01*
G01*
X245250Y97976D01*
G37*
Y98954D02*
X247376Y102637D01*
X243124D01*
X245250Y98954D01*
G36*
X245250Y98954D02*
X247376Y102637D01*
X243124D01*
X245250Y98954D01*
G37*
Y158954D02*
X247376Y162637D01*
X243124D01*
X245250Y158954D01*
G36*
X245250Y158954D02*
X247376Y162637D01*
X243124D01*
X245250Y158954D01*
G37*
Y164652D02*
Y150902D01*
X231500Y137152D01*
Y70902D01*
X245250Y164652D02*
Y170902D01*
X250250Y175902D01*
Y227152D01*
X245250Y232152D01*
Y239652D01*
Y170348D02*
X243124Y166666D01*
X247376D01*
X245250Y170348D01*
G36*
X245250Y170348D02*
X243124Y166666D01*
X247376D01*
X245250Y170348D01*
G37*
Y173954D02*
X247376Y177637D01*
X243124D01*
X245250Y173954D01*
G36*
X245250Y173954D02*
X247376Y177637D01*
X243124D01*
X245250Y173954D01*
G37*
Y179652D02*
Y173402D01*
X240250Y168402D01*
Y149652D01*
X229000Y138402D01*
Y95902D01*
X245250Y233954D02*
X247376Y237637D01*
X243124D01*
X245250Y233954D01*
G36*
X245250Y233954D02*
X247376Y237637D01*
X243124D01*
X245250Y233954D01*
G37*
X246485Y31616D02*
Y90917D01*
X240250Y97152D01*
Y143402D01*
X249000Y152152D01*
Y167152D01*
X255250Y173402D01*
Y179652D01*
X246485Y54607D02*
X243439Y49333D01*
X249530D01*
X246485Y54607D01*
G36*
X246485Y54607D02*
X243439Y49333D01*
X249530D01*
X246485Y54607D01*
G37*
X255250Y104652D02*
Y143402D01*
X261500Y149652D01*
Y169652D01*
X265250Y173402D01*
Y179652D01*
X255250Y110348D02*
X253124Y106666D01*
X257376D01*
X255250Y110348D01*
G36*
X255250Y110348D02*
X253124Y106666D01*
X257376D01*
X255250Y110348D01*
G37*
Y158954D02*
X257376Y162637D01*
X253124D01*
X255250Y158954D01*
G36*
X255250Y158954D02*
X257376Y162637D01*
X253124D01*
X255250Y158954D01*
G37*
Y164652D02*
Y170902D01*
X259000Y174652D01*
Y227152D01*
X255250Y230902D01*
Y239652D01*
Y170348D02*
X253124Y166666D01*
X257376D01*
X255250Y170348D01*
G36*
X255250Y170348D02*
X253124Y166666D01*
X257376D01*
X255250Y170348D01*
G37*
Y173954D02*
X257376Y177637D01*
X253124D01*
X255250Y173954D01*
G36*
X255250Y173954D02*
X257376Y177637D01*
X253124D01*
X255250Y173954D01*
G37*
Y233954D02*
X257376Y237637D01*
X253124D01*
X255250Y233954D01*
G36*
X255250Y233954D02*
X257376Y237637D01*
X253124D01*
X255250Y233954D01*
G37*
X256485Y31616D02*
Y55902D01*
X249000Y63386D01*
Y144652D01*
X255250Y150902D01*
Y164652D01*
X256485Y54607D02*
X253439Y49333D01*
X259530D01*
X256485Y54607D01*
G36*
X256485Y54607D02*
X253439Y49333D01*
X259530D01*
X256485Y54607D01*
G37*
X256500Y64652D02*
Y92152D01*
X260250Y95902D01*
Y144652D01*
X265250Y149652D01*
Y164652D01*
X256500Y66726D02*
X257398Y65170D01*
G75*
G03*
X255602I-898J-519D01*
G01*
X256500Y66726D01*
G36*
X256500Y66726D02*
X257398Y65170D01*
G75*
G03*
X255602I-898J-519D01*
G01*
X256500Y66726D01*
G37*
X261500D02*
X262398Y65170D01*
G75*
G03*
X260602I-898J-519D01*
G01*
X261500Y66726D01*
G36*
X261500Y66726D02*
X262398Y65170D01*
G75*
G03*
X260602I-898J-519D01*
G01*
X261500Y66726D01*
G37*
Y88827D02*
X260602Y90383D01*
G75*
G03*
X262398I898J519D01*
G01*
X261500Y88827D01*
G36*
X261500Y88827D02*
X260602Y90383D01*
G75*
G03*
X262398I898J519D01*
G01*
X261500Y88827D01*
G37*
Y90902D02*
Y64652D01*
Y186327D02*
X260602Y187883D01*
G75*
G03*
X262398I898J519D01*
G01*
X261500Y186327D01*
G36*
X261500Y186327D02*
X260602Y187883D01*
G75*
G03*
X262398I898J519D01*
G01*
X261500Y186327D01*
G37*
Y188402D02*
Y173402D01*
X259000Y170902D01*
Y149652D01*
X251500Y142152D01*
Y65902D01*
X256500Y60902D01*
X264000D01*
X266500Y58402D01*
Y31631D01*
X266485Y31616D01*
X265250Y104652D02*
Y144652D01*
X269000Y148402D01*
Y167152D01*
X275250Y173402D01*
Y179652D01*
X265250Y110348D02*
X263124Y106666D01*
X267376D01*
X265250Y110348D01*
G36*
X265250Y110348D02*
X263124Y106666D01*
X267376D01*
X265250Y110348D01*
G37*
Y158954D02*
X267376Y162637D01*
X263124D01*
X265250Y158954D01*
G36*
X265250Y158954D02*
X267376Y162637D01*
X263124D01*
X265250Y158954D01*
G37*
Y164652D02*
Y170902D01*
X270250Y175902D01*
Y227152D01*
X265250Y232152D01*
Y239652D01*
Y170348D02*
X263124Y166666D01*
X267376D01*
X265250Y170348D01*
G36*
X265250Y170348D02*
X263124Y166666D01*
X267376D01*
X265250Y170348D01*
G37*
Y173954D02*
X267376Y177637D01*
X263124D01*
X265250Y173954D01*
G36*
X265250Y173954D02*
X267376Y177637D01*
X263124D01*
X265250Y173954D01*
G37*
Y233954D02*
X267376Y237637D01*
X263124D01*
X265250Y233954D01*
G36*
X265250Y233954D02*
X267376Y237637D01*
X263124D01*
X265250Y233954D01*
G37*
X266717Y91935D02*
X264981Y92400D01*
G75*
G03*
X266252Y93670I269J1002D01*
G01*
X266717Y91935D01*
G36*
X266717Y91935D02*
X264981Y92400D01*
G75*
G03*
X266252Y93670I269J1002D01*
G01*
X266717Y91935D01*
G37*
X270467Y94435D02*
X268731Y94900D01*
G75*
G03*
X270002Y96170I269J1002D01*
G01*
X270467Y94435D01*
G36*
X270467Y94435D02*
X268731Y94900D01*
G75*
G03*
X270002Y96170I269J1002D01*
G01*
X270467Y94435D01*
G37*
X272750Y64652D02*
Y85902D01*
X265250Y93402D01*
X272750Y66726D02*
X273648Y65170D01*
G75*
G03*
X271852I-898J-519D01*
G01*
X272750Y66726D01*
G36*
X272750Y66726D02*
X273648Y65170D01*
G75*
G03*
X271852I-898J-519D01*
G01*
X272750Y66726D01*
G37*
X275250Y110348D02*
X273124Y106666D01*
X277376D01*
X275250Y110348D01*
G36*
X275250Y110348D02*
X273124Y106666D01*
X277376D01*
X275250Y110348D01*
G37*
Y158954D02*
X277376Y162637D01*
X273124D01*
X275250Y158954D01*
G36*
X275250Y158954D02*
X277376Y162637D01*
X273124D01*
X275250Y158954D01*
G37*
Y164652D02*
Y149652D01*
X280250Y144652D01*
Y65902D01*
X285250Y60902D01*
X292750D01*
X275250Y173954D02*
X277376Y177637D01*
X273124D01*
X275250Y173954D01*
G36*
X275250Y173954D02*
X277376Y177637D01*
X273124D01*
X275250Y173954D01*
G37*
Y233954D02*
X277376Y237637D01*
X273124D01*
X275250Y233954D01*
G36*
X275250Y233954D02*
X277376Y237637D01*
X273124D01*
X275250Y233954D01*
G37*
Y239652D02*
Y187152D01*
X279000Y183402D01*
Y174652D01*
X271500Y167152D01*
Y148402D01*
X275250Y144652D01*
Y104652D01*
X276485Y31616D02*
Y88417D01*
X269000Y95902D01*
X276485Y54607D02*
X273439Y49333D01*
X279530D01*
X276485Y54607D01*
G36*
X276485Y54607D02*
X273439Y49333D01*
X279530D01*
X276485Y54607D01*
G37*
X285250Y110348D02*
X283124Y106666D01*
X287376D01*
X285250Y110348D01*
G36*
X285250Y110348D02*
X283124Y106666D01*
X287376D01*
X285250Y110348D01*
G37*
Y158954D02*
X287376Y162637D01*
X283124D01*
X285250Y158954D01*
G36*
X285250Y158954D02*
X287376Y162637D01*
X283124D01*
X285250Y158954D01*
G37*
Y164652D02*
Y149652D01*
X290250Y144652D01*
Y67152D01*
X296485Y60917D01*
Y31616D01*
X285250Y173954D02*
X287376Y177637D01*
X283124D01*
X285250Y173954D01*
G36*
X285250Y173954D02*
X287376Y177637D01*
X283124D01*
X285250Y173954D01*
G37*
X290250Y169652D02*
Y174652D01*
X295250Y179652D01*
X290250Y171726D02*
X291148Y170170D01*
G75*
G03*
X289352I-898J-519D01*
G01*
X290250Y171726D01*
G36*
X290250Y171726D02*
X291148Y170170D01*
G75*
G03*
X289352I-898J-519D01*
G01*
X290250Y171726D01*
G37*
X290675Y60902D02*
X292231Y61800D01*
G75*
G03*
Y60003I519J-898D01*
G01*
X290675Y60902D01*
G36*
X290675Y60902D02*
X292231Y61800D01*
G75*
G03*
Y60003I519J-898D01*
G01*
X290675Y60902D01*
G37*
X291491Y175892D02*
X295885Y176493D01*
X292879Y181074D01*
X291491Y175892D01*
G36*
X291491Y175892D02*
X295885Y176493D01*
X292879Y181074D01*
X291491Y175892D01*
G37*
X295250Y104652D02*
Y143402D01*
X289000Y149652D01*
Y167152D01*
X285250Y170902D01*
Y179652D01*
X295250Y110348D02*
X293124Y106666D01*
X297376D01*
X295250Y110348D01*
G36*
X295250Y110348D02*
X293124Y106666D01*
X297376D01*
X295250Y110348D01*
G37*
Y158954D02*
X297376Y162637D01*
X293124D01*
X295250Y158954D01*
G36*
X295250Y158954D02*
X297376Y162637D01*
X293124D01*
X295250Y158954D01*
G37*
Y164652D02*
Y172152D01*
Y170077D02*
X294352Y171633D01*
G75*
G03*
X296148I898J519D01*
G01*
X295250Y170077D01*
G36*
X295250Y170077D02*
X294352Y171633D01*
G75*
G03*
X296148I898J519D01*
G01*
X295250Y170077D01*
G37*
Y170348D02*
X293124Y166666D01*
X297376D01*
X295250Y170348D01*
G36*
X295250Y170348D02*
X293124Y166666D01*
X297376D01*
X295250Y170348D01*
G37*
Y233954D02*
X297376Y237637D01*
X293124D01*
X295250Y233954D01*
G36*
X295250Y233954D02*
X297376Y237637D01*
X293124D01*
X295250Y233954D01*
G37*
Y239652D02*
Y230902D01*
X285250Y220902D01*
Y187152D01*
X281500Y183402D01*
Y169652D01*
X280250Y168402D01*
Y149652D01*
X285250Y144652D01*
Y104652D01*
X296485Y54607D02*
X293439Y49333D01*
X299530D01*
X296485Y54607D01*
G36*
X296485Y54607D02*
X293439Y49333D01*
X299530D01*
X296485Y54607D01*
G37*
X305250Y104652D02*
Y144652D01*
X299000Y150902D01*
Y224652D01*
X305250Y230902D01*
Y239652D01*
Y110348D02*
X303124Y106666D01*
X307376D01*
X305250Y110348D01*
G36*
X305250Y110348D02*
X303124Y106666D01*
X307376D01*
X305250Y110348D01*
G37*
Y158954D02*
X307376Y162637D01*
X303124D01*
X305250Y158954D01*
G36*
X305250Y158954D02*
X307376Y162637D01*
X303124D01*
X305250Y158954D01*
G37*
Y233954D02*
X307376Y237637D01*
X303124D01*
X305250Y233954D01*
G36*
X305250Y233954D02*
X307376Y237637D01*
X303124D01*
X305250Y233954D01*
G37*
X309000Y110902D02*
Y145902D01*
X305250Y149652D01*
Y164652D01*
X309000Y112976D02*
X309898Y111420D01*
G75*
G03*
X308102I-898J-519D01*
G01*
X309000Y112976D01*
G36*
X309000Y112976D02*
X309898Y111420D01*
G75*
G03*
X308102I-898J-519D01*
G01*
X309000Y112976D01*
G37*
X315250Y170348D02*
X313124Y166666D01*
X317376D01*
X315250Y170348D01*
G36*
X315250Y170348D02*
X313124Y166666D01*
X317376D01*
X315250Y170348D01*
G37*
Y172577D02*
X314352Y174133D01*
G75*
G03*
X316148I898J519D01*
G01*
X315250Y172577D01*
G36*
X315250Y172577D02*
X314352Y174133D01*
G75*
G03*
X316148I898J519D01*
G01*
X315250Y172577D01*
G37*
Y174652D02*
Y164652D01*
X325250Y66726D02*
X326148Y65170D01*
G75*
G03*
X324352I-898J-519D01*
G01*
X325250Y66726D01*
G36*
X325250Y66726D02*
X326148Y65170D01*
G75*
G03*
X324352I-898J-519D01*
G01*
X325250Y66726D01*
G37*
Y98954D02*
X327376Y102637D01*
X323124D01*
X325250Y98954D01*
G36*
X325250Y98954D02*
X327376Y102637D01*
X323124D01*
X325250Y98954D01*
G37*
Y104652D02*
Y64652D01*
X346485Y31616D02*
Y55902D01*
X342735Y59652D01*
X306500D01*
X300250Y65902D01*
Y144652D01*
X295250Y149652D01*
Y164652D01*
X346485Y54607D02*
X343439Y49333D01*
X349530D01*
X346485Y54607D01*
G36*
X346485Y54607D02*
X343439Y49333D01*
X349530D01*
X346485Y54607D01*
G37*
D02*
D94*
X136485Y31616D02*
Y53402D01*
X146500D01*
Y34584D01*
X146485Y34569D01*
X136485Y50799D02*
X135638Y49333D01*
X137331D01*
X136485Y50799D01*
G36*
X136485Y50799D02*
X135638Y49333D01*
X137331D01*
X136485Y50799D01*
G37*
D02*
D95*
X125250Y137152D03*
X127750Y139652D03*
Y187152D03*
X130250Y142152D03*
X132750Y152152D03*
X135250Y154652D03*
X160250Y110902D03*
X162750Y97152D03*
X167750Y64652D03*
Y94652D03*
X175250Y69652D03*
X179000Y92152D03*
X186500Y64652D03*
X191500D03*
X200250Y97152D03*
Y169652D03*
X206500Y72152D03*
X212750Y64652D03*
X221500Y59652D03*
Y229652D03*
X224000Y74652D03*
X226485Y88402D03*
X229000Y95902D03*
X231500Y70902D03*
Y169652D03*
X235250Y64652D03*
X239000Y62152D03*
Y93402D03*
X245250Y95902D03*
X256500Y64652D03*
X261500D03*
Y90902D03*
Y188402D03*
X265250Y93402D03*
X269000Y95902D03*
X272750Y64652D03*
X290250Y169652D03*
X292750Y60902D03*
X295250Y172152D03*
X309000Y110902D03*
X315250Y174652D03*
X325250Y64652D03*
D02*
D96*
X20250Y114652D03*
Y143402D03*
Y172152D03*
Y212152D03*
Y244652D03*
X40250Y147152D03*
Y167152D03*
Y187152D03*
Y207152D03*
Y227152D03*
X50250Y244652D03*
X55250Y114652D03*
X60250Y137152D03*
Y157152D03*
Y177152D03*
Y197152D03*
Y217152D03*
X67750Y64652D03*
Y92152D03*
X69000Y167152D03*
X70250Y187152D03*
Y207152D03*
Y227152D03*
X84000Y140902D03*
X90250Y244652D03*
X100250Y137152D03*
Y147152D03*
Y157152D03*
Y167152D03*
Y177152D03*
Y187152D03*
Y197152D03*
Y207152D03*
Y217152D03*
Y227152D03*
X107750Y64652D03*
Y92152D03*
X120250Y139652D03*
Y159652D03*
Y177152D03*
Y197152D03*
Y217152D03*
X130250Y207152D03*
Y244652D03*
X140250Y159652D03*
X147750Y64652D03*
Y74652D03*
X151500Y84652D03*
Y94652D03*
X155250Y64652D03*
Y74652D03*
X160250Y139652D03*
X161500Y57152D03*
X165250Y204652D03*
X170250Y244652D03*
X171500Y57152D03*
X181500D03*
Y69652D03*
X186500Y84652D03*
X200250Y80902D03*
X205250Y204652D03*
X210250Y244652D03*
X215250Y80902D03*
Y139652D03*
X221500Y55902D03*
X231500D03*
X242750Y80902D03*
X245250Y139652D03*
X250250Y244652D03*
X251500Y55902D03*
X255250Y204652D03*
X261500Y55902D03*
X267750Y80902D03*
X270250Y139652D03*
X281500Y55902D03*
X285250Y80902D03*
X290250Y244652D03*
X295250Y204652D03*
X296500Y80902D03*
X315250D03*
X326500Y219652D03*
Y244652D03*
X330250Y55902D03*
Y89652D03*
X335250Y139652D03*
X365250Y62152D03*
Y89652D03*
Y139652D03*
Y179652D03*
Y219652D03*
Y244652D03*
X405250Y62152D03*
Y89652D03*
Y139652D03*
Y179652D03*
Y219652D03*
Y244652D03*
D02*
D97*
X315250Y119652D03*
X320250Y114652D03*
X324000Y119652D03*
X329000Y114652D03*
D02*
D98*
X374000Y76640D02*
Y79593D01*
X375722D01*
X376215Y79346D01*
X376461Y78854D01*
X376215Y78362D01*
X375722Y78116D01*
X374000D01*
X375722D02*
X376461Y76640D01*
X379906Y76886D02*
X379659Y76640D01*
X379167D01*
X378675D01*
X378183Y76886D01*
X377937Y77378D01*
Y78116D01*
X378183Y78362D01*
X378675Y78608D01*
X379167D01*
X379659Y78362D01*
X379906Y78116D01*
Y77870D01*
X379659Y77624D01*
X379167Y77378D01*
X378675D01*
X378183Y77624D01*
X377937Y77870D01*
X381874Y78608D02*
X382858Y76640D01*
X383843Y78608D01*
X385811Y76640D02*
X387041Y79593D01*
X388272Y76640D01*
X386303Y77870D02*
X387780D01*
X375969Y71915D02*
X374000D01*
X375722Y73638D01*
X375969Y74130D01*
X375722Y74622D01*
X375230Y74868D01*
X374492D01*
X374000Y74622D01*
X378183Y72161D02*
X378675Y71915D01*
X379167D01*
X379659Y72161D01*
X379906Y72654D01*
Y74130D01*
X379659Y74622D01*
X379167Y74868D01*
X378675D01*
X378183Y74622D01*
X377937Y74130D01*
Y72654D01*
X378183Y72161D01*
X379659Y74622D01*
X383843Y71915D02*
X381874D01*
X383596Y73638D01*
X383843Y74130D01*
X383596Y74622D01*
X383104Y74868D01*
X382366D01*
X381874Y74622D01*
X387780Y71915D02*
X385811D01*
X387533Y73638D01*
X387780Y74130D01*
X387533Y74622D01*
X387041Y74868D01*
X386303D01*
X385811Y74622D01*
X389748Y71915D02*
X392209Y74868D01*
X393931Y72161D02*
X394423Y71915D01*
X394915D01*
X395407Y72161D01*
X395654Y72654D01*
Y74130D01*
X395407Y74622D01*
X394915Y74868D01*
X394423D01*
X393931Y74622D01*
X393685Y74130D01*
Y72654D01*
X393931Y72161D01*
X395407Y74622D01*
X397622Y72161D02*
X398114Y71915D01*
X398852D01*
X399344Y72161D01*
X399591Y72654D01*
Y72900D01*
X399344Y73392D01*
X398852Y73638D01*
X397622D01*
Y74868D01*
X399591D01*
D02*
D99*
X116485Y31616D03*
X126485D03*
X136485D03*
X156485D03*
X166485D03*
X176485D03*
X186485D03*
X196485D03*
X206485D03*
X216485D03*
X226485D03*
X236485D03*
X246485D03*
X256485D03*
X266485D03*
X276485D03*
X286485D03*
X296485D03*
X306485D03*
X316485D03*
X326485D03*
X336485D03*
X346485D03*
X356485D03*
D02*
D100*
X146485Y34569D03*
D02*
D101*
X155250Y104652D03*
Y164652D03*
Y179652D03*
Y239652D03*
X165250Y104652D03*
Y164652D03*
Y179652D03*
Y239652D03*
X175250Y104652D03*
Y164652D03*
Y179652D03*
Y239652D03*
X185250Y104652D03*
Y164652D03*
Y179652D03*
Y239652D03*
X195250Y104652D03*
Y164652D03*
Y179652D03*
Y239652D03*
X205250Y104652D03*
Y164652D03*
Y179652D03*
Y239652D03*
X215250Y104652D03*
Y164652D03*
Y179652D03*
Y239652D03*
X225250Y104652D03*
Y164652D03*
Y179652D03*
Y239652D03*
X235250Y104652D03*
Y164652D03*
Y179652D03*
Y239652D03*
X245250Y104652D03*
Y164652D03*
Y179652D03*
Y239652D03*
X255250Y104652D03*
Y164652D03*
Y179652D03*
Y239652D03*
X265250Y104652D03*
Y164652D03*
Y179652D03*
Y239652D03*
X275250Y104652D03*
Y164652D03*
Y179652D03*
Y239652D03*
X285250Y104652D03*
Y164652D03*
Y179652D03*
Y239652D03*
X295250Y104652D03*
Y164652D03*
Y179652D03*
Y239652D03*
X305250Y104652D03*
Y164652D03*
Y179652D03*
Y239652D03*
X315250Y104652D03*
Y164652D03*
X325250Y104652D03*
Y164652D03*
X335250Y104652D03*
Y164652D03*
X345250Y104652D03*
Y164652D03*
X355250Y104652D03*
Y164652D03*
X365250Y104652D03*
Y164652D03*
X375250Y104652D03*
Y164652D03*
X385250Y104652D03*
Y164652D03*
D02*
D150*
X30250Y127152D03*
Y137152D03*
Y147152D03*
Y157152D03*
Y167152D03*
Y177152D03*
Y187152D03*
Y197152D03*
Y207152D03*
Y217152D03*
Y227152D03*
X50250Y127152D03*
Y137152D03*
Y147152D03*
Y157152D03*
Y167152D03*
Y177152D03*
Y187152D03*
Y197152D03*
Y207152D03*
Y217152D03*
Y227152D03*
X60250Y127152D03*
Y147152D03*
Y167152D03*
Y187152D03*
Y207152D03*
Y227152D03*
X80250Y127152D03*
Y147152D03*
Y167152D03*
Y187152D03*
Y207152D03*
Y227152D03*
X90250Y137152D03*
Y147152D03*
Y157152D03*
Y167152D03*
Y177152D03*
Y187152D03*
Y197152D03*
Y207152D03*
Y217152D03*
Y227152D03*
X110250Y137152D03*
Y147152D03*
Y157152D03*
Y167152D03*
Y177152D03*
Y187152D03*
Y197152D03*
Y207152D03*
Y217152D03*
Y227152D03*
X120250Y147152D03*
Y167152D03*
Y187152D03*
Y207152D03*
Y227152D03*
Y239652D03*
X140250Y147152D03*
Y167152D03*
Y187152D03*
Y207152D03*
Y227152D03*
Y239652D03*
X320250Y179652D03*
Y199652D03*
X335250Y179652D03*
Y199652D03*
X400250Y104652D03*
Y124652D03*
X0Y0D02*
M02*
