G04 DesignSpark PCB PRO Gerber Version 10.0 Build 5299*
G04 #@! TF.Part,Single*
G04 #@! TF.FileFunction,Soldermask,Top*
G04 #@! TF.FilePolarity,Negative*
%FSLAX35Y35*%
%MOIN*%
G04 #@! TA.AperFunction,ComponentPad*
%ADD104O,0.05712X0.07287*%
G04 #@! TA.AperFunction,SMDPad,CuDef*
%ADD103R,0.06893X0.29728*%
%ADD16R,0.06893X0.35633*%
G04 #@! TD.AperFunction*
%ADD11C,0.00500*%
G04 #@! TA.AperFunction,ComponentPad*
%ADD26C,0.06200*%
G04 #@! TA.AperFunction,WasherPad*
%ADD102R,2.57639X0.43308*%
G04 #@! TD.AperFunction*
X0Y0D02*
D02*
D11*
X112946Y9569D02*
G75*
G02*
X107666Y14849I0J5280D01*
G01*
Y57207D01*
X67750D01*
G75*
G02*
X62750Y62207I0J5000D01*
G01*
Y102207D01*
G75*
G03*
X57750Y107207I-5000J0D01*
G01*
X21500D01*
G75*
G02*
X15250Y113457I0J6250D01*
G01*
Y243402D01*
G75*
G02*
X21500Y249652I6250J0D01*
G01*
X406500D01*
G75*
G02*
X412750Y243402I0J-6250D01*
G01*
Y62207D01*
G75*
G02*
X407750Y57207I-5000J0D01*
G01*
X365304D01*
Y15066D01*
G75*
G02*
X359806Y9569I-5497J0D01*
G01*
X112946D01*
D02*
D16*
X116485Y31616D03*
X126485D03*
X136485D03*
X156485D03*
X166485D03*
X176485D03*
X186485D03*
X196485D03*
X206485D03*
X216485D03*
X226485D03*
X236485D03*
X246485D03*
X256485D03*
X266485D03*
X276485D03*
X286485D03*
X296485D03*
X306485D03*
X316485D03*
X326485D03*
X336485D03*
X346485D03*
X356485D03*
D02*
D26*
X30250Y127152D03*
Y137152D03*
Y147152D03*
Y157152D03*
Y167152D03*
Y177152D03*
Y187152D03*
Y197152D03*
Y207152D03*
Y217152D03*
Y227152D03*
X50250Y127152D03*
Y137152D03*
Y147152D03*
Y157152D03*
Y167152D03*
Y177152D03*
Y187152D03*
Y197152D03*
Y207152D03*
Y217152D03*
Y227152D03*
X60250Y127152D03*
Y147152D03*
Y167152D03*
Y187152D03*
Y207152D03*
Y227152D03*
X80250Y127152D03*
Y147152D03*
Y167152D03*
Y187152D03*
Y207152D03*
Y227152D03*
X90250Y137152D03*
Y147152D03*
Y157152D03*
Y167152D03*
Y177152D03*
Y187152D03*
Y197152D03*
Y207152D03*
Y217152D03*
Y227152D03*
X110250Y137152D03*
Y147152D03*
Y157152D03*
Y167152D03*
Y177152D03*
Y187152D03*
Y197152D03*
Y207152D03*
Y217152D03*
Y227152D03*
X120250Y147152D03*
Y167152D03*
Y187152D03*
Y207152D03*
Y227152D03*
Y239652D03*
X140250Y147152D03*
Y167152D03*
Y187152D03*
Y207152D03*
Y227152D03*
Y239652D03*
X320250Y179652D03*
Y199652D03*
X335250Y179652D03*
Y199652D03*
X400250Y104652D03*
Y124652D03*
D02*
D102*
X236619Y27837D03*
D02*
D103*
X146485Y34569D03*
D02*
D104*
X155250Y104652D03*
Y164652D03*
Y179652D03*
Y239652D03*
X165250Y104652D03*
Y164652D03*
Y179652D03*
Y239652D03*
X175250Y104652D03*
Y164652D03*
Y179652D03*
Y239652D03*
X185250Y104652D03*
Y164652D03*
Y179652D03*
Y239652D03*
X195250Y104652D03*
Y164652D03*
Y179652D03*
Y239652D03*
X205250Y104652D03*
Y164652D03*
Y179652D03*
Y239652D03*
X215250Y104652D03*
Y164652D03*
Y179652D03*
Y239652D03*
X225250Y104652D03*
Y164652D03*
Y179652D03*
Y239652D03*
X235250Y104652D03*
Y164652D03*
Y179652D03*
Y239652D03*
X245250Y104652D03*
Y164652D03*
Y179652D03*
Y239652D03*
X255250Y104652D03*
Y164652D03*
Y179652D03*
Y239652D03*
X265250Y104652D03*
Y164652D03*
Y179652D03*
Y239652D03*
X275250Y104652D03*
Y164652D03*
Y179652D03*
Y239652D03*
X285250Y104652D03*
Y164652D03*
Y179652D03*
Y239652D03*
X295250Y104652D03*
Y164652D03*
Y179652D03*
Y239652D03*
X305250Y104652D03*
Y164652D03*
Y179652D03*
Y239652D03*
X315250Y104652D03*
Y164652D03*
X325250Y104652D03*
Y164652D03*
X335250Y104652D03*
Y164652D03*
X345250Y104652D03*
Y164652D03*
X355250Y104652D03*
Y164652D03*
X365250Y104652D03*
Y164652D03*
X375250Y104652D03*
Y164652D03*
X385250Y104652D03*
Y164652D03*
X0Y0D02*
M02*
