G04 DesignSpark PCB PRO Gerber Version 10.0 Build 5299*
G04 #@! TF.Part,Single*
G04 #@! TF.FileFunction,Legend,Top*
G04 #@! TF.FilePolarity,Positive*
%FSLAX35Y35*%
%MOIN*%
%ADD90C,0.00197*%
%ADD11C,0.00500*%
%ADD91C,0.00787*%
G04 #@! TD.AperFunction*
X0Y0D02*
D02*
D11*
X32750Y140589D02*
Y144339D01*
X34937D01*
X35563Y144027D01*
X35875Y143402D01*
X35563Y142777D01*
X34937Y142464D01*
X32750D01*
X34937D02*
X35875Y140589D01*
X38375D02*
X39625D01*
X39000D02*
Y144339D01*
X38375Y143714D01*
X43063Y140902D02*
X43687Y140589D01*
X44313D01*
X44937Y140902D01*
X45250Y141527D01*
Y143402D01*
X44937Y144027D01*
X44313Y144339D01*
X43687D01*
X43063Y144027D01*
X42750Y143402D01*
Y141527D01*
X43063Y140902D01*
X44937Y144027D01*
X32750Y150589D02*
Y154339D01*
X34937D01*
X35563Y154027D01*
X35875Y153402D01*
X35563Y152777D01*
X34937Y152464D01*
X32750D01*
X34937D02*
X35875Y150589D01*
X38687D02*
X39313Y150902D01*
X39937Y151527D01*
X40250Y152464D01*
Y153402D01*
X39937Y154027D01*
X39313Y154339D01*
X38687D01*
X38063Y154027D01*
X37750Y153402D01*
X38063Y152777D01*
X38687Y152464D01*
X39313D01*
X39937Y152777D01*
X40250Y153402D01*
X32750Y160589D02*
Y164339D01*
X34937D01*
X35563Y164027D01*
X35875Y163402D01*
X35563Y162777D01*
X34937Y162464D01*
X32750D01*
X34937D02*
X35875Y160589D01*
X38687Y162464D02*
X39313D01*
X39937Y162777D01*
X40250Y163402D01*
X39937Y164027D01*
X39313Y164339D01*
X38687D01*
X38063Y164027D01*
X37750Y163402D01*
X38063Y162777D01*
X38687Y162464D01*
X38063Y162152D01*
X37750Y161527D01*
X38063Y160902D01*
X38687Y160589D01*
X39313D01*
X39937Y160902D01*
X40250Y161527D01*
X39937Y162152D01*
X39313Y162464D01*
X32750Y170589D02*
Y174339D01*
X34937D01*
X35563Y174027D01*
X35875Y173402D01*
X35563Y172777D01*
X34937Y172464D01*
X32750D01*
X34937D02*
X35875Y170589D01*
X37750D02*
X40250Y174339D01*
X37750D01*
X32750Y180589D02*
Y184339D01*
X34937D01*
X35563Y184027D01*
X35875Y183402D01*
X35563Y182777D01*
X34937Y182464D01*
X32750D01*
X34937D02*
X35875Y180589D01*
X37750Y181527D02*
X38063Y182152D01*
X38687Y182464D01*
X39313D01*
X39937Y182152D01*
X40250Y181527D01*
X39937Y180902D01*
X39313Y180589D01*
X38687D01*
X38063Y180902D01*
X37750Y181527D01*
Y182464D01*
X38063Y183402D01*
X38687Y184027D01*
X39313Y184339D01*
X32750Y190589D02*
Y194339D01*
X34937D01*
X35563Y194027D01*
X35875Y193402D01*
X35563Y192777D01*
X34937Y192464D01*
X32750D01*
X34937D02*
X35875Y190589D01*
X37750Y190902D02*
X38375Y190589D01*
X39313D01*
X39937Y190902D01*
X40250Y191527D01*
Y191839D01*
X39937Y192464D01*
X39313Y192777D01*
X37750D01*
Y194339D01*
X40250D01*
X32750Y200589D02*
Y204339D01*
X34937D01*
X35563Y204027D01*
X35875Y203402D01*
X35563Y202777D01*
X34937Y202464D01*
X32750D01*
X34937D02*
X35875Y200589D01*
X39313D02*
Y204339D01*
X37750Y201839D01*
X40250D01*
X32750Y210589D02*
Y214339D01*
X34937D01*
X35563Y214027D01*
X35875Y213402D01*
X35563Y212777D01*
X34937Y212464D01*
X32750D01*
X34937D02*
X35875Y210589D01*
X38063Y210902D02*
X38687Y210589D01*
X39313D01*
X39937Y210902D01*
X40250Y211527D01*
X39937Y212152D01*
X39313Y212464D01*
X38687D01*
X39313D02*
X39937Y212777D01*
X40250Y213402D01*
X39937Y214027D01*
X39313Y214339D01*
X38687D01*
X38063Y214027D01*
X32750Y220589D02*
Y224339D01*
X34937D01*
X35563Y224027D01*
X35875Y223402D01*
X35563Y222777D01*
X34937Y222464D01*
X32750D01*
X34937D02*
X35875Y220589D01*
X40250D02*
X37750D01*
X39937Y222777D01*
X40250Y223402D01*
X39937Y224027D01*
X39313Y224339D01*
X38375D01*
X37750Y224027D01*
X32750Y230589D02*
Y234339D01*
X34937D01*
X35563Y234027D01*
X35875Y233402D01*
X35563Y232777D01*
X34937Y232464D01*
X32750D01*
X34937D02*
X35875Y230589D01*
X38375D02*
X39625D01*
X39000D02*
Y234339D01*
X38375Y233714D01*
X37125Y129964D02*
X36813Y129652D01*
X36187Y129339D01*
X35250D01*
X34625Y129652D01*
X34313Y129964D01*
X34000Y130589D01*
Y131839D01*
X34313Y132464D01*
X34625Y132777D01*
X35250Y133089D01*
X36187D01*
X36813Y132777D01*
X37125Y132464D01*
X39625Y129339D02*
X40875D01*
X40250D02*
Y133089D01*
X39625Y132464D01*
X35250Y137152D02*
X34000D01*
X35250Y147152D02*
X34000D01*
X35250Y157152D02*
X34000D01*
X35250Y167152D02*
X34000D01*
X35250Y177152D02*
X34000D01*
X35250Y187152D02*
X34000D01*
X35250Y197152D02*
X34000D01*
X35250Y207152D02*
X34000D01*
X35250Y217152D02*
X34000D01*
X35250Y227152D02*
X34000D01*
X39000Y124152D02*
Y130152D01*
Y127152D02*
X35000D01*
X41500Y124152D02*
Y130152D01*
X45250Y137152D02*
X46500D01*
X45250Y139652D02*
X35250D01*
Y134652D01*
X45250D01*
Y139652D01*
Y147152D02*
X46500D01*
X45250Y149652D02*
X35250D01*
Y144652D01*
X45250D01*
Y149652D01*
Y157152D02*
X46500D01*
X45250Y159652D02*
X35250D01*
Y154652D01*
X45250D01*
Y159652D01*
Y167152D02*
X46500D01*
X45250Y169652D02*
X35250D01*
Y164652D01*
X45250D01*
Y169652D01*
Y177152D02*
X46500D01*
X45250Y179652D02*
X35250D01*
Y174652D01*
X45250D01*
Y179652D01*
Y187152D02*
X46500D01*
X45250Y189652D02*
X35250D01*
Y184652D01*
X45250D01*
Y189652D01*
Y197152D02*
X46500D01*
X45250Y199652D02*
X35250D01*
Y194652D01*
X45250D01*
Y199652D01*
Y207152D02*
X46500D01*
X45250Y209652D02*
X35250D01*
Y204652D01*
X45250D01*
Y209652D01*
Y217152D02*
X46500D01*
X45250Y219652D02*
X35250D01*
Y214652D01*
X45250D01*
Y219652D01*
Y227152D02*
X46500D01*
X45250Y229652D02*
X35250D01*
Y224652D01*
X45250D01*
Y229652D01*
X45500Y127152D02*
X41500D01*
X62750Y130589D02*
Y134339D01*
X64937D01*
X65563Y134027D01*
X65875Y133402D01*
X65563Y132777D01*
X64937Y132464D01*
X62750D01*
X64937D02*
X65875Y130589D01*
X68375D02*
X69625D01*
X69000D02*
Y134339D01*
X68375Y133714D01*
X72750Y131527D02*
X73063Y132152D01*
X73687Y132464D01*
X74313D01*
X74937Y132152D01*
X75250Y131527D01*
X74937Y130902D01*
X74313Y130589D01*
X73687D01*
X73063Y130902D01*
X72750Y131527D01*
Y132464D01*
X73063Y133402D01*
X73687Y134027D01*
X74313Y134339D01*
X62750Y150589D02*
Y154339D01*
X64937D01*
X65563Y154027D01*
X65875Y153402D01*
X65563Y152777D01*
X64937Y152464D01*
X62750D01*
X64937D02*
X65875Y150589D01*
X68375D02*
X69625D01*
X69000D02*
Y154339D01*
X68375Y153714D01*
X72750Y150902D02*
X73375Y150589D01*
X74313D01*
X74937Y150902D01*
X75250Y151527D01*
Y151839D01*
X74937Y152464D01*
X74313Y152777D01*
X72750D01*
Y154339D01*
X75250D01*
X62750Y170589D02*
Y174339D01*
X64937D01*
X65563Y174027D01*
X65875Y173402D01*
X65563Y172777D01*
X64937Y172464D01*
X62750D01*
X64937D02*
X65875Y170589D01*
X68375D02*
X69625D01*
X69000D02*
Y174339D01*
X68375Y173714D01*
X74313Y170589D02*
Y174339D01*
X72750Y171839D01*
X75250D01*
X62750Y190589D02*
Y194339D01*
X64937D01*
X65563Y194027D01*
X65875Y193402D01*
X65563Y192777D01*
X64937Y192464D01*
X62750D01*
X64937D02*
X65875Y190589D01*
X68375D02*
X69625D01*
X69000D02*
Y194339D01*
X68375Y193714D01*
X73063Y190902D02*
X73687Y190589D01*
X74313D01*
X74937Y190902D01*
X75250Y191527D01*
X74937Y192152D01*
X74313Y192464D01*
X73687D01*
X74313D02*
X74937Y192777D01*
X75250Y193402D01*
X74937Y194027D01*
X74313Y194339D01*
X73687D01*
X73063Y194027D01*
X62750Y210589D02*
Y214339D01*
X64937D01*
X65563Y214027D01*
X65875Y213402D01*
X65563Y212777D01*
X64937Y212464D01*
X62750D01*
X64937D02*
X65875Y210589D01*
X68375D02*
X69625D01*
X69000D02*
Y214339D01*
X68375Y213714D01*
X75250Y210589D02*
X72750D01*
X74937Y212777D01*
X75250Y213402D01*
X74937Y214027D01*
X74313Y214339D01*
X73375D01*
X72750Y214027D01*
X62750Y230589D02*
Y234339D01*
X64937D01*
X65563Y234027D01*
X65875Y233402D01*
X65563Y232777D01*
X64937Y232464D01*
X62750D01*
X64937D02*
X65875Y230589D01*
X68375D02*
X69625D01*
X69000D02*
Y234339D01*
X68375Y233714D01*
X73375Y230589D02*
X74625D01*
X74000D02*
Y234339D01*
X73375Y233714D01*
X65250Y127152D02*
X64000D01*
X65250Y147152D02*
X64000D01*
X65250Y167152D02*
X64000D01*
X65250Y187152D02*
X64000D01*
X65250Y207152D02*
X64000D01*
X65250Y227152D02*
X64000D01*
X75250Y127152D02*
X76500D01*
X75250Y129652D02*
X65250D01*
Y124652D01*
X75250D01*
Y129652D01*
Y147152D02*
X76500D01*
X75250Y149652D02*
X65250D01*
Y144652D01*
X75250D01*
Y149652D01*
Y167152D02*
X76500D01*
X75250Y169652D02*
X65250D01*
Y164652D01*
X75250D01*
Y169652D01*
Y187152D02*
X76500D01*
X75250Y189652D02*
X65250D01*
Y184652D01*
X75250D01*
Y189652D01*
Y207152D02*
X76500D01*
X75250Y209652D02*
X65250D01*
Y204652D01*
X75250D01*
Y209652D01*
Y227152D02*
X76500D01*
X75250Y229652D02*
X65250D01*
Y224652D01*
X75250D01*
Y229652D01*
X92750Y140589D02*
Y144339D01*
X94937D01*
X95563Y144027D01*
X95875Y143402D01*
X95563Y142777D01*
X94937Y142464D01*
X92750D01*
X94937D02*
X95875Y140589D01*
X100250D02*
X97750D01*
X99937Y142777D01*
X100250Y143402D01*
X99937Y144027D01*
X99313Y144339D01*
X98375D01*
X97750Y144027D01*
X102750Y141527D02*
X103063Y142152D01*
X103687Y142464D01*
X104313D01*
X104937Y142152D01*
X105250Y141527D01*
X104937Y140902D01*
X104313Y140589D01*
X103687D01*
X103063Y140902D01*
X102750Y141527D01*
Y142464D01*
X103063Y143402D01*
X103687Y144027D01*
X104313Y144339D01*
X92750Y150589D02*
Y154339D01*
X94937D01*
X95563Y154027D01*
X95875Y153402D01*
X95563Y152777D01*
X94937Y152464D01*
X92750D01*
X94937D02*
X95875Y150589D01*
X100250D02*
X97750D01*
X99937Y152777D01*
X100250Y153402D01*
X99937Y154027D01*
X99313Y154339D01*
X98375D01*
X97750Y154027D01*
X102750Y150902D02*
X103375Y150589D01*
X104313D01*
X104937Y150902D01*
X105250Y151527D01*
Y151839D01*
X104937Y152464D01*
X104313Y152777D01*
X102750D01*
Y154339D01*
X105250D01*
X92750Y160589D02*
Y164339D01*
X94937D01*
X95563Y164027D01*
X95875Y163402D01*
X95563Y162777D01*
X94937Y162464D01*
X92750D01*
X94937D02*
X95875Y160589D01*
X100250D02*
X97750D01*
X99937Y162777D01*
X100250Y163402D01*
X99937Y164027D01*
X99313Y164339D01*
X98375D01*
X97750Y164027D01*
X104313Y160589D02*
Y164339D01*
X102750Y161839D01*
X105250D01*
X92750Y170589D02*
Y174339D01*
X94937D01*
X95563Y174027D01*
X95875Y173402D01*
X95563Y172777D01*
X94937Y172464D01*
X92750D01*
X94937D02*
X95875Y170589D01*
X100250D02*
X97750D01*
X99937Y172777D01*
X100250Y173402D01*
X99937Y174027D01*
X99313Y174339D01*
X98375D01*
X97750Y174027D01*
X103063Y170902D02*
X103687Y170589D01*
X104313D01*
X104937Y170902D01*
X105250Y171527D01*
X104937Y172152D01*
X104313Y172464D01*
X103687D01*
X104313D02*
X104937Y172777D01*
X105250Y173402D01*
X104937Y174027D01*
X104313Y174339D01*
X103687D01*
X103063Y174027D01*
X92750Y180589D02*
Y184339D01*
X94937D01*
X95563Y184027D01*
X95875Y183402D01*
X95563Y182777D01*
X94937Y182464D01*
X92750D01*
X94937D02*
X95875Y180589D01*
X100250D02*
X97750D01*
X99937Y182777D01*
X100250Y183402D01*
X99937Y184027D01*
X99313Y184339D01*
X98375D01*
X97750Y184027D01*
X105250Y180589D02*
X102750D01*
X104937Y182777D01*
X105250Y183402D01*
X104937Y184027D01*
X104313Y184339D01*
X103375D01*
X102750Y184027D01*
X92750Y190589D02*
Y194339D01*
X94937D01*
X95563Y194027D01*
X95875Y193402D01*
X95563Y192777D01*
X94937Y192464D01*
X92750D01*
X94937D02*
X95875Y190589D01*
X100250D02*
X97750D01*
X99937Y192777D01*
X100250Y193402D01*
X99937Y194027D01*
X99313Y194339D01*
X98375D01*
X97750Y194027D01*
X103375Y190589D02*
X104625D01*
X104000D02*
Y194339D01*
X103375Y193714D01*
X92750Y200589D02*
Y204339D01*
X94937D01*
X95563Y204027D01*
X95875Y203402D01*
X95563Y202777D01*
X94937Y202464D01*
X92750D01*
X94937D02*
X95875Y200589D01*
X100250D02*
X97750D01*
X99937Y202777D01*
X100250Y203402D01*
X99937Y204027D01*
X99313Y204339D01*
X98375D01*
X97750Y204027D01*
X103063Y200902D02*
X103687Y200589D01*
X104313D01*
X104937Y200902D01*
X105250Y201527D01*
Y203402D01*
X104937Y204027D01*
X104313Y204339D01*
X103687D01*
X103063Y204027D01*
X102750Y203402D01*
Y201527D01*
X103063Y200902D01*
X104937Y204027D01*
X92750Y220589D02*
Y224339D01*
X94937D01*
X95563Y224027D01*
X95875Y223402D01*
X95563Y222777D01*
X94937Y222464D01*
X92750D01*
X94937D02*
X95875Y220589D01*
X98375D02*
X99625D01*
X99000D02*
Y224339D01*
X98375Y223714D01*
X103687Y222464D02*
X104313D01*
X104937Y222777D01*
X105250Y223402D01*
X104937Y224027D01*
X104313Y224339D01*
X103687D01*
X103063Y224027D01*
X102750Y223402D01*
X103063Y222777D01*
X103687Y222464D01*
X103063Y222152D01*
X102750Y221527D01*
X103063Y220902D01*
X103687Y220589D01*
X104313D01*
X104937Y220902D01*
X105250Y221527D01*
X104937Y222152D01*
X104313Y222464D01*
X92750Y230589D02*
Y234339D01*
X94937D01*
X95563Y234027D01*
X95875Y233402D01*
X95563Y232777D01*
X94937Y232464D01*
X92750D01*
X94937D02*
X95875Y230589D01*
X98375D02*
X99625D01*
X99000D02*
Y234339D01*
X98375Y233714D01*
X102750Y230589D02*
X105250Y234339D01*
X102750D01*
X95250Y137152D02*
X94000D01*
X95250Y147152D02*
X94000D01*
X95250Y157152D02*
X94000D01*
X95250Y167152D02*
X94000D01*
X95250Y177152D02*
X94000D01*
X95250Y187152D02*
X94000D01*
X95250Y197152D02*
X94000D01*
X95250Y207152D02*
X94000D01*
X95250Y217152D02*
X94000D01*
X95250Y227152D02*
X94000D01*
X105250Y137152D02*
X106500D01*
X105250Y139652D02*
X95250D01*
Y134652D01*
X105250D01*
Y139652D01*
Y147152D02*
X106500D01*
X105250Y149652D02*
X95250D01*
Y144652D01*
X105250D01*
Y149652D01*
Y157152D02*
X106500D01*
X105250Y159652D02*
X95250D01*
Y154652D01*
X105250D01*
Y159652D01*
Y167152D02*
X106500D01*
X105250Y169652D02*
X95250D01*
Y164652D01*
X105250D01*
Y169652D01*
Y177152D02*
X106500D01*
X105250Y179652D02*
X95250D01*
Y174652D01*
X105250D01*
Y179652D01*
Y187152D02*
X106500D01*
X105250Y189652D02*
X95250D01*
Y184652D01*
X105250D01*
Y189652D01*
Y197152D02*
X106500D01*
X105250Y199652D02*
X95250D01*
Y194652D01*
X105250D01*
Y199652D01*
Y207152D02*
X106500D01*
X105250Y209652D02*
X95250D01*
Y204652D01*
X105250D01*
Y209652D01*
Y217152D02*
X106500D01*
X105250Y219652D02*
X95250D01*
Y214652D01*
X105250D01*
Y219652D01*
Y227152D02*
X106500D01*
X105250Y229652D02*
X95250D01*
Y224652D01*
X105250D01*
Y229652D01*
X110250Y216214D02*
Y212464D01*
X108063D01*
X107437Y212776D01*
X107125Y213402D01*
X107437Y214026D01*
X108063Y214339D01*
X110250D01*
X108063D02*
X107125Y216214D01*
X104625D02*
X103375D01*
X104000D02*
Y212464D01*
X104625Y213089D01*
X99313Y216214D02*
X98687Y215902D01*
X98063Y215276D01*
X97750Y214339D01*
Y213402D01*
X98063Y212776D01*
X98687Y212464D01*
X99313D01*
X99937Y212776D01*
X100250Y213402D01*
X99937Y214026D01*
X99313Y214339D01*
X98687D01*
X98063Y214026D01*
X97750Y213402D01*
X112946Y9569D02*
G75*
G02*
X107666Y14849I0J5280D01*
G01*
Y57207D01*
X67750D01*
G75*
G02*
X62750Y62207I0J5000D01*
G01*
Y102207D01*
G75*
G03*
X57750Y107207I-5000J0D01*
G01*
X21500D01*
G75*
G02*
X15250Y113457I0J6250D01*
G01*
Y243402D01*
G75*
G02*
X21500Y249652I6250J0D01*
G01*
X406500D01*
G75*
G02*
X412750Y243402I0J-6250D01*
G01*
Y62207D01*
G75*
G02*
X407750Y57207I-5000J0D01*
G01*
X365304D01*
Y15066D01*
G75*
G02*
X359806Y9569I-5497J0D01*
G01*
X112946D01*
X122750Y150589D02*
Y154339D01*
X124937D01*
X125563Y154027D01*
X125875Y153402D01*
X125563Y152777D01*
X124937Y152464D01*
X122750D01*
X124937D02*
X125875Y150589D01*
X128063Y150902D02*
X128687Y150589D01*
X129313D01*
X129937Y150902D01*
X130250Y151527D01*
X129937Y152152D01*
X129313Y152464D01*
X128687D01*
X129313D02*
X129937Y152777D01*
X130250Y153402D01*
X129937Y154027D01*
X129313Y154339D01*
X128687D01*
X128063Y154027D01*
X135250Y150589D02*
X132750D01*
X134937Y152777D01*
X135250Y153402D01*
X134937Y154027D01*
X134313Y154339D01*
X133375D01*
X132750Y154027D01*
X122750Y170589D02*
Y174339D01*
X124937D01*
X125563Y174027D01*
X125875Y173402D01*
X125563Y172777D01*
X124937Y172464D01*
X122750D01*
X124937D02*
X125875Y170589D01*
X128063Y170902D02*
X128687Y170589D01*
X129313D01*
X129937Y170902D01*
X130250Y171527D01*
X129937Y172152D01*
X129313Y172464D01*
X128687D01*
X129313D02*
X129937Y172777D01*
X130250Y173402D01*
X129937Y174027D01*
X129313Y174339D01*
X128687D01*
X128063Y174027D01*
X133375Y170589D02*
X134625D01*
X134000D02*
Y174339D01*
X133375Y173714D01*
X122750Y190589D02*
Y194339D01*
X124937D01*
X125563Y194027D01*
X125875Y193402D01*
X125563Y192777D01*
X124937Y192464D01*
X122750D01*
X124937D02*
X125875Y190589D01*
X128063Y190902D02*
X128687Y190589D01*
X129313D01*
X129937Y190902D01*
X130250Y191527D01*
X129937Y192152D01*
X129313Y192464D01*
X128687D01*
X129313D02*
X129937Y192777D01*
X130250Y193402D01*
X129937Y194027D01*
X129313Y194339D01*
X128687D01*
X128063Y194027D01*
X133063Y190902D02*
X133687Y190589D01*
X134313D01*
X134937Y190902D01*
X135250Y191527D01*
Y193402D01*
X134937Y194027D01*
X134313Y194339D01*
X133687D01*
X133063Y194027D01*
X132750Y193402D01*
Y191527D01*
X133063Y190902D01*
X134937Y194027D01*
X122750Y210589D02*
Y214339D01*
X124937D01*
X125563Y214027D01*
X125875Y213402D01*
X125563Y212777D01*
X124937Y212464D01*
X122750D01*
X124937D02*
X125875Y210589D01*
X130250D02*
X127750D01*
X129937Y212777D01*
X130250Y213402D01*
X129937Y214027D01*
X129313Y214339D01*
X128375D01*
X127750Y214027D01*
X133687Y210589D02*
X134313Y210902D01*
X134937Y211527D01*
X135250Y212464D01*
Y213402D01*
X134937Y214027D01*
X134313Y214339D01*
X133687D01*
X133063Y214027D01*
X132750Y213402D01*
X133063Y212777D01*
X133687Y212464D01*
X134313D01*
X134937Y212777D01*
X135250Y213402D01*
X122750Y230589D02*
Y234339D01*
X124937D01*
X125563Y234027D01*
X125875Y233402D01*
X125563Y232777D01*
X124937Y232464D01*
X122750D01*
X124937D02*
X125875Y230589D01*
X130250D02*
X127750D01*
X129937Y232777D01*
X130250Y233402D01*
X129937Y234027D01*
X129313Y234339D01*
X128375D01*
X127750Y234027D01*
X132750Y230589D02*
X135250Y234339D01*
X132750D01*
X122750Y243089D02*
Y246839D01*
X124937D01*
X125563Y246527D01*
X125875Y245902D01*
X125563Y245277D01*
X124937Y244964D01*
X122750D01*
X124937D02*
X125875Y243089D01*
X130250D02*
X127750D01*
X129937Y245277D01*
X130250Y245902D01*
X129937Y246527D01*
X129313Y246839D01*
X128375D01*
X127750Y246527D01*
X133687Y244964D02*
X134313D01*
X134937Y245277D01*
X135250Y245902D01*
X134937Y246527D01*
X134313Y246839D01*
X133687D01*
X133063Y246527D01*
X132750Y245902D01*
X133063Y245277D01*
X133687Y244964D01*
X133063Y244652D01*
X132750Y244027D01*
X133063Y243402D01*
X133687Y243089D01*
X134313D01*
X134937Y243402D01*
X135250Y244027D01*
X134937Y244652D01*
X134313Y244964D01*
X125250Y147152D02*
X124000D01*
X125250Y167152D02*
X124000D01*
X125250Y187152D02*
X124000D01*
X125250Y207152D02*
X124000D01*
X125250Y227152D02*
X124000D01*
X125250Y237152D02*
X135250D01*
Y242152D01*
X125250D01*
Y237152D01*
Y239652D02*
X124000D01*
X135250Y147152D02*
X136500D01*
X135250Y149652D02*
X125250D01*
Y144652D01*
X135250D01*
Y149652D01*
Y167152D02*
X136500D01*
X135250Y169652D02*
X125250D01*
Y164652D01*
X135250D01*
Y169652D01*
Y187152D02*
X136500D01*
X135250Y189652D02*
X125250D01*
Y184652D01*
X135250D01*
Y189652D01*
Y207152D02*
X136500D01*
X135250Y209652D02*
X125250D01*
Y204652D01*
X135250D01*
Y209652D01*
Y227152D02*
X136500D01*
X135250Y229652D02*
X125250D01*
Y224652D01*
X135250D01*
Y229652D01*
Y239652D02*
X136500D01*
X308006Y185695D02*
X152494D01*
Y233608D01*
X308006D01*
Y213589D01*
X304069D01*
Y205715D01*
X308006D01*
Y185695D01*
X311500Y240589D02*
Y237777D01*
X311813Y237152D01*
X312437Y236839D01*
X313687D01*
X314313Y237152D01*
X314625Y237777D01*
Y240589D01*
X317125Y236839D02*
X318375D01*
X317750D02*
Y240589D01*
X317125Y239964D01*
X317250Y188402D02*
X323250D01*
X317250Y190902D02*
X323250D01*
X320250Y184402D02*
Y188402D01*
Y190902D02*
Y194902D01*
X325875Y173714D02*
X325563Y173402D01*
X324937Y173089D01*
X324000D01*
X323375Y173402D01*
X323063Y173714D01*
X322750Y174339D01*
Y175589D01*
X323063Y176214D01*
X323375Y176527D01*
X324000Y176839D01*
X324937D01*
X325563Y176527D01*
X325875Y176214D01*
X330250Y173089D02*
X327750D01*
X329937Y175277D01*
X330250Y175902D01*
X329937Y176527D01*
X329313Y176839D01*
X328375D01*
X327750Y176527D01*
X332250Y188402D02*
X338250D01*
X332250Y190902D02*
X338250D01*
X335250Y184402D02*
Y188402D01*
Y190902D02*
Y194902D01*
X342125Y173714D02*
X341813Y173402D01*
X341187Y173089D01*
X340250D01*
X339625Y173402D01*
X339313Y173714D01*
X339000Y174339D01*
Y175589D01*
X339313Y176214D01*
X339625Y176527D01*
X340250Y176839D01*
X341187D01*
X341813Y176527D01*
X342125Y176214D01*
X344313Y173402D02*
X344937Y173089D01*
X345563D01*
X346187Y173402D01*
X346500Y174027D01*
X346187Y174652D01*
X345563Y174964D01*
X344937D01*
X345563D02*
X346187Y175277D01*
X346500Y175902D01*
X346187Y176527D01*
X345563Y176839D01*
X344937D01*
X344313Y176527D01*
X388006Y110695D02*
X152494D01*
Y158608D01*
X388006D01*
Y138589D01*
X384069D01*
Y130715D01*
X388006D01*
Y110695D01*
X391500Y166839D02*
Y164027D01*
X391813Y163402D01*
X392437Y163089D01*
X393687D01*
X394313Y163402D01*
X394625Y164027D01*
Y166839D01*
X399000Y163089D02*
X396500D01*
X398687Y165277D01*
X399000Y165902D01*
X398687Y166527D01*
X398063Y166839D01*
X397125D01*
X396500Y166527D01*
X397250Y113402D02*
X403250D01*
X397250Y115902D02*
X403250D01*
X400250Y109402D02*
Y113402D01*
Y115902D02*
Y119902D01*
X404625Y129964D02*
X404313Y129652D01*
X403687Y129339D01*
X402750D01*
X402125Y129652D01*
X401813Y129964D01*
X401500Y130589D01*
Y131839D01*
X401813Y132464D01*
X402125Y132777D01*
X402750Y133089D01*
X403687D01*
X404313Y132777D01*
X404625Y132464D01*
X408063Y129339D02*
Y133089D01*
X406500Y130589D01*
X409000D01*
D02*
D90*
X327750Y207902D02*
X356050D01*
X327750Y208402D02*
X356050D01*
X327750Y208902D02*
X356050D01*
X327750Y209702D02*
X356050D01*
X327750Y210202D02*
X356050D01*
X327750Y210702D02*
X331550D01*
X327750Y211202D02*
X330650D01*
X327750Y211702D02*
X330350D01*
X327750Y212202D02*
X330350D01*
X327750Y212702D02*
X330450D01*
X327750Y213202D02*
X330650D01*
X327750Y213502D02*
X331050D01*
X327750Y214002D02*
X336750D01*
X327750Y214502D02*
X336450D01*
X327750Y215002D02*
X356050D01*
X327750Y215502D02*
X356050D01*
X327750Y216002D02*
X356050D01*
X327750Y216502D02*
X330750Y216502D01*
X327750Y217002D02*
X330750Y217002D01*
X327750Y217302D02*
X330750Y217301D01*
X327750Y217802D02*
X330750Y217801D01*
X327750Y218302D02*
X330750D01*
X327750Y218802D02*
X330250D01*
X327750Y219302D02*
X330750D01*
X327750Y219802D02*
X330850Y219802D01*
X327750Y220302D02*
X356050D01*
X327750Y220802D02*
X338950Y220801D01*
X327750Y221102D02*
X338250D01*
X327750Y221602D02*
X335750D01*
X327750Y222102D02*
X330450D01*
X327750Y222602D02*
X330450D01*
X327750Y223102D02*
X330450D01*
X327750Y223602D02*
X330450D01*
X327750Y224102D02*
X330150D01*
X327750Y224602D02*
X331950D01*
X327750Y225402D02*
X330350D01*
X327750Y225902D02*
X356050D01*
X327750Y226402D02*
X356050D01*
X327750Y226902D02*
X356050D01*
X327750Y227402D02*
X356050D01*
X327750Y227902D02*
X356050D01*
X327750Y228402D02*
X356050D01*
X327750Y229202D02*
X356050D01*
X327750Y229702D02*
X356050D01*
X327750Y230202D02*
X356050D01*
X327750Y230702D02*
X356050D01*
X327750Y231202D02*
X356050D01*
X327750Y231702D02*
X356050D01*
X327750Y232202D02*
X356050D01*
X327750Y232702D02*
X356050D01*
X327750Y233002D02*
X356050D01*
X327750Y233502D02*
X356050D01*
X327750Y234002D02*
X356050D01*
X327750Y234502D02*
X356050D01*
X327750Y235002D02*
X356050D01*
X327750Y235502D02*
X356050D01*
X327750Y236002D02*
X356050D01*
X327750Y208002D02*
X356050Y208001D01*
X327750Y208102D02*
X356050D01*
X327750Y208201D02*
X356050Y208202D01*
X327750Y208302D02*
X356050D01*
X327750Y208502D02*
X356051D01*
X327750Y208602D02*
X356050D01*
X327750Y208701D02*
X356050Y208702D01*
X327750Y208802D02*
X356050D01*
X327750Y209002D02*
X356051D01*
X327750Y209102D02*
X356050Y209101D01*
X327750Y209201D02*
X356050Y209202D01*
X327750Y209302D02*
X356050D01*
X327750Y209402D02*
X356050D01*
X327750Y209502D02*
X356051D01*
X327750Y209602D02*
X356050Y209601D01*
X327750Y209802D02*
X356050D01*
X327750Y209902D02*
X356050D01*
X327750Y210002D02*
X356051D01*
X327750Y210102D02*
X356050Y210101D01*
X327750Y210302D02*
X356050Y210302D01*
X327750Y210402D02*
X356050D01*
X327750Y210502D02*
X356051D01*
X327750Y210602D02*
X356050Y210601D01*
X327750Y210802D02*
X331150Y210802D01*
X327750Y210902D02*
X330950D01*
X327750Y211001D02*
X330750Y211002D01*
X327750Y211102D02*
X330650Y211101D01*
X327750Y211302D02*
X330550D01*
X327750Y211402D02*
X330450D01*
X327750Y211501D02*
X330450Y211502D01*
X327750Y211602D02*
X330450D01*
X327750Y211802D02*
X330350D01*
X327750Y211902D02*
X330351D01*
X327750Y212001D02*
X330350D01*
X327750Y212102D02*
X330350D01*
X327750Y212302D02*
X330350D01*
X327750Y212402D02*
X330351D01*
X327750Y212501D02*
X330350Y212502D01*
X327750Y212602D02*
X330350D01*
X327750Y212802D02*
X330450D01*
X327750Y212902D02*
X330450D01*
X327750Y213001D02*
X330550Y213002D01*
X327750Y213102D02*
X330650D01*
X327750Y213302D02*
X330750D01*
X327750Y213402D02*
X330950D01*
X327750Y213602D02*
X331350D01*
X327750Y213702D02*
X336750D01*
X327750Y213802D02*
X336750D01*
X327750Y213902D02*
X336750Y213901D01*
X327750Y214102D02*
X336750D01*
X327750Y214202D02*
X336450Y214201D01*
X327750Y214302D02*
X336450D01*
X327750Y214402D02*
X336450Y214402D01*
X327750Y214602D02*
X336450Y214602D01*
X327750Y214702D02*
X356050D01*
X327750Y214801D02*
X356051D01*
X327750Y214902D02*
X356050D01*
X327750Y215102D02*
X356050Y215101D01*
X327750Y215202D02*
X356050D01*
X327750Y215302D02*
X356050Y215302D01*
X327750Y215402D02*
X356050D01*
X327750Y215602D02*
X356050Y215601D01*
X327750Y215702D02*
X356050D01*
X327750Y215801D02*
X356050Y215802D01*
X327750Y215902D02*
X356050D01*
X327750Y216102D02*
X356051D01*
X327750Y216202D02*
X333150Y216202D01*
X327750Y216301D02*
X330750Y216302D01*
X327750Y216402D02*
X330750D01*
X327750Y216602D02*
X330750Y216601D01*
X327750Y216702D02*
X330750D01*
X327750Y216801D02*
X330750D01*
X327750Y216902D02*
X330750D01*
X327750Y217102D02*
X330750Y217101D01*
X327750Y217202D02*
X330750D01*
X327750Y217402D02*
X330750D01*
X327750Y217502D02*
X330750D01*
X327750Y217602D02*
X330750D01*
X327750Y217702D02*
X330750D01*
X327750Y217902D02*
X330750D01*
X327750Y218002D02*
X330750D01*
X327750Y218102D02*
X330750Y218102D01*
X327750Y218202D02*
X330750D01*
X327750Y218402D02*
X330250D01*
X327750Y218502D02*
X330250D01*
X327750Y218601D02*
X330250Y218602D01*
X327750Y218702D02*
X330250D01*
X327750Y218902D02*
X330250Y218901D01*
X327750Y219002D02*
X330750D01*
X327750Y219102D02*
X330750Y219102D01*
X327750Y219202D02*
X330750D01*
X327750Y219402D02*
X330750Y219401D01*
X327750Y219502D02*
X330750D01*
X327750Y219601D02*
X330750Y219602D01*
X327750Y219702D02*
X330750D01*
X327750Y219902D02*
X330850D01*
X327750Y220002D02*
X330950D01*
X327750Y220101D02*
X331250Y220102D01*
X327750Y220202D02*
X344850D01*
X327750Y220402D02*
X356051D01*
X327750Y220502D02*
X356050Y220501D01*
X327750Y220601D02*
X356050Y220602D01*
X327750Y220702D02*
X356050D01*
X327750Y220902D02*
X338550D01*
X327750Y221002D02*
X338350D01*
X327750Y221202D02*
X338250D01*
X327750Y221302D02*
X338150D01*
X327750Y221402D02*
X338150D01*
X327750Y221502D02*
X338150D01*
X327750Y221702D02*
X330450D01*
X327750Y221802D02*
X330450D01*
X327750Y221902D02*
X330450D01*
X327750Y222002D02*
X330450D01*
X327750Y222202D02*
X330450D01*
X327750Y222302D02*
X330450D01*
X327750Y222401D02*
X330450Y222402D01*
X327750Y222502D02*
X330450D01*
X327750Y222702D02*
X330450D01*
X327750Y222802D02*
X330450D01*
X327750Y222902D02*
X330450D01*
X327750Y223002D02*
X330450D01*
X327750Y223202D02*
X330450D01*
X327750Y223302D02*
X330450D01*
X327750Y223401D02*
X330450Y223402D01*
X327750Y223502D02*
X330450D01*
X327750Y223702D02*
X330450D01*
X327750Y223802D02*
X330150D01*
X327750Y223901D02*
X330150Y223902D01*
X327750Y224002D02*
X330150D01*
X327750Y224202D02*
X330150D01*
X327750Y224302D02*
X330150Y224301D01*
X327750Y224401D02*
X331950Y224402D01*
X327750Y224502D02*
X331950D01*
X327750Y224702D02*
X331950D01*
X327750Y224802D02*
X330550D01*
X327750Y224901D02*
X330450Y224902D01*
X327750Y225002D02*
X330350D01*
X327750Y225102D02*
X330350Y225101D01*
X327750Y225202D02*
X330350D01*
X327750Y225302D02*
X330350Y225302D01*
X327750Y225502D02*
X330450D01*
X327750Y225602D02*
X330550D01*
X327750Y225702D02*
X356051D01*
X327750Y225802D02*
X356050Y225801D01*
X327750Y226002D02*
X356050Y226002D01*
X327750Y226102D02*
X356050D01*
X327750Y226201D02*
X356051D01*
X327750Y226302D02*
X356050Y226301D01*
X327750Y226502D02*
X356050Y226501D01*
X327750Y226602D02*
X356050D01*
X327750Y226701D02*
X356051D01*
X327750Y226802D02*
X356050D01*
X327750Y227002D02*
X356050Y227001D01*
X327750Y227102D02*
X356050D01*
X327750Y227201D02*
X356050Y227202D01*
X327750Y227302D02*
X356050D01*
X327750Y227502D02*
X356050Y227501D01*
X327750Y227602D02*
X356050D01*
X327750Y227701D02*
X356050Y227702D01*
X327750Y227802D02*
X356050D01*
X327750Y228002D02*
X356051D01*
X327750Y228102D02*
X356050D01*
X327750Y228201D02*
X356050Y228202D01*
X327750Y228302D02*
X356050D01*
X327750Y228502D02*
X356051D01*
X327750Y228602D02*
X356050Y228601D01*
X327750Y228701D02*
X356050Y228702D01*
X327750Y228802D02*
X356050D01*
X327750Y228902D02*
X356050D01*
X327750Y229002D02*
X356051D01*
X327750Y229102D02*
X356050Y229101D01*
X327750Y229302D02*
X356050D01*
X327750Y229402D02*
X356050D01*
X327750Y229502D02*
X356051D01*
X327750Y229602D02*
X356050Y229601D01*
X327750Y229802D02*
X356050Y229802D01*
X327750Y229902D02*
X356050D01*
X327750Y230002D02*
X356051D01*
X327750Y230102D02*
X356050Y230101D01*
X327750Y230302D02*
X356050Y230301D01*
X327750Y230402D02*
X356050D01*
X327750Y230501D02*
X356051D01*
X327750Y230602D02*
X356050D01*
X327750Y230802D02*
X356050Y230801D01*
X327750Y230902D02*
X356050D01*
X327750Y231001D02*
X356050Y231002D01*
X327750Y231102D02*
X356050D01*
X327750Y231302D02*
X356050Y231301D01*
X327750Y231402D02*
X356050D01*
X327750Y231501D02*
X356050Y231502D01*
X327750Y231602D02*
X356050D01*
X327750Y231802D02*
X356051D01*
X327750Y231902D02*
X356050D01*
X327750Y232001D02*
X356050Y232002D01*
X327750Y232102D02*
X356050D01*
X327750Y232302D02*
X356051D01*
X327750Y232402D02*
X356050Y232401D01*
X327750Y232501D02*
X356050Y232502D01*
X327750Y232602D02*
X356050D01*
X327750Y232802D02*
X356051D01*
X327750Y232902D02*
X356050Y232901D01*
X327750Y233102D02*
X356050D01*
X327750Y233202D02*
X356050D01*
X327750Y233302D02*
X356051D01*
X327750Y233402D02*
X356050Y233401D01*
X327750Y233602D02*
X356050Y233602D01*
X327750Y233702D02*
X356050D01*
X327750Y233802D02*
X356051D01*
X327750Y233902D02*
X356050Y233901D01*
X327750Y234102D02*
X356050D01*
X327750Y234202D02*
X356050D01*
X327750Y234301D02*
X356051D01*
X327750Y234402D02*
X356050D01*
X327750Y234602D02*
X356050Y234601D01*
X327750Y234702D02*
X356050D01*
X327750Y234802D02*
X356050Y234802D01*
X327750Y234902D02*
X356050D01*
X327750Y235102D02*
X356050Y235101D01*
X327750Y235202D02*
X356050D01*
X327750Y235301D02*
X356050Y235302D01*
X327750Y235402D02*
X356050D01*
X327750Y235602D02*
X356051D01*
X327750Y235702D02*
X356050D01*
X327750Y235801D02*
X356050Y235802D01*
X327750Y235902D02*
X356050D01*
X327750Y236102D02*
X356051D01*
X331250Y212002D02*
X333650Y212002D01*
X331250Y212102D02*
X333750D01*
X331250Y211902D02*
X333550D01*
X331250Y212202D02*
X333850D01*
X331250Y212301D02*
X334050Y212301D01*
X331250Y212402D02*
X334250D01*
X331250Y224801D02*
X331950D01*
X331250Y225602D02*
X356050D01*
X331350Y222102D02*
X331950D01*
X331350Y222602D02*
X331950D01*
X331350Y223102D02*
X331950D01*
X331350Y225402D02*
X331650D01*
X331350Y211602D02*
X332350D01*
X331350Y211702D02*
X332350Y211702D01*
X331350Y211802D02*
X332350D01*
X331350Y212501D02*
X332350Y212502D01*
X331350Y212602D02*
X332350D01*
X331350Y212701D02*
X332350Y212702D01*
X331350Y221702D02*
X331950D01*
X331350Y221902D02*
X331950D01*
X331350Y222002D02*
X331950Y222002D01*
X331350Y222202D02*
X331950D01*
X331350Y222401D02*
X331950Y222402D01*
X331350Y222502D02*
X331950D01*
X331350Y222702D02*
X331950D01*
X331350Y222901D02*
X331950Y222902D01*
X331350Y223002D02*
X331950D01*
X331350Y223202D02*
X331950D01*
X331350Y223401D02*
X331950Y223402D01*
X331350Y223502D02*
X331950D01*
X331350Y223602D02*
X331950Y223602D01*
X331350Y223702D02*
X331950D01*
X331350Y223901D02*
X331950Y223902D01*
X331350Y224002D02*
X331950D01*
X331350Y224102D02*
X331950Y224102D01*
X331350Y224202D02*
X331950D01*
X331350Y224901D02*
X331950Y224902D01*
X331350Y225002D02*
X331650Y225002D01*
X331350Y225502D02*
X331650Y225502D01*
X331351Y221802D02*
X331950D01*
X331351Y222302D02*
X331950D01*
X331351Y222802D02*
X331950D01*
X331351Y223302D02*
X331950D01*
X331351Y223802D02*
X331950D01*
X331351Y224301D02*
X331950D01*
X331351Y225301D02*
X331650Y225302D01*
X331450Y212802D02*
X332251D01*
X331450Y211502D02*
X332250Y211502D01*
X331450Y212901D02*
X332250D01*
X331450Y225102D02*
X331650Y225101D01*
X331450Y225202D02*
X331650D01*
X331550Y211402D02*
X332150D01*
X331650Y219002D02*
X337050D01*
X331650Y213002D02*
X332050Y213001D01*
X331650Y216302D02*
X332950D01*
X331650Y216401D02*
X332850Y216402D01*
X331650Y216502D02*
X332750D01*
X331650Y216702D02*
X332650Y216702D01*
X331650Y216802D02*
X332650D01*
X331650Y216901D02*
X332650Y216902D01*
X331650Y217202D02*
X332650D01*
X331650Y217302D02*
X332650D01*
X331650Y217602D02*
X332650D01*
X331650Y217702D02*
X332650D01*
X331650Y217802D02*
X332650D01*
X331650Y218001D02*
X332650D01*
X331650Y218102D02*
X332650D01*
X331650Y218202D02*
X332650D01*
X331650Y218302D02*
X332650D01*
X331650Y219102D02*
X342750Y219101D01*
X331650Y219302D02*
X342750D01*
X331650Y219502D02*
X342751D01*
X331650Y216602D02*
X332751D01*
X331650Y217001D02*
X332650D01*
X331650Y217102D02*
X332650D01*
X331650Y217402D02*
X332650Y217402D01*
X331650Y217501D02*
X332650D01*
X331650Y217902D02*
X332650Y217902D01*
X331650Y219201D02*
X342750Y219202D01*
X331650Y219402D02*
X342750D01*
X331750Y211301D02*
X332050Y211302D01*
X332150Y210702D02*
X334250D01*
X332250Y218702D02*
X332350D01*
X332250Y219602D02*
X342750Y219601D01*
X332250Y219702D02*
X342750D01*
X332250Y220102D02*
X344750Y220102D01*
X332250Y218402D02*
X332350D01*
X332250Y218502D02*
X332350D01*
X332250Y218802D02*
X332350D01*
X332250Y218901D02*
X332350Y218902D01*
X332250Y219802D02*
X342750Y219802D01*
X332250Y219901D02*
X344651Y219902D01*
X332250Y220002D02*
X344650D01*
X332251Y218601D02*
X332350Y218602D01*
X332350Y213602D02*
X334350D01*
X332550Y210801D02*
X333850Y210802D01*
X332650Y213502D02*
X334050Y213501D01*
X332650Y210901D02*
X333750Y210902D01*
X332750Y213401D02*
X333850Y213402D01*
X332850Y211002D02*
X333650Y211001D01*
X332850Y221802D02*
X333450D01*
X332850Y222102D02*
X333450D01*
X332850Y222302D02*
X333450D01*
X332850Y222402D02*
X333450D01*
X332850Y222602D02*
X333450D01*
X332850Y222802D02*
X333450D01*
X332850Y222902D02*
X333450D01*
X332850Y223102D02*
X333450D01*
X332850Y223302D02*
X333450D01*
X332850Y223402D02*
X333450D01*
X332850Y223602D02*
X333450D01*
X332850Y223902D02*
X333450D01*
X332850Y224102D02*
X333450D01*
X332850Y224402D02*
X333450D01*
X332850Y224602D02*
X333450D01*
X332850Y224902D02*
X333450D01*
X332850Y225102D02*
X333150Y225101D01*
X332850Y225402D02*
X333150D01*
X332850Y221702D02*
X333450D01*
X332850Y221902D02*
X333450D01*
X332850Y222002D02*
X333450Y222001D01*
X332850Y222202D02*
X333450D01*
X332850Y222502D02*
X333450Y222501D01*
X332850Y222702D02*
X333450D01*
X332850Y223002D02*
X333450D01*
X332850Y223202D02*
X333450D01*
X332850Y223502D02*
X333450D01*
X332850Y223702D02*
X333450D01*
X332850Y223802D02*
X333450D01*
X332850Y224002D02*
X333450D01*
X332850Y224202D02*
X333450D01*
X332850Y224302D02*
X333450Y224301D01*
X332850Y224502D02*
X333450D01*
X332850Y224702D02*
X333450D01*
X332850Y224802D02*
X333450Y224801D01*
X332850Y225002D02*
X333150D01*
X332850Y225202D02*
X333150D01*
X332850Y225302D02*
X333150Y225302D01*
X332850Y225502D02*
X333150D01*
X332950Y211102D02*
X333550D01*
X332950Y211202D02*
X333550Y211201D01*
X332950Y213302D02*
X333751D01*
X333050Y211402D02*
X333450D01*
X333050Y213102D02*
X333550D01*
X333050Y211301D02*
X333550D01*
X333050Y213202D02*
X333650Y213201D01*
X333150Y211502D02*
X333450D01*
X333150Y211702D02*
X333550Y211702D01*
X333150Y212502D02*
X334550Y212502D01*
X333150Y212902D02*
X333550Y212902D01*
X333150Y213002D02*
X333550Y213001D01*
X333150Y211601D02*
X333450Y211602D01*
X333150Y211802D02*
X333550Y211801D01*
X333150Y212602D02*
X333550D01*
X333150Y212701D02*
X333550Y212702D01*
X333150Y212802D02*
X333550D01*
Y217102D02*
X334450D01*
X333550Y216902D02*
X334350D01*
X333550Y217202D02*
X334450D01*
X333550Y217402D02*
X334450D01*
X333550Y217602D02*
X334450D01*
X333550Y217702D02*
X334450D01*
X333550Y217801D02*
X334450Y217802D01*
X333550Y217902D02*
X334450D01*
X333550Y218102D02*
X334450D01*
X333550Y218202D02*
X334450Y218202D01*
X333550Y218301D02*
X334450Y218302D01*
X333550Y218402D02*
X334450Y218402D01*
X333550Y218602D02*
X334450D01*
X333550Y218702D02*
X334450Y218701D01*
X333550Y218801D02*
X334450Y218802D01*
X333550Y217002D02*
X334450Y217002D01*
X333550Y217301D02*
X334450Y217302D01*
X333550Y217502D02*
X334450D01*
X333550Y218002D02*
X334450D01*
X333550Y218502D02*
X334450D01*
X333550Y218901D02*
X334450Y218902D01*
X333650Y216802D02*
X334150D01*
X333750Y216701D02*
X333950Y216702D01*
X334350Y221802D02*
X335250D01*
X334350Y222102D02*
X335050D01*
X334350Y222602D02*
X334850D01*
X334350Y223102D02*
X334850D01*
X334350Y223602D02*
X334950D01*
X334350Y223902D02*
X335050Y223902D01*
X334350Y224102D02*
X335250D01*
X334350Y224402D02*
X335750D01*
X334350Y224602D02*
X344650D01*
X334350Y224902D02*
X344650D01*
X334350Y225102D02*
X344350D01*
X334350Y225402D02*
X344350D01*
X334350Y212602D02*
X335050D01*
X334350Y216202D02*
X339950D01*
X334350Y221702D02*
X335450Y221702D01*
X334350Y221902D02*
X335150D01*
X334350Y222002D02*
X335050D01*
X334350Y222202D02*
X334950Y222202D01*
X334350Y222302D02*
X334950D01*
X334350Y222401D02*
X334850D01*
X334350Y222502D02*
X334850D01*
X334350Y222702D02*
X334850D01*
X334350Y222802D02*
X334850D01*
X334350Y222901D02*
X334850D01*
X334350Y223002D02*
X334850D01*
X334350Y223202D02*
X334850D01*
X334350Y223302D02*
X334850D01*
X334350Y223401D02*
X334850D01*
X334350Y223502D02*
X334850D01*
X334350Y223702D02*
X334950D01*
X334350Y223802D02*
X334950D01*
X334350Y224002D02*
X335150D01*
X334350Y224202D02*
X335350D01*
X334350Y224302D02*
X335450D01*
X334350Y224502D02*
X344650D01*
X334350Y224702D02*
X344651D01*
X334350Y224802D02*
X344650Y224801D01*
X334350Y225002D02*
X344350D01*
X334350Y225202D02*
X344350D01*
X334350Y225302D02*
X344350Y225301D01*
X334350Y225502D02*
X344350D01*
X334450Y211402D02*
X335050D01*
X334450Y211502D02*
X335150Y211501D01*
X334450Y211601D02*
X335250Y211602D01*
X334450Y211702D02*
X335350D01*
X334450Y212701D02*
X335350Y212702D01*
X334450Y212802D02*
X335250D01*
X334550Y212902D02*
X335250Y212901D01*
X334550Y216302D02*
X334550Y211301D02*
X334750Y211302D01*
X334550Y211801D02*
X335350Y211802D01*
X334650Y213002D02*
X335050Y213001D01*
X334750Y210702D02*
X356050D01*
X334750Y211902D02*
X335350D01*
X335050Y212002D02*
X335350Y212001D01*
X335150Y210802D02*
X356050Y210801D01*
X335350Y216502D02*
X335950D01*
X335350Y217002D02*
X335950Y217001D01*
X335350Y217302D02*
X335950D01*
X335350Y217802D02*
X335950D01*
X335350Y218302D02*
X335950D01*
X335350Y218802D02*
X335650D01*
X335350Y210902D02*
X335450D01*
X335350Y213602D02*
X336750D01*
X335350Y216301D02*
X335950Y216302D01*
X335350Y216402D02*
X335950Y216401D01*
X335350Y216602D02*
X335950D01*
X335350Y216702D02*
X335950Y216702D01*
X335350Y216801D02*
X335950Y216802D01*
X335350Y216902D02*
X335950D01*
X335350Y217102D02*
X335950D01*
X335350Y217202D02*
X335950Y217202D01*
X335350Y217402D02*
X335950D01*
X335350Y217502D02*
X335950Y217501D01*
X335350Y217602D02*
X335950D01*
X335350Y217702D02*
X335950Y217702D01*
X335350Y217902D02*
X335950Y217902D01*
X335350Y218002D02*
X335950Y218001D01*
X335350Y218102D02*
X335950D01*
X335350Y218202D02*
X335950Y218202D01*
X335350Y218402D02*
X335650D01*
X335350Y218502D02*
X335651D01*
X335350Y218601D02*
X335650D01*
X335350Y218702D02*
X335650D01*
X335350Y218902D02*
X335650D01*
Y213501D02*
X336750Y213502D01*
X335750Y222702D02*
X338450D01*
X335750Y222602D02*
X336950D01*
X335750Y222802D02*
X338550D01*
X335850Y223602D02*
X336750D01*
X335850Y213402D02*
X336750Y213401D01*
X335850Y222401D02*
X336950D01*
X335850Y222502D02*
X336950Y222501D01*
X335850Y223502D02*
X336750D01*
X335950Y222301D02*
X336850Y222302D01*
X335950Y213302D02*
X336750D01*
X335950Y223702D02*
X336650D01*
X336050Y222202D02*
X336750D01*
X336050Y213202D02*
X336750D01*
X336050Y223802D02*
X336550D01*
X336150Y213002D02*
X336750D01*
X336150Y212902D02*
X336750Y212901D01*
X336150Y213102D02*
X336750D01*
X336250Y211102D02*
X336750D01*
X336250Y211302D02*
X336750D01*
X336250Y211602D02*
X336750D01*
X336250Y211802D02*
X336750D01*
X336250Y212102D02*
X336750D01*
X336250Y212302D02*
X336750D01*
X336250Y212602D02*
X336750D01*
X336250Y211002D02*
X336750D01*
X336250Y211202D02*
X336750D01*
X336250Y211402D02*
X336750D01*
X336250Y211502D02*
X336750D01*
X336250Y211702D02*
X336750D01*
X336250Y211902D02*
X336750D01*
X336250Y212002D02*
X336750D01*
X336250Y212202D02*
X336750D01*
X336250Y212402D02*
X336750D01*
X336250Y212502D02*
X336750D01*
X336250Y212702D02*
X336750D01*
X336250Y212802D02*
X336750D01*
X336250Y223902D02*
X336350D01*
X336350Y210902D02*
X336750D01*
X336750Y218902D02*
X336850Y218901D01*
X336850Y216602D02*
X337750D01*
X336850Y217102D02*
X337750D01*
X336850Y217602D02*
X337750D01*
X336850Y216302D02*
X337750Y216302D01*
X336850Y216402D02*
X337750D01*
X336850Y216702D02*
X337750Y216701D01*
X336850Y216902D02*
X337750D01*
X336850Y217202D02*
X337750D01*
X336850Y217301D02*
X337750Y217302D01*
X336850Y217402D02*
X337750D01*
X336850Y217702D02*
X337750Y217701D01*
X336850Y217801D02*
X337750Y217802D01*
X336850Y217902D02*
X337750D01*
X336850Y218102D02*
X337750D01*
X336850Y216502D02*
X337750Y216502D01*
X336850Y216801D02*
X337750Y216802D01*
X336850Y217002D02*
X337750Y217002D01*
X336850Y217502D02*
X337750D01*
X336850Y218002D02*
X337750D01*
X336850Y224401D02*
X338850D01*
X336950Y218202D02*
X337750Y218201D01*
X336950Y221602D02*
X338150D01*
X337050Y218302D02*
X337750D01*
X337150Y218402D02*
X337650D01*
X337150Y221702D02*
X338150D01*
X337150Y224302D02*
X338650D01*
X337250Y224202D02*
X338450D01*
X337350Y221802D02*
X338250D01*
X337350Y224102D02*
X338450D01*
X337450Y221902D02*
X338250D01*
X337450Y224002D02*
X338350D01*
X337550Y222001D02*
X338450Y222002D01*
X337551Y223901D02*
X338250Y223902D01*
X337650Y210902D02*
X338250D01*
X337650Y211202D02*
X338250D01*
X337650Y211502D02*
X338250D01*
X337650Y211702D02*
X338250D01*
X337650Y212002D02*
X338250D01*
X337650Y212202D02*
X338250D01*
X337650Y212502D02*
X338250D01*
X337650Y212702D02*
X338250Y212701D01*
X337650Y213002D02*
X338250D01*
X337650Y213202D02*
X338250D01*
X337650Y213502D02*
X338250D01*
X337650Y213702D02*
X338250D01*
X337650Y214002D02*
X338250D01*
X337650Y214202D02*
X337950Y214201D01*
X337650Y214502D02*
X337950D01*
X337650Y222102D02*
X338450D01*
X337650Y222302D02*
X338350D01*
X337650Y223602D02*
X338250D01*
X337650Y211001D02*
X338250Y211002D01*
X337650Y211102D02*
X338250Y211101D01*
X337650Y211302D02*
X338250Y211302D01*
X337650Y211402D02*
X338250D01*
X337650Y211602D02*
X338250Y211601D01*
X337650Y211802D02*
X338250D01*
X337650Y211902D02*
X338250D01*
X337650Y212102D02*
X338250D01*
X337650Y212302D02*
X338250D01*
X337650Y212402D02*
X338249D01*
X337650Y212602D02*
X338250D01*
X337650Y212802D02*
X338250D01*
X337650Y212902D02*
X338250D01*
X337650Y213102D02*
X338250D01*
X337650Y213302D02*
X338250D01*
X337650Y213402D02*
X338250D01*
X337650Y213602D02*
X338250D01*
X337650Y213802D02*
X338250D01*
X337650Y213902D02*
X338250D01*
X337650Y214102D02*
X338250D01*
X337650Y214302D02*
X337950D01*
X337650Y214402D02*
X337950Y214402D01*
X337650Y214602D02*
X337950D01*
X337650Y222202D02*
X338350D01*
X337650Y223702D02*
X338250D01*
X337650Y223802D02*
X338250D01*
X337750Y223502D02*
X338250Y223501D01*
X337750Y222402D02*
X338350Y222402D01*
X337750Y222501D02*
X338350Y222502D01*
X337750Y222602D02*
X338350D01*
X337750Y222902D02*
X338550D01*
X337750Y223001D02*
X338450Y223002D01*
X337750Y223102D02*
X338350D01*
X337750Y223202D02*
X338250D01*
X337750Y223302D02*
X338250D01*
X337750Y223402D02*
X338250D01*
X338150Y219002D02*
X340150D01*
X338350Y218901D02*
X339850Y218901D01*
X338450Y218802D02*
X339650D01*
X338550Y218702D02*
X339550D01*
X338550Y218602D02*
X339450Y218601D01*
X338650Y216502D02*
X339550D01*
X338650Y216802D02*
X339350Y216801D01*
X338650Y217002D02*
X339250Y217001D01*
X338650Y217302D02*
X339150D01*
X338650Y217502D02*
X339150D01*
X338650Y217802D02*
X339150D01*
X338650Y218302D02*
X339250D01*
X338650Y216301D02*
X339750Y216302D01*
X338650Y216402D02*
X339650D01*
X338650Y216602D02*
X339450D01*
X338650Y216702D02*
X339350Y216701D01*
X338650Y216902D02*
X339250Y216901D01*
X338650Y217102D02*
X339250D01*
X338650Y217202D02*
X339150D01*
X338650Y217402D02*
X339150D01*
X338650Y217602D02*
X339150D01*
X338650Y217702D02*
X339150D01*
X338650Y217902D02*
X339150D01*
X338650Y218002D02*
X339150D01*
X338650Y218102D02*
X339250D01*
X338650Y218202D02*
X339250Y218202D01*
X338650Y218402D02*
X339350D01*
X338650Y218502D02*
X339350D01*
X339050Y221502D02*
X340150D01*
X339050Y221702D02*
X340050D01*
X339050Y221602D02*
X340150Y221601D01*
X339150Y211202D02*
X356050D01*
X339150Y211702D02*
X356050D01*
X339150Y212202D02*
X356050D01*
X339150Y212702D02*
X356050D01*
X339150Y213002D02*
X356050D01*
X339150Y213202D02*
X356050D01*
X339150Y213502D02*
X356050D01*
X339150Y214002D02*
X356050D01*
X339150Y214502D02*
X356050D01*
X339150Y223602D02*
X339750D01*
X339150Y210902D02*
X356050D01*
X339150Y211001D02*
X356051D01*
X339150Y211102D02*
X356050D01*
X339150Y211302D02*
X356050Y211301D01*
X339150Y211402D02*
X356050D01*
X339150Y211501D02*
X356050Y211502D01*
X339150Y211602D02*
X356050D01*
X339150Y211802D02*
X356050Y211801D01*
X339150Y211902D02*
X356050D01*
X339150Y212001D02*
X356050Y212002D01*
X339150Y212102D02*
X356050D01*
X339150Y212302D02*
X356051D01*
X339150Y212402D02*
X356050D01*
X339150Y212501D02*
X356050Y212502D01*
X339150Y212602D02*
X356050D01*
X339150Y212802D02*
X356051D01*
X339150Y212902D02*
X356050Y212901D01*
X339150Y213102D02*
X356050D01*
X339150Y213302D02*
X356051D01*
X339150Y213402D02*
X356050Y213401D01*
X339150Y213602D02*
X356050D01*
X339150Y213702D02*
X356050D01*
X339150Y213802D02*
X356051D01*
X339150Y213902D02*
X356050Y213901D01*
X339150Y214102D02*
X356050Y214102D01*
X339150Y214202D02*
X356050D01*
X339150Y214302D02*
X356051D01*
X339150Y214402D02*
X356050Y214401D01*
X339150Y214602D02*
X356050D01*
X339150Y221802D02*
X339650D01*
X339150Y223401D02*
X339750Y223402D01*
X339150Y223502D02*
X339750Y223501D01*
X339150Y223702D02*
X339750D01*
X339250Y223302D02*
X339650D01*
X339250Y221402D02*
X339950D01*
X339250Y222602D02*
X341350D01*
X339250Y223802D02*
X339650D01*
X339450Y223901D02*
X339750Y222501D02*
X341350D01*
X339950Y222702D02*
X341450D01*
X340050Y217402D02*
X342750D01*
X340050Y217502D02*
X342750Y217501D01*
X340050Y217602D02*
X342750D01*
X340050Y217701D02*
X342750Y217702D01*
X340050Y217802D02*
X342750D01*
X340050Y224402D02*
X340450D01*
X340149Y218102D02*
X341150D01*
X340150Y217102D02*
X341150D01*
X340150Y217202D02*
X341150D01*
X340150Y217301D02*
X341250Y217302D01*
X340150Y217902D02*
X341150D01*
X340150Y218002D02*
X341150D01*
X340150Y220802D02*
X356050Y220802D01*
X340250Y218202D02*
X341150Y218202D01*
X340250Y218302D02*
X341050D01*
X340250Y222802D02*
X341450D01*
X340250Y224302D02*
X340350Y224301D01*
X340250Y216902D02*
X341050D01*
X340250Y217001D02*
X341150Y217002D01*
X340350Y222902D02*
X341550Y222902D01*
X340350Y216802D02*
X340950D01*
X340450Y222402D02*
X341351Y222401D01*
X340450Y218402D02*
X340950D01*
X340450Y223002D02*
X341650D01*
X340550Y223202D02*
X341950D01*
X340550Y216701D02*
X340750Y216702D01*
X340550Y220902D02*
X356051D01*
X340550Y223102D02*
X341850D01*
X340650Y223702D02*
X341450D01*
X340650Y223302D02*
X342251D01*
X340650Y223402D02*
X341450D01*
X340650Y223502D02*
X341450D01*
X340650Y223602D02*
X341450D01*
X340650Y222302D02*
X341350D01*
X340750Y221002D02*
X356050Y221001D01*
X340850Y221102D02*
X356050D01*
X340850Y222202D02*
X341350D01*
X340850Y223802D02*
X341450D01*
X340950Y221302D02*
X356050D01*
X340950Y222102D02*
X341350D01*
X340950Y221202D02*
X356050D01*
X340950Y221902D02*
X341450D01*
X340950Y222002D02*
X341450D01*
X341050Y221702D02*
X341650D01*
X341050Y224002D02*
X341550D01*
X341050Y221402D02*
X356051D01*
X341050Y221501D02*
X356050D01*
X341050Y221602D02*
X341850D01*
X341050Y221802D02*
X341550D01*
X341050Y223902D02*
X341450D01*
X341050Y224102D02*
X341550D01*
X341050Y224202D02*
X341750D01*
X341050Y224301D02*
X341850Y224302D01*
X341050Y224402D02*
X342050D01*
X341250Y216202D02*
X346950Y216202D01*
X341250Y219001D02*
X342751Y219002D01*
X341450Y216302D02*
X343050D01*
X341450Y218902D02*
X342250D01*
X341550Y216402D02*
X342850D01*
X341650Y218801D02*
X342250Y218802D01*
X341650Y216502D02*
X342850Y216502D01*
X341750Y216602D02*
X342750D01*
X341750Y218701D02*
X342250Y218702D01*
X341850Y218602D02*
X342250Y218601D01*
X341850Y216702D02*
X342751Y216701D01*
X341850Y216802D02*
X342750Y216801D01*
X341950Y217002D02*
X342750Y217001D01*
X341950Y217302D02*
X342750D01*
X341950Y218002D02*
X342751D01*
X341950Y218302D02*
X342750D01*
X341950Y218502D02*
X342251D01*
X341950Y216902D02*
X342750D01*
X341950Y217102D02*
X342750D01*
X341950Y217202D02*
X342751Y217201D01*
X341950Y217902D02*
X342750D01*
X341950Y218102D02*
X342750D01*
X341950Y218202D02*
X342750Y218202D01*
X341950Y218402D02*
X342250D01*
Y222401D02*
X343050Y222402D01*
X342250Y223401D02*
X342650Y223402D01*
X342250Y223502D02*
X343250D01*
X342350Y222202D02*
X342850D01*
X342350Y222502D02*
X343250D01*
X342350Y223702D02*
X343150Y223701D01*
X342350Y222302D02*
X342950D01*
X342350Y222602D02*
X343250D01*
X342350Y223602D02*
X343150D01*
X342450Y223802D02*
X343050D01*
X342550Y222702D02*
X343250Y222702D01*
X342650Y223902D02*
X342850Y223902D01*
X342751Y222802D02*
X343251D01*
X342950Y221602D02*
X356050D01*
X343150Y221702D02*
X343350D01*
X343150Y222902D02*
X343250Y222901D01*
X343350Y224402D02*
X344650D01*
X343650Y216902D02*
X344750D01*
X343650Y217402D02*
X344750D01*
X343650Y217902D02*
X344750D01*
X343650Y218202D02*
X344750D01*
X343650Y219102D02*
X356050D01*
X343650Y219202D02*
X356050D01*
X343650Y219602D02*
X344650Y219602D01*
X343650Y219702D02*
X344650D01*
X343650Y217002D02*
X344750D01*
X343650Y217201D02*
X344750Y217202D01*
X343650Y217302D02*
X344750D01*
X343650Y217502D02*
X344750D01*
X343650Y217701D02*
X344750Y217702D01*
X343650Y217802D02*
X344750D01*
X343650Y218002D02*
X344750D01*
X343650Y218302D02*
X344750D01*
X343650Y219002D02*
X347051D01*
X343650Y219302D02*
X344950D01*
X343650Y219401D02*
X344750Y219402D01*
X343650Y219502D02*
X344650D01*
X343650Y219802D02*
X344650D01*
X343650Y224301D02*
X344650D01*
X343651Y217102D02*
X344750D01*
X343651Y217602D02*
X344750D01*
X343651Y218102D02*
X344750D01*
X343750Y224202D02*
X344651D01*
X343850Y216802D02*
X344750D01*
X343850Y224102D02*
X344650D01*
X343950Y224002D02*
X344650D01*
X344050Y223602D02*
X344650D01*
X344050Y223802D02*
X344650D01*
X344050Y223902D02*
X344650Y223902D01*
X344050Y223702D02*
X344651D01*
X344150Y221702D02*
X344650Y221702D01*
X344150Y222502D02*
X344650Y222501D01*
X344150Y222902D02*
X344651Y222901D01*
X344150Y223002D02*
X344650D01*
X344150Y223402D02*
X344650Y223402D01*
X344150Y223502D02*
X344650D01*
X344150Y221802D02*
X344650D01*
X344150Y222001D02*
X344650D01*
X344150Y222102D02*
X344650D01*
X344150Y222202D02*
X344650D01*
X344150Y222302D02*
X344650D01*
X344150Y222602D02*
X344650D01*
X344150Y222701D02*
X344650D01*
X344150Y222802D02*
X344650D01*
X344150Y223102D02*
X344650D01*
X344150Y223201D02*
X344650D01*
X344150Y223302D02*
X344650D01*
X344151Y221902D02*
X344651D01*
X344151Y222401D02*
X344651D01*
X344350Y216402D02*
X344750D01*
X344350Y218402D02*
X344450D01*
X344350Y218702D02*
X344450D01*
X344350Y218902D02*
X344450Y218901D01*
X344350Y216302D02*
X344750D01*
X344350Y216502D02*
X344750D01*
X344350Y216602D02*
X344750D01*
X344350Y216701D02*
X344750Y216702D01*
X344350Y218502D02*
X344450D01*
X344350Y218602D02*
X344450D01*
X344350Y218802D02*
X344450D01*
X345350Y219302D02*
X356050D01*
X345450Y220202D02*
X356050D01*
X345550Y220102D02*
X356050Y220102D01*
X345550Y222002D02*
X356050Y222001D01*
X345550Y222102D02*
X356050D01*
X345550Y222602D02*
X356050D01*
X345550Y223102D02*
X356050D01*
X345550Y223602D02*
X356050D01*
X345550Y223902D02*
X356050Y223902D01*
X345550Y224102D02*
X356050D01*
X345550Y224302D02*
X356050Y224301D01*
X345550Y224402D02*
X356050D01*
X345550Y224802D02*
X356050Y224801D01*
X345550Y224902D02*
X356050D01*
X345550Y225302D02*
X356050Y225301D01*
X345550Y225402D02*
X356050D01*
X345550Y219402D02*
X356050Y219401D01*
X345550Y221702D02*
X356050D01*
X345550Y221801D02*
X356050Y221802D01*
X345550Y221902D02*
X356051D01*
X345550Y222202D02*
X356050D01*
X345550Y222301D02*
X356050Y222302D01*
X345550Y222401D02*
X356051D01*
X345550Y222501D02*
X356050Y222502D01*
X345550Y222702D02*
X356050Y222701D01*
X345550Y222901D02*
X356050Y222902D01*
X345550Y223002D02*
X356050D01*
X345550Y223202D02*
X356050Y223201D01*
X345550Y223401D02*
X356050Y223402D01*
X345550Y223502D02*
X356050D01*
X345550Y223702D02*
X356050Y223701D01*
X345550Y224002D02*
X356050D01*
X345550Y224202D02*
X356051D01*
X345550Y224502D02*
X356050D01*
X345550Y224601D02*
X356050Y224602D01*
X345550Y224702D02*
X356051D01*
X345550Y225002D02*
X356050D01*
X345550Y225101D02*
X356050Y225102D01*
X345550Y225202D02*
X356051D01*
X345550Y225502D02*
X356050D01*
X345551Y222802D02*
X356050D01*
X345551Y223302D02*
X356050D01*
X345551Y223802D02*
X356050D01*
X345650Y216402D02*
X346550D01*
X345650Y216702D02*
X346350D01*
X345650Y216902D02*
X346250D01*
X345650Y217202D02*
X346150D01*
X345650Y217402D02*
X346150D01*
X345650Y217702D02*
X346150D01*
X345650Y217902D02*
X346150D01*
X345650Y218202D02*
X346250D01*
X345650Y218402D02*
X346250D01*
X345650Y218702D02*
X346550D01*
X345650Y219502D02*
X356050D01*
X345650Y219702D02*
X356050D01*
X345650Y220002D02*
X356050D01*
X345650Y216502D02*
X346450Y216502D01*
X345650Y216802D02*
X346250D01*
X345650Y217002D02*
X346150D01*
X345650Y217302D02*
X346150D01*
X345650Y217502D02*
X346150D01*
X345650Y217802D02*
X346150D01*
X345650Y218002D02*
X346150D01*
X345650Y218302D02*
X346250D01*
X345650Y218502D02*
X346350D01*
X345650Y218802D02*
X346650D01*
X345650Y219802D02*
X356050D01*
X345651Y216301D02*
X346750D01*
X345651Y216602D02*
X346350D01*
X345651Y217102D02*
X346150D01*
X345651Y217602D02*
X346150D01*
X345651Y218102D02*
X346150D01*
X345651Y218602D02*
X346450Y218602D01*
X345651Y218902D02*
X346750D01*
X345651Y219601D02*
X356050Y219602D01*
X345651Y219902D02*
X356050Y219901D01*
X347050Y217802D02*
X348150D01*
X347050Y217301D02*
X348150Y217302D01*
X347050Y217402D02*
X348150D01*
X347050Y217602D02*
X348150D01*
X347050Y217902D02*
X348150D01*
X347051Y217202D02*
X348150Y217201D01*
X347051Y217502D02*
X348150D01*
X347051Y217701D02*
X348150D01*
X347051Y218002D02*
X348150D01*
X347150Y217102D02*
X348050D01*
X347150Y218202D02*
X348050D01*
X347150Y217002D02*
X348050D01*
X347150Y218102D02*
X348050D01*
X347250Y218302D02*
X347950D01*
X347250Y216902D02*
X347950D01*
X347350Y216802D02*
X347850D01*
X347350Y218402D02*
X347850D01*
X347450Y216701D02*
X347650D01*
X348150Y219002D02*
X350750D01*
X348250Y216202D02*
X356050D01*
X348450Y216302D02*
X349550Y216302D01*
X348450Y218901D02*
X349250Y218901D01*
X348550Y218802D02*
X349250Y218801D01*
X348650Y216402D02*
X349550D01*
X348650Y218702D02*
X349250D01*
X348750Y218602D02*
X349250D01*
X348750Y216502D02*
X349550Y216502D01*
X348850Y216702D02*
X349550Y216702D01*
X348850Y216602D02*
X349550D01*
X348850Y218501D02*
X349250Y218502D01*
X348950Y216902D02*
X349550D01*
X348950Y216802D02*
X349550D01*
X348950Y218302D02*
X349550D01*
X348950Y218402D02*
X349250D01*
X349050Y217002D02*
X349550D01*
X349050Y217302D02*
X349550D01*
X349050Y217502D02*
X349550D01*
X349050Y217802D02*
X349550D01*
X349050Y218002D02*
X349550D01*
X349050Y217102D02*
X349550D01*
X349050Y217202D02*
X349550D01*
X349050Y217402D02*
X349550D01*
X349050Y217602D02*
X349550D01*
X349050Y217702D02*
X349550D01*
X349050Y217902D02*
X349550D01*
X349050Y218102D02*
X349550D01*
X349050Y218202D02*
X349550D01*
X350350Y218802D02*
X350350Y218902D02*
X350450D01*
Y216402D02*
X351450D01*
X350450Y216602D02*
X351450D01*
X350450Y216702D02*
X351450Y216701D01*
X350450Y216902D02*
X351450D01*
X350450Y217102D02*
X351450D01*
X350450Y217202D02*
X351450Y217201D01*
X350450Y217402D02*
X351450D01*
X350450Y217602D02*
X351450D01*
X350450Y217702D02*
X351450D01*
X350450Y217902D02*
X351450D01*
X350450Y216302D02*
X351450D01*
X350450Y216502D02*
X351450D01*
X350450Y216802D02*
X351450D01*
X350450Y217002D02*
X351450D01*
X350450Y217302D02*
X351450D01*
X350450Y217502D02*
X351450D01*
X350450Y217802D02*
X351450D01*
X350450Y218002D02*
X351450D01*
X350450Y218102D02*
X351350D01*
X350550Y218202D02*
X351350Y218202D01*
X350650Y218302D02*
X351350D01*
X350750Y218402D02*
X351250D01*
X351750Y219002D02*
X356050D01*
X351950Y218902D02*
X356050Y218901D01*
X352050Y218802D02*
X356050D01*
X352150Y218701D02*
X356050Y218702D01*
X352250Y216402D02*
X356050D01*
X352250Y216902D02*
X356050D01*
X352250Y217402D02*
X356050D01*
X352250Y216302D02*
X356050D01*
X352250Y216502D02*
X356050D01*
X352250Y216701D02*
X356050D01*
X352250Y216802D02*
X356050D01*
X352250Y217002D02*
X356050D01*
X352250Y217201D02*
X356050D01*
X352250Y217302D02*
X356050D01*
X352250Y217502D02*
X356050D01*
X352250Y217701D02*
X356050D01*
X352250Y217802D02*
X356050D01*
X352250Y217902D02*
X356050Y217902D01*
X352250Y218002D02*
X356050D01*
X352250Y218201D02*
X356050D01*
X352250Y218302D02*
X356050D01*
X352250Y218402D02*
X356050D01*
X352250Y218502D02*
X356050D01*
X352251Y216602D02*
X356051D01*
X352251Y217102D02*
X356051D01*
X352251Y217602D02*
X356051D01*
X352251Y218102D02*
X356051D01*
X352251Y218601D02*
X356051D01*
D02*
D91*
X87168Y49191D02*
X107668D01*
X107666Y56689D02*
Y49209D01*
X113485Y54699D02*
X114115Y54384D01*
X115059D01*
X115689Y54699D01*
X116004Y55329D01*
Y55644D01*
X115689Y56274D01*
X115059Y56589D01*
X113485D01*
Y58163D01*
X116004D01*
X118839Y54699D02*
X119469Y54384D01*
X120099D01*
X120729Y54699D01*
X121044Y55329D01*
Y57219D01*
X120729Y57848D01*
X120099Y58163D01*
X119469D01*
X118839Y57848D01*
X118524Y57219D01*
Y55329D01*
X118839Y54699D01*
X120729Y57848D01*
X361004Y51884D02*
X358485D01*
X360689Y54089D01*
X361004Y54719D01*
X360689Y55348D01*
X360059Y55663D01*
X359115D01*
X358485Y55348D01*
X360250Y223628D02*
Y229533D01*
X362711Y226581D01*
X365171Y229533D01*
Y223628D01*
X366156D02*
Y229533D01*
X371077D01*
X370093Y226581D02*
X366156D01*
Y223628D02*
X371077D01*
X375506Y226089D02*
X376982D01*
Y225596D01*
X376490Y224612D01*
X375998Y224120D01*
X375014Y223628D01*
X374030D01*
X373045Y224120D01*
X372553Y224612D01*
X372061Y225596D01*
Y227565D01*
X372553Y228549D01*
X373045Y229041D01*
X374030Y229533D01*
X375014D01*
X375998Y229041D01*
X376490Y228549D01*
X376982Y227565D01*
X377967Y223628D02*
X380427Y229533D01*
X382888Y223628D01*
X378951Y226089D02*
X381904D01*
X383872Y225596D02*
X387809D01*
X388754Y225104D02*
X389246Y224120D01*
X390230Y223628D01*
X392199D01*
X393183Y224120D01*
X393675Y225104D01*
X393183Y226089D01*
X392199Y226581D01*
X390230D01*
X389246Y227073D01*
X388754Y228057D01*
X389246Y229041D01*
X390230Y229533D01*
X392199D01*
X393183Y229041D01*
X393675Y228057D01*
X399581Y224612D02*
X399089Y224120D01*
X398104Y223628D01*
X396628D01*
X395644Y224120D01*
X395152Y224612D01*
X394659Y225596D01*
Y227565D01*
X395152Y228549D01*
X395644Y229041D01*
X396628Y229533D01*
X398104D01*
X399089Y229041D01*
X399581Y228549D01*
X405486Y224612D02*
X404994Y224120D01*
X404010Y223628D01*
X402533D01*
X401549Y224120D01*
X401057Y224612D01*
X400565Y225596D01*
Y227565D01*
X401057Y228549D01*
X401549Y229041D01*
X402533Y229533D01*
X404010D01*
X404994Y229041D01*
X405486Y228549D01*
X365171Y212801D02*
X364679Y212309D01*
X363695Y211817D01*
X362219D01*
X361234Y212309D01*
X360742Y212801D01*
X360250Y213785D01*
Y215754D01*
X360742Y216738D01*
X361234Y217230D01*
X362219Y217722D01*
X363695D01*
X364679Y217230D01*
X365171Y216738D01*
X366156Y215262D02*
X367140Y215754D01*
X368616D01*
X369600Y215262D01*
X370093Y214278D01*
Y212801D01*
X369600Y212309D01*
X368616Y211817D01*
X367632D01*
X366648Y212309D01*
X366156Y212801D01*
Y213293D01*
X366648Y213785D01*
X367632Y214278D01*
X368616D01*
X369600Y213785D01*
X370093Y213293D01*
Y212801D02*
Y211817D01*
X371037D02*
Y215754D01*
Y214278D02*
X371530Y215262D01*
X372514Y215754D01*
X373498D01*
X374482Y215262D01*
X375447Y215754D02*
X377743D01*
X376595Y216738D02*
Y212309D01*
X377087Y211817D01*
X377580D01*
X378072Y212309D01*
X378990Y211817D02*
Y215754D01*
Y214278D02*
X379482Y215262D01*
X380467Y215754D01*
X381451D01*
X382435Y215262D01*
X383400Y211817D02*
Y215754D01*
Y217230D02*
X388281Y214278D02*
X387789Y215262D01*
X386805Y215754D01*
X385821D01*
X384837Y215262D01*
X384344Y214278D01*
Y213293D01*
X384837Y212309D01*
X385821Y211817D01*
X386805D01*
X387789Y212309D01*
X388281Y213293D01*
Y211817D02*
Y217722D01*
X393163Y214278D02*
X392671Y215262D01*
X391687Y215754D01*
X390703D01*
X389719Y215262D01*
X389226Y214278D01*
Y213785D01*
X389719Y212801D01*
X390703Y212309D01*
X391687D01*
X392671Y212801D01*
X393163Y213785D01*
Y215754D02*
Y211817D01*
X392671Y210833D01*
X391687Y210341D01*
X390211D01*
X389226Y210833D01*
X398045Y212309D02*
X397553Y211817D01*
X396569D01*
X395585D01*
X394600Y212309D01*
X394108Y213293D01*
Y214770D01*
X394600Y215262D01*
X395585Y215754D01*
X396569D01*
X397553Y215262D01*
X398045Y214770D01*
Y214278D01*
X397553Y213785D01*
X396569Y213293D01*
X395585D01*
X394600Y213785D01*
X394108Y214278D01*
X365235Y56689D02*
Y49209D01*
X385735Y49189D02*
X365235D01*
X0Y0D02*
M02*
