G04 DesignSpark PCB PRO Gerber Version 10.0 Build 5299*
G04 #@! TF.Part,Single*
G04 #@! TF.FileFunction,Drillmap*
G04 #@! TF.FilePolarity,Positive*
%FSLAX35Y35*%
%MOIN*%
%ADD11C,0.00500*%
G04 #@! TA.AperFunction,WasherPad*
%ADD89C,0.10000*%
G04 #@! TD.AperFunction*
X0Y0D02*
D02*
D11*
X32437Y122152D02*
X33375D01*
Y121839D01*
X33063Y121214D01*
X32750Y120902D01*
X32125Y120589D01*
X31500D01*
X30875Y120902D01*
X30563Y121214D01*
X30250Y121839D01*
Y123089D01*
X30563Y123714D01*
X30875Y124027D01*
X31500Y124339D01*
X32125D01*
X32750Y124027D01*
X33063Y123714D01*
X33375Y123089D01*
X32437Y150902D02*
X33375D01*
Y150589D01*
X33063Y149964D01*
X32750Y149652D01*
X32125Y149339D01*
X31500D01*
X30875Y149652D01*
X30563Y149964D01*
X30250Y150589D01*
Y151839D01*
X30563Y152464D01*
X30875Y152777D01*
X31500Y153089D01*
X32125D01*
X32750Y152777D01*
X33063Y152464D01*
X33375Y151839D01*
X32437Y179652D02*
X33375D01*
Y179339D01*
X33063Y178714D01*
X32750Y178402D01*
X32125Y178089D01*
X31500D01*
X30875Y178402D01*
X30563Y178714D01*
X30250Y179339D01*
Y180589D01*
X30563Y181214D01*
X30875Y181527D01*
X31500Y181839D01*
X32125D01*
X32750Y181527D01*
X33063Y181214D01*
X33375Y180589D01*
X32437Y219652D02*
X33375D01*
Y219339D01*
X33063Y218714D01*
X32750Y218402D01*
X32125Y218089D01*
X31500D01*
X30875Y218402D01*
X30563Y218714D01*
X30250Y219339D01*
Y220589D01*
X30563Y221214D01*
X30875Y221527D01*
X31500Y221839D01*
X32125D01*
X32750Y221527D01*
X33063Y221214D01*
X33375Y220589D01*
X32437Y252152D02*
X33375D01*
Y251839D01*
X33063Y251214D01*
X32750Y250902D01*
X32125Y250589D01*
X31500D01*
X30875Y250902D01*
X30563Y251214D01*
X30250Y251839D01*
Y253089D01*
X30563Y253714D01*
X30875Y254027D01*
X31500Y254339D01*
X32125D01*
X32750Y254027D01*
X33063Y253714D01*
X33375Y253089D01*
X40250Y133089D02*
Y136839D01*
Y134964D02*
X41187D01*
X43375Y136839D01*
X41187Y134964D02*
X43375Y133089D01*
X40250Y143089D02*
Y146839D01*
Y144964D02*
X41187D01*
X43375Y146839D01*
X41187Y144964D02*
X43375Y143089D01*
X40250Y153089D02*
Y156839D01*
Y154964D02*
X41187D01*
X43375Y156839D01*
X41187Y154964D02*
X43375Y153089D01*
X40250Y163089D02*
Y166839D01*
Y164964D02*
X41187D01*
X43375Y166839D01*
X41187Y164964D02*
X43375Y163089D01*
X40250Y173089D02*
Y176839D01*
Y174964D02*
X41187D01*
X43375Y176839D01*
X41187Y174964D02*
X43375Y173089D01*
X40250Y183089D02*
Y186839D01*
Y184964D02*
X41187D01*
X43375Y186839D01*
X41187Y184964D02*
X43375Y183089D01*
X40250Y193089D02*
Y196839D01*
Y194964D02*
X41187D01*
X43375Y196839D01*
X41187Y194964D02*
X43375Y193089D01*
X40250Y203089D02*
Y206839D01*
Y204964D02*
X41187D01*
X43375Y206839D01*
X41187Y204964D02*
X43375Y203089D01*
X40250Y213089D02*
Y216839D01*
Y214964D02*
X41187D01*
X43375Y216839D01*
X41187Y214964D02*
X43375Y213089D01*
X40250Y223089D02*
Y226839D01*
Y224964D02*
X41187D01*
X43375Y226839D01*
X41187Y224964D02*
X43375Y223089D01*
X40250Y233089D02*
Y236839D01*
Y234964D02*
X41187D01*
X43375Y236839D01*
X41187Y234964D02*
X43375Y233089D01*
X52437Y154652D02*
X53375D01*
Y154339D01*
X53063Y153714D01*
X52750Y153402D01*
X52125Y153089D01*
X51500D01*
X50875Y153402D01*
X50563Y153714D01*
X50250Y154339D01*
Y155589D01*
X50563Y156214D01*
X50875Y156527D01*
X51500Y156839D01*
X52125D01*
X52750Y156527D01*
X53063Y156214D01*
X53375Y155589D01*
X52437Y174652D02*
X53375D01*
Y174339D01*
X53063Y173714D01*
X52750Y173402D01*
X52125Y173089D01*
X51500D01*
X50875Y173402D01*
X50563Y173714D01*
X50250Y174339D01*
Y175589D01*
X50563Y176214D01*
X50875Y176527D01*
X51500Y176839D01*
X52125D01*
X52750Y176527D01*
X53063Y176214D01*
X53375Y175589D01*
X52437Y194652D02*
X53375D01*
Y194339D01*
X53063Y193714D01*
X52750Y193402D01*
X52125Y193089D01*
X51500D01*
X50875Y193402D01*
X50563Y193714D01*
X50250Y194339D01*
Y195589D01*
X50563Y196214D01*
X50875Y196527D01*
X51500Y196839D01*
X52125D01*
X52750Y196527D01*
X53063Y196214D01*
X53375Y195589D01*
X52437Y214652D02*
X53375D01*
Y214339D01*
X53063Y213714D01*
X52750Y213402D01*
X52125Y213089D01*
X51500D01*
X50875Y213402D01*
X50563Y213714D01*
X50250Y214339D01*
Y215589D01*
X50563Y216214D01*
X50875Y216527D01*
X51500Y216839D01*
X52125D01*
X52750Y216527D01*
X53063Y216214D01*
X53375Y215589D01*
X52437Y234652D02*
X53375D01*
Y234339D01*
X53063Y233714D01*
X52750Y233402D01*
X52125Y233089D01*
X51500D01*
X50875Y233402D01*
X50563Y233714D01*
X50250Y234339D01*
Y235589D01*
X50563Y236214D01*
X50875Y236527D01*
X51500Y236839D01*
X52125D01*
X52750Y236527D01*
X53063Y236214D01*
X53375Y235589D01*
X60250Y133089D02*
Y136839D01*
Y134964D02*
X61187D01*
X63375Y136839D01*
X61187Y134964D02*
X63375Y133089D01*
X60250Y143089D02*
Y146839D01*
Y144964D02*
X61187D01*
X63375Y146839D01*
X61187Y144964D02*
X63375Y143089D01*
X60250Y153089D02*
Y156839D01*
Y154964D02*
X61187D01*
X63375Y156839D01*
X61187Y154964D02*
X63375Y153089D01*
X60250Y163089D02*
Y166839D01*
Y164964D02*
X61187D01*
X63375Y166839D01*
X61187Y164964D02*
X63375Y163089D01*
X60250Y173089D02*
Y176839D01*
Y174964D02*
X61187D01*
X63375Y176839D01*
X61187Y174964D02*
X63375Y173089D01*
X60250Y183089D02*
Y186839D01*
Y184964D02*
X61187D01*
X63375Y186839D01*
X61187Y184964D02*
X63375Y183089D01*
X60250Y193089D02*
Y196839D01*
Y194964D02*
X61187D01*
X63375Y196839D01*
X61187Y194964D02*
X63375Y193089D01*
X60250Y203089D02*
Y206839D01*
Y204964D02*
X61187D01*
X63375Y206839D01*
X61187Y204964D02*
X63375Y203089D01*
X60250Y213089D02*
Y216839D01*
Y214964D02*
X61187D01*
X63375Y216839D01*
X61187Y214964D02*
X63375Y213089D01*
X60250Y223089D02*
Y226839D01*
Y224964D02*
X61187D01*
X63375Y226839D01*
X61187Y224964D02*
X63375Y223089D01*
X60250Y233089D02*
Y236839D01*
Y234964D02*
X61187D01*
X63375Y236839D01*
X61187Y234964D02*
X63375Y233089D01*
X62437Y252152D02*
X63375D01*
Y251839D01*
X63063Y251214D01*
X62750Y250902D01*
X62125Y250589D01*
X61500D01*
X60875Y250902D01*
X60563Y251214D01*
X60250Y251839D01*
Y253089D01*
X60563Y253714D01*
X60875Y254027D01*
X61500Y254339D01*
X62125D01*
X62750Y254027D01*
X63063Y253714D01*
X63375Y253089D01*
X67437Y122152D02*
X68375D01*
Y121839D01*
X68063Y121214D01*
X67750Y120902D01*
X67125Y120589D01*
X66500D01*
X65875Y120902D01*
X65563Y121214D01*
X65250Y121839D01*
Y123089D01*
X65563Y123714D01*
X65875Y124027D01*
X66500Y124339D01*
X67125D01*
X67750Y124027D01*
X68063Y123714D01*
X68375Y123089D01*
X70250Y133089D02*
Y136839D01*
Y134964D02*
X71187D01*
X73375Y136839D01*
X71187Y134964D02*
X73375Y133089D01*
X72437Y144652D02*
X73375D01*
Y144339D01*
X73063Y143714D01*
X72750Y143402D01*
X72125Y143089D01*
X71500D01*
X70875Y143402D01*
X70563Y143714D01*
X70250Y144339D01*
Y145589D01*
X70563Y146214D01*
X70875Y146527D01*
X71500Y146839D01*
X72125D01*
X72750Y146527D01*
X73063Y146214D01*
X73375Y145589D01*
X70250Y153089D02*
Y156839D01*
Y154964D02*
X71187D01*
X73375Y156839D01*
X71187Y154964D02*
X73375Y153089D01*
X72437Y164652D02*
X73375D01*
Y164339D01*
X73063Y163714D01*
X72750Y163402D01*
X72125Y163089D01*
X71500D01*
X70875Y163402D01*
X70563Y163714D01*
X70250Y164339D01*
Y165589D01*
X70563Y166214D01*
X70875Y166527D01*
X71500Y166839D01*
X72125D01*
X72750Y166527D01*
X73063Y166214D01*
X73375Y165589D01*
X70250Y173089D02*
Y176839D01*
Y174964D02*
X71187D01*
X73375Y176839D01*
X71187Y174964D02*
X73375Y173089D01*
X72437Y184652D02*
X73375D01*
Y184339D01*
X73063Y183714D01*
X72750Y183402D01*
X72125Y183089D01*
X71500D01*
X70875Y183402D01*
X70563Y183714D01*
X70250Y184339D01*
Y185589D01*
X70563Y186214D01*
X70875Y186527D01*
X71500Y186839D01*
X72125D01*
X72750Y186527D01*
X73063Y186214D01*
X73375Y185589D01*
X70250Y193089D02*
Y196839D01*
Y194964D02*
X71187D01*
X73375Y196839D01*
X71187Y194964D02*
X73375Y193089D01*
X72437Y204652D02*
X73375D01*
Y204339D01*
X73063Y203714D01*
X72750Y203402D01*
X72125Y203089D01*
X71500D01*
X70875Y203402D01*
X70563Y203714D01*
X70250Y204339D01*
Y205589D01*
X70563Y206214D01*
X70875Y206527D01*
X71500Y206839D01*
X72125D01*
X72750Y206527D01*
X73063Y206214D01*
X73375Y205589D01*
X70250Y213089D02*
Y216839D01*
Y214964D02*
X71187D01*
X73375Y216839D01*
X71187Y214964D02*
X73375Y213089D01*
X72437Y224652D02*
X73375D01*
Y224339D01*
X73063Y223714D01*
X72750Y223402D01*
X72125Y223089D01*
X71500D01*
X70875Y223402D01*
X70563Y223714D01*
X70250Y224339D01*
Y225589D01*
X70563Y226214D01*
X70875Y226527D01*
X71500Y226839D01*
X72125D01*
X72750Y226527D01*
X73063Y226214D01*
X73375Y225589D01*
X70250Y233089D02*
Y236839D01*
Y234964D02*
X71187D01*
X73375Y236839D01*
X71187Y234964D02*
X73375Y233089D01*
X79937Y72152D02*
X80875D01*
Y71839D01*
X80563Y71214D01*
X80250Y70902D01*
X79625Y70589D01*
X79000D01*
X78375Y70902D01*
X78063Y71214D01*
X77750Y71839D01*
Y73089D01*
X78063Y73714D01*
X78375Y74027D01*
X79000Y74339D01*
X79625D01*
X80250Y74027D01*
X80563Y73714D01*
X80875Y73089D01*
X79937Y99652D02*
X80875D01*
Y99339D01*
X80563Y98714D01*
X80250Y98402D01*
X79625Y98089D01*
X79000D01*
X78375Y98402D01*
X78063Y98714D01*
X77750Y99339D01*
Y100589D01*
X78063Y101214D01*
X78375Y101527D01*
X79000Y101839D01*
X79625D01*
X80250Y101527D01*
X80563Y101214D01*
X80875Y100589D01*
X81187Y174652D02*
X82125D01*
Y174339D01*
X81813Y173714D01*
X81500Y173402D01*
X80875Y173089D01*
X80250D01*
X79625Y173402D01*
X79313Y173714D01*
X79000Y174339D01*
Y175589D01*
X79313Y176214D01*
X79625Y176527D01*
X80250Y176839D01*
X80875D01*
X81500Y176527D01*
X81813Y176214D01*
X82125Y175589D01*
X82437Y194652D02*
X83375D01*
Y194339D01*
X83063Y193714D01*
X82750Y193402D01*
X82125Y193089D01*
X81500D01*
X80875Y193402D01*
X80563Y193714D01*
X80250Y194339D01*
Y195589D01*
X80563Y196214D01*
X80875Y196527D01*
X81500Y196839D01*
X82125D01*
X82750Y196527D01*
X83063Y196214D01*
X83375Y195589D01*
X82437Y214652D02*
X83375D01*
Y214339D01*
X83063Y213714D01*
X82750Y213402D01*
X82125Y213089D01*
X81500D01*
X80875Y213402D01*
X80563Y213714D01*
X80250Y214339D01*
Y215589D01*
X80563Y216214D01*
X80875Y216527D01*
X81500Y216839D01*
X82125D01*
X82750Y216527D01*
X83063Y216214D01*
X83375Y215589D01*
X82437Y234652D02*
X83375D01*
Y234339D01*
X83063Y233714D01*
X82750Y233402D01*
X82125Y233089D01*
X81500D01*
X80875Y233402D01*
X80563Y233714D01*
X80250Y234339D01*
Y235589D01*
X80563Y236214D01*
X80875Y236527D01*
X81500Y236839D01*
X82125D01*
X82750Y236527D01*
X83063Y236214D01*
X83375Y235589D01*
X90250Y133089D02*
Y136839D01*
Y134964D02*
X91187D01*
X93375Y136839D01*
X91187Y134964D02*
X93375Y133089D01*
X90250Y153089D02*
Y156839D01*
Y154964D02*
X91187D01*
X93375Y156839D01*
X91187Y154964D02*
X93375Y153089D01*
X90250Y173089D02*
Y176839D01*
Y174964D02*
X91187D01*
X93375Y176839D01*
X91187Y174964D02*
X93375Y173089D01*
X90250Y193089D02*
Y196839D01*
Y194964D02*
X91187D01*
X93375Y196839D01*
X91187Y194964D02*
X93375Y193089D01*
X90250Y213089D02*
Y216839D01*
Y214964D02*
X91187D01*
X93375Y216839D01*
X91187Y214964D02*
X93375Y213089D01*
X90250Y233089D02*
Y236839D01*
Y234964D02*
X91187D01*
X93375Y236839D01*
X91187Y234964D02*
X93375Y233089D01*
X96187Y148402D02*
X97125D01*
Y148089D01*
X96813Y147464D01*
X96500Y147152D01*
X95875Y146839D01*
X95250D01*
X94625Y147152D01*
X94313Y147464D01*
X94000Y148089D01*
Y149339D01*
X94313Y149964D01*
X94625Y150277D01*
X95250Y150589D01*
X95875D01*
X96500Y150277D01*
X96813Y149964D01*
X97125Y149339D01*
X100250Y143089D02*
Y146839D01*
Y144964D02*
X101187D01*
X103375Y146839D01*
X101187Y144964D02*
X103375Y143089D01*
X100250Y153089D02*
Y156839D01*
Y154964D02*
X101187D01*
X103375Y156839D01*
X101187Y154964D02*
X103375Y153089D01*
X100250Y163089D02*
Y166839D01*
Y164964D02*
X101187D01*
X103375Y166839D01*
X101187Y164964D02*
X103375Y163089D01*
X100250Y173089D02*
Y176839D01*
Y174964D02*
X101187D01*
X103375Y176839D01*
X101187Y174964D02*
X103375Y173089D01*
X100250Y183089D02*
Y186839D01*
Y184964D02*
X101187D01*
X103375Y186839D01*
X101187Y184964D02*
X103375Y183089D01*
X100250Y193089D02*
Y196839D01*
Y194964D02*
X101187D01*
X103375Y196839D01*
X101187Y194964D02*
X103375Y193089D01*
X100250Y203089D02*
Y206839D01*
Y204964D02*
X101187D01*
X103375Y206839D01*
X101187Y204964D02*
X103375Y203089D01*
X100250Y213089D02*
Y216839D01*
Y214964D02*
X101187D01*
X103375Y216839D01*
X101187Y214964D02*
X103375Y213089D01*
X100250Y223089D02*
Y226839D01*
Y224964D02*
X101187D01*
X103375Y226839D01*
X101187Y224964D02*
X103375Y223089D01*
X100250Y233089D02*
Y236839D01*
Y234964D02*
X101187D01*
X103375Y236839D01*
X101187Y234964D02*
X103375Y233089D01*
X102437Y252152D02*
X103375D01*
Y251839D01*
X103063Y251214D01*
X102750Y250902D01*
X102125Y250589D01*
X101500D01*
X100875Y250902D01*
X100563Y251214D01*
X100250Y251839D01*
Y253089D01*
X100563Y253714D01*
X100875Y254027D01*
X101500Y254339D01*
X102125D01*
X102750Y254027D01*
X103063Y253714D01*
X103375Y253089D01*
X112437Y144652D02*
X113375D01*
Y144339D01*
X113063Y143714D01*
X112750Y143402D01*
X112125Y143089D01*
X111500D01*
X110875Y143402D01*
X110563Y143714D01*
X110250Y144339D01*
Y145589D01*
X110563Y146214D01*
X110875Y146527D01*
X111500Y146839D01*
X112125D01*
X112750Y146527D01*
X113063Y146214D01*
X113375Y145589D01*
X112437Y154652D02*
X113375D01*
Y154339D01*
X113063Y153714D01*
X112750Y153402D01*
X112125Y153089D01*
X111500D01*
X110875Y153402D01*
X110563Y153714D01*
X110250Y154339D01*
Y155589D01*
X110563Y156214D01*
X110875Y156527D01*
X111500Y156839D01*
X112125D01*
X112750Y156527D01*
X113063Y156214D01*
X113375Y155589D01*
X112437Y164652D02*
X113375D01*
Y164339D01*
X113063Y163714D01*
X112750Y163402D01*
X112125Y163089D01*
X111500D01*
X110875Y163402D01*
X110563Y163714D01*
X110250Y164339D01*
Y165589D01*
X110563Y166214D01*
X110875Y166527D01*
X111500Y166839D01*
X112125D01*
X112750Y166527D01*
X113063Y166214D01*
X113375Y165589D01*
X112437Y174652D02*
X113375D01*
Y174339D01*
X113063Y173714D01*
X112750Y173402D01*
X112125Y173089D01*
X111500D01*
X110875Y173402D01*
X110563Y173714D01*
X110250Y174339D01*
Y175589D01*
X110563Y176214D01*
X110875Y176527D01*
X111500Y176839D01*
X112125D01*
X112750Y176527D01*
X113063Y176214D01*
X113375Y175589D01*
X112437Y184652D02*
X113375D01*
Y184339D01*
X113063Y183714D01*
X112750Y183402D01*
X112125Y183089D01*
X111500D01*
X110875Y183402D01*
X110563Y183714D01*
X110250Y184339D01*
Y185589D01*
X110563Y186214D01*
X110875Y186527D01*
X111500Y186839D01*
X112125D01*
X112750Y186527D01*
X113063Y186214D01*
X113375Y185589D01*
X112437Y194652D02*
X113375D01*
Y194339D01*
X113063Y193714D01*
X112750Y193402D01*
X112125Y193089D01*
X111500D01*
X110875Y193402D01*
X110563Y193714D01*
X110250Y194339D01*
Y195589D01*
X110563Y196214D01*
X110875Y196527D01*
X111500Y196839D01*
X112125D01*
X112750Y196527D01*
X113063Y196214D01*
X113375Y195589D01*
X112437Y204652D02*
X113375D01*
Y204339D01*
X113063Y203714D01*
X112750Y203402D01*
X112125Y203089D01*
X111500D01*
X110875Y203402D01*
X110563Y203714D01*
X110250Y204339D01*
Y205589D01*
X110563Y206214D01*
X110875Y206527D01*
X111500Y206839D01*
X112125D01*
X112750Y206527D01*
X113063Y206214D01*
X113375Y205589D01*
X112437Y214652D02*
X113375D01*
Y214339D01*
X113063Y213714D01*
X112750Y213402D01*
X112125Y213089D01*
X111500D01*
X110875Y213402D01*
X110563Y213714D01*
X110250Y214339D01*
Y215589D01*
X110563Y216214D01*
X110875Y216527D01*
X111500Y216839D01*
X112125D01*
X112750Y216527D01*
X113063Y216214D01*
X113375Y215589D01*
X112437Y224652D02*
X113375D01*
Y224339D01*
X113063Y223714D01*
X112750Y223402D01*
X112125Y223089D01*
X111500D01*
X110875Y223402D01*
X110563Y223714D01*
X110250Y224339D01*
Y225589D01*
X110563Y226214D01*
X110875Y226527D01*
X111500Y226839D01*
X112125D01*
X112750Y226527D01*
X113063Y226214D01*
X113375Y225589D01*
X112437Y234652D02*
X113375D01*
Y234339D01*
X113063Y233714D01*
X112750Y233402D01*
X112125Y233089D01*
X111500D01*
X110875Y233402D01*
X110563Y233714D01*
X110250Y234339D01*
Y235589D01*
X110563Y236214D01*
X110875Y236527D01*
X111500Y236839D01*
X112125D01*
X112750Y236527D01*
X113063Y236214D01*
X113375Y235589D01*
X112946Y9569D02*
G75*
G02*
X107666Y14849I0J5280D01*
G01*
Y57207D01*
X67750D01*
G75*
G02*
X62750Y62207I0J5000D01*
G01*
Y102207D01*
G75*
G03*
X57750Y107207I-5000J0D01*
G01*
X21500D01*
G75*
G02*
X15250Y113457I0J6250D01*
G01*
Y243402D01*
G75*
G02*
X21500Y249652I6250J0D01*
G01*
X406500D01*
G75*
G02*
X412750Y243402I0J-6250D01*
G01*
Y62207D01*
G75*
G02*
X407750Y57207I-5000J0D01*
G01*
X365304D01*
Y15066D01*
G75*
G02*
X359806Y9569I-5497J0D01*
G01*
X112946D01*
X119937Y72152D02*
X120875D01*
Y71839D01*
X120563Y71214D01*
X120250Y70902D01*
X119625Y70589D01*
X119000D01*
X118375Y70902D01*
X118063Y71214D01*
X117750Y71839D01*
Y73089D01*
X118063Y73714D01*
X118375Y74027D01*
X119000Y74339D01*
X119625D01*
X120250Y74027D01*
X120563Y73714D01*
X120875Y73089D01*
X119937Y99652D02*
X120875D01*
Y99339D01*
X120563Y98714D01*
X120250Y98402D01*
X119625Y98089D01*
X119000D01*
X118375Y98402D01*
X118063Y98714D01*
X117750Y99339D01*
Y100589D01*
X118063Y101214D01*
X118375Y101527D01*
X119000Y101839D01*
X119625D01*
X120250Y101527D01*
X120563Y101214D01*
X120875Y100589D01*
X120250Y143089D02*
Y146839D01*
Y144964D02*
X121187D01*
X123375Y146839D01*
X121187Y144964D02*
X123375Y143089D01*
X120250Y153089D02*
Y156839D01*
Y154964D02*
X121187D01*
X123375Y156839D01*
X121187Y154964D02*
X123375Y153089D01*
X120250Y163089D02*
Y166839D01*
Y164964D02*
X121187D01*
X123375Y166839D01*
X121187Y164964D02*
X123375Y163089D01*
X120250Y173089D02*
Y176839D01*
Y174964D02*
X121187D01*
X123375Y176839D01*
X121187Y174964D02*
X123375Y173089D01*
X120250Y183089D02*
Y186839D01*
Y184964D02*
X121187D01*
X123375Y186839D01*
X121187Y184964D02*
X123375Y183089D01*
X120250Y193089D02*
Y196839D01*
Y194964D02*
X121187D01*
X123375Y196839D01*
X121187Y194964D02*
X123375Y193089D01*
X120250Y203089D02*
Y206839D01*
Y204964D02*
X121187D01*
X123375Y206839D01*
X121187Y204964D02*
X123375Y203089D01*
X120250Y213089D02*
Y216839D01*
Y214964D02*
X121187D01*
X123375Y216839D01*
X121187Y214964D02*
X123375Y213089D01*
X120250Y223089D02*
Y226839D01*
Y224964D02*
X121187D01*
X123375Y226839D01*
X121187Y224964D02*
X123375Y223089D01*
X120250Y233089D02*
Y236839D01*
Y234964D02*
X121187D01*
X123375Y236839D01*
X121187Y234964D02*
X123375Y233089D01*
X132437Y147152D02*
X133375D01*
Y146839D01*
X133063Y146214D01*
X132750Y145902D01*
X132125Y145589D01*
X131500D01*
X130875Y145902D01*
X130563Y146214D01*
X130250Y146839D01*
Y148089D01*
X130563Y148714D01*
X130875Y149027D01*
X131500Y149339D01*
X132125D01*
X132750Y149027D01*
X133063Y148714D01*
X133375Y148089D01*
X130250Y153089D02*
Y156839D01*
Y154964D02*
X131187D01*
X133375Y156839D01*
X131187Y154964D02*
X133375Y153089D01*
X132437Y167152D02*
X133375D01*
Y166839D01*
X133063Y166214D01*
X132750Y165902D01*
X132125Y165589D01*
X131500D01*
X130875Y165902D01*
X130563Y166214D01*
X130250Y166839D01*
Y168089D01*
X130563Y168714D01*
X130875Y169027D01*
X131500Y169339D01*
X132125D01*
X132750Y169027D01*
X133063Y168714D01*
X133375Y168089D01*
X130250Y173089D02*
Y176839D01*
Y174964D02*
X131187D01*
X133375Y176839D01*
X131187Y174964D02*
X133375Y173089D01*
X132437Y184652D02*
X133375D01*
Y184339D01*
X133063Y183714D01*
X132750Y183402D01*
X132125Y183089D01*
X131500D01*
X130875Y183402D01*
X130563Y183714D01*
X130250Y184339D01*
Y185589D01*
X130563Y186214D01*
X130875Y186527D01*
X131500Y186839D01*
X132125D01*
X132750Y186527D01*
X133063Y186214D01*
X133375Y185589D01*
X130250Y193089D02*
Y196839D01*
Y194964D02*
X131187D01*
X133375Y196839D01*
X131187Y194964D02*
X133375Y193089D01*
X132437Y204652D02*
X133375D01*
Y204339D01*
X133063Y203714D01*
X132750Y203402D01*
X132125Y203089D01*
X131500D01*
X130875Y203402D01*
X130563Y203714D01*
X130250Y204339D01*
Y205589D01*
X130563Y206214D01*
X130875Y206527D01*
X131500Y206839D01*
X132125D01*
X132750Y206527D01*
X133063Y206214D01*
X133375Y205589D01*
X130250Y213089D02*
Y216839D01*
Y214964D02*
X131187D01*
X133375Y216839D01*
X131187Y214964D02*
X133375Y213089D01*
X132437Y224652D02*
X133375D01*
Y224339D01*
X133063Y223714D01*
X132750Y223402D01*
X132125Y223089D01*
X131500D01*
X130875Y223402D01*
X130563Y223714D01*
X130250Y224339D01*
Y225589D01*
X130563Y226214D01*
X130875Y226527D01*
X131500Y226839D01*
X132125D01*
X132750Y226527D01*
X133063Y226214D01*
X133375Y225589D01*
X130250Y233089D02*
Y236839D01*
Y234964D02*
X131187D01*
X133375Y236839D01*
X131187Y234964D02*
X133375Y233089D01*
X130250Y245589D02*
Y249339D01*
Y247464D02*
X131187D01*
X133375Y249339D01*
X131187Y247464D02*
X133375Y245589D01*
X135250Y143089D02*
Y146839D01*
X138375D01*
X137750Y144964D02*
X135250D01*
Y143089D02*
X138375D01*
X135933Y98184D02*
X137496Y101934D01*
X139059Y98184D01*
X136559Y99746D02*
X138433D01*
X140933Y98184D02*
Y101934D01*
X144059D01*
X143433Y100059D02*
X140933D01*
X137750Y145589D02*
Y149339D01*
X140875D01*
X140250Y147464D02*
X137750D01*
Y145589D02*
X140875D01*
X137750Y193089D02*
Y196839D01*
X140875D01*
X140250Y194964D02*
X137750D01*
Y193089D02*
X140875D01*
X140250Y148089D02*
Y151839D01*
X143375D01*
X142750Y149964D02*
X140250D01*
Y148089D02*
X143375D01*
X142437Y214652D02*
X143375D01*
Y214339D01*
X143063Y213714D01*
X142750Y213402D01*
X142125Y213089D01*
X141500D01*
X140875Y213402D01*
X140563Y213714D01*
X140250Y214339D01*
Y215589D01*
X140563Y216214D01*
X140875Y216527D01*
X141500Y216839D01*
X142125D01*
X142750Y216527D01*
X143063Y216214D01*
X143375Y215589D01*
X142437Y252152D02*
X143375D01*
Y251839D01*
X143063Y251214D01*
X142750Y250902D01*
X142125Y250589D01*
X141500D01*
X140875Y250902D01*
X140563Y251214D01*
X140250Y251839D01*
Y253089D01*
X140563Y253714D01*
X140875Y254027D01*
X141500Y254339D01*
X142125D01*
X142750Y254027D01*
X143063Y253714D01*
X143375Y253089D01*
X142750Y158089D02*
Y161839D01*
X145875D01*
X145250Y159964D02*
X142750D01*
Y158089D02*
X145875D01*
X145250Y160589D02*
Y164339D01*
X148375D01*
X147750Y162464D02*
X145250D01*
Y160589D02*
X148375D01*
X150250Y153089D02*
Y156839D01*
Y154964D02*
X151187D01*
X153375Y156839D01*
X151187Y154964D02*
X153375Y153089D01*
X152437Y167152D02*
X153375D01*
Y166839D01*
X153063Y166214D01*
X152750Y165902D01*
X152125Y165589D01*
X151500D01*
X150875Y165902D01*
X150563Y166214D01*
X150250Y166839D01*
Y168089D01*
X150563Y168714D01*
X150875Y169027D01*
X151500Y169339D01*
X152125D01*
X152750Y169027D01*
X153063Y168714D01*
X153375Y168089D01*
X150250Y173089D02*
Y176839D01*
Y174964D02*
X151187D01*
X153375Y176839D01*
X151187Y174964D02*
X153375Y173089D01*
X150250Y193089D02*
Y196839D01*
Y194964D02*
X151187D01*
X153375Y196839D01*
X151187Y194964D02*
X153375Y193089D01*
X150250Y213089D02*
Y216839D01*
Y214964D02*
X151187D01*
X153375Y216839D01*
X151187Y214964D02*
X153375Y213089D01*
X150250Y233089D02*
Y236839D01*
Y234964D02*
X151187D01*
X153375Y236839D01*
X151187Y234964D02*
X153375Y233089D01*
X150250Y245589D02*
Y249339D01*
Y247464D02*
X151187D01*
X153375Y249339D01*
X151187Y247464D02*
X153375Y245589D01*
X159937Y72152D02*
X160875D01*
Y71839D01*
X160563Y71214D01*
X160250Y70902D01*
X159625Y70589D01*
X159000D01*
X158375Y70902D01*
X158063Y71214D01*
X157750Y71839D01*
Y73089D01*
X158063Y73714D01*
X158375Y74027D01*
X159000Y74339D01*
X159625D01*
X160250Y74027D01*
X160563Y73714D01*
X160875Y73089D01*
X159937Y82152D02*
X160875D01*
Y81839D01*
X160563Y81214D01*
X160250Y80902D01*
X159625Y80589D01*
X159000D01*
X158375Y80902D01*
X158063Y81214D01*
X157750Y81839D01*
Y83089D01*
X158063Y83714D01*
X158375Y84027D01*
X159000Y84339D01*
X159625D01*
X160250Y84027D01*
X160563Y83714D01*
X160875Y83089D01*
X163687Y92152D02*
X164625D01*
Y91839D01*
X164313Y91214D01*
X164000Y90902D01*
X163375Y90589D01*
X162750D01*
X162125Y90902D01*
X161813Y91214D01*
X161500Y91839D01*
Y93089D01*
X161813Y93714D01*
X162125Y94027D01*
X162750Y94339D01*
X163375D01*
X164000Y94027D01*
X164313Y93714D01*
X164625Y93089D01*
X163687Y102152D02*
X164625D01*
Y101839D01*
X164313Y101214D01*
X164000Y100902D01*
X163375Y100589D01*
X162750D01*
X162125Y100902D01*
X161813Y101214D01*
X161500Y101839D01*
Y103089D01*
X161813Y103714D01*
X162125Y104027D01*
X162750Y104339D01*
X163375D01*
X164000Y104027D01*
X164313Y103714D01*
X164625Y103089D01*
X167437Y72152D02*
X168375D01*
Y71839D01*
X168063Y71214D01*
X167750Y70902D01*
X167125Y70589D01*
X166500D01*
X165875Y70902D01*
X165563Y71214D01*
X165250Y71839D01*
Y73089D01*
X165563Y73714D01*
X165875Y74027D01*
X166500Y74339D01*
X167125D01*
X167750Y74027D01*
X168063Y73714D01*
X168375Y73089D01*
X167437Y82152D02*
X168375D01*
Y81839D01*
X168063Y81214D01*
X167750Y80902D01*
X167125Y80589D01*
X166500D01*
X165875Y80902D01*
X165563Y81214D01*
X165250Y81839D01*
Y83089D01*
X165563Y83714D01*
X165875Y84027D01*
X166500Y84339D01*
X167125D01*
X167750Y84027D01*
X168063Y83714D01*
X168375Y83089D01*
X165250Y110589D02*
X168375Y114339D01*
X165250D02*
X168375Y110589D01*
X165250Y170589D02*
X168375Y174339D01*
X165250D02*
X168375Y170589D01*
X165250Y185589D02*
X168375Y189339D01*
X165250D02*
X168375Y185589D01*
X165250Y245589D02*
X168375Y249339D01*
X165250D02*
X168375Y245589D01*
X170250Y116839D02*
Y120589D01*
X173375D01*
X172750Y118714D02*
X170250D01*
Y116839D02*
X173375D01*
X172437Y147152D02*
X173375D01*
Y146839D01*
X173063Y146214D01*
X172750Y145902D01*
X172125Y145589D01*
X171500D01*
X170875Y145902D01*
X170563Y146214D01*
X170250Y146839D01*
Y148089D01*
X170563Y148714D01*
X170875Y149027D01*
X171500Y149339D01*
X172125D01*
X172750Y149027D01*
X173063Y148714D01*
X173375Y148089D01*
X173687Y64652D02*
X174625D01*
Y64339D01*
X174313Y63714D01*
X174000Y63402D01*
X173375Y63089D01*
X172750D01*
X172125Y63402D01*
X171813Y63714D01*
X171500Y64339D01*
Y65589D01*
X171813Y66214D01*
X172125Y66527D01*
X172750Y66839D01*
X173375D01*
X174000Y66527D01*
X174313Y66214D01*
X174625Y65589D01*
X172750Y103089D02*
Y106839D01*
X175875D01*
X175250Y104964D02*
X172750D01*
Y103089D02*
X175875D01*
X175250Y110589D02*
X178375Y114339D01*
X175250D02*
X178375Y110589D01*
X175250Y170589D02*
X178375Y174339D01*
X175250D02*
X178375Y170589D01*
X175250Y185589D02*
X178375Y189339D01*
X175250D02*
X178375Y185589D01*
X177437Y212152D02*
X178375D01*
Y211839D01*
X178063Y211214D01*
X177750Y210902D01*
X177125Y210589D01*
X176500D01*
X175875Y210902D01*
X175563Y211214D01*
X175250Y211839D01*
Y213089D01*
X175563Y213714D01*
X175875Y214027D01*
X176500Y214339D01*
X177125D01*
X177750Y214027D01*
X178063Y213714D01*
X178375Y213089D01*
X175250Y245589D02*
X178375Y249339D01*
X175250D02*
X178375Y245589D01*
X177750Y70589D02*
Y74339D01*
X180875D01*
X180250Y72464D02*
X177750D01*
Y70589D02*
X180875D01*
X177750Y100589D02*
Y104339D01*
X180875D01*
X180250Y102464D02*
X177750D01*
Y100589D02*
X180875D01*
X182437Y252152D02*
X183375D01*
Y251839D01*
X183063Y251214D01*
X182750Y250902D01*
X182125Y250589D01*
X181500D01*
X180875Y250902D01*
X180563Y251214D01*
X180250Y251839D01*
Y253089D01*
X180563Y253714D01*
X180875Y254027D01*
X181500Y254339D01*
X182125D01*
X182750Y254027D01*
X183063Y253714D01*
X183375Y253089D01*
X183687Y64652D02*
X184625D01*
Y64339D01*
X184313Y63714D01*
X184000Y63402D01*
X183375Y63089D01*
X182750D01*
X182125Y63402D01*
X181813Y63714D01*
X181500Y64339D01*
Y65589D01*
X181813Y66214D01*
X182125Y66527D01*
X182750Y66839D01*
X183375D01*
X184000Y66527D01*
X184313Y66214D01*
X184625Y65589D01*
X185250Y75589D02*
Y79339D01*
X188375D01*
X187750Y77464D02*
X185250D01*
Y75589D02*
X188375D01*
X185250Y110589D02*
X188375Y114339D01*
X185250D02*
X188375Y110589D01*
X185250Y170589D02*
X188375Y174339D01*
X185250D02*
X188375Y170589D01*
X185250Y185589D02*
X188375Y189339D01*
X185250D02*
X188375Y185589D01*
X185250Y245589D02*
X188375Y249339D01*
X185250D02*
X188375Y245589D01*
X189000Y98089D02*
Y101839D01*
X192125D01*
X191500Y99964D02*
X189000D01*
Y98089D02*
X192125D01*
X193687Y64652D02*
X194625D01*
Y64339D01*
X194313Y63714D01*
X194000Y63402D01*
X193375Y63089D01*
X192750D01*
X192125Y63402D01*
X191813Y63714D01*
X191500Y64339D01*
Y65589D01*
X191813Y66214D01*
X192125Y66527D01*
X192750Y66839D01*
X193375D01*
X194000Y66527D01*
X194313Y66214D01*
X194625Y65589D01*
X193687Y77152D02*
X194625D01*
Y76839D01*
X194313Y76214D01*
X194000Y75902D01*
X193375Y75589D01*
X192750D01*
X192125Y75902D01*
X191813Y76214D01*
X191500Y76839D01*
Y78089D01*
X191813Y78714D01*
X192125Y79027D01*
X192750Y79339D01*
X193375D01*
X194000Y79027D01*
X194313Y78714D01*
X194625Y78089D01*
X195250Y110589D02*
X198375Y114339D01*
X195250D02*
X198375Y110589D01*
X195250Y170589D02*
X198375Y174339D01*
X195250D02*
X198375Y170589D01*
X195250Y185589D02*
X198375Y189339D01*
X195250D02*
X198375Y185589D01*
X195250Y245589D02*
X198375Y249339D01*
X195250D02*
X198375Y245589D01*
X196500Y70589D02*
Y74339D01*
X199625D01*
X199000Y72464D02*
X196500D01*
Y70589D02*
X199625D01*
X198687Y92152D02*
X199625D01*
Y91839D01*
X199313Y91214D01*
X199000Y90902D01*
X198375Y90589D01*
X197750D01*
X197125Y90902D01*
X196813Y91214D01*
X196500Y91839D01*
Y93089D01*
X196813Y93714D01*
X197125Y94027D01*
X197750Y94339D01*
X198375D01*
X199000Y94027D01*
X199313Y93714D01*
X199625Y93089D01*
X201500Y70589D02*
Y74339D01*
X204625D01*
X204000Y72464D02*
X201500D01*
Y70589D02*
X204625D01*
X205250Y110589D02*
X208375Y114339D01*
X205250D02*
X208375Y110589D01*
X205250Y170589D02*
X208375Y174339D01*
X205250D02*
X208375Y170589D01*
X205250Y185589D02*
X208375Y189339D01*
X205250D02*
X208375Y185589D01*
X205250Y245589D02*
X208375Y249339D01*
X205250D02*
X208375Y245589D01*
X212437Y88402D02*
X213375D01*
Y88089D01*
X213063Y87464D01*
X212750Y87152D01*
X212125Y86839D01*
X211500D01*
X210875Y87152D01*
X210563Y87464D01*
X210250Y88089D01*
Y89339D01*
X210563Y89964D01*
X210875Y90277D01*
X211500Y90589D01*
X212125D01*
X212750Y90277D01*
X213063Y89964D01*
X213375Y89339D01*
X210250Y103089D02*
Y106839D01*
X213375D01*
X212750Y104964D02*
X210250D01*
Y103089D02*
X213375D01*
X210250Y175589D02*
Y179339D01*
X213375D01*
X212750Y177464D02*
X210250D01*
Y175589D02*
X213375D01*
X215250Y110589D02*
X218375Y114339D01*
X215250D02*
X218375Y110589D01*
X215250Y170589D02*
X218375Y174339D01*
X215250D02*
X218375Y170589D01*
X215250Y185589D02*
X218375Y189339D01*
X215250D02*
X218375Y185589D01*
X217437Y212152D02*
X218375D01*
Y211839D01*
X218063Y211214D01*
X217750Y210902D01*
X217125Y210589D01*
X216500D01*
X215875Y210902D01*
X215563Y211214D01*
X215250Y211839D01*
Y213089D01*
X215563Y213714D01*
X215875Y214027D01*
X216500Y214339D01*
X217125D01*
X217750Y214027D01*
X218063Y213714D01*
X218375Y213089D01*
X215250Y245589D02*
X218375Y249339D01*
X215250D02*
X218375Y245589D01*
X216500Y78089D02*
Y81839D01*
X219625D01*
X219000Y79964D02*
X216500D01*
Y78089D02*
X219625D01*
X222437Y252152D02*
X223375D01*
Y251839D01*
X223063Y251214D01*
X222750Y250902D01*
X222125Y250589D01*
X221500D01*
X220875Y250902D01*
X220563Y251214D01*
X220250Y251839D01*
Y253089D01*
X220563Y253714D01*
X220875Y254027D01*
X221500Y254339D01*
X222125D01*
X222750Y254027D01*
X223063Y253714D01*
X223375Y253089D01*
X222750Y70589D02*
Y74339D01*
X225875D01*
X225250Y72464D02*
X222750D01*
Y70589D02*
X225875D01*
X227437Y88402D02*
X228375D01*
Y88089D01*
X228063Y87464D01*
X227750Y87152D01*
X227125Y86839D01*
X226500D01*
X225875Y87152D01*
X225563Y87464D01*
X225250Y88089D01*
Y89339D01*
X225563Y89964D01*
X225875Y90277D01*
X226500Y90589D01*
X227125D01*
X227750Y90277D01*
X228063Y89964D01*
X228375Y89339D01*
X225250Y110589D02*
X228375Y114339D01*
X225250D02*
X228375Y110589D01*
X227437Y147152D02*
X228375D01*
Y146839D01*
X228063Y146214D01*
X227750Y145902D01*
X227125Y145589D01*
X226500D01*
X225875Y145902D01*
X225563Y146214D01*
X225250Y146839D01*
Y148089D01*
X225563Y148714D01*
X225875Y149027D01*
X226500Y149339D01*
X227125D01*
X227750Y149027D01*
X228063Y148714D01*
X228375Y148089D01*
X225250Y170589D02*
X228375Y174339D01*
X225250D02*
X228375Y170589D01*
X225250Y185589D02*
X228375Y189339D01*
X225250D02*
X228375Y185589D01*
X225250Y245589D02*
X228375Y249339D01*
X225250D02*
X228375Y245589D01*
X233687Y63402D02*
X234625D01*
Y63089D01*
X234313Y62464D01*
X234000Y62152D01*
X233375Y61839D01*
X232750D01*
X232125Y62152D01*
X231813Y62464D01*
X231500Y63089D01*
Y64339D01*
X231813Y64964D01*
X232125Y65277D01*
X232750Y65589D01*
X233375D01*
X234000Y65277D01*
X234313Y64964D01*
X234625Y64339D01*
X231500Y65589D02*
Y69339D01*
X234625D01*
X234000Y67464D02*
X231500D01*
Y65589D02*
X234625D01*
X231500Y235589D02*
Y239339D01*
X234625D01*
X234000Y237464D02*
X231500D01*
Y235589D02*
X234625D01*
X234000Y80589D02*
Y84339D01*
X237125D01*
X236500Y82464D02*
X234000D01*
Y80589D02*
X237125D01*
X235250Y110589D02*
X238375Y114339D01*
X235250D02*
X238375Y110589D01*
X235250Y170589D02*
X238375Y174339D01*
X235250D02*
X238375Y170589D01*
X235250Y185589D02*
X238375Y189339D01*
X235250D02*
X238375Y185589D01*
X235250Y245589D02*
X238375Y249339D01*
X235250D02*
X238375Y245589D01*
X236485Y94339D02*
Y98089D01*
X239610D01*
X238985Y96214D02*
X236485D01*
Y94339D02*
X239610D01*
X239000Y101839D02*
Y105589D01*
X242125D01*
X241500Y103714D02*
X239000D01*
Y101839D02*
X242125D01*
X243687Y63402D02*
X244625D01*
Y63089D01*
X244313Y62464D01*
X244000Y62152D01*
X243375Y61839D01*
X242750D01*
X242125Y62152D01*
X241813Y62464D01*
X241500Y63089D01*
Y64339D01*
X241813Y64964D01*
X242125Y65277D01*
X242750Y65589D01*
X243375D01*
X244000Y65277D01*
X244313Y64964D01*
X244625Y64339D01*
X241500Y76839D02*
Y80589D01*
X244625D01*
X244000Y78714D02*
X241500D01*
Y76839D02*
X244625D01*
X241500Y175589D02*
Y179339D01*
X244625D01*
X244000Y177464D02*
X241500D01*
Y175589D02*
X244625D01*
X245250Y70589D02*
Y74339D01*
X248375D01*
X247750Y72464D02*
X245250D01*
Y70589D02*
X248375D01*
X245250Y110589D02*
X248375Y114339D01*
X245250D02*
X248375Y110589D01*
X245250Y170589D02*
X248375Y174339D01*
X245250D02*
X248375Y170589D01*
X245250Y185589D02*
X248375Y189339D01*
X245250D02*
X248375Y185589D01*
X245250Y245589D02*
X248375Y249339D01*
X245250D02*
X248375Y245589D01*
X249000Y68089D02*
Y71839D01*
X252125D01*
X251500Y69964D02*
X249000D01*
Y68089D02*
X252125D01*
X249000Y99339D02*
Y103089D01*
X252125D01*
X251500Y101214D02*
X249000D01*
Y99339D02*
X252125D01*
X254937Y88402D02*
X255875D01*
Y88089D01*
X255563Y87464D01*
X255250Y87152D01*
X254625Y86839D01*
X254000D01*
X253375Y87152D01*
X253063Y87464D01*
X252750Y88089D01*
Y89339D01*
X253063Y89964D01*
X253375Y90277D01*
X254000Y90589D01*
X254625D01*
X255250Y90277D01*
X255563Y89964D01*
X255875Y89339D01*
X255250Y101839D02*
Y105589D01*
X258375D01*
X257750Y103714D02*
X255250D01*
Y101839D02*
X258375D01*
X255250Y110589D02*
X258375Y114339D01*
X255250D02*
X258375Y110589D01*
X257437Y147152D02*
X258375D01*
Y146839D01*
X258063Y146214D01*
X257750Y145902D01*
X257125Y145589D01*
X256500D01*
X255875Y145902D01*
X255563Y146214D01*
X255250Y146839D01*
Y148089D01*
X255563Y148714D01*
X255875Y149027D01*
X256500Y149339D01*
X257125D01*
X257750Y149027D01*
X258063Y148714D01*
X258375Y148089D01*
X255250Y170589D02*
X258375Y174339D01*
X255250D02*
X258375Y170589D01*
X255250Y185589D02*
X258375Y189339D01*
X255250D02*
X258375Y185589D01*
X255250Y245589D02*
X258375Y249339D01*
X255250D02*
X258375Y245589D01*
X262437Y252152D02*
X263375D01*
Y251839D01*
X263063Y251214D01*
X262750Y250902D01*
X262125Y250589D01*
X261500D01*
X260875Y250902D01*
X260563Y251214D01*
X260250Y251839D01*
Y253089D01*
X260563Y253714D01*
X260875Y254027D01*
X261500Y254339D01*
X262125D01*
X262750Y254027D01*
X263063Y253714D01*
X263375Y253089D01*
X263687Y63402D02*
X264625D01*
Y63089D01*
X264313Y62464D01*
X264000Y62152D01*
X263375Y61839D01*
X262750D01*
X262125Y62152D01*
X261813Y62464D01*
X261500Y63089D01*
Y64339D01*
X261813Y64964D01*
X262125Y65277D01*
X262750Y65589D01*
X263375D01*
X264000Y65277D01*
X264313Y64964D01*
X264625Y64339D01*
X265250Y110589D02*
X268375Y114339D01*
X265250D02*
X268375Y110589D01*
X265250Y170589D02*
X268375Y174339D01*
X265250D02*
X268375Y170589D01*
X265250Y185589D02*
X268375Y189339D01*
X265250D02*
X268375Y185589D01*
X267437Y212152D02*
X268375D01*
Y211839D01*
X268063Y211214D01*
X267750Y210902D01*
X267125Y210589D01*
X266500D01*
X265875Y210902D01*
X265563Y211214D01*
X265250Y211839D01*
Y213089D01*
X265563Y213714D01*
X265875Y214027D01*
X266500Y214339D01*
X267125D01*
X267750Y214027D01*
X268063Y213714D01*
X268375Y213089D01*
X265250Y245589D02*
X268375Y249339D01*
X265250D02*
X268375Y245589D01*
X266500Y70589D02*
Y74339D01*
X269625D01*
X269000Y72464D02*
X266500D01*
Y70589D02*
X269625D01*
X273687Y63402D02*
X274625D01*
Y63089D01*
X274313Y62464D01*
X274000Y62152D01*
X273375Y61839D01*
X272750D01*
X272125Y62152D01*
X271813Y62464D01*
X271500Y63089D01*
Y64339D01*
X271813Y64964D01*
X272125Y65277D01*
X272750Y65589D01*
X273375D01*
X274000Y65277D01*
X274313Y64964D01*
X274625Y64339D01*
X271500Y70589D02*
Y74339D01*
X274625D01*
X274000Y72464D02*
X271500D01*
Y70589D02*
X274625D01*
X271500Y96839D02*
Y100589D01*
X274625D01*
X274000Y98714D02*
X271500D01*
Y96839D02*
X274625D01*
X271500Y194339D02*
Y198089D01*
X274625D01*
X274000Y196214D02*
X271500D01*
Y194339D02*
X274625D01*
X275250Y99339D02*
Y103089D01*
X278375D01*
X277750Y101214D02*
X275250D01*
Y99339D02*
X278375D01*
X275250Y110589D02*
X278375Y114339D01*
X275250D02*
X278375Y110589D01*
X275250Y170589D02*
X278375Y174339D01*
X275250D02*
X278375Y170589D01*
X275250Y185589D02*
X278375Y189339D01*
X275250D02*
X278375Y185589D01*
X275250Y245589D02*
X278375Y249339D01*
X275250D02*
X278375Y245589D01*
X279937Y88402D02*
X280875D01*
Y88089D01*
X280563Y87464D01*
X280250Y87152D01*
X279625Y86839D01*
X279000D01*
X278375Y87152D01*
X278063Y87464D01*
X277750Y88089D01*
Y89339D01*
X278063Y89964D01*
X278375Y90277D01*
X279000Y90589D01*
X279625D01*
X280250Y90277D01*
X280563Y89964D01*
X280875Y89339D01*
X279000Y101839D02*
Y105589D01*
X282125D01*
X281500Y103714D02*
X279000D01*
Y101839D02*
X282125D01*
X282437Y147152D02*
X283375D01*
Y146839D01*
X283063Y146214D01*
X282750Y145902D01*
X282125Y145589D01*
X281500D01*
X280875Y145902D01*
X280563Y146214D01*
X280250Y146839D01*
Y148089D01*
X280563Y148714D01*
X280875Y149027D01*
X281500Y149339D01*
X282125D01*
X282750Y149027D01*
X283063Y148714D01*
X283375Y148089D01*
X282750Y70589D02*
Y74339D01*
X285875D01*
X285250Y72464D02*
X282750D01*
Y70589D02*
X285875D01*
X285250Y110589D02*
X288375Y114339D01*
X285250D02*
X288375Y110589D01*
X285250Y170589D02*
X288375Y174339D01*
X285250D02*
X288375Y170589D01*
X285250Y185589D02*
X288375Y189339D01*
X285250D02*
X288375Y185589D01*
X285250Y245589D02*
X288375Y249339D01*
X285250D02*
X288375Y245589D01*
X293687Y63402D02*
X294625D01*
Y63089D01*
X294313Y62464D01*
X294000Y62152D01*
X293375Y61839D01*
X292750D01*
X292125Y62152D01*
X291813Y62464D01*
X291500Y63089D01*
Y64339D01*
X291813Y64964D01*
X292125Y65277D01*
X292750Y65589D01*
X293375D01*
X294000Y65277D01*
X294313Y64964D01*
X294625Y64339D01*
X297437Y88402D02*
X298375D01*
Y88089D01*
X298063Y87464D01*
X297750Y87152D01*
X297125Y86839D01*
X296500D01*
X295875Y87152D01*
X295563Y87464D01*
X295250Y88089D01*
Y89339D01*
X295563Y89964D01*
X295875Y90277D01*
X296500Y90589D01*
X297125D01*
X297750Y90277D01*
X298063Y89964D01*
X298375Y89339D01*
X295250Y110589D02*
X298375Y114339D01*
X295250D02*
X298375Y110589D01*
X295250Y170589D02*
X298375Y174339D01*
X295250D02*
X298375Y170589D01*
X295250Y185589D02*
X298375Y189339D01*
X295250D02*
X298375Y185589D01*
X295250Y245589D02*
X298375Y249339D01*
X295250D02*
X298375Y245589D01*
X300250Y175589D02*
Y179339D01*
X303375D01*
X302750Y177464D02*
X300250D01*
Y175589D02*
X303375D01*
X302437Y252152D02*
X303375D01*
Y251839D01*
X303063Y251214D01*
X302750Y250902D01*
X302125Y250589D01*
X301500D01*
X300875Y250902D01*
X300563Y251214D01*
X300250Y251839D01*
Y253089D01*
X300563Y253714D01*
X300875Y254027D01*
X301500Y254339D01*
X302125D01*
X302750Y254027D01*
X303063Y253714D01*
X303375Y253089D01*
X302750Y66839D02*
Y70589D01*
X305875D01*
X305250Y68714D02*
X302750D01*
Y66839D02*
X305875D01*
X305250Y110589D02*
X308375Y114339D01*
X305250D02*
X308375Y110589D01*
X305250Y170589D02*
X308375Y174339D01*
X305250D02*
X308375Y170589D01*
X305250Y178089D02*
Y181839D01*
X308375D01*
X307750Y179964D02*
X305250D01*
Y178089D02*
X308375D01*
X305250Y185589D02*
X308375Y189339D01*
X305250D02*
X308375Y185589D01*
X307437Y212152D02*
X308375D01*
Y211839D01*
X308063Y211214D01*
X307750Y210902D01*
X307125Y210589D01*
X306500D01*
X305875Y210902D01*
X305563Y211214D01*
X305250Y211839D01*
Y213089D01*
X305563Y213714D01*
X305875Y214027D01*
X306500Y214339D01*
X307125D01*
X307750Y214027D01*
X308063Y213714D01*
X308375Y213089D01*
X305250Y245589D02*
X308375Y249339D01*
X305250D02*
X308375Y245589D01*
X308687Y88402D02*
X309625D01*
Y88089D01*
X309313Y87464D01*
X309000Y87152D01*
X308375Y86839D01*
X307750D01*
X307125Y87152D01*
X306813Y87464D01*
X306500Y88089D01*
Y89339D01*
X306813Y89964D01*
X307125Y90277D01*
X307750Y90589D01*
X308375D01*
X309000Y90277D01*
X309313Y89964D01*
X309625Y89339D01*
X315250Y110589D02*
X318375Y114339D01*
X315250D02*
X318375Y110589D01*
X315250Y170589D02*
X318375Y174339D01*
X315250D02*
X318375Y170589D01*
X315250Y185589D02*
X318375Y189339D01*
X315250D02*
X318375Y185589D01*
X315250Y245589D02*
X318375Y249339D01*
X315250D02*
X318375Y245589D01*
X319000Y116839D02*
Y120589D01*
X322125D01*
X321500Y118714D02*
X319000D01*
Y116839D02*
X322125D01*
X327437Y88402D02*
X328375D01*
Y88089D01*
X328063Y87464D01*
X327750Y87152D01*
X327125Y86839D01*
X326500D01*
X325875Y87152D01*
X325563Y87464D01*
X325250Y88089D01*
Y89339D01*
X325563Y89964D01*
X325875Y90277D01*
X326500Y90589D01*
X327125D01*
X327750Y90277D01*
X328063Y89964D01*
X328375Y89339D01*
X325250Y110589D02*
X328375Y114339D01*
X325250D02*
X328375Y110589D01*
X325250Y125589D02*
Y129339D01*
X326813Y127464D01*
X328375Y129339D01*
Y125589D01*
X325250Y170589D02*
X328375Y174339D01*
X325250D02*
X328375Y170589D01*
X325250Y180589D02*
Y184339D01*
X328375D01*
X327750Y182464D02*
X325250D01*
Y180589D02*
X328375D01*
X330250Y120589D02*
Y124339D01*
X331813Y122464D01*
X333375Y124339D01*
Y120589D01*
X330250Y185589D02*
Y189339D01*
Y187464D02*
X331187D01*
X333375Y189339D01*
X331187Y187464D02*
X333375Y185589D01*
X330250Y205589D02*
Y209339D01*
Y207464D02*
X331187D01*
X333375Y209339D01*
X331187Y207464D02*
X333375Y205589D01*
X334000Y125589D02*
Y129339D01*
X335563Y127464D01*
X337125Y129339D01*
Y125589D01*
X335250Y70589D02*
Y74339D01*
X338375D01*
X337750Y72464D02*
X335250D01*
Y70589D02*
X338375D01*
X335250Y110589D02*
X338375Y114339D01*
X335250D02*
X338375Y110589D01*
X335250Y170589D02*
X338375Y174339D01*
X335250D02*
X338375Y170589D01*
X338687Y227152D02*
X339625D01*
Y226839D01*
X339313Y226214D01*
X339000Y225902D01*
X338375Y225589D01*
X337750D01*
X337125Y225902D01*
X336813Y226214D01*
X336500Y226839D01*
Y228089D01*
X336813Y228714D01*
X337125Y229027D01*
X337750Y229339D01*
X338375D01*
X339000Y229027D01*
X339313Y228714D01*
X339625Y228089D01*
X338687Y252152D02*
X339625D01*
Y251839D01*
X339313Y251214D01*
X339000Y250902D01*
X338375Y250589D01*
X337750D01*
X337125Y250902D01*
X336813Y251214D01*
X336500Y251839D01*
Y253089D01*
X336813Y253714D01*
X337125Y254027D01*
X337750Y254339D01*
X338375D01*
X339000Y254027D01*
X339313Y253714D01*
X339625Y253089D01*
X339000Y120589D02*
Y124339D01*
X340563Y122464D01*
X342125Y124339D01*
Y120589D01*
X342437Y63402D02*
X343375D01*
Y63089D01*
X343063Y62464D01*
X342750Y62152D01*
X342125Y61839D01*
X341500D01*
X340875Y62152D01*
X340563Y62464D01*
X340250Y63089D01*
Y64339D01*
X340563Y64964D01*
X340875Y65277D01*
X341500Y65589D01*
X342125D01*
X342750Y65277D01*
X343063Y64964D01*
X343375Y64339D01*
X342437Y97152D02*
X343375D01*
Y96839D01*
X343063Y96214D01*
X342750Y95902D01*
X342125Y95589D01*
X341500D01*
X340875Y95902D01*
X340563Y96214D01*
X340250Y96839D01*
Y98089D01*
X340563Y98714D01*
X340875Y99027D01*
X341500Y99339D01*
X342125D01*
X342750Y99027D01*
X343063Y98714D01*
X343375Y98089D01*
X345250Y110589D02*
X348375Y114339D01*
X345250D02*
X348375Y110589D01*
X347437Y147152D02*
X348375D01*
Y146839D01*
X348063Y146214D01*
X347750Y145902D01*
X347125Y145589D01*
X346500D01*
X345875Y145902D01*
X345563Y146214D01*
X345250Y146839D01*
Y148089D01*
X345563Y148714D01*
X345875Y149027D01*
X346500Y149339D01*
X347125D01*
X347750Y149027D01*
X348063Y148714D01*
X348375Y148089D01*
X345250Y170589D02*
X348375Y174339D01*
X345250D02*
X348375Y170589D01*
X345250Y185589D02*
Y189339D01*
Y187464D02*
X346187D01*
X348375Y189339D01*
X346187Y187464D02*
X348375Y185589D01*
X345250Y205589D02*
Y209339D01*
Y207464D02*
X346187D01*
X348375Y209339D01*
X346187Y207464D02*
X348375Y205589D01*
X355250Y110589D02*
X358375Y114339D01*
X355250D02*
X358375Y110589D01*
X355250Y170589D02*
X358375Y174339D01*
X355250D02*
X358375Y170589D01*
X357036Y78498D02*
X358598Y82248D01*
X360161Y78498D01*
X357661Y80061D02*
X359536D01*
X362036Y78498D02*
Y82248D01*
X365161D01*
X364536Y80374D02*
X362036D01*
X365250Y110589D02*
X368375Y114339D01*
X365250D02*
X368375Y110589D01*
X365250Y170589D02*
X368375Y174339D01*
X365250D02*
X368375Y170589D01*
X377437Y69652D02*
X378375D01*
Y69339D01*
X378063Y68714D01*
X377750Y68402D01*
X377125Y68089D01*
X376500D01*
X375875Y68402D01*
X375563Y68714D01*
X375250Y69339D01*
Y70589D01*
X375563Y71214D01*
X375875Y71527D01*
X376500Y71839D01*
X377125D01*
X377750Y71527D01*
X378063Y71214D01*
X378375Y70589D01*
X377437Y97152D02*
X378375D01*
Y96839D01*
X378063Y96214D01*
X377750Y95902D01*
X377125Y95589D01*
X376500D01*
X375875Y95902D01*
X375563Y96214D01*
X375250Y96839D01*
Y98089D01*
X375563Y98714D01*
X375875Y99027D01*
X376500Y99339D01*
X377125D01*
X377750Y99027D01*
X378063Y98714D01*
X378375Y98089D01*
X375250Y110589D02*
X378375Y114339D01*
X375250D02*
X378375Y110589D01*
X377437Y147152D02*
X378375D01*
Y146839D01*
X378063Y146214D01*
X377750Y145902D01*
X377125Y145589D01*
X376500D01*
X375875Y145902D01*
X375563Y146214D01*
X375250Y146839D01*
Y148089D01*
X375563Y148714D01*
X375875Y149027D01*
X376500Y149339D01*
X377125D01*
X377750Y149027D01*
X378063Y148714D01*
X378375Y148089D01*
X375250Y170589D02*
X378375Y174339D01*
X375250D02*
X378375Y170589D01*
X377437Y187152D02*
X378375D01*
Y186839D01*
X378063Y186214D01*
X377750Y185902D01*
X377125Y185589D01*
X376500D01*
X375875Y185902D01*
X375563Y186214D01*
X375250Y186839D01*
Y188089D01*
X375563Y188714D01*
X375875Y189027D01*
X376500Y189339D01*
X377125D01*
X377750Y189027D01*
X378063Y188714D01*
X378375Y188089D01*
X377437Y227152D02*
X378375D01*
Y226839D01*
X378063Y226214D01*
X377750Y225902D01*
X377125Y225589D01*
X376500D01*
X375875Y225902D01*
X375563Y226214D01*
X375250Y226839D01*
Y228089D01*
X375563Y228714D01*
X375875Y229027D01*
X376500Y229339D01*
X377125D01*
X377750Y229027D01*
X378063Y228714D01*
X378375Y228089D01*
X377437Y252152D02*
X378375D01*
Y251839D01*
X378063Y251214D01*
X377750Y250902D01*
X377125Y250589D01*
X376500D01*
X375875Y250902D01*
X375563Y251214D01*
X375250Y251839D01*
Y253089D01*
X375563Y253714D01*
X375875Y254027D01*
X376500Y254339D01*
X377125D01*
X377750Y254027D01*
X378063Y253714D01*
X378375Y253089D01*
X385250Y110589D02*
X388375Y114339D01*
X385250D02*
X388375Y110589D01*
X385250Y170589D02*
X388375Y174339D01*
X385250D02*
X388375Y170589D01*
X395250Y110589D02*
X398375Y114339D01*
X395250D02*
X398375Y110589D01*
X395250Y170589D02*
X398375Y174339D01*
X395250D02*
X398375Y170589D01*
X410250Y110589D02*
Y114339D01*
Y112464D02*
X411187D01*
X413375Y114339D01*
X411187Y112464D02*
X413375Y110589D01*
X410250Y130589D02*
Y134339D01*
Y132464D02*
X411187D01*
X413375Y134339D01*
X411187Y132464D02*
X413375Y130589D01*
X417437Y69652D02*
X418375D01*
Y69339D01*
X418063Y68714D01*
X417750Y68402D01*
X417125Y68089D01*
X416500D01*
X415875Y68402D01*
X415563Y68714D01*
X415250Y69339D01*
Y70589D01*
X415563Y71214D01*
X415875Y71527D01*
X416500Y71839D01*
X417125D01*
X417750Y71527D01*
X418063Y71214D01*
X418375Y70589D01*
X417437Y97152D02*
X418375D01*
Y96839D01*
X418063Y96214D01*
X417750Y95902D01*
X417125Y95589D01*
X416500D01*
X415875Y95902D01*
X415563Y96214D01*
X415250Y96839D01*
Y98089D01*
X415563Y98714D01*
X415875Y99027D01*
X416500Y99339D01*
X417125D01*
X417750Y99027D01*
X418063Y98714D01*
X418375Y98089D01*
X417437Y147152D02*
X418375D01*
Y146839D01*
X418063Y146214D01*
X417750Y145902D01*
X417125Y145589D01*
X416500D01*
X415875Y145902D01*
X415563Y146214D01*
X415250Y146839D01*
Y148089D01*
X415563Y148714D01*
X415875Y149027D01*
X416500Y149339D01*
X417125D01*
X417750Y149027D01*
X418063Y148714D01*
X418375Y148089D01*
X417437Y187152D02*
X418375D01*
Y186839D01*
X418063Y186214D01*
X417750Y185902D01*
X417125Y185589D01*
X416500D01*
X415875Y185902D01*
X415563Y186214D01*
X415250Y186839D01*
Y188089D01*
X415563Y188714D01*
X415875Y189027D01*
X416500Y189339D01*
X417125D01*
X417750Y189027D01*
X418063Y188714D01*
X418375Y188089D01*
X417437Y227152D02*
X418375D01*
Y226839D01*
X418063Y226214D01*
X417750Y225902D01*
X417125Y225589D01*
X416500D01*
X415875Y225902D01*
X415563Y226214D01*
X415250Y226839D01*
Y228089D01*
X415563Y228714D01*
X415875Y229027D01*
X416500Y229339D01*
X417125D01*
X417750Y229027D01*
X418063Y228714D01*
X418375Y228089D01*
X417437Y252152D02*
X418375D01*
Y251839D01*
X418063Y251214D01*
X417750Y250902D01*
X417125Y250589D01*
X416500D01*
X415875Y250902D01*
X415563Y251214D01*
X415250Y251839D01*
Y253089D01*
X415563Y253714D01*
X415875Y254027D01*
X416500Y254339D01*
X417125D01*
X417750Y254027D01*
X418063Y253714D01*
X418375Y253089D01*
D02*
D89*
X20250Y114652D03*
Y143402D03*
Y172152D03*
Y212152D03*
Y244652D03*
X30250Y127152D03*
Y137152D03*
Y147152D03*
Y157152D03*
Y167152D03*
Y177152D03*
Y187152D03*
Y197152D03*
Y207152D03*
Y217152D03*
Y227152D03*
X40250Y147152D03*
Y167152D03*
Y187152D03*
Y207152D03*
Y227152D03*
X50250Y127152D03*
Y137152D03*
Y147152D03*
Y157152D03*
Y167152D03*
Y177152D03*
Y187152D03*
Y197152D03*
Y207152D03*
Y217152D03*
Y227152D03*
Y244652D03*
X55250Y114652D03*
X60250Y127152D03*
Y137152D03*
Y147152D03*
Y157152D03*
Y167152D03*
Y177152D03*
Y187152D03*
Y197152D03*
Y207152D03*
Y217152D03*
Y227152D03*
X67750Y64652D03*
Y92152D03*
X69000Y167152D03*
X70250Y187152D03*
Y207152D03*
Y227152D03*
X80250Y127152D03*
Y147152D03*
Y167152D03*
Y187152D03*
Y207152D03*
Y227152D03*
X84000Y140902D03*
X90250Y137152D03*
Y147152D03*
Y157152D03*
Y167152D03*
Y177152D03*
Y187152D03*
Y197152D03*
Y207152D03*
Y217152D03*
Y227152D03*
Y244652D03*
X100250Y137152D03*
Y147152D03*
Y157152D03*
Y167152D03*
Y177152D03*
Y187152D03*
Y197152D03*
Y207152D03*
Y217152D03*
Y227152D03*
X107750Y64652D03*
Y92152D03*
X110250Y137152D03*
Y147152D03*
Y157152D03*
Y167152D03*
Y177152D03*
Y187152D03*
Y197152D03*
Y207152D03*
Y217152D03*
Y227152D03*
X120250Y139652D03*
Y147152D03*
Y159652D03*
Y167152D03*
Y177152D03*
Y187152D03*
Y197152D03*
Y207152D03*
Y217152D03*
Y227152D03*
Y239652D03*
X125250Y137152D03*
X125933Y92246D03*
X127750Y139652D03*
Y187152D03*
X130250Y142152D03*
Y207152D03*
Y244652D03*
X132750Y152152D03*
X135250Y154652D03*
X140250Y147152D03*
Y159652D03*
Y167152D03*
Y187152D03*
Y207152D03*
Y227152D03*
Y239652D03*
X147750Y64652D03*
Y74652D03*
X151500Y84652D03*
Y94652D03*
X155250Y64652D03*
Y74652D03*
Y104652D03*
Y164652D03*
Y179652D03*
Y239652D03*
X160250Y110902D03*
Y139652D03*
X161500Y57152D03*
X162750Y97152D03*
X165250Y104652D03*
Y164652D03*
Y179652D03*
Y204652D03*
Y239652D03*
X167750Y64652D03*
Y94652D03*
X170250Y244652D03*
X171500Y57152D03*
X175250Y69652D03*
Y104652D03*
Y164652D03*
Y179652D03*
Y239652D03*
X179000Y92152D03*
X181500Y57152D03*
Y69652D03*
X185250Y104652D03*
Y164652D03*
Y179652D03*
Y239652D03*
X186500Y64652D03*
Y84652D03*
X191500Y64652D03*
X195250Y104652D03*
Y164652D03*
Y179652D03*
Y239652D03*
X200250Y80902D03*
Y97152D03*
Y169652D03*
X205250Y104652D03*
Y164652D03*
Y179652D03*
Y204652D03*
Y239652D03*
X206500Y72152D03*
X210250Y244652D03*
X212750Y64652D03*
X215250Y80902D03*
Y104652D03*
Y139652D03*
Y164652D03*
Y179652D03*
Y239652D03*
X221500Y55902D03*
Y59652D03*
Y229652D03*
X224000Y74652D03*
X225250Y104652D03*
Y164652D03*
Y179652D03*
Y239652D03*
X226485Y88402D03*
X229000Y95902D03*
X231500Y55902D03*
Y70902D03*
Y169652D03*
X235250Y64652D03*
Y104652D03*
Y164652D03*
Y179652D03*
Y239652D03*
X239000Y62152D03*
Y93402D03*
X242750Y80902D03*
X245250Y95902D03*
Y104652D03*
Y139652D03*
Y164652D03*
Y179652D03*
Y239652D03*
X250250Y244652D03*
X251500Y55902D03*
X255250Y104652D03*
Y164652D03*
Y179652D03*
Y204652D03*
Y239652D03*
X256500Y64652D03*
X261500Y55902D03*
Y64652D03*
Y90902D03*
Y188402D03*
X265250Y93402D03*
Y104652D03*
Y164652D03*
Y179652D03*
Y239652D03*
X267750Y80902D03*
X269000Y95902D03*
X270250Y139652D03*
X272750Y64652D03*
X275250Y104652D03*
Y164652D03*
Y179652D03*
Y239652D03*
X281500Y55902D03*
X285250Y80902D03*
Y104652D03*
Y164652D03*
Y179652D03*
Y239652D03*
X290250Y169652D03*
Y244652D03*
X292750Y60902D03*
X295250Y104652D03*
Y164652D03*
Y172152D03*
Y179652D03*
Y204652D03*
Y239652D03*
X296500Y80902D03*
X305250Y104652D03*
Y164652D03*
Y179652D03*
Y239652D03*
X309000Y110902D03*
X315250Y80902D03*
Y104652D03*
Y119652D03*
Y164652D03*
Y174652D03*
X320250Y114652D03*
Y179652D03*
Y199652D03*
X324000Y119652D03*
X325250Y64652D03*
Y104652D03*
Y164652D03*
X326500Y219652D03*
Y244652D03*
X329000Y114652D03*
X330250Y55902D03*
Y89652D03*
X335250Y104652D03*
Y139652D03*
Y164652D03*
Y179652D03*
Y199652D03*
X345250Y104652D03*
Y164652D03*
X347036Y72561D03*
X355250Y104652D03*
Y164652D03*
X365250Y62152D03*
Y89652D03*
Y104652D03*
Y139652D03*
Y164652D03*
Y179652D03*
Y219652D03*
Y244652D03*
X375250Y104652D03*
Y164652D03*
X385250Y104652D03*
Y164652D03*
X400250Y104652D03*
Y124652D03*
X405250Y62152D03*
Y89652D03*
Y139652D03*
Y179652D03*
Y219652D03*
Y244652D03*
X0Y0D02*
M02*
