G05
M48
;#@! TF.GenerationSoftware,DesignSpark,DesignSpark PCB PRO,10.0.5299
;#@! TF.CreationDate,2022-09-09T12:21:14--9:00*
;#@! TF.FileFunction,Plated,1,2,Buried
;FILE_FORMAT=3:5
;TYPE=PLATED
INCH,TZ
FMAT,2
T1C000.01181
T2C000.01600
T3C000.02400
T4C000.02756
T5C000.03150
T6C000.03500
%
T001
X1.25250Y1.37152
X1.27750Y1.39652
X1.27750Y1.87152
X1.30250Y1.42152
X1.32750Y1.52152
X1.35250Y1.54652
X1.60250Y1.10902
X1.62750Y0.97152
X1.67750Y0.64652
X1.67750Y0.94652
X1.75250Y0.69652
X1.79000Y0.92152
X1.86500Y0.64652
X1.91500Y0.64652
X2.00250Y0.97152
X2.00250Y1.69652
X2.06500Y0.72152
X2.12750Y0.64652
X2.21500Y0.59652
X2.21500Y2.29652
X2.24000Y0.74652
X2.26485Y0.88402
X2.29000Y0.95902
X2.31500Y0.70902
X2.31500Y1.69652
X2.35250Y0.64652
X2.39000Y0.62152
X2.39000Y0.93402
X2.45250Y0.95902
X2.56500Y0.64652
X2.61500Y0.64652
X2.61500Y0.90902
X2.61500Y1.88402
X2.65250Y0.93402
X2.69000Y0.95902
X2.72750Y0.64652
X2.90250Y1.69652
X2.92750Y0.60902
X2.95250Y1.72152
X3.09000Y1.10902
X3.15250Y1.74652
X3.25250Y0.64652
X3.80250Y0.84652
T002
X0.20250Y1.14652
X0.20250Y1.43402
X0.20250Y1.72152
X0.20250Y2.12152
X0.20250Y2.28402
X0.40250Y1.47152
X0.40250Y1.67152
X0.40250Y1.87152
X0.40250Y2.07152
X0.40250Y2.27152
X0.55250Y1.14652
X0.60250Y1.37152
X0.60250Y1.57152
X0.60250Y1.77152
X0.60250Y1.97152
X0.60250Y2.17152
X0.67750Y0.64652
X0.67750Y0.92152
X0.69000Y1.67152
X0.70250Y1.87152
X0.70250Y2.07152
X0.70250Y2.27152
X0.84000Y1.40902
X0.90250Y2.44652
X1.00250Y1.37152
X1.00250Y1.47152
X1.00250Y1.57152
X1.00250Y1.67152
X1.00250Y1.77152
X1.00250Y1.87152
X1.00250Y1.97152
X1.00250Y2.07152
X1.00250Y2.17152
X1.00250Y2.27152
X1.07750Y0.64652
X1.07750Y0.92152
X1.20250Y1.39652
X1.20250Y1.59652
X1.20250Y1.77152
X1.20250Y1.97152
X1.20250Y2.17152
X1.30250Y2.07152
X1.30250Y2.44652
X1.40250Y1.59652
X1.47750Y0.64652
X1.47750Y0.74652
X1.51500Y0.84652
X1.51500Y0.94652
X1.55250Y0.64652
X1.55250Y0.74652
X1.60250Y1.39652
X1.61500Y0.57152
X1.65250Y2.04652
X1.70250Y2.44652
X1.71500Y0.57152
X1.81500Y0.57152
X1.81500Y0.69652
X1.86500Y0.84652
X2.00250Y0.80902
X2.05250Y2.04652
X2.10250Y2.44652
X2.15250Y0.80902
X2.15250Y1.39652
X2.21500Y0.55902
X2.31500Y0.55902
X2.42750Y0.80902
X2.45250Y1.39652
X2.50250Y2.44652
X2.51500Y0.55902
X2.55250Y2.04652
X2.61500Y0.55902
X2.67750Y0.80902
X2.70250Y1.39652
X2.81500Y0.55902
X2.85250Y0.80902
X2.90250Y2.44652
X2.95250Y2.04652
X2.96500Y0.80902
X3.15250Y0.80902
X3.26500Y2.19652
X3.26500Y2.44652
X3.30250Y0.55902
X3.30250Y0.89652
X3.35250Y1.39652
X3.65250Y0.62152
X3.65250Y0.89652
X3.65250Y1.39652
X3.65250Y1.79652
X3.65250Y2.19652
X3.65250Y2.44652
X4.05250Y0.62152
X4.05250Y0.89652
X4.05250Y1.39652
X4.05250Y1.79652
X4.05250Y2.44652
T003
X3.15250Y1.19652
X3.20250Y1.14652
X3.24000Y1.19652
X3.29000Y1.14652
T004
X3.94000Y2.18402
X3.94000Y2.28244
X3.94000Y2.38087
X4.06992Y2.18402
X4.06992Y2.28244
X4.06992Y2.38087
T005
X1.55250Y1.04652
X1.55250Y1.64652
X1.55250Y1.79652
X1.55250Y2.39652
X1.65250Y1.04652
X1.65250Y1.64652
X1.65250Y1.79652
X1.65250Y2.39652
X1.75250Y1.04652
X1.75250Y1.64652
X1.75250Y1.79652
X1.75250Y2.39652
X1.85250Y1.04652
X1.85250Y1.64652
X1.85250Y1.79652
X1.85250Y2.39652
X1.95250Y1.04652
X1.95250Y1.64652
X1.95250Y1.79652
X1.95250Y2.39652
X2.05250Y1.04652
X2.05250Y1.64652
X2.05250Y1.79652
X2.05250Y2.39652
X2.15250Y1.04652
X2.15250Y1.64652
X2.15250Y1.79652
X2.15250Y2.39652
X2.25250Y1.04652
X2.25250Y1.64652
X2.25250Y1.79652
X2.25250Y2.39652
X2.35250Y1.04652
X2.35250Y1.64652
X2.35250Y1.79652
X2.35250Y2.39652
X2.45250Y1.04652
X2.45250Y1.64652
X2.45250Y1.79652
X2.45250Y2.39652
X2.55250Y1.04652
X2.55250Y1.64652
X2.55250Y1.79652
X2.55250Y2.39652
X2.65250Y1.04652
X2.65250Y1.64652
X2.65250Y1.79652
X2.65250Y2.39652
X2.75250Y1.04652
X2.75250Y1.64652
X2.75250Y1.79652
X2.75250Y2.39652
X2.85250Y1.04652
X2.85250Y1.64652
X2.85250Y1.79652
X2.85250Y2.39652
X2.95250Y1.04652
X2.95250Y1.64652
X2.95250Y1.79652
X2.95250Y2.39652
X3.05250Y1.04652
X3.05250Y1.64652
X3.05250Y1.79652
X3.05250Y2.39652
X3.15250Y1.04652
X3.15250Y1.64652
X3.25250Y1.04652
X3.25250Y1.64652
X3.35250Y1.04652
X3.35250Y1.64652
X3.45250Y1.04652
X3.45250Y1.64652
X3.55250Y1.04652
X3.55250Y1.64652
X3.65250Y1.04652
X3.65250Y1.64652
X3.75250Y1.04652
X3.75250Y1.64652
X3.85250Y1.04652
X3.85250Y1.64652
T006
X0.30250Y1.27152
X0.30250Y1.37152
X0.30250Y1.47152
X0.30250Y1.57152
X0.30250Y1.67152
X0.30250Y1.77152
X0.30250Y1.87152
X0.30250Y1.97152
X0.30250Y2.07152
X0.30250Y2.17152
X0.30250Y2.27152
X0.50250Y1.27152
X0.50250Y1.37152
X0.50250Y1.47152
X0.50250Y1.57152
X0.50250Y1.67152
X0.50250Y1.77152
X0.50250Y1.87152
X0.50250Y1.97152
X0.50250Y2.07152
X0.50250Y2.17152
X0.50250Y2.27152
X0.60250Y1.27152
X0.60250Y1.47152
X0.60250Y1.67152
X0.60250Y1.87152
X0.60250Y2.07152
X0.60250Y2.27152
X0.80250Y1.27152
X0.80250Y1.47152
X0.80250Y1.67152
X0.80250Y1.87152
X0.80250Y2.07152
X0.80250Y2.27152
X0.90250Y1.37152
X0.90250Y1.47152
X0.90250Y1.57152
X0.90250Y1.67152
X0.90250Y1.77152
X0.90250Y1.87152
X0.90250Y1.97152
X0.90250Y2.07152
X0.90250Y2.17152
X0.90250Y2.27152
X1.10250Y1.37152
X1.10250Y1.47152
X1.10250Y1.57152
X1.10250Y1.67152
X1.10250Y1.77152
X1.10250Y1.87152
X1.10250Y1.97152
X1.10250Y2.07152
X1.10250Y2.17152
X1.10250Y2.27152
X1.20250Y1.47152
X1.20250Y1.67152
X1.20250Y1.87152
X1.20250Y2.07152
X1.20250Y2.27152
X1.20250Y2.39652
X1.40250Y1.47152
X1.40250Y1.67152
X1.40250Y1.87152
X1.40250Y2.07152
X1.40250Y2.27152
X1.40250Y2.39652
X3.20250Y1.79652
X3.20250Y1.99652
X3.35250Y1.79652
X3.35250Y1.99652
X4.00250Y1.04652
X4.00250Y1.24652
M30
